<?xml version="1.0" encoding="UTF-8" standalone="no"?>
<!-- Created with Inkscape (http://www.inkscape.org/) -->

<svg
   xmlns:dc="http://purl.org/dc/elements/1.1/"
   xmlns:cc="http://creativecommons.org/ns#"
   xmlns:rdf="http://www.w3.org/1999/02/22-rdf-syntax-ns#"
   xmlns:svg="http://www.w3.org/2000/svg"
   xmlns="http://www.w3.org/2000/svg"
   xmlns:sodipodi="http://sodipodi.sourceforge.net/DTD/sodipodi-0.dtd"
   xmlns:inkscape="http://www.inkscape.org/namespaces/inkscape"
   width="10cm"
   height="10cm"
   viewBox="0 0 100 100"
   version="1.1"
   id="svg8"
   inkscape:version="0.92.4 (5da689c313, 2019-01-14)"
   sodipodi:docname="baumInk.svg">
  <defs
     id="defs2" />
  <sodipodi:namedview
     id="base"
     pagecolor="#ffffff"
     bordercolor="#666666"
     borderopacity="1.0"
     inkscape:pageopacity="0.0"
     inkscape:pageshadow="2"
     inkscape:zoom="0.7"
     inkscape:cx="-68.411843"
     inkscape:cy="202.07814"
     inkscape:document-units="mm"
     inkscape:current-layer="layer1"
     showgrid="false"
     units="cm"
     inkscape:pagecheckerboard="true"
     inkscape:window-width="1280"
     inkscape:window-height="656"
     inkscape:window-x="0"
     inkscape:window-y="36"
     inkscape:window-maximized="1" />
  <metadata
     id="metadata5">
    <rdf:RDF>
      <cc:Work
         rdf:about="">
        <dc:format>image/svg+xml</dc:format>
        <dc:type
           rdf:resource="http://purl.org/dc/dcmitype/StillImage" />
        <dc:title></dc:title>
      </cc:Work>
    </rdf:RDF>
  </metadata>
  <g
     inkscape:label="Ebene 1"
     inkscape:groupmode="layer"
     id="layer1"
     transform="translate(0,-197)">
    <path
       style="opacity:1;fill:#000000;fill-opacity:1;stroke:none;stroke-width:10;stroke-linejoin:round;stroke-miterlimit:4;stroke-dasharray:none;stroke-opacity:1;paint-order:normal"
       d="M -247.80273 31.9375 C -248.08646 31.991617 -248.36857 32.061135 -248.63672 32.169922 C -248.87548 32.281478 -249.09315 32.434919 -249.28575 32.614269 C -249.44583 32.736184 -249.54205 32.932656 -249.54883 33.132812 C -249.53444 33.399643 -249.43177 33.652772 -249.39817 33.917119 C -249.35133 34.312646 -249.37003 34.712041 -249.40496 35.107719 C -249.45283 35.744986 -249.51765 36.381114 -249.54883 37.019531 C -249.56359 37.550471 -249.52121 38.080752 -249.47656 38.609375 C -249.45456 38.88142 -249.44642 39.156227 -249.49394 39.426199 C -249.53809 39.697758 -249.61884 39.961449 -249.67968 40.229464 C -249.72852 40.470716 -249.81099 40.713289 -249.78838 40.962212 C -249.76838 41.234921 -249.6038 41.492476 -249.36252 41.622027 C -249.12231 41.750904 -248.8517 41.809715 -248.5918 41.886719 C -247.9871 42.046029 -247.38217 42.204473 -246.77734 42.363281 C -246.4931 42.42904 -246.20142 42.451513 -245.91072 42.466038 C -245.62175 42.487698 -245.34303 42.384373 -245.09158 42.251448 C -244.43771 41.913693 -243.7904 41.563068 -243.13086 41.236328 C -242.80479 41.079413 -242.47451 40.931736 -242.14255 40.787775 C -241.79654 40.633045 -241.44483 40.490337 -241.10386 40.324787 C -240.8556 40.201746 -240.63665 39.957131 -240.64453 39.666016 C -240.64832 39.385042 -240.87352 39.147598 -241.14477 39.098419 C -241.42883 39.040818 -241.7209 39.060852 -242.00891 39.04643 C -242.48479 39.030818 -242.96108 39.031188 -243.43696 39.018751 C -243.65845 39.008738 -243.88102 38.908752 -244.01382 38.727075 C -244.14657 38.53034 -244.17342 38.285905 -244.20012 38.055876 C -244.23992 37.687833 -244.24968 37.317234 -244.25 36.947266 C -244.24997 36.675041 -244.20538 36.405811 -244.13875 36.142455 C -244.06265 35.87913 -244.02735 35.599978 -243.9082 35.351562 C -243.76856 35.165823 -243.52201 35.113147 -243.31973 35.019971 C -243.04811 34.935748 -242.75866 34.931599 -242.47672 34.911617 C -242.14281 34.904063 -241.81018 34.943729 -241.47668 34.954706 C -241.19829 34.975396 -240.87605 34.993918 -240.66502 34.774393 C -240.46051 34.603432 -240.50517 34.283438 -240.68555 34.113281 C -240.8984 33.919584 -241.17735 33.819023 -241.43044 33.688303 C -242.19531 33.32532 -242.96166 32.965327 -243.73003 32.609905 C -244.07737 32.456659 -244.44103 32.34468 -244.80402 32.235376 C -245.12532 32.142652 -245.45446 32.078732 -245.78658 32.040231 C -246.37925 31.957294 -246.97873 31.945739 -247.57617 31.933594 C -247.65169 31.934896 -247.72721 31.936198 -247.80273 31.9375 z "
       id="path250"
       transform="rotate(-92.451932)" />
    <path
       transform="rotate(-75.332361)"
       style="opacity:0.95;fill:#f2f2f2;fill-opacity:1;stroke:none;stroke-width:10;stroke-linejoin:round;stroke-miterlimit:4;stroke-dasharray:none;stroke-opacity:1;paint-order:normal"
       d="M -247.64258 94.742188 C -247.82305 94.812095 -247.96356 94.952942 -248.10515 95.08044 C -248.28311 95.234874 -248.38317 95.460518 -248.41872 95.690181 C -248.47116 95.931816 -248.48332 96.179237 -248.47461 96.425781 C -248.47187 96.688961 -248.42776 96.947996 -248.375 97.205078 C -248.32535 97.479159 -248.24033 97.744539 -248.15943 98.010508 C -248.06342 98.337841 -247.95481 98.661251 -247.85156 98.986328 C -247.51307 99.991668 -247.16976 100.99537 -246.82212 101.99759 C -246.44196 103.098 -246.0618 104.19841 -245.68164 105.29883 C -245.59289 105.57772 -245.50764 105.85768 -245.42578 106.13867 C -245.36862 106.40444 -245.3529 106.67818 -245.3724 106.94912 C -245.39897 107.25331 -245.43138 107.55699 -245.46724 107.86025 C -245.50415 108.09982 -245.44493 108.39369 -245.21185 108.51413 C -245.02462 108.6256 -244.79644 108.61454 -244.58709 108.59871 C -244.30381 108.5766 -244.02116 108.54552 -243.73947 108.50817 C -243.50488 108.47769 -243.25857 108.45523 -243.05194 108.32921 C -242.8623 108.22366 -242.74866 108.01972 -242.70371 107.81275 C -242.65312 107.56978 -242.6787 107.31975 -242.67123 107.07354 C -242.67079 106.84655 -242.67036 106.61956 -242.66992 106.39258 C -242.50116 106.37019 -242.33484 106.51351 -242.33008 106.68359 C -242.22656 107.42253 -242.12305 108.16146 -242.01953 108.90039 C -242.01044 109.15641 -242.06685 109.42653 -242.23578 109.62622 C -242.41668 109.82584 -242.68863 109.89645 -242.94215 109.95234 C -243.21509 110.01503 -243.49293 110.05192 -243.76959 110.09376 C -245.7663 110.37905 -247.76302 110.66423 -249.75977 110.94922 C -250.06041 110.99486 -250.36054 111.04369 -250.66016 111.0957 C -250.94653 111.15618 -251.23328 111.21569 -251.51738 111.28611 C -252.02185 111.42315 -252.52683 111.55832 -253.02936 111.70235 C -253.62833 111.8711 -254.22723 112.0401 -254.82617 112.20898 C -255.2686 112.32329 -255.71262 112.43134 -256.15838 112.53188 C -256.86435 112.69435 -257.57038 112.85655 -258.2776 113.01347 C -259.64866 113.3209 -261.02096 113.6228 -262.39258 113.92773 C -262.9106 114.03874 -263.42883 114.14877 -263.94727 114.25781 C -264.24129 114.30736 -264.53585 114.35348 -264.83114 114.39489 C -265.30215 114.46435 -265.77314 114.53399 -266.24414 114.60352 C -266.35113 114.78981 -266.26407 115.02167 -266.12109 115.16211 C -265.95914 115.32992 -265.78538 115.51039 -265.73438 115.74609 C -265.76889 115.99523 -265.97848 116.21769 -265.89854 116.47991 C -265.87871 116.57187 -265.82678 116.65398 -265.76172 116.7207 C -265.49388 116.80521 -265.23741 116.65147 -264.98747 116.57605 C -264.72767 116.48523 -264.46666 116.39801 -264.20508 116.3125 C -263.93829 116.24207 -263.66665 116.18927 -263.39172 116.16398 C -263.11196 116.13849 -262.83176 116.11872 -262.55102 116.10797 C -262.26007 116.10362 -261.96885 116.1132 -261.67779 116.11399 C -260.97691 116.12057 -260.27603 116.12985 -259.57514 116.13477 C -259.27128 116.13517 -258.96722 116.13441 -258.66366 116.11999 C -258.38118 116.10938 -258.09937 116.08695 -257.81767 116.0641 C -257.4494 116.03357 -257.08124 116.00121 -256.7137 115.96296 C -256.43796 115.93203 -256.16311 115.89436 -255.88867 115.85352 C -255.59966 115.80269 -255.31125 115.74866 -255.02344 115.69141 C -254.64742 115.60436 -254.27184 115.51546 -253.89752 115.42135 C -253.41895 115.30111 -252.94157 115.17616 -252.46207 115.05961 C -252.1734 114.98914 -251.88554 114.91428 -251.59399 114.85657 C -251.33625 114.80431 -251.0745 114.77274 -250.81156 114.76541 C -250.52919 114.74679 -250.24622 114.75048 -249.96393 114.76846 C -249.14322 114.80982 -248.3227 114.85518 -247.50214 114.89948 C -246.78724 114.9395 -246.07233 114.97952 -245.35742 115.01953 C -244.81185 115.03646 -244.26628 115.05339 -243.7207 115.07031 C -243.4304 115.07189 -243.14014 115.06929 -242.84992 115.06251 C -242.27637 115.0301 -241.70299 114.99414 -241.13015 114.95111 C -240.63297 114.91299 -240.13715 114.85964 -239.64071 114.81332 C -238.8787 114.7405 -238.11725 114.66188 -237.35569 114.58445 C -237.05399 114.55421 -236.75297 114.51687 -236.45321 114.47126 C -235.96133 114.39898 -235.47231 114.30899 -234.98242 114.22461 C -234.6966 114.16899 -234.41159 114.10946 -234.12743 114.04588 C -233.90718 113.98409 -233.6728 113.95037 -233.47644 113.82526 C -233.28501 113.70569 -233.18552 113.47667 -233.18105 113.25639 C -233.18533 112.96453 -233.22984 112.67499 -233.2658 112.3857 C -233.31333 112.01943 -233.36213 111.65332 -233.41016 111.28711 C -233.4363 111.02817 -233.43763 110.767 -233.41406 110.50781 C -233.37878 110.22016 -233.3528 109.93087 -233.29538 109.64647 C -233.24096 109.37289 -233.18643 109.09916 -233.12296 108.82752 C -232.94524 108.07189 -232.76584 107.31667 -232.58203 106.5625 C -232.51027 106.25857 -232.44197 105.95388 -232.37695 105.64844 C -232.34198 105.40406 -232.26385 105.14797 -232.34375 104.9043 C -232.43499 104.63716 -232.62574 104.41894 -232.8171 104.21741 C -233.0166 104.01676 -233.24409 103.84457 -233.49023 103.70508 C -233.74545 103.56635 -234.00355 103.43322 -234.26455 103.30573 C -234.63601 103.12049 -235.00746 102.93524 -235.37891 102.75 C -235.63542 102.60872 -235.89193 102.46745 -236.14844 102.32617 C -236.38093 102.1864 -236.59398 102.01805 -236.81055 101.85547 C -238.21546 100.73203 -239.61967 99.607713 -241.02502 98.484826 C -241.41447 98.176082 -241.80391 97.867338 -242.19336 97.558594 C -242.74935 97.139974 -243.30534 96.721354 -243.86133 96.302734 C -244.10417 96.136719 -244.34701 95.970703 -244.58984 95.804688 C -244.84049 95.657552 -245.09115 95.510417 -245.3418 95.363281 C -245.57554 95.24059 -245.82186 95.145259 -246.06641 95.046875 C -246.30929 94.951831 -246.56047 94.878188 -246.81573 94.82481 C -247.07207 94.770455 -247.33409 94.755424 -247.59438 94.731112 L -247.60156 94.730469 L -247.64258 94.742188 z "
       id="path9" />
    <path
       style="opacity:1;fill:#ffb380;fill-opacity:1;stroke:none;stroke-width:10;stroke-linejoin:round;stroke-miterlimit:4;stroke-dasharray:none;stroke-opacity:1;paint-order:normal"
       d="M 44.234375 261.52734 C 43.981575 261.56352 43.714365 261.59403 43.498047 261.74219 C 43.306054 261.91965 43.192276 262.17938 43.206586 262.44191 C 43.199041 262.70278 43.241317 262.96241 43.232848 263.22322 C 43.219964 263.51185 43.126237 263.78831 43.040947 264.062 C 42.959749 264.31735 42.90509 264.58258 42.90551 264.85148 C 42.900702 265.12863 42.922487 265.40541 42.94008 265.68184 C 43.007153 266.60571 43.071656 267.52981 43.125347 268.45456 C 43.137151 268.75904 43.162188 269.06284 43.186867 269.36644 C 43.194916 269.56065 43.332674 269.77051 43.544922 269.76562 C 43.795695 269.77116 43.95329 269.52491 44.038884 269.3201 C 44.142109 269.05976 44.1851 268.7806 44.247406 268.50864 C 44.307785 268.21628 44.360769 267.92244 44.409538 267.62795 C 44.458494 267.34091 44.49246 267.05212 44.511001 266.76153 C 44.541094 266.48702 44.539551 266.20838 44.587074 265.93634 C 44.643428 265.6597 44.689039 265.37859 44.784953 265.11219 C 44.888514 264.81828 45.012402 264.53221 45.130859 264.24414 C 45.197339 264.00111 45.235084 263.74717 45.204438 263.49543 C 45.159906 263.18355 45.103693 262.87335 45.036728 262.56546 C 44.981126 262.29828 44.92626 262.03094 44.871094 261.76367 C 44.982422 261.88737 45.09375 262.01107 45.205078 262.13477 C 45.154694 262.00212 45.127193 261.85175 45.025391 261.74609 C 45.050197 261.79047 44.954043 261.80991 44.955078 261.76172 C 44.73983 261.62799 44.496252 261.50104 44.234375 261.52734 z "
       id="path10" />
    <path
       style="opacity:1;fill:#ffb380;fill-opacity:1;stroke:none;stroke-width:10;stroke-linejoin:round;stroke-miterlimit:4;stroke-dasharray:none;stroke-opacity:1;paint-order:normal"
       d="M 48.195312 247.26953 C 47.915161 247.29388 47.639993 247.35996 47.359302 247.38338 C 46.794758 247.45401 46.228492 247.36994 45.663946 247.34566 C 45.155717 247.31223 44.638805 247.33188 44.143041 247.45502 C 43.806537 247.54256 43.478475 247.7266 43.292084 248.02889 C 43.030339 248.41948 42.930735 248.88863 42.828525 249.34019 C 42.721079 249.86924 42.584164 250.39219 42.48515 250.92285 C 42.433332 251.17403 42.439045 251.45011 42.581526 251.67233 C 42.720511 251.94781 43.032263 252.0342 43.289981 252.15944 C 43.914882 252.43146 44.554692 252.66747 45.185494 252.92532 C 46.156596 253.31585 47.131296 253.6973 48.105469 254.08008 C 48.66847 254.24248 49.240706 254.3703 49.814453 254.48828 C 50.152957 254.54338 50.514948 254.46155 50.787109 254.25 C 50.985356 254.05662 51.041923 253.77411 51.095703 253.51367 C 51.221354 252.26302 51.347005 251.01237 51.472656 249.76172 C 51.554277 249.29938 51.657148 248.84127 51.757812 248.38281 C 51.755292 248.13564 51.539326 247.9452 51.3125 247.88867 C 50.51652 247.72738 49.716779 247.58084 48.931641 247.37109 C 48.690853 247.31282 48.444748 247.25684 48.195312 247.26953 z "
       id="path11" />
    <path
       style="opacity:1;fill:#ffb380;fill-opacity:1;stroke:none;stroke-width:10;stroke-linejoin:round;stroke-miterlimit:4;stroke-dasharray:none;stroke-opacity:1;paint-order:normal"
       d="M 46.474609 220.34766 C 46.238079 220.47788 46.233941 220.7793 46.210938 221.01562 C 46.191123 221.32053 46.222548 221.62501 46.232468 221.92964 C 46.238434 222.18102 46.230479 222.43798 46.149938 222.67859 C 46.057476 222.9027 46.052258 223.14853 46.033203 223.38672 C 45.992908 223.67876 45.76451 223.88924 45.595483 224.11415 C 45.347334 224.42096 45.075594 224.70756 44.813162 225.002 C 44.432402 225.4222 44.050948 225.84176 43.669922 226.26172 C 43.170573 226.77995 42.671224 227.29818 42.171875 227.81641 C 41.980508 228.03366 41.780056 228.24415 41.613518 228.48176 C 41.452033 228.70954 41.317985 228.95726 41.220659 229.21915 C 41.116976 229.48355 41.015211 229.74989 40.945288 230.02549 C 40.873474 230.31462 40.809831 230.60579 40.75689 230.89899 C 40.691812 231.2225 40.660651 231.55124 40.625 231.87891 C 40.603115 232.17831 40.578364 232.47755 40.568717 232.77768 C 40.551696 233.10755 40.551143 233.43805 40.557351 233.76823 C 40.563535 234.16652 40.578506 234.56485 40.613268 234.96175 C 40.652122 235.45034 40.705719 235.93765 40.757919 236.42495 C 40.808556 236.86618 40.883577 237.30409 40.958456 237.74171 C 41.008591 238.02991 41.06069 238.31774 41.125311 238.60311 C 41.199824 238.96093 41.282475 239.31692 41.367777 239.6723 C 41.546576 240.43738 41.731276 241.20106 41.917275 241.96442 C 41.977827 242.24785 42.067541 242.52397 42.17424 242.79322 C 42.243968 242.96459 42.330887 243.16133 42.523971 243.21965 C 42.718781 243.30119 42.945679 243.21782 43.068359 243.05273 C 43.226403 242.85468 43.31545 242.6126 43.428534 242.38803 C 43.759153 241.68475 44.081485 240.97762 44.410156 240.27344 C 44.51206 240.03201 44.632882 239.78157 44.611034 239.51223 C 44.595574 239.24012 44.457393 238.99654 44.337612 238.75822 C 44.177496 238.45497 44.018723 238.14942 43.823244 237.86704 C 43.6686 237.64427 43.49065 237.43764 43.348794 237.2062 C 43.211203 236.98545 43.120917 236.73982 43.044922 236.49219 C 42.962359 236.21634 42.922537 235.93056 42.87922 235.6466 C 42.716461 234.55579 42.559075 233.46418 42.398438 232.37305 C 42.36623 232.09835 42.350888 231.82144 42.361328 231.54492 C 42.381591 231.28147 42.43757 231.02114 42.531643 230.77407 C 42.628295 230.52894 42.767723 230.30469 42.8991 230.07733 C 43.5248 229.04807 44.151326 228.0193 44.777344 226.99023 C 44.997473 226.66137 45.241901 226.34984 45.481013 226.03477 C 45.682466 225.7721 45.887616 225.51218 46.086829 225.24784 C 46.277287 224.98293 46.467745 224.71803 46.658203 224.45312 C 46.817953 224.19376 46.825859 223.88174 46.889902 223.59211 C 46.950125 223.28678 47.019466 222.98249 47.049602 222.67223 C 47.0877 222.40234 47.100956 222.12896 47.076791 221.85714 C 47.063623 221.61845 47.001676 221.38453 46.988281 221.14648 C 46.987592 221.06713 47.069242 221.02412 47.09375 220.95898 C 46.891752 220.87505 46.780267 220.6666 46.648438 220.50195 C 46.597982 220.45339 46.565091 220.36951 46.496094 220.3457 L 46.474609 220.34766 z "
       id="path14"
       inkscape:connector-curvature="0" />
    <path
       style="opacity:1;fill:#ffb380;fill-opacity:1;stroke:none;stroke-width:10;stroke-linejoin:round;stroke-miterlimit:4;stroke-dasharray:none;stroke-opacity:1;paint-order:normal"
       d="M 46.943359 220.41797 C 46.921562 220.44079 46.954181 220.48441 46.916016 220.49609 C 46.80591 220.73037 46.712304 220.97265 46.644531 221.22266 C 46.624784 221.48205 46.622326 221.74323 46.652344 222.00195 C 46.694666 222.26001 46.72843 222.52055 46.804688 222.77148 C 46.894062 223.04772 46.987789 223.32246 47.085938 223.5957 C 47.186028 223.84689 47.277564 224.10232 47.404297 224.3418 C 47.538305 224.59918 47.676331 224.85438 47.818359 225.10742 C 47.975911 225.35482 48.133464 225.60221 48.291016 225.84961 C 49.007812 226.88216 49.724609 227.91471 50.441406 228.94727 C 50.603516 229.18945 50.765625 229.43164 50.927734 229.67383 C 51.04671 229.92171 51.176282 230.16605 51.257812 230.42969 C 51.33138 230.58398 51.404948 230.73828 51.478516 230.89258 C 51.520182 230.94336 51.561849 230.99414 51.603516 231.04492 C 51.586589 231.5931 51.569661 232.14128 51.552734 232.68945 C 51.57554 233.07894 51.592903 233.46876 51.621529 233.85788 C 51.64123 234.16283 51.66742 234.46741 51.679257 234.77282 C 51.689995 235.03647 51.709247 235.30224 51.669922 235.56445 C 51.631563 235.82258 51.58861 236.08319 51.491791 236.32681 C 51.398572 236.58152 51.279013 236.82508 51.152613 237.0647 C 50.884945 237.5874 50.617277 238.11011 50.349609 238.63281 C 50.22887 238.88584 50.101637 239.13644 50.005859 239.40039 C 49.9246 239.64635 49.856995 239.89701 49.8125 240.15234 C 49.782886 240.4109 49.779114 240.67237 49.810311 240.93097 C 49.852637 241.18813 49.919005 241.44277 50.028023 241.68018 C 50.138854 241.94435 50.286748 242.19216 50.461675 242.41877 C 50.638284 242.64741 50.840474 242.85517 51.048935 243.05462 C 51.197746 243.19 51.365146 243.3027 51.525391 243.42383 C 51.770638 243.49808 52.030025 243.50426 52.284176 243.49465 C 52.470298 243.48915 52.67715 243.47649 52.826172 243.35156 C 53.02708 243.14182 53.08216 242.84613 53.181681 242.58315 C 53.273799 242.30939 53.370209 242.03713 53.46875 241.76562 C 53.570725 241.51349 53.698668 241.27321 53.818359 241.0293 C 53.943946 240.77264 54.079353 240.52068 54.195551 240.25953 C 54.297608 240.02063 54.378256 239.7706 54.416433 239.51312 C 54.459667 239.23478 54.463426 238.95236 54.480608 238.67166 C 54.513493 238.03968 54.543988 237.40759 54.572266 236.77539 C 54.582901 236.43944 54.594658 236.10353 54.599119 235.76742 C 54.610358 235.49253 54.599402 235.21716 54.562309 234.94447 C 54.526864 234.61926 54.480709 234.29534 54.440204 233.97074 C 54.401264 233.68102 54.372811 233.38968 54.313396 233.10313 C 54.211535 232.54206 54.109674 231.98099 54.007812 231.41992 C 53.947266 231.13411 53.886719 230.84831 53.826172 230.5625 C 53.758957 230.30516 53.700848 230.0444 53.601562 229.79688 C 53.491302 229.56316 53.360527 229.33962 53.216797 229.125 C 53.033854 228.89844 52.850911 228.67187 52.667969 228.44531 C 51.370443 226.96484 50.072917 225.48438 48.775391 224.00391 C 48.587306 223.7842 48.398012 223.5652 48.226562 223.33203 C 48.08257 223.11569 47.955487 222.88739 47.857422 222.64648 C 47.765475 222.38669 47.701786 222.11846 47.634911 221.85147 C 47.57106 221.59239 47.50721 221.3333 47.443359 221.07422 C 47.335498 220.86626 47.206036 220.67028 47.066406 220.48242 C 47.026083 220.46255 47.006881 220.40787 46.955078 220.41016 L 46.943359 220.41797 z "
       id="path19" />
    <path
       style="opacity:1;fill:#ffb380;fill-opacity:1;stroke:none;stroke-width:10;stroke-linejoin:round;stroke-miterlimit:4;stroke-dasharray:none;stroke-opacity:1;paint-order:normal"
       d="M 45.742188 235.60742 C 45.518446 235.62117 45.333201 235.79293 45.263672 236 C 45.198196 236.25827 45.239379 236.52882 45.254704 236.79105 C 45.278536 237.0899 45.316533 237.38918 45.299803 237.6895 C 45.292198 238.04123 45.259272 238.39182 45.239855 238.74302 C 45.217026 239.10966 45.190143 239.47628 45.175781 239.84329 C 45.172372 240.14273 45.179551 240.44238 45.20386 240.74089 C 45.227022 241.03144 45.26638 241.32028 45.302734 241.60938 C 45.356177 241.8906 45.40964 242.21284 45.655609 242.39462 C 45.870613 242.56219 46.150793 242.5892 46.410156 242.63477 C 46.682854 242.66801 46.958183 242.66743 47.231834 242.64688 C 47.550731 242.62504 47.868401 242.58577 48.184312 242.53772 C 48.444366 242.49212 48.713443 242.44609 48.947317 242.3182 C 49.138636 242.20408 49.256072 241.99786 49.316592 241.78873 C 49.410083 241.4601 49.495375 241.12895 49.596165 240.80249 C 49.670897 240.53799 49.800821 240.2937 49.947266 240.0625 C 50.081338 239.84069 50.288426 239.65918 50.365234 239.40625 C 50.410954 239.24983 50.313214 239.10402 50.182412 239.02786 C 49.974564 238.89344 49.716924 238.84302 49.537461 238.66279 C 49.321312 238.48736 49.140813 238.27018 48.996079 238.03291 C 48.887982 237.82565 48.867682 237.58694 48.86848 237.35687 C 48.858731 237.02684 48.890529 236.69723 48.880859 236.36719 C 48.875278 236.10207 48.714242 235.84182 48.455176 235.75917 C 48.202693 235.65898 47.928632 235.72571 47.677734 235.79492 C 47.429855 235.85685 47.174265 235.95338 46.916108 235.89154 C 46.681233 235.84399 46.461978 235.74292 46.231641 235.67898 C 46.074464 235.62836 45.9081 235.59281 45.742188 235.60742 z "
       id="path22" />
    <circle
       style="opacity:1;fill:#ffb380;fill-opacity:1;stroke:none;stroke-width:13.82884884;stroke-linejoin:round;stroke-miterlimit:4;stroke-dasharray:none;stroke-opacity:1;paint-order:normal"
       id="path15"
       cx="47.067757"
       cy="232.81027"
       r="3.0351043" />
    <path
       style="opacity:1;fill:#28170b;fill-opacity:1;stroke:none;stroke-width:10;stroke-linejoin:round;stroke-miterlimit:4;stroke-dasharray:none;stroke-opacity:1;paint-order:normal"
       d="M 47.337891 228.94922 C 46.998843 229.01552 46.687745 229.17646 46.391217 229.34864 C 46.010253 229.56446 45.632942 229.78667 45.253906 230.00586 C 44.925202 230.25818 44.639956 230.58504 44.500798 230.98043 C 44.405267 231.23659 44.357764 231.5089 44.329274 231.77994 C 44.27792 232.32547 44.219229 232.8705 44.178097 233.41689 C 44.161715 233.70081 44.149833 233.99227 44.234375 234.26758 C 44.320524 234.59292 44.41165 234.91755 44.466797 235.25 C 44.410807 235.1556 44.354818 235.0612 44.298828 234.9668 C 44.34423 235.18013 44.498151 235.37535 44.710938 235.43945 C 44.847485 235.21233 44.898111 234.92581 44.810547 234.67188 C 44.749349 234.55013 44.688151 234.42839 44.626953 234.30664 C 44.757973 234.06084 44.944613 233.82818 44.968759 233.54096 C 44.973762 233.24521 44.894287 232.95618 44.873047 232.66211 C 44.844315 232.39548 44.79395 232.11608 44.882812 231.85547 C 44.978824 231.57821 45.211286 231.38483 45.40993 231.18129 C 45.624361 230.96243 45.872973 230.78164 46.132069 230.61956 C 46.394173 230.44664 46.659671 230.27844 46.929216 230.11753 C 47.123344 230.01161 47.361707 229.96397 47.576172 230.0332 C 47.905085 230.15691 48.130517 230.44005 48.373047 230.67969 C 48.682774 231.02019 48.993951 231.3599 49.287109 231.71484 C 49.511846 232.013 49.651197 232.36331 49.770477 232.71427 C 49.86034 232.94078 49.899839 233.18454 49.888431 233.42784 C 49.87377 233.79386 49.840491 234.15981 49.78125 234.52148 C 49.781376 234.66669 49.713961 234.86944 49.837891 234.97656 C 50.065692 234.99063 50.143696 234.70955 50.189259 234.5311 C 50.262154 234.22286 50.305852 233.90834 50.347406 233.59454 C 50.399529 233.21113 50.427358 232.82212 50.386324 232.4362 C 50.356765 232.06687 50.294426 231.69933 50.194302 231.34259 C 50.104436 231.02346 49.94921 230.71644 49.710715 230.48259 C 49.342635 230.10509 48.915489 229.79267 48.494376 229.47783 C 48.22384 229.27562 47.949262 229.0569 47.615234 228.97266 C 47.524171 228.95598 47.430662 228.93924 47.337891 228.94922 z "
       id="path825" />
    <path
       style="opacity:0.9;fill:#ffb380;fill-opacity:1;stroke:none;stroke-width:10;stroke-linejoin:round;stroke-miterlimit:4;stroke-dasharray:none;stroke-opacity:1;paint-order:normal"
       d="M 44.472656 286.38086 C 44.193968 286.40037 43.919388 286.48506 43.638672 286.46289 C 43.545938 286.4519 43.454157 286.43553 43.363281 286.41406 C 43.24379 286.67003 43.13792 286.95633 43.202491 287.24205 C 43.240647 287.49395 43.307001 287.74159 43.400244 287.97871 C 43.508235 288.25354 43.810611 288.41129 44.097656 288.4043 C 44.50469 288.40136 44.909988 288.35694 45.315821 288.32949 C 45.617176 288.29885 45.919849 288.27789 46.21977 288.23501 C 46.334263 288.22072 46.447004 288.19583 46.560547 288.17578 C 46.65625 287.97331 46.751953 287.77083 46.847656 287.56836 C 46.590922 287.41107 46.280026 287.42094 45.996846 287.35067 C 45.746294 287.27733 45.615029 287.02474 45.548995 286.79057 C 45.511692 286.67247 45.478239 286.55319 45.439453 286.43555 C 45.182328 286.3939 44.923445 286.35385 44.662109 286.36133 C 44.598958 286.36784 44.535807 286.37435 44.472656 286.38086 z "
       id="path828" />
  </g>
</svg>
