<?xml version="1.0" encoding="UTF-8" standalone="no"?>
<!-- Created with Inkscape (http://www.inkscape.org/) -->

<svg
   xmlns:dc="http://purl.org/dc/elements/1.1/"
   xmlns:cc="http://creativecommons.org/ns#"
   xmlns:rdf="http://www.w3.org/1999/02/22-rdf-syntax-ns#"
   xmlns:svg="http://www.w3.org/2000/svg"
   xmlns="http://www.w3.org/2000/svg"
   xmlns:sodipodi="http://sodipodi.sourceforge.net/DTD/sodipodi-0.dtd"
   xmlns:inkscape="http://www.inkscape.org/namespaces/inkscape"
   width="55mm"
   height="50mm"
   version="1.1"
   viewBox="0 0 55 50"
   id="svg20"
   sodipodi:docname="calendar.svg"
   inkscape:version="0.92.4 (5da689c313, 2019-01-14)">
  <defs
     id="defs24" />
  <sodipodi:namedview
     pagecolor="#ffffff"
     bordercolor="#666666"
     borderopacity="1"
     objecttolerance="10"
     gridtolerance="10"
     guidetolerance="10"
     inkscape:pageopacity="0"
     inkscape:pageshadow="2"
     inkscape:window-width="1280"
     inkscape:window-height="656"
     id="namedview22"
     showgrid="false"
     inkscape:zoom="1.7661171"
     inkscape:cx="248.28558"
     inkscape:cy="89.573365"
     inkscape:window-x="0"
     inkscape:window-y="36"
     inkscape:window-maximized="1"
     inkscape:current-layer="svg20" />
  <metadata
     id="metadata2">
    <rdf:RDF>
      <cc:Work
         rdf:about="">
        <dc:format>image/svg+xml</dc:format>
        <dc:type
           rdf:resource="http://purl.org/dc/dcmitype/StillImage" />
        <dc:title></dc:title>
      </cc:Work>
    </rdf:RDF>
  </metadata>
  <path
     style="opacity:0.58899997;fill:#d0d194;fill-opacity:1;fill-rule:nonzero;stroke:#000002;stroke-width:1.93021524;stroke-linejoin:round;stroke-miterlimit:4;stroke-dasharray:none;stroke-dashoffset:0;stroke-opacity:0;paint-order:normal"
     d="m 21.661661,16.304394 c -1.826475,0.336167 -3.338787,1.479647 -4.978427,2.271536 -1.327364,0.595084 -2.795884,0.702845 -4.210588,0.949286 -2.173869,0.574068 -4.2903521,1.382913 -6.5188001,1.735245 -1.373879,0.301542 -2.845237,0.548678 -3.967011,1.462899 -1.03998701,0.988751 -1.34809801,2.528943 -1.15577701,3.90858 0.123253,2.088684 0.69349301,4.240043 2.07865001,5.858 0.824288,0.863456 1.45463,1.934413 1.682238,3.114575 0.325477,1.180585 0.93824,2.374698 2.0427,2.995004 0.904522,0.561371 1.976195,0.721843 3.012481,0.855584 1.1665401,0.198581 2.2522021,0.749671 3.1505951,1.512837 1.973442,1.516363 3.464561,3.619096 5.647756,4.867742 2.369605,1.275873 5.228031,1.475076 7.813908,0.816715 1.750884,-0.476473 3.487562,-1.101165 5.018217,-2.091171 2.237978,-1.571913 3.730953,-4.140159 4.012736,-6.85855 0.330707,-2.297346 0.226143,-4.625128 0.343921,-6.936926 0.04652,-2.213516 0.143448,-4.438352 -0.104518,-6.643263 -0.627768,-2.845377 -2.863441,-5.193017 -5.564548,-6.203548 -2.532491,-1.097311 -5.295863,-1.708089 -8.060367,-1.650449 -0.08105,0.01197 -0.162111,0.02394 -0.243166,0.0359 z"
     id="path1249"
     inkscape:connector-curvature="0" />
  <path
     style="opacity:0.58899997;fill:#d0d194;fill-opacity:1;fill-rule:nonzero;stroke:#000002;stroke-width:1.93021524;stroke-linejoin:round;stroke-miterlimit:4;stroke-dasharray:none;stroke-dashoffset:0;stroke-opacity:0;paint-order:normal"
     d="m 27.694043,10.373868 c -4.201813,0.493457 -8.439827,1.019598 -12.470736,2.359995 -2.152321,0.821986 -4.032923,2.560475 -4.700186,4.804761 -0.8271571,2.626183 -0.04892,5.622833 1.794829,7.636476 2.137904,2.485942 4.633571,4.65062 7.306405,6.542861 1.336705,0.928681 2.705149,1.823087 4.156548,2.562946 2.127503,1.022621 4.474598,1.514931 6.821151,1.658612 2.037364,0.196041 4.076124,0.520891 6.128078,0.438734 1.851632,-0.241531 3.434807,-1.319148 4.953239,-2.32829 2.459078,-1.642948 4.793428,-3.578471 6.437757,-6.066085 1.514778,-2.178209 2.922449,-4.428402 4.394762,-6.635051 1.016449,-1.608376 2.016065,-3.300414 2.347875,-5.200126 0.190997,-1.673952 -0.569549,-3.497612 -2.066054,-4.345877 -1.5571,-1.001696 -3.473518,-1.192082 -5.282853,-1.133954 -3.203163,0.09558 -6.367977,1.000423 -9.584487,0.662029 -2.12127,-0.239433 -4.051513,-1.4193078 -6.214844,-1.3945308 -1.340495,0.1458338 -2.68099,0.2916668 -4.021484,0.4374998 z"
     id="path1249-3"
     inkscape:connector-curvature="0" />
  <path
     id="path431"
     d="m 30.869671,12.686459 c -0.502882,0.10425 -1.075896,0.05036 -1.498047,0.392578 -0.216381,0.588797 0.142942,1.177575 0.130859,1.771484 -0.253155,0.378261 -0.765693,0.222121 -1.139563,0.351353 -1.243844,0.197987 -2.487687,0.395973 -3.731531,0.59396 -0.06921,-0.62873 -0.110225,-1.265585 -0.283203,-1.876953 -0.502851,-0.354609 -1.132759,-0.105093 -1.688129,-0.07294 -0.503171,0.102168 -0.706643,0.725851 -0.527037,1.165906 0.03537,0.334715 0.09013,0.66907 0.08235,1.006638 -0.385348,0.372506 -0.960641,0.180173 -1.430893,0.309956 -0.764693,0.07595 -1.589051,0.548351 -1.746854,1.354155 -0.171545,0.691022 0.0013,1.400414 -0.0019,2.099561 0.141739,0.292036 0.510788,0.134648 0.753906,0.105469 5.320313,-0.779948 10.640626,-1.559896 15.960938,-2.339844 -0.111446,-0.850501 -0.07145,-1.792889 -0.615234,-2.511719 -0.621592,-0.61086 -1.576945,-0.646731 -2.380281,-0.461458 -0.281891,0.0178 -0.563158,0.129336 -0.846282,0.05911 -0.106799,-0.600335 -0.179652,-1.21702 -0.429724,-1.779293 -0.175014,-0.125967 -0.393671,-0.191806 -0.609375,-0.167968 z m 4.755859,6 c -0.846044,0.16331 -1.709509,0.258379 -2.56226,0.395416 -4.645262,0.687205 -9.290525,1.37441 -13.935787,2.061615 0.19782,3.369189 0.374599,6.745126 0.845703,10.089844 0.315874,0.936399 1.430112,1.410937 2.354898,1.170554 4.140319,-0.263759 8.269485,-0.871506 12.268149,-1.99282 0.791717,-0.320902 1.32322,-1.192022 1.211269,-2.04446 0.01322,-3.098303 0.19218,-6.198233 0.04459,-9.295384 0.0023,-0.153483 0.03562,-0.479778 -0.226562,-0.384765 z m -2.423828,2.746093 c 0.371759,0.0447 0.406755,0.503258 0.366359,0.796183 -0.0463,0.473413 9.71e-4,0.966092 -0.173,1.418661 -0.562615,0.379718 -1.271474,0.322157 -1.902343,0.496094 -0.370761,-0.0016 -0.514082,-0.460765 -0.414063,-0.761719 0.0029,-0.497096 -0.02538,-1.016068 0.177734,-1.482422 0.525779,-0.420999 1.242327,-0.351043 1.868095,-0.467803 0.02571,-0.0024 0.05148,4e-4 0.07722,10e-4 z m -4.90625,0.923829 c 0.375986,0.157651 0.300216,0.642601 0.26334,0.96882 -0.02248,0.44347 0.09173,0.994433 -0.302403,1.314383 -0.546055,0.318812 -1.205618,0.290869 -1.809986,0.391417 -0.342328,-0.05704 -0.408073,-0.469275 -0.365795,-0.755731 0.02048,-0.485257 -0.08351,-1.024967 0.181641,-1.459905 0.336618,-0.35 0.874074,-0.286917 1.311364,-0.397597 0.237272,-0.02951 0.484014,-0.09537 0.721839,-0.06139 z m -4.892578,0.783203 c 0.416547,0.261682 0.264655,0.809315 0.292725,1.21815 0.03408,0.370307 0.08241,0.880844 -0.31421,1.078725 -0.476098,0.175691 -0.99363,0.152841 -1.492187,0.179687 -0.363568,-0.06238 -0.43636,-0.496804 -0.420591,-0.804113 0.0032,-0.384712 -0.0808,-0.781378 0.01239,-1.158778 0.133522,-0.392762 0.593401,-0.416565 0.940184,-0.450986 0.312151,-0.02871 0.62635,-0.03368 0.936769,-0.08026 z m 9.773437,3.255859 c 0.385748,0.304266 0.16215,0.834466 0.21875,1.246094 0.0423,0.386099 -0.01666,0.936249 -0.473707,1.038467 -0.536724,0.170323 -1.106516,0.291474 -1.668557,0.278516 -0.367593,-0.140761 -0.305936,-0.615562 -0.29556,-0.932745 0.0057,-0.436552 -0.106505,-0.995933 0.299152,-1.296348 0.371681,-0.228326 0.830639,-0.203722 1.244141,-0.302734 0.219334,-0.0084 0.469615,-0.09406 0.675781,-0.03125 z m -5.02539,0.871094 c 0.371507,0.06033 0.391305,0.515404 0.365898,0.813975 -0.04216,0.440863 0.173994,0.97539 -0.180351,1.334462 -0.474717,0.331964 -1.091898,0.240424 -1.632813,0.361328 -0.309022,-0.0024 -0.5356,-0.312923 -0.485503,-0.608816 -0.01176,-0.486238 -0.18889,-1.02448 0.06054,-1.474266 0.354628,-0.372496 0.916123,-0.27279 1.374431,-0.382316 0.165318,-0.01895 0.330365,-0.06298 0.497797,-0.04437 z m -4.619141,0.621094 c 0.422849,0.168841 0.366837,0.695344 0.398438,1.066406 0.04018,0.338801 0.09405,0.697529 -0.03906,1.023437 -0.489008,0.250283 -1.054608,0.140159 -1.578125,0.226563 -0.434314,-0.08097 -0.506207,-0.598942 -0.5,-0.964844 -0.04063,-0.341413 -0.06921,-0.685483 -0.04492,-1.029297 0.383706,-0.413494 0.997392,-0.239735 1.493647,-0.320149 0.08998,-0.0057 0.179957,-0.0034 0.270025,-0.0021 z"
     inkscape:connector-curvature="0"
     style="opacity:0.9;stroke-width:0.03485465" />
</svg>
