<?xml version="1.0" encoding="UTF-8"?>
<!-- Created with Inkscape (http://www.inkscape.org/) -->
<svg width="75mm" height="50mm" version="1.1" viewBox="0 0 75 50" xmlns="http://www.w3.org/2000/svg" xmlns:cc="http://creativecommons.org/ns#" xmlns:dc="http://purl.org/dc/elements/1.1/" xmlns:rdf="http://www.w3.org/1999/02/22-rdf-syntax-ns#">
 <metadata>
  <rdf:RDF>
   <cc:Work rdf:about="">
    <dc:format>image/svg+xml</dc:format>
    <dc:type rdf:resource="http://purl.org/dc/dcmitype/StillImage"/>
    <dc:title/>
   </cc:Work>
  </rdf:RDF>
 </metadata>
 <g transform="translate(0,-247)">
  <path d="m52.078 250.34c-1.2737 0.40725-2.4009 1.3996-3.7575 1.4466-2.7309-0.47776-5.4652-1.3418-8.2496-1.0233-3.7668 0.40767-7.3325 2.0849-10.641 4.132-4.2979 2.7437-7.9028 6.79-10.721 11.408-1.9944 2.8146-4.6152 4.8831-7.1151 7.0419-1.8468 1.7283-3.5162 3.8847-4.2598 6.5398-0.93571 3.4199 0.13672 7.4034 2.5319 9.6673 1.8834 1.9145 4.3414 2.8643 6.7758 3.3566 2.1802 0.42732 4.5402 0.22073 6.4793-1.0929 2.2919-1.4861 4.0501-3.789 5.9455-5.8436 2.0649-2.3001 4.147-4.6589 6.6686-6.2889 2.1285-1.2188 4.6361-1.2242 6.899-0.54602 3.1335 0.96393 6.0381 2.6637 9.0117 4.1178 1.395 0.69512 2.9445 0.7548 4.439 0.65547 2.4028-0.015 4.8362 0.48096 7.2151-0.10544 1.0672-0.33532 1.7315-1.5578 1.9396-2.7511 0.26109-1.685 0.33311-3.4234 0.07867-5.1162-0.31835-2.2599-1.1172-4.4012-2.1939-6.314-1.6895-3.3382-3.7763-6.4487-4.9526-10.102-0.49592-2.0142-0.25986-4.229-1.0886-6.1387-0.9839-2.0157-3.0462-3.1081-5.005-3.0441z" fill="#d0d194" opacity=".3996" style="paint-order:normal"/>
  <path d="m48.321 251.79c-2.779 0.31853-5.3506 1.8705-7.9462 3.114-2.7978 1.3566-5.6433 2.7811-8.6435 3.0065-2.4243 0.0984-4.7364-1.0267-7.0852-1.649-1.4607-0.42045-3.0344-0.43486-4.4252 0.37296-1.6591 0.92833-2.8845 2.8329-3.7838 4.8601-0.87577 1.9713-1.4158 4.1601-1.9461 6.3283-0.34084 1.3008-0.89308 2.6386-1.8701 3.2385-1.1385 0.74481-2.4148 1.004-3.5548 1.7483-1.2366 0.75239-2.4035 1.9948-2.8607 3.7637-0.55876 2.0674-0.23629 4.4273 0.62868 6.2582 1.6322 3.8318 3.9338 7.0571 6.3514 10.016 2.1935 2.58 5.0611 4.0258 7.9611 4.2835 3.5425 0.48424 7.154-0.33048 10.448-2.1032 2.6995-1.4647 5.197-3.491 7.7961-5.2322 1.1406-0.70844 2.4226-1.0562 3.6764-0.82171 1.6991 0.22434 3.3517 0.84438 5.0453 1.1234 2.484 0.48433 5.0546 0.73921 7.5184-0.0588 1.5434-0.5448 2.8666-1.8122 4.0816-3.1514 1.741-1.8091 3.5421-3.6058 5.6304-4.6309 1.7386-0.95555 3.5864-1.6593 5.1449-3.1095 0.9365-1.095 1.0327-3.2467 0.14629-4.4393-0.87118-1.4795-2.2366-2.1774-3.52-2.7943-2.9674-1.3128-6.1386-1.285-9.1628-2.2476-0.76736-0.2834-1.4834-0.98543-1.7595-2.0139-0.48635-1.4932-0.4504-3.1574-0.68905-4.7307-0.30426-2.7196-0.80966-5.5129-2.0655-7.7491-1.2007-2.0816-3.1241-3.4948-5.1166-3.3823z" fill="#d0d194" fill-opacity=".99647" opacity=".3996" style="paint-order:normal"/>
  <text transform="rotate(-6.5254)" x="-15.916943" y="269.98776" fill="#000000" font-family="sans-serif" font-size="9.2353px" letter-spacing="0px" stroke-width=".23088" word-spacing="0px" style="line-height:1.25" xml:space="preserve"><tspan x="-15.916943" y="269.98776">Trainings</tspan><tspan x="-15.916943" y="281.53186"/></text>
  <text transform="rotate(14.067)" x="99.333282" y="260.5531" fill="#000000" font-family="sans-serif" font-size="10.292px" letter-spacing="0px" stroke-width=".25729" word-spacing="0px" style="line-height:1.25" xml:space="preserve"><tspan x="99.333282" y="260.5531" stroke-width=".25729">Plan</tspan></text>
 </g>
</svg>
