<?xml version="1.0" encoding="UTF-8"?>
<!-- Created with Inkscape (http://www.inkscape.org/) -->
<svg width="55mm" height="50mm" version="1.1" viewBox="0 0 55 50" xmlns="http://www.w3.org/2000/svg" xmlns:cc="http://creativecommons.org/ns#" xmlns:dc="http://purl.org/dc/elements/1.1/" xmlns:rdf="http://www.w3.org/1999/02/22-rdf-syntax-ns#">
 <metadata>
  <rdf:RDF>
   <cc:Work rdf:about="">
    <dc:format>image/svg+xml</dc:format>
    <dc:type rdf:resource="http://purl.org/dc/dcmitype/StillImage"/>
    <dc:title/>
   </cc:Work>
  </rdf:RDF>
 </metadata>
 <path d="m21.662 16.304c-1.8265 0.33617-3.3388 1.4796-4.9784 2.2715-1.3274 0.59508-2.7959 0.70284-4.2106 0.94929-2.1739 0.57407-4.2904 1.3829-6.5188 1.7352-1.3739 0.30154-2.8452 0.54868-3.967 1.4629-1.04 0.98875-1.3481 2.5289-1.1558 3.9086 0.12325 2.0887 0.69349 4.24 2.0787 5.858 0.82429 0.86346 1.4546 1.9344 1.6822 3.1146 0.32548 1.1806 0.93824 2.3747 2.0427 2.995 0.90452 0.56137 1.9762 0.72184 3.0125 0.85558 1.1665 0.19858 2.2522 0.74967 3.1506 1.5128 1.9734 1.5164 3.4646 3.6191 5.6478 4.8677 2.3696 1.2759 5.228 1.4751 7.8139 0.81672 1.7509-0.47647 3.4876-1.1012 5.0182-2.0912 2.238-1.5719 3.731-4.1402 4.0127-6.8586 0.33071-2.2973 0.22614-4.6251 0.34392-6.9369 0.04652-2.2135 0.14345-4.4384-0.10452-6.6433-0.62777-2.8454-2.8634-5.193-5.5645-6.2035-2.5325-1.0973-5.2959-1.7081-8.0604-1.6504-0.08105 0.01197-0.16211 0.02394-0.24317 0.0359z" fill="#d0d194" opacity=".589" stroke-opacity="0" style="paint-order:normal"/>
 <path d="m27.694 10.374c-4.2018 0.49346-8.4398 1.0196-12.471 2.36-2.1523 0.82199-4.0329 2.5605-4.7002 4.8048-0.82716 2.6262-0.04892 5.6228 1.7948 7.6365 2.1379 2.4859 4.6336 4.6506 7.3064 6.5429 1.3367 0.92868 2.7051 1.8231 4.1565 2.5629 2.1275 1.0226 4.4746 1.5149 6.8212 1.6586 2.0374 0.19604 4.0761 0.52089 6.1281 0.43873 1.8516-0.24153 3.4348-1.3191 4.9532-2.3283 2.4591-1.6429 4.7934-3.5785 6.4378-6.0661 1.5148-2.1782 2.9224-4.4284 4.3948-6.6351 1.0164-1.6084 2.0161-3.3004 2.3479-5.2001 0.191-1.674-0.56955-3.4976-2.0661-4.3459-1.5571-1.0017-3.4735-1.1921-5.2829-1.134-3.2032 0.09558-6.368 1.0004-9.5845 0.66203-2.1213-0.23943-4.0515-1.4193-6.2148-1.3945-1.3405 0.14583-2.681 0.29167-4.0215 0.4375z" fill="#d0d194" opacity=".589" stroke-opacity="0" style="paint-order:normal"/>
 <path d="m30.87 12.686c-0.50288 0.10425-1.0759 0.05036-1.498 0.39258-0.21638 0.5888 0.14294 1.1776 0.13086 1.7715-0.25316 0.37826-0.76569 0.22212-1.1396 0.35135-1.2438 0.19799-2.4877 0.39597-3.7315 0.59396-0.06921-0.62873-0.11022-1.2656-0.2832-1.877-0.50285-0.35461-1.1328-0.10509-1.6881-0.07294-0.50317 0.10217-0.70664 0.72585-0.52704 1.1659 0.03537 0.33472 0.09013 0.66907 0.08235 1.0066-0.38535 0.37251-0.96064 0.18017-1.4309 0.30996-0.76469 0.07595-1.5891 0.54835-1.7469 1.3542-0.17154 0.69102 0.0013 1.4004-0.0019 2.0996 0.14174 0.29204 0.51079 0.13465 0.75391 0.10547 5.3203-0.77995 10.641-1.5599 15.961-2.3398-0.11145-0.8505-0.07145-1.7929-0.61523-2.5117-0.62159-0.61086-1.5769-0.64673-2.3803-0.46146-0.28189 0.0178-0.56316 0.12934-0.84628 0.05911-0.1068-0.60034-0.17965-1.217-0.42972-1.7793-0.17501-0.12597-0.39367-0.19181-0.60938-0.16797zm4.7559 6c-0.84604 0.16331-1.7095 0.25838-2.5623 0.39542-4.6453 0.6872-9.2905 1.3744-13.936 2.0616 0.19782 3.3692 0.3746 6.7451 0.8457 10.09 0.31587 0.9364 1.4301 1.4109 2.3549 1.1706 4.1403-0.26376 8.2695-0.87151 12.268-1.9928 0.79172-0.3209 1.3232-1.192 1.2113-2.0445 0.01322-3.0983 0.19218-6.1982 0.04459-9.2954 0.0023-0.15348 0.03562-0.47978-0.22656-0.38476zm-2.4238 2.7461c0.37176 0.0447 0.40676 0.50326 0.36636 0.79618-0.0463 0.47341 9.71e-4 0.96609-0.173 1.4187-0.56262 0.37972-1.2715 0.32216-1.9023 0.49609-0.37076-0.0016-0.51408-0.46076-0.41406-0.76172 0.0029-0.4971-0.02538-1.0161 0.17773-1.4824 0.52578-0.421 1.2423-0.35104 1.8681-0.4678 0.02571-0.0024 0.05148 4e-4 0.07722 1e-3zm-4.9062 0.92383c0.37599 0.15765 0.30022 0.6426 0.26334 0.96882-0.02248 0.44347 0.09173 0.99443-0.3024 1.3144-0.54606 0.31881-1.2056 0.29087-1.81 0.39142-0.34233-0.05704-0.40807-0.46928-0.3658-0.75573 0.02048-0.48526-0.08351-1.025 0.18164-1.4599 0.33662-0.35 0.87407-0.28692 1.3114-0.3976 0.23727-0.02951 0.48401-0.09537 0.72184-0.06139zm-4.8926 0.7832c0.41655 0.26168 0.26466 0.80932 0.29272 1.2182 0.03408 0.37031 0.08241 0.88084-0.31421 1.0787-0.4761 0.17569-0.99363 0.15284-1.4922 0.17969-0.36357-0.06238-0.43636-0.4968-0.42059-0.80411 0.0032-0.38471-0.0808-0.78138 0.01239-1.1588 0.13352-0.39276 0.5934-0.41656 0.94018-0.45099 0.31215-0.02871 0.62635-0.03368 0.93677-0.08026zm9.7734 3.2559c0.38575 0.30427 0.16215 0.83447 0.21875 1.2461 0.0423 0.3861-0.01666 0.93625-0.47371 1.0385-0.53672 0.17032-1.1065 0.29147-1.6686 0.27852-0.36759-0.14076-0.30594-0.61556-0.29556-0.93274 0.0057-0.43655-0.1065-0.99593 0.29915-1.2963 0.37168-0.22833 0.83064-0.20372 1.2441-0.30273 0.21933-0.0084 0.46962-0.09406 0.67578-0.03125zm-5.0254 0.87109c0.37151 0.06033 0.3913 0.5154 0.3659 0.81398-0.04216 0.44086 0.17399 0.97539-0.18035 1.3345-0.47472 0.33196-1.0919 0.24042-1.6328 0.36133-0.30902-0.0024-0.5356-0.31292-0.4855-0.60882-0.01176-0.48624-0.18889-1.0245 0.06054-1.4743 0.35463-0.3725 0.91612-0.27279 1.3744-0.38232 0.16532-0.01895 0.33036-0.06298 0.4978-0.04437zm-4.6191 0.62109c0.42285 0.16884 0.36684 0.69534 0.39844 1.0664 0.04018 0.3388 0.09405 0.69753-0.03906 1.0234-0.48901 0.25028-1.0546 0.14016-1.5781 0.22656-0.43431-0.08097-0.50621-0.59894-0.5-0.96484-0.04063-0.34141-0.06921-0.68548-0.04492-1.0293 0.38371-0.41349 0.99739-0.23974 1.4936-0.32015 0.08998-0.0057 0.17996-0.0034 0.27002-0.0021z" opacity=".9" stroke-width=".034855"/>
</svg>
