<?xml version="1.0" encoding="UTF-8" standalone="no"?>
<!-- Created with Inkscape (http://www.inkscape.org/) -->

<svg
   xmlns:dc="http://purl.org/dc/elements/1.1/"
   xmlns:cc="http://creativecommons.org/ns#"
   xmlns:rdf="http://www.w3.org/1999/02/22-rdf-syntax-ns#"
   xmlns:svg="http://www.w3.org/2000/svg"
   xmlns="http://www.w3.org/2000/svg"
   xmlns:sodipodi="http://sodipodi.sourceforge.net/DTD/sodipodi-0.dtd"
   xmlns:inkscape="http://www.inkscape.org/namespaces/inkscape"
   width="10cm"
   height="10cm"
   viewBox="0 0 100 99.999997"
   version="1.1"
   id="svg8"
   inkscape:version="0.92.4 (5da689c313, 2019-01-14)"
   sodipodi:docname="dreieckInk.svg.2020_12_05_22_42_42.0.svg">
  <defs
     id="defs2" />
  <sodipodi:namedview
     id="base"
     pagecolor="#ffffff"
     bordercolor="#666666"
     borderopacity="1.0"
     inkscape:pageopacity="0.0"
     inkscape:pageshadow="2"
     inkscape:zoom="7.9195959"
     inkscape:cx="170.55188"
     inkscape:cy="117.23004"
     inkscape:document-units="mm"
     inkscape:current-layer="layer1"
     showgrid="false"
     units="cm"
     inkscape:window-width="1280"
     inkscape:window-height="656"
     inkscape:window-x="0"
     inkscape:window-y="36"
     inkscape:window-maximized="1"
     inkscape:pagecheckerboard="true"
     inkscape:object-nodes="false" />
  <metadata
     id="metadata5">
    <rdf:RDF>
      <cc:Work
         rdf:about="">
        <dc:format>image/svg+xml</dc:format>
        <dc:type
           rdf:resource="http://purl.org/dc/dcmitype/StillImage" />
        <dc:title></dc:title>
      </cc:Work>
    </rdf:RDF>
  </metadata>
  <g
     inkscape:label="Ebene 1"
     inkscape:groupmode="layer"
     id="layer1"
     transform="translate(0,-197.00002)"
     style="display:inline">
    <path
       style="opacity:1;fill:#ffb380;fill-opacity:1;stroke:none;stroke-width:14.37448978;stroke-linejoin:round;stroke-miterlimit:4;stroke-dasharray:none;stroke-opacity:1;paint-order:normal"
       d="M 77.695312 269.9375 C 77.418023 270.01545 77.15558 270.15128 76.883736 270.25046 C 76.652336 270.3175 76.478216 270.51667 76.404892 270.74129 C 76.331442 270.98746 76.33268 271.25298 76.35298 271.5068 C 76.354266 271.71635 76.530344 271.87591 76.736328 271.87305 C 76.997623 271.87951 77.253271 271.80527 77.515159 271.81175 C 78.064479 271.79093 78.612413 271.87362 79.16159 271.84055 C 79.452951 271.81544 79.752906 271.7768 80.019589 271.64978 C 80.26519 271.52265 80.194685 271.1477 79.957031 271.05078 C 79.707435 270.94239 79.462874 270.82516 79.228516 270.68555 C 78.884183 270.48704 78.546762 270.27655 78.202186 270.07868 C 78.050067 269.9902 77.873221 269.92711 77.695312 269.9375 z "
       id="path880" />
    <path
       transform="matrix(0.64959841,-0.76027752,0.59699344,0.80224612,0,0)"
       style="opacity:1;fill:#ffb380;fill-opacity:1;stroke:none;stroke-width:8.80348682;stroke-linejoin:round;stroke-miterlimit:4;stroke-dasharray:none;stroke-opacity:1;paint-order:normal"
       d="M -102.47461 225.21289 C -102.73835 225.30104 -102.94098 225.53565 -103.00391 225.80469 C -103.08483 226.11084 -103.07416 226.4305 -103.09375 226.74414 C -103.11518 227.77265 -103.13509 228.80157 -103.10939 229.8302 C -103.08799 230.49385 -103.05778 231.15729 -103.02995 231.82072 C -102.96979 233.1417 -102.90431 234.46243 -102.83984 235.7832 C -102.83826 236.38403 -102.89721 236.9827 -102.92385 237.58255 C -102.97137 238.47365 -103.01889 239.36475 -103.06641 240.25586 C -102.90604 240.59089 -102.66628 240.89468 -102.34815 241.09198 C -102.03822 241.30415 -101.674 241.45134 -101.29492 241.45898 C -101.023 241.47012 -100.71902 241.28986 -100.69846 240.99834 C -100.6792 240.70653 -100.72332 240.41422 -100.73409 240.12247 C -100.76663 239.69828 -100.77738 239.27266 -100.7777 238.84736 C -100.76975 238.49462 -100.74182 238.14224 -100.70656 237.79127 C -100.64836 237.25784 -100.50212 236.73991 -100.37087 236.22115 C -100.18954 235.52936 -100.00665 234.83798 -99.824219 234.14648 C -99.632156 233.05718 -99.464471 231.96339 -99.331135 230.86532 C -99.267743 230.30429 -99.249125 229.73957 -99.246147 229.17533 C -99.245597 228.88591 -99.227594 228.59353 -99.273438 228.30664 C -99.333752 228.03358 -99.440503 227.77177 -99.560358 227.5205 C -99.778954 227.14059 -100.08309 226.82129 -100.37305 226.49609 C -100.71417 226.16619 -101.06877 225.85018 -101.44336 225.55859 C -101.73191 225.41442 -102.03439 225.29927 -102.3457 225.21484 C -102.38865 225.21011 -102.43156 225.21081 -102.47461 225.21289 z "
       id="path72"
       inkscape:connector-curvature="0" />
    <path
       style="opacity:1;fill:#ffb380;fill-opacity:1;stroke:none;stroke-width:10;stroke-linejoin:round;stroke-miterlimit:4;stroke-dasharray:none;stroke-opacity:1;paint-order:normal"
       d="M 39.865234 249.51758 C 39.607409 249.58743 39.431797 249.83878 39.40625 250.09766 C 39.270587 250.68802 39.135657 251.28253 39.097656 251.88867 C 39.101863 252.5366 39.25428 253.16948 39.384253 253.80055 C 39.585535 254.8092 39.801003 255.81823 39.889158 256.84471 C 40.032103 258.40346 40.142072 259.96493 40.249261 261.52649 C 40.383536 263.46237 40.505929 265.39906 40.625 267.33594 C 40.635995 267.67113 40.639324 268.03707 40.434516 268.32176 C 40.1429 268.79773 39.67849 269.14457 39.179688 269.38086 C 38.470317 269.70836 37.712439 269.908 36.974428 270.15813 C 36.706571 270.25775 36.421274 270.31739 36.164062 270.44141 C 35.923709 270.58124 35.858237 270.98114 36.125665 271.12915 C 36.372616 271.2933 36.682716 271.24266 36.962617 271.27155 C 38.356666 271.34385 39.751687 271.40476 41.147513 271.42493 C 41.422969 271.42093 41.722631 271.41663 41.958818 271.25641 C 42.214866 271.06826 42.317646 270.74184 42.343884 270.4372 C 42.527161 268.94519 42.717614 267.45335 42.840189 265.95486 C 42.942297 264.58576 42.930958 263.21179 42.939453 261.83984 C 42.930483 260.37363 42.917373 258.90746 42.893384 257.44141 C 42.87976 256.70528 42.862171 255.96893 42.825639 255.23355 C 42.809683 254.94005 42.789138 254.64703 42.736894 254.35738 C 42.670877 253.97039 42.595607 253.58509 42.523438 253.19922 C 42.496328 252.91683 42.675281 252.67527 42.826172 252.45508 C 42.97501 252.23619 43.02709 251.97244 43.083984 251.71875 C 43.109957 251.41591 42.956587 251.11417 42.712891 250.9375 C 42.377147 250.66571 41.996437 250.45815 41.630859 250.23047 C 41.164063 250.00716 40.697266 249.78385 40.230469 249.56055 C 40.111502 249.52911 39.988573 249.50916 39.865234 249.51758 z "
       id="path3717" />
    <path
       style="opacity:1;fill:#ffb380;fill-opacity:1;stroke:none;stroke-width:10;stroke-linejoin:round;stroke-miterlimit:4;stroke-dasharray:none;stroke-opacity:1;paint-order:normal"
       d="M 40.857422 215.32812 C 40.558573 215.37537 40.410157 215.6714 40.191461 215.84565 C 39.941238 216.07394 39.670666 216.27866 39.416016 216.50195 C 39.126789 216.86049 39.053823 217.34371 39.095808 217.79125 C 39.174523 218.48179 39.463046 219.12534 39.778661 219.73701 C 40.119947 220.39776 40.471845 221.05303 40.822266 221.70898 C 41.122392 222.54462 41.291957 223.43146 41.275201 224.32099 C 41.25698 225.66876 41.183439 227.01543 41.176203 228.36339 C 41.175609 229.86055 41.210867 231.3579 41.190229 232.85491 C 41.136686 233.83771 40.938289 234.80414 40.764964 235.77078 C 40.465054 237.33286 40.165144 238.89495 39.865234 240.45703 C 39.845009 240.79657 39.847632 241.13737 39.873047 241.47656 C 39.993769 241.85124 40.294917 242.14965 40.649747 242.30936 C 41.139862 242.54645 41.683568 242.62569 42.210938 242.73828 C 43.070757 242.88943 43.957098 242.87641 44.814838 242.71822 C 45.250825 242.63159 45.685867 242.4738 46.023438 242.17578 C 46.257309 241.94982 46.421202 241.64462 46.451172 241.31836 C 46.450828 240.93338 46.203076 240.59625 45.913536 240.36415 C 45.461597 239.98799 44.928871 239.71737 44.5 239.3125 C 44.264539 239.07697 44.077132 238.7741 44.052774 238.43522 C 44.007851 237.98422 44.098163 237.53475 44.136605 237.08647 C 44.208982 236.42813 44.277952 235.76553 44.234065 235.10258 C 44.058387 231.0762 43.882709 227.04982 43.707031 223.02344 C 43.598628 221.95992 43.452897 220.90031 43.269858 219.84709 C 43.081212 218.85311 42.847661 217.86829 42.587891 216.89062 C 42.422547 216.39701 42.145031 215.92402 41.72155 215.60994 C 41.477714 215.42146 41.167797 215.30779 40.857422 215.32812 z "
       id="path4525" />
    <path
       transform="rotate(-28.116589)"
       style="opacity:1;fill:#ffb380;fill-opacity:1;stroke:none;stroke-width:10;stroke-linejoin:round;stroke-miterlimit:4;stroke-dasharray:none;stroke-opacity:1;paint-order:normal"
       d="M -83.966797 251.67383 C -84.258146 251.71616 -84.541602 251.79709 -84.830449 251.85215 C -85.432539 251.98412 -86.034629 252.11608 -86.636719 252.24805 C -87.192354 252.3167 -87.752001 252.33903 -88.310547 252.37109 C -88.763213 252.41737 -89.204148 252.53463 -89.649647 252.6226 C -90.32121 252.76362 -90.992335 252.90716 -91.664857 253.04334 C -92.051369 253.11313 -92.439231 253.17427 -92.828693 253.22514 C -93.224532 253.27332 -93.621426 253.31335 -94.019512 253.33782 C -94.644891 253.38681 -95.272509 253.39461 -95.899465 253.3994 C -96.758928 253.39816 -97.617486 253.34919 -98.47358 253.27554 C -98.990207 253.23391 -99.506821 253.19214 -100.02344 253.15039 C -100.27609 253.13325 -100.60199 253.28059 -100.59893 253.56984 C -100.59579 253.8181 -100.37947 253.99004 -100.17598 254.0929 C -99.944192 254.21224 -99.709524 254.32591 -99.476182 254.44233 C -98.505746 254.91989 -97.529186 255.38576 -96.537232 255.81706 C -96.09236 256.00279 -95.63937 256.16828 -95.184314 256.32696 C -94.673025 256.49285 -94.148569 256.61602 -93.618776 256.70585 C -93.252834 256.77121 -92.886135 256.834 -92.516147 256.87178 C -92.210588 256.91039 -91.900114 256.92345 -91.59375 256.88672 C -91.372303 256.85253 -91.160967 256.77205 -90.966504 256.66196 C -90.628583 256.49335 -90.28992 256.31079 -89.915285 256.239 C -89.410646 256.12942 -88.891206 256.1307 -88.379814 256.07197 C -87.978003 256.02745 -87.573278 255.99452 -87.168973 256.02161 C -86.513933 256.04377 -85.860681 256.09863 -85.207031 256.14453 C -84.880804 256.14818 -84.55537 256.11223 -84.236328 256.04492 C -83.537436 255.91206 -82.846751 255.74016 -82.160156 255.55469 C -81.866753 255.47283 -81.589179 255.34188 -81.331572 255.18019 C -81.139329 255.07212 -80.948036 254.93669 -80.849609 254.73242 C -80.734682 254.47828 -80.826764 254.19503 -80.9375 253.95703 C -81.097908 253.56769 -81.258855 253.17151 -81.308594 252.75 C -81.351512 252.49196 -81.40511 252.20362 -81.628906 252.03711 C -81.825313 251.88549 -82.078472 251.8438 -82.318876 251.81932 C -82.82939 251.75284 -83.342814 251.71359 -83.855469 251.66797 C -83.892578 251.66992 -83.929688 251.67188 -83.966797 251.67383 z "
       id="path4528" />
    <path
       inkscape:connector-curvature="0"
       style="display:inline;opacity:0.31400004;fill:#d9bdb2;fill-opacity:1;stroke:none;stroke-width:10;stroke-linejoin:round;stroke-miterlimit:4;stroke-dasharray:none;stroke-opacity:1;paint-order:normal"
       d="m 39.366933,249.8323 c -0.257825,0.0699 -0.433437,0.3212 -0.458984,0.58008 -0.135663,0.59036 -0.270593,1.18487 -0.308594,1.79101 0.0042,0.64793 0.156624,1.28081 0.286597,1.91188 0.201282,1.00865 0.41675,2.01768 0.504905,3.04416 0.142945,1.55875 0.252914,3.12022 0.360103,4.68178 0.134275,1.93588 0.256668,3.87257 0.375739,5.80945 0.011,0.33519 0.01432,0.70113 -0.190484,0.98582 -0.291616,0.47597 -0.756026,0.82281 -1.254828,1.0591 -0.709371,0.3275 -1.467249,0.52714 -2.20526,0.77727 -0.267857,0.0996 -0.553154,0.15926 -0.810366,0.28328 -0.240353,0.13983 -0.305825,0.53973 -0.0384,0.68774 0.246951,0.16415 0.557051,0.11351 0.836952,0.1424 1.394049,0.0723 2.78907,0.13321 4.184896,0.15338 0.275456,-0.004 0.575118,-0.008 0.811305,-0.16852 0.256048,-0.18815 0.358828,-0.51457 0.385066,-0.81921 0.183277,-1.49201 0.37373,-2.98385 0.496305,-4.48234 0.102108,-1.3691 0.09077,-2.74307 0.09926,-4.11502 -0.009,-1.46621 -0.02208,-2.93238 -0.04607,-4.39843 -0.01362,-0.73613 -0.03121,-1.47248 -0.06774,-2.20786 -0.01596,-0.2935 -0.0365,-0.58652 -0.08875,-0.87617 -0.06602,-0.38699 -0.141287,-0.77229 -0.213456,-1.15816 -0.02711,-0.28239 0.151843,-0.52395 0.302734,-0.74414 0.148838,-0.21889 0.200918,-0.48264 0.257812,-0.73633 0.02597,-0.30284 -0.127397,-0.60458 -0.371093,-0.78125 -0.335744,-0.27179 -0.716454,-0.47935 -1.082032,-0.70703 -0.466796,-0.22331 -0.933593,-0.44662 -1.40039,-0.66992 -0.118967,-0.0314 -0.241896,-0.0514 -0.365235,-0.043 z"
       id="path3717-6" />
    <ellipse
       style="opacity:1;fill:#ffb380;fill-opacity:1;stroke:none;stroke-width:10;stroke-linejoin:round;stroke-miterlimit:4;stroke-dasharray:none;stroke-opacity:1;paint-order:normal"
       id="path4561"
       cx="34.135975"
       cy="244.81569"
       rx="3.5671501"
       ry="3.8978794" />
    <path
       transform="matrix(0.35437999,-0.9351015,0.92718146,0.37461253,0,0)"
       style="opacity:1;fill:#000000;fill-opacity:1;stroke:none;stroke-width:13.36554718;stroke-linejoin:round;stroke-miterlimit:4;stroke-dasharray:none;stroke-opacity:1;paint-order:normal"
       d="M -216.18359 114.45898 C -216.68667 114.57027 -217.17684 114.74612 -217.625 115.00195 C -217.94847 115.17075 -218.27466 115.33413 -218.60352 115.49219 C -219.00665 115.62493 -219.41691 115.73388 -219.82617 115.8457 C -220.18892 116.02479 -220.50324 116.28694 -220.78516 116.57422 C -221.01169 116.80946 -221.25571 117.03161 -221.44336 117.30078 C -221.54016 117.49684 -221.51716 117.74754 -221.38098 117.91944 C -221.23367 118.10234 -220.99749 118.18093 -220.78365 118.25841 C -220.36898 118.40461 -219.95403 118.54999 -219.53906 118.69531 C -219.29663 118.83328 -219.11789 119.07286 -219.04688 119.3418 C -218.88216 119.91667 -218.71745 120.49154 -218.55273 121.06641 C -218.38001 121.39979 -218.19719 121.72821 -217.99219 122.04297 C -217.75451 122.27364 -217.49525 122.48016 -217.24219 122.69336 C -217.01508 122.84024 -216.74151 122.93388 -216.46875 122.89844 C -216.18789 122.8047 -215.92363 122.67062 -215.6582 122.54102 C -215.41212 122.40524 -215.3949 122.04039 -215.57617 121.84375 C -215.76237 121.62021 -216.01759 121.47148 -216.24975 121.30154 C -216.61368 121.04648 -216.98273 120.79735 -217.32227 120.50977 C -217.5182 120.33387 -217.71423 120.05282 -217.59692 119.78225 C -217.46294 119.52936 -217.15004 119.49228 -216.90234 119.41797 C -216.60593 119.3314 -216.30097 119.23387 -216.0625 119.0293 C -215.84609 118.84059 -215.76966 118.55233 -215.74444 118.27698 C -215.69795 117.86611 -215.69998 117.45123 -215.65941 117.03997 C -215.6456 116.80868 -215.55406 116.5874 -215.4082 116.4082 C -215.23563 116.20966 -215.00078 116.07997 -214.79934 115.9138 C -214.54306 115.71844 -214.28083 115.53108 -214.02148 115.33984 C -213.86995 115.20091 -213.8216 114.95924 -213.91118 114.77371 C -214.02351 114.56691 -214.288 114.52829 -214.5007 114.51328 C -215.00919 114.47169 -215.51958 114.46001 -216.0293 114.44141 C -216.08073 114.44727 -216.13216 114.45312 -216.18359 114.45898 z "
       id="path4566" />
    <path
       style="opacity:1;fill:#ffb380;fill-opacity:1;stroke:none;stroke-width:10;stroke-linejoin:round;stroke-miterlimit:4;stroke-dasharray:none;stroke-opacity:1;paint-order:normal"
       d="M 38.419922 243.48828 C 38.01649 243.60984 37.618197 243.80133 37.341892 244.12879 C 37.007607 244.5042 36.823792 245.00197 36.802734 245.50195 C 36.797852 245.94555 37.033039 246.36051 37.352361 246.65553 C 38.093362 247.3751 38.884931 248.03976 39.666016 248.71484 C 40.11242 249.08657 40.664299 249.28879 41.179666 249.54241 C 41.747437 249.80503 42.34623 250.02593 42.973506 250.08219 C 43.266136 250.10784 43.567153 250.13124 43.855469 250.06055 C 44.152545 249.98037 44.393426 249.75334 44.519361 249.47611 C 44.700157 249.10971 44.758666 248.69577 44.776262 248.29148 C 44.800007 247.54651 44.637639 246.80056 44.339844 246.11914 C 44.182465 245.7688 43.989155 245.43131 43.72661 245.14852 C 43.366864 244.76159 42.912553 244.46949 42.429688 244.25977 C 42.12297 244.12691 41.79506 244.05883 41.472307 243.97782 C 40.679839 243.80178 39.884039 243.64026 39.086987 243.48662 C 38.866944 243.45384 38.63421 243.39984 38.419922 243.48828 z "
       id="path4563" />
    <a
       transform="translate(0.58538295,-0.75287974)"
       id="a11-7"
       style="display:inline;opacity:1;fill:#ffffff;fill-opacity:0">
      <path
         inkscape:connector-curvature="0"
         id="path883-5"
         d="m -83.851562,222.2793 c -0.260975,0.099 -0.556066,0.21197 -0.691609,0.47501 -0.104347,0.21466 -0.0473,0.47097 0.08223,0.66171 0.308858,0.43879 0.647549,0.8554 0.974759,1.28044 0.285758,0.36746 0.571515,0.73491 0.857273,1.10237 0.171338,0.28808 0.356682,0.56938 0.492951,0.87658 0.109621,0.23463 0.11289,0.50154 0.118377,0.7559 0.0077,0.35293 -0.04687,0.70394 -0.125,1.04721 -0.08208,0.30173 -0.193397,0.59486 -0.326012,0.87791 -0.122048,0.28942 -0.350907,0.53595 -0.639809,0.66317 -0.251765,0.12708 -0.518286,0.22152 -0.781087,0.32269 -0.218979,0.0839 -0.460573,0.14902 -0.694498,0.0913 -0.234106,-0.0663 -0.404472,-0.25282 -0.555466,-0.43308 -0.335002,-0.40496 -0.656944,-0.82058 -0.98656,-1.22994 -0.256825,-0.32196 -0.51365,-0.64392 -0.770474,-0.96588 -0.161486,-0.19625 -0.433653,-0.33299 -0.6875,-0.24805 -0.19687,0.0722 -0.315006,0.27976 -0.328125,0.48242 -0.01058,0.26473 0.122742,0.50702 0.23597,0.73755 0.272383,0.53141 0.557466,1.05623 0.835039,1.58495 0.143115,0.26403 0.275803,0.53392 0.425808,0.79408 0.152516,0.26265 0.333623,0.50893 0.53891,0.73267 0.209369,0.20707 0.470599,0.35173 0.733469,0.47969 0.564185,0.27381 1.150652,0.4974 1.728567,0.73987 0.804486,0.32944 1.600915,0.6782 2.391435,1.03981 1.264292,0.56909 2.522947,1.15054 3.78463,1.72537 -0.804848,0.43371 -1.605742,0.87514 -2.422858,1.28557 -1.775015,0.89188 -3.550134,1.78356 -5.325189,2.67536 -0.380627,0.18378 -0.781839,0.31861 -1.175453,0.47097 -0.282661,0.10669 -0.565323,0.21337 -0.847985,0.32005 -0.231974,0.1149 -0.475727,0.21402 -0.679687,0.37695 -0.176313,0.23084 -0.102517,0.54172 -0.0088,0.79039 0.21516,0.64669 0.43032,1.29339 0.64548,1.94008 0.0923,0.24015 0.183639,0.49048 0.365234,0.67969 0.161522,0.16395 0.406972,0.22863 0.630859,0.1875 0.275161,-0.0595 0.516114,-0.21346 0.758945,-0.34862 0.300869,-0.16884 0.598929,-0.34322 0.903888,-0.50445 0.262576,-0.13364 0.541496,-0.23289 0.827402,-0.30318 0.655369,-0.17081 1.319358,-0.30504 1.981736,-0.44522 3.3889,-0.69339 6.777801,-1.38678 10.166701,-2.08017 0.27038,-0.0307 0.543719,-0.10216 0.816407,-0.0527 0.218398,0.048 0.406405,0.20059 0.511754,0.39595 0.109956,0.22653 0.184219,0.46955 0.25973,0.70952 0.08736,0.31666 0.176935,0.63275 0.248459,0.95347 0.1299,0.5573 0.239849,1.11904 0.350513,1.6804 0.213212,1.1069 0.411906,2.21653 0.617622,3.32483 0.149156,0.81911 0.298312,1.63821 0.447468,2.45732 0.131511,1.03906 0.263021,2.07812 0.394532,3.11719 1.002604,0.0781 2.005208,0.15625 3.007812,0.23437 0.240916,-0.009 0.517102,-0.095 0.621094,-0.33398 0.09508,-0.21645 0.06327,-0.45738 0.05111,-0.68583 -0.03994,-0.4057 -0.112541,-0.81059 -0.094,-1.21973 0.005,-0.48104 0.05241,-0.96023 0.0885,-1.43959 0.245445,-2.59058 0.494053,-5.18087 0.744267,-7.77099 0.04214,-0.46223 0.06246,-0.92614 0.09134,-1.38933 0.01544,-0.35604 0.04014,-0.71179 0.03966,-1.06832 0.01183,-0.46599 -0.02587,-0.93139 -0.06932,-1.39496 -0.03469,-0.2786 -0.08602,-0.55509 -0.169402,-0.82353 -0.095,-0.34711 -0.208912,-0.68915 -0.35031,-1.02023 -0.171657,-0.40347 -0.363658,-0.79872 -0.583727,-1.17807 -0.151123,-0.25382 -0.311827,-0.50214 -0.488329,-0.73907 -0.254531,-0.34595 -0.547156,-0.66191 -0.850538,-0.9652 -0.207768,-0.20573 -0.419587,-0.40838 -0.647507,-0.59178 -0.573319,-0.47039 -1.177357,-0.90123 -1.771311,-1.34478 -1.76374,-1.30385 -3.527479,-2.60771 -5.291219,-3.91156 -0.538876,-0.4381 -1.05664,-0.90118 -1.578131,-1.3596 -0.338084,-0.30025 -0.673602,-0.6033 -1.002915,-0.91317 -0.400481,-0.37462 -0.793811,-0.75683 -1.192392,-1.13348 -0.164152,-0.1542 -0.39236,-0.24542 -0.618591,-0.22201 -0.253718,0.0387 -0.496635,0.13115 -0.742102,0.20442 -0.261658,0.08 -0.530805,0.13552 -0.802859,0.16428 -0.29484,0.0312 -0.592565,0.0357 -0.887229,-2.1e-4 -0.264212,-0.0284 -0.505373,-0.1517 -0.736328,-0.27539 -0.28495,-0.16276 -0.562144,-0.33833 -0.837279,-0.51705 -0.269406,-0.18019 -0.548583,-0.34997 -0.785309,-0.57353 -0.23189,-0.20549 -0.425189,-0.44884 -0.633621,-0.67685 -0.146539,-0.16799 -0.352037,-0.33919 -0.591447,-0.27944 z"
         style="opacity:0.56099997;fill:#ffffff;fill-opacity:0;stroke:none;stroke-width:10.34102726;stroke-linejoin:round;stroke-miterlimit:4;stroke-dasharray:none;stroke-opacity:1;paint-order:normal"
         transform="matrix(0.81865649,-0.57428352,0.48830053,0.87267554,0,0)" />
    </a>
    <a
       id="a11"
       style="fill:#ffffff;opacity:1">
      <path
         id="path883"
         d="M -83.888672 221.70312 C -84.196977 221.76788 -84.488194 221.92067 -84.708984 222.14648 C -84.874544 222.38065 -84.913982 222.71213 -84.761719 222.96289 C -84.489399 223.49059 -84.173898 223.99601 -83.810615 224.46601 C -83.374481 225.04754 -82.860504 225.56754 -82.441494 226.16219 C -82.217382 226.49281 -82.031308 226.87314 -82.035156 227.28125 C -82.015372 228.05875 -82.195421 228.8432 -82.569871 229.52596 C -82.740692 229.82943 -83.061724 229.99743 -83.371086 230.12766 C -83.651722 230.24296 -83.936957 230.3502 -84.230469 230.42773 C -84.540904 230.49742 -84.853542 230.3303 -85.046875 230.09375 C -85.676497 229.32065 -86.305304 228.54688 -86.929688 227.76953 C -87.119958 227.57974 -87.445188 227.46776 -87.68349 227.63541 C -87.899624 227.80464 -87.945452 228.12539 -87.839178 228.36893 C -87.691351 228.75231 -87.482036 229.10813 -87.298104 229.47478 C -87.000015 230.05126 -86.695776 230.6245 -86.390625 231.19727 C -86.117531 231.59244 -85.819994 232.00223 -85.378691 232.22128 C -84.447144 232.70937 -83.459943 233.07713 -82.5012 233.50629 C -80.739211 234.27803 -78.990407 235.0793 -77.238281 235.87305 C -78.705743 236.64066 -80.171164 237.41243 -81.653354 238.1514 C -82.77932 238.71877 -83.905285 239.28614 -85.03125 239.85352 C -85.911229 240.19348 -86.796139 240.52128 -87.666016 240.88672 C -87.919187 241.01013 -88.052699 241.33233 -87.954057 241.59723 C -87.767957 242.1068 -87.551029 242.60413 -87.332643 243.10057 C -87.179568 243.44767 -87.03082 243.79671 -86.875 244.14258 C -86.751528 244.36589 -86.541667 244.57755 -86.271917 244.58706 C -85.921485 244.61654 -85.614964 244.41014 -85.31679 244.25705 C -84.712052 243.93934 -84.115733 243.57556 -83.440519 243.4284 C -82.00024 243.07305 -80.54233 242.79611 -79.090678 242.49233 C -76.533108 241.96755 -73.975538 241.44276 -71.417969 240.91797 C -71.121942 240.87922 -70.81765 240.81737 -70.521484 240.88867 C -70.213591 241.03243 -70.018567 241.34299 -69.9375 241.66406 C -69.593789 242.79988 -69.373134 243.96753 -69.144523 245.13053 C -68.862988 246.65066 -68.582682 248.17101 -68.316364 249.6939 C -68.225619 250.18113 -68.145532 250.67009 -68.079159 251.16126 C -67.971 251.92885 -67.875166 252.69809 -67.775391 253.4668 C -67.512208 253.57489 -67.222276 253.51556 -66.949219 253.57031 C -66.220703 253.6263 -65.492188 253.68229 -64.763672 253.73828 C -64.489833 253.72527 -64.18671 253.56983 -64.126953 253.28125 C -64.044814 252.9444 -64.124256 252.59879 -64.137595 252.25872 C -64.207046 251.35297 -64.10453 250.44677 -64.031034 249.54465 C -63.797942 246.81565 -63.535482 244.08926 -63.304958 241.36004 C -63.25078 240.5084 -63.205516 239.65187 -63.279511 238.80001 C -63.330125 238.20929 -63.446038 237.62312 -63.647257 237.06469 C -63.900832 236.34061 -64.250568 235.65182 -64.667882 235.00872 C -65.197384 234.21196 -65.887484 233.53483 -66.631685 232.9391 C -67.47721 232.26403 -68.358388 231.6353 -69.224608 230.98734 C -70.630859 229.94534 -72.037109 228.90333 -73.443359 227.86133 C -74.397988 227.03272 -75.335401 226.18468 -76.268198 225.33166 C -76.615089 225.02501 -76.942651 224.69703 -77.294922 224.39648 C -77.534735 224.23831 -77.846928 224.20356 -78.117188 224.29883 C -78.72518 224.46709 -79.347075 224.64846 -79.984888 224.60903 C -80.500523 224.59785 -80.987088 224.36218 -81.376953 224.03516 C -81.802867 223.70448 -82.201825 223.34086 -82.587891 222.96484 C -82.880776 222.58552 -83.178326 222.20989 -83.480469 221.83789 C -83.602412 221.76237 -83.738627 221.67921 -83.888672 221.70312 z "
         style="opacity:0.56099997;fill:#ffffff;fill-opacity:1;stroke:none;stroke-width:10.34102726;stroke-linejoin:round;stroke-miterlimit:4;stroke-dasharray:none;stroke-opacity:1;paint-order:normal"
         transform="matrix(0.81865649,-0.57428352,0.48830053,0.87267554,0,0)" />
    </a>
  </g>
</svg>
