<?xml version="1.0" encoding="UTF-8" standalone="no"?>
<!-- Created with Inkscape (http://www.inkscape.org/) -->

<svg
   xmlns:dc="http://purl.org/dc/elements/1.1/"
   xmlns:cc="http://creativecommons.org/ns#"
   xmlns:rdf="http://www.w3.org/1999/02/22-rdf-syntax-ns#"
   xmlns:svg="http://www.w3.org/2000/svg"
   xmlns="http://www.w3.org/2000/svg"
   xmlns:sodipodi="http://sodipodi.sourceforge.net/DTD/sodipodi-0.dtd"
   xmlns:inkscape="http://www.inkscape.org/namespaces/inkscape"
   width="10cm"
   height="10cm"
   viewBox="0 0 100 100"
   version="1.1"
   id="svg8"
   inkscape:version="0.92.4 (5da689c313, 2019-01-14)"
   sodipodi:docname="hundInk.svg">
  <defs
     id="defs2">
    <inkscape:path-effect
       effect="spiro"
       id="path-effect691"
       is_visible="true" />
    <filter
       inkscape:collect="always"
       style="color-interpolation-filters:sRGB"
       id="filter1985"
       x="-0.077378656"
       width="1.1547573"
       y="-0.045773271"
       height="1.0915465">
      <feGaussianBlur
         inkscape:collect="always"
         stdDeviation="0.063978446"
         id="feGaussianBlur1987" />
    </filter>
  </defs>
  <sodipodi:namedview
     id="base"
     pagecolor="#ffffff"
     bordercolor="#666666"
     borderopacity="1.0"
     inkscape:pageopacity="0.0"
     inkscape:pageshadow="2"
     inkscape:zoom="11.2"
     inkscape:cx="130.48728"
     inkscape:cy="144.32204"
     inkscape:document-units="mm"
     inkscape:current-layer="layer1"
     showgrid="false"
     units="cm"
     inkscape:window-width="1280"
     inkscape:window-height="656"
     inkscape:window-x="0"
     inkscape:window-y="36"
     inkscape:window-maximized="1"
     inkscape:pagecheckerboard="true" />
  <metadata
     id="metadata5">
    <rdf:RDF>
      <cc:Work
         rdf:about="">
        <dc:format>image/svg+xml</dc:format>
        <dc:type
           rdf:resource="http://purl.org/dc/dcmitype/StillImage" />
        <dc:title></dc:title>
      </cc:Work>
    </rdf:RDF>
  </metadata>
  <g
     inkscape:label="Ebene 1"
     inkscape:groupmode="layer"
     id="layer1"
     transform="translate(0,-197)">
    <path
       style="opacity:1;fill:#ffb380;fill-opacity:1;stroke:none;stroke-width:7.0933156;stroke-linejoin:round;stroke-miterlimit:4;stroke-dasharray:none;stroke-opacity:1;paint-order:normal"
       d="M 38.738281 250.3418 C 38.27727 250.37953 37.814816 250.41115 37.352023 250.39648 C 37.079858 250.38738 36.808757 250.42148 36.543526 250.48092 C 36.284588 250.53271 36.029644 250.60746 35.786065 250.70951 C 35.173928 250.97448 34.641769 251.40898 34.238824 251.93859 C 33.907257 252.36728 33.692484 252.87151 33.523438 253.38281 C 33.38849 253.9271 33.31765 254.49412 33.379492 255.0538 C 33.441203 255.55703 33.552884 256.06002 33.777344 256.51758 C 33.969912 256.92644 34.220945 257.30926 34.531432 257.63841 C 34.807827 257.94093 35.139369 258.19033 35.496094 258.39062 C 35.853854 258.58504 36.244108 258.71907 36.645593 258.78574 C 36.992831 258.8406 37.348147 258.84034 37.696213 258.79324 C 37.97526 258.75456 38.25031 258.68359 38.513535 258.58329 C 39.170943 258.32338 39.753322 257.87824 40.181641 257.31641 C 40.408654 257.00915 40.598436 256.67534 40.746275 256.32308 C 40.950284 255.83555 41.023362 255.30803 41.126613 254.79313 C 41.227172 254.226 41.430133 253.6819 41.513144 253.11118 C 41.552937 252.83353 41.525481 252.54835 41.46916 252.27473 C 41.389645 251.88308 41.213739 251.51162 40.964844 251.19922 C 40.798754 251.00297 40.606262 250.82899 40.384766 250.69727 C 40.10259 250.53158 39.78777 250.42774 39.466797 250.36914 C 39.22542 250.33171 38.981816 250.3173 38.738281 250.3418 z "
       id="path681" />
    <path
       style="opacity:1;fill:#552200;fill-opacity:1;stroke:none;stroke-width:10;stroke-linejoin:round;stroke-miterlimit:4;stroke-dasharray:none;stroke-opacity:1;paint-order:normal"
       d="M 34.279297 250.44922 C 33.952296 250.86855 33.613472 251.27843 33.261271 251.67685 C 33.084369 251.87994 32.90318 252.08371 32.780918 252.32596 C 32.607847 252.62749 32.49598 252.95876 32.332918 253.26545 C 32.17983 253.57073 32.003686 253.86702 31.775195 254.1225 C 31.373709 254.59782 30.918472 255.02826 30.557579 255.53723 C 30.215387 256.00569 29.886892 256.489 29.471877 256.8977 C 29.285843 257.09413 29.061023 257.27329 28.96875 257.53711 C 28.86127 257.84161 28.821639 258.16475 28.783505 258.48378 C 28.754415 258.83312 28.734114 259.18301 28.71875 259.5332 C 28.735789 259.77019 28.82582 260.01196 29.013585 260.16614 C 29.25282 260.34549 29.561595 260.3677 29.847656 260.4082 C 30.142996 260.43391 30.451918 260.48629 30.738281 260.38086 C 31.172504 260.22254 31.569198 259.98125 31.988281 259.78906 C 32.228826 259.65198 32.526518 259.63081 32.786475 259.72373 C 33.055439 259.80092 33.300949 259.9508 33.578125 260 C 33.906365 260.03557 34.231935 259.96134 34.557275 259.92849 C 35.164938 259.85034 35.77358 259.7732 36.373219 259.64521 C 36.693368 259.57806 37.02015 259.52933 37.324914 259.40539 C 37.562473 259.2959 37.839773 259.24631 38.040815 259.07402 C 38.201493 258.90428 38.08053 258.58093 37.849609 258.55078 C 37.573816 258.50886 37.294431 258.50841 37.016142 258.49684 C 36.782057 258.48728 36.539029 258.42201 36.369141 258.25195 C 36.208277 258.09713 36.107586 257.88207 36.095752 257.65882 C 36.074527 257.38285 36.155907 257.11356 36.201219 256.84391 C 36.258738 256.54567 36.316738 256.24746 36.363281 255.94727 C 36.390856 255.64499 36.322539 255.33148 36.152344 255.07812 C 35.992042 254.87063 35.730649 254.76686 35.474609 254.75 C 35.194912 254.71752 34.91294 254.69272 34.640625 254.61719 C 34.361962 254.51103 34.170383 254.25066 34.083127 253.9732 C 33.985785 253.72401 33.932598 253.46151 33.875 253.20117 C 33.84021 252.95653 33.915435 252.71243 34.006271 252.48803 C 34.145028 252.13598 34.30159 251.79074 34.418569 251.43046 C 34.504239 251.1711 34.658444 250.8859 34.529297 250.61328 C 34.486582 250.52933 34.385766 250.40734 34.279297 250.44922 z "
       id="path683" />
    <path
       style="opacity:1;fill:#ffffff;fill-opacity:1;stroke:none;stroke-width:10;stroke-linejoin:round;stroke-miterlimit:4;stroke-dasharray:none;stroke-opacity:1;paint-order:normal"
       d="M 55.451172 219.29688 C 55.166725 219.32115 54.885776 219.37434 54.6051 219.42496 C 53.972726 219.54519 53.341078 219.66929 52.708984 219.79102 C 52.413128 219.85828 52.124983 219.95369 51.835938 220.04492 C 51.562179 220.14214 51.290037 220.24368 51.019531 220.34961 C 50.77004 220.46832 50.531146 220.60744 50.289062 220.74023 C 50.000022 220.92923 49.719093 221.13256 49.465018 221.36709 C 49.186074 221.61373 48.913361 221.86745 48.651386 222.13211 C 48.426748 222.35666 48.196065 222.57576 47.988281 222.81641 C 47.744735 223.09209 47.489144 223.35813 47.267578 223.65234 C 47.096874 223.88625 46.939242 224.1316 46.826599 224.39923 C 46.718004 224.64739 46.632406 224.90751 46.587215 225.17488 C 46.546003 225.44174 46.536014 225.71482 46.576172 225.98242 C 46.620022 226.25282 46.697813 226.51846 46.820968 226.76371 C 46.936946 227.00262 47.079787 227.22753 47.231032 227.44547 C 47.402611 227.6954 47.579354 227.94208 47.768424 228.17911 C 47.955118 228.41462 48.141551 228.65075 48.340296 228.87625 C 48.525964 229.09418 48.726063 229.29925 48.938339 229.49134 C 49.26386 229.79674 49.598085 230.09276 49.937605 230.38246 C 50.149345 230.55918 50.361179 230.73846 50.602685 230.87391 C 50.825025 231.00237 51.064727 231.10007 51.31029 231.17441 C 51.560336 231.24412 51.833493 231.31834 52.087007 231.22096 C 52.321991 231.15195 52.501479 230.96417 52.740283 230.90624 C 52.963391 230.83085 53.20592 230.92294 53.360826 231.09038 C 53.542378 231.27249 53.686725 231.48737 53.850914 231.68461 C 55.920627 234.28591 57.989481 236.8879 60.05973 239.48877 C 60.601421 240.1626 61.161982 240.82092 61.717797 241.48306 C 62.687617 242.63449 63.656966 243.78631 64.631119 244.93407 C 65.626678 246.11007 66.623053 247.28538 67.619141 248.46094 C 68.142428 249.12031 68.649117 249.79262 69.160978 250.46084 C 69.343979 250.69884 69.526146 250.93745 69.698748 251.18316 C 70.023972 251.62998 70.340366 252.08308 70.658203 252.53516 C 71.0057 253.06571 71.350097 253.59826 71.691406 254.13281 C 71.90706 254.50411 72.122844 254.87534 72.329978 255.25149 C 72.561514 255.65597 72.758459 256.07876 72.969815 256.49385 C 73.107481 256.76869 73.245147 257.04352 73.382812 257.31836 C 73.513919 257.54804 73.693272 257.74413 73.853516 257.95312 C 74.013581 258.16073 74.117164 258.43283 74.054083 258.69568 C 73.991127 258.95527 73.773622 259.13338 73.660156 259.36719 C 73.53119 259.62443 73.663629 259.90993 73.786153 260.14135 C 73.92702 260.39357 74.125879 260.60682 74.32009 260.81851 C 74.849092 261.37758 75.391401 261.92388 75.927402 262.47621 C 76.19716 262.75286 76.465339 263.03157 76.752004 263.29092 C 76.964867 263.49675 77.200749 263.67595 77.441406 263.84766 C 77.682684 263.99855 77.936174 264.16383 78.22912 264.17901 C 78.469171 264.19263 78.701914 264.11814 78.92536 264.03928 C 79.162387 263.95274 79.393178 263.84782 79.610273 263.71887 C 79.826779 263.59213 80.029175 263.44051 80.2109 263.26751 C 80.413388 263.08042 80.587706 262.86456 80.742188 262.63672 C 80.889958 262.41502 80.960815 262.14515 80.931264 261.87956 C 80.902314 261.60471 80.819862 261.33836 80.725155 261.07973 C 80.543002 260.59736 80.346106 260.12072 80.151469 259.6433 C 79.858516 258.93348 79.559959 258.226 79.263672 257.51758 C 78.784412 256.50578 78.306582 255.4933 77.826435 254.48193 C 77.286575 253.3715 76.739307 252.2647 76.187157 251.16034 C 75.908062 250.60185 75.631089 250.04228 75.350678 249.48446 C 75.028056 248.86594 74.705434 248.24742 74.382812 247.62891 C 74.16865 247.24453 73.943183 246.86663 73.712234 246.49213 C 73.553359 246.23615 73.388428 245.9837 73.21541 245.73702 C 72.932562 245.33133 72.636115 244.93534 72.340798 244.5387 C 71.416652 243.309 70.492506 242.0793 69.568359 240.84961 C 69.400533 240.60954 69.235823 240.36735 69.074219 240.12305 C 68.799993 239.66842 68.516899 239.21869 68.267008 238.74994 C 68.09793 238.43107 67.937275 238.10773 67.771484 237.78711 C 67.523667 237.28464 67.275294 236.78243 67.035325 236.27615 C 66.603329 235.37831 66.174815 234.47882 65.748569 233.57824 C 64.890322 231.76961 64.032075 229.96098 63.173828 228.15234 C 62.926432 227.73112 62.679036 227.3099 62.431641 226.88867 C 61.980376 226.20491 61.529164 225.52112 61.071713 224.84147 C 60.35736 223.77518 59.640971 222.71026 58.925781 221.64453 C 58.754198 221.40123 58.578404 221.161 58.398438 220.92383 C 58.212995 220.70637 58.033621 220.48237 57.821608 220.2896 C 57.623234 220.09568 57.395541 219.93649 57.171995 219.77361 C 56.928995 219.60583 56.661851 219.46633 56.373004 219.3982 C 56.120321 219.33125 55.859002 219.30274 55.598155 219.29494 C 55.549161 219.28977 55.500167 219.29618 55.451172 219.29688 z "
       id="path670" />
    <path
       transform="matrix(0.91107636,-0.41223764,-0.15205761,0.98837163,0,0)"
       style="opacity:1;fill:#ffb380;fill-opacity:1;stroke:none;stroke-width:16.91910934;stroke-linejoin:round;stroke-miterlimit:4;stroke-dasharray:none;stroke-opacity:1;paint-order:normal"
       d="M 96.429688 268.65625 C 96.166307 268.75728 95.915491 268.88959 95.677734 269.04102 C 95.407697 269.23514 95.128594 269.42055 94.888672 269.65234 C 94.632233 269.92447 94.397429 270.21688 94.192558 270.52983 C 93.567655 271.44966 92.959777 272.38087 92.34375 273.30664 C 92.177141 273.55339 91.990358 273.78621 91.785156 274.00195 C 91.490276 274.26995 91.177313 274.51706 90.86056 274.75845 C 88.663405 276.40021 86.443433 278.01106 84.233571 279.63559 C 83.934151 279.85505 83.626075 280.07053 83.383167 280.35461 C 83.171825 280.58361 83.024319 280.86357 82.91445 281.15332 C 82.804544 281.45203 82.71785 281.75896 82.618023 282.06121 C 82.360789 282.88229 82.127145 283.71071 81.865286 284.53032 C 81.775932 284.79837 81.663679 285.06026 81.51514 285.30108 C 81.382487 285.53337 81.216862 285.74402 81.037109 285.94141 C 80.727407 286.27017 80.386667 286.56723 80.056641 286.875 C 79.465015 287.40307 78.865283 287.92193 78.269531 288.44531 C 77.70559 288.91803 77.061583 289.27914 76.436315 289.66211 C 76.163084 289.83467 75.874454 289.9839 75.615427 290.17799 C 75.395747 290.341 75.18331 290.51826 75.009858 290.73107 C 74.625895 291.19947 74.248765 291.67355 73.871973 292.14764 C 73.685743 292.37821 73.470048 292.58163 73.265118 292.79498 C 73.060456 293.01435 72.839496 293.21715 72.609466 293.40953 C 72.363207 293.62117 72.122025 293.84121 71.846126 294.0145 C 71.584357 294.18207 71.333355 294.38763 71.027675 294.46686 C 70.719305 294.55449 70.400296 294.60063 70.079827 294.60574 C 69.790116 294.63624 69.458685 294.59793 69.220703 294.79883 C 68.992742 294.9771 68.854578 295.28964 68.548629 295.34984 C 68.249666 295.41693 67.946319 295.3157 67.644531 295.32422 C 67.35539 295.33441 67.064116 295.32623 66.783203 295.25 C 66.486015 295.17668 66.199781 295.0667 65.908203 294.97461 C 65.589807 294.86454 65.274977 294.74363 64.950689 294.65149 C 64.551455 294.53351 64.156963 294.39963 63.768442 294.25024 C 63.478506 294.13312 63.164373 294.09541 62.853516 294.10938 C 62.555436 294.11741 62.257537 294.08735 61.965762 294.02675 C 61.50159 293.9394 61.043117 293.8249 60.580836 293.72875 C 60.445796 293.70655 60.282748 293.65118 60.166016 293.75391 C 60.083346 294.03741 60.327818 294.2737 60.500845 294.46541 C 60.751422 294.7295 60.993547 295.00845 61.299648 295.21074 C 61.700436 295.48814 62.152701 295.67636 62.588731 295.88961 C 62.927648 296.03925 63.268817 296.18515 63.621584 296.29953 C 64.31503 296.54188 65.027205 296.72602 65.720848 296.96788 C 66.445158 297.21188 67.166041 297.46601 67.893331 297.70109 C 68.324362 297.84225 68.754121 297.98857 69.191406 298.10938 C 69.487398 298.17972 69.792313 298.20575 70.096137 298.19922 C 70.511857 298.20036 70.930053 298.20164 71.341797 298.13672 C 71.645025 298.08094 71.94288 298.00088 72.238125 297.91271 C 72.594127 297.79833 72.945861 297.67048 73.300253 297.55102 C 74.249062 297.20816 75.194357 296.8555 76.139783 296.50341 C 76.657929 296.30454 77.178261 296.11108 77.695068 295.9089 C 78.134377 295.72117 78.576771 295.53902 78.999742 295.31592 C 79.396964 295.11258 79.78528 294.89194 80.161963 294.65263 C 80.42529 294.48251 80.687804 294.31066 80.945511 294.13212 C 81.441438 293.78661 81.884815 293.3737 82.330078 292.9668 C 82.613023 292.69809 82.89481 292.42772 83.155466 292.137 C 84.004042 291.2226 84.823311 290.28172 85.650898 289.34844 C 85.916799 289.04678 86.181068 288.74216 86.478516 288.4707 C 86.676007 288.2784 86.944096 288.16703 87.220863 288.17622 C 87.491195 288.17555 87.756585 288.23974 88.017833 288.30276 C 88.595694 288.44876 89.153749 288.66049 89.717822 288.8508 C 91.14847 289.34389 92.579118 289.83699 94.009766 290.33008 C 94.376953 290.44076 94.744141 290.55143 95.111328 290.66211 C 95.52592 290.74533 95.945113 290.8017 96.363281 290.86328 C 96.765897 290.86991 97.1699 290.86976 97.570312 290.82227 C 97.88707 290.77401 98.198038 290.68884 98.495961 290.57128 C 98.787935 290.4554 99.066468 290.30623 99.327848 290.1323 C 99.960694 289.70503 100.56894 289.24296 101.17675 288.78115 C 101.85779 288.26561 102.53674 287.74731 103.2168 287.23047 C 103.48585 286.99657 103.75933 286.76746 104.01758 286.52148 C 104.25193 286.26085 104.41142 285.92935 104.44623 285.57892 C 104.4938 285.26147 104.50497 284.9393 104.48529 284.61904 C 104.4726 284.30209 104.42125 283.98824 104.37783 283.67447 C 104.26713 283.0231 104.15759 282.37153 104.0343 281.7224 C 103.77717 280.33325 103.51364 278.9453 103.25391 277.55664 C 103.16612 277.19459 103.07303 276.83391 102.97461 276.47461 C 102.81702 276.08033 102.64586 275.69145 102.45432 275.31242 C 102.29397 275.00042 102.11981 274.69544 101.94306 274.39247 C 101.77901 274.11971 101.59686 273.85836 101.41381 273.5982 C 101.23336 273.34814 101.04303 273.10572 100.84766 272.86719 C 100.33562 272.25882 99.777965 271.69133 99.228516 271.11719 C 98.574203 270.44664 97.918755 269.77721 97.263672 269.10742 C 97.067711 268.93342 96.879892 268.71828 96.613225 268.65847 C 96.552383 268.65299 96.489604 268.63308 96.429688 268.65625 z "
       id="path675" />
    <path
       style="opacity:1;fill:#ffb380;fill-opacity:1;stroke:none;stroke-width:10;stroke-linejoin:round;stroke-miterlimit:4;stroke-dasharray:none;stroke-opacity:1;paint-order:normal"
       d="M 38.212891 247.30664 C 37.650064 247.52958 37.130704 247.84481 36.589967 248.11424 C 36.009979 248.42344 35.40654 248.70852 34.90625 249.14258 C 34.458111 249.48865 34.236057 250.07766 34.275391 250.63477 C 34.285826 250.88544 34.382583 251.12389 34.513373 251.33502 C 34.638494 251.54054 34.873516 251.69558 35.120506 251.66837 C 35.389356 251.6582 35.606708 251.48246 35.814094 251.33107 C 36.201934 251.05442 36.587145 250.77203 37 250.5332 C 37.303441 250.38584 37.688613 250.37785 37.970241 250.57909 C 38.150147 250.71076 38.456463 250.82864 38.622294 250.61452 C 38.774783 250.39422 38.656341 250.12328 38.671875 249.87891 C 38.694986 249.50268 38.93262 249.18956 39.045001 248.83902 C 39.173738 248.49149 39.200308 248.07511 38.992188 247.75195 C 38.829493 247.48633 38.533195 247.28562 38.212891 247.30664 z "
       id="path686" />
    <path
       style="opacity:1;fill:#ffffff;fill-opacity:1;stroke:none;stroke-width:10;stroke-linejoin:round;stroke-miterlimit:4;stroke-dasharray:none;stroke-opacity:1;paint-order:normal"
       d="M 40.914062 234.45117 C 40.681764 234.47968 40.497226 234.65306 40.327922 234.80253 C 40.069822 235.03087 39.891805 235.33055 39.690005 235.60616 C 39.415443 236.01096 39.092619 236.38842 38.697586 236.68039 C 38.493331 236.85959 38.230041 236.96825 38.056641 237.18164 C 37.883631 237.38189 37.872715 237.69459 38.037879 237.90264 C 38.204127 238.1306 38.483876 238.22184 38.721926 238.35244 C 39.036873 238.51555 39.343459 238.70657 39.586665 238.96806 C 39.90616 239.28551 40.179863 239.64933 40.398438 240.04297 C 40.622412 240.46664 40.785092 240.91821 40.965069 241.36138 C 41.233874 242.0404 41.502679 242.71942 41.771484 243.39844 C 41.894589 243.79827 42.000216 244.2121 41.982616 244.63383 C 41.978987 244.94408 41.931487 245.26903 41.753181 245.53095 C 41.605595 245.76483 41.400737 245.95414 41.220703 246.16211 C 40.911206 246.48892 40.594727 246.81049 40.244141 247.09375 C 39.992183 247.27022 39.712002 247.4174 39.40625 247.4707 C 39.074692 247.54258 38.734197 247.49206 38.401269 247.4585 C 38.152344 247.42676 37.902309 247.38162 37.650391 247.40039 C 37.36757 247.43559 37.131104 247.66807 37.087891 247.94922 C 37.034801 248.21886 37.135168 248.52972 37.380088 248.67331 C 37.61479 248.8303 37.914283 248.81825 38.178967 248.75901 C 38.58997 248.67211 39.002062 248.59036 39.415015 248.51301 C 39.880658 248.41642 40.343909 248.3086 40.807092 248.20096 C 41.20388 248.10877 41.611593 248.08125 42.014171 248.02426 C 42.470333 247.96471 42.928266 247.90492 43.374789 247.79175 C 43.660918 247.71563 43.940903 247.61401 44.210526 247.49191 C 44.757397 247.23931 45.276127 246.92925 45.777058 246.5957 C 46.164305 246.33998 46.525627 246.0466 46.864798 245.73021 C 47.340107 245.28654 47.790952 244.81743 48.240076 244.34749 C 48.552021 244.01661 48.860223 243.68227 49.166016 243.3457 C 49.330087 243.13431 49.399492 242.85574 49.357422 242.5918 C 49.270224 242.31064 49.059371 242.09559 48.886719 241.86523 C 48.218362 241.05824 47.535502 240.26316 46.830078 239.48828 C 46.324629 238.92359 45.801974 238.37462 45.282392 237.82301 C 44.640633 237.15765 43.997639 236.49328 43.340228 235.84333 C 43.045687 235.55744 42.749324 235.27188 42.42772 235.01642 C 42.210298 234.85193 41.972958 234.711 41.71431 234.62214 C 41.473822 234.52874 41.22067 234.46648 40.962891 234.44922 L 40.914562 234.45115 L 40.914062 234.45117 z "
       id="path678" />
    <path
       style="fill:none;stroke:#5c2500;stroke-width:0.14012985;stroke-linecap:butt;stroke-linejoin:miter;stroke-miterlimit:4;stroke-dasharray:none;stroke-opacity:1;opacity:1;filter:url(#filter1985)"
       d="m 30.592448,256.13132 c 0.389479,1.14953 1.002757,2.22277 1.795385,3.14193 0.06193,0.0718 0.124932,0.14269 0.18899,0.21261"
       id="path689"
       inkscape:connector-curvature="0"
       inkscape:path-effect="#path-effect691"
       inkscape:original-d="m 30.592448,256.13132 c 0.598728,1.04705 1.197189,2.09436 1.795385,3.14193 0.598199,1.04758 0.126259,0.14148 0.18899,0.21261"
       transform="matrix(1.0111622,0,0,0.81658516,-0.46111805,47.13692)" />
    <path
       inkscape:connector-curvature="0"
       style="opacity:1;fill:#ffb380;fill-opacity:1;stroke:none;stroke-width:0.08216439;stroke-linejoin:round;stroke-miterlimit:4;stroke-dasharray:none;stroke-opacity:1;paint-order:normal"
       d="m 73.179362,259.54782 c -0.235642,0.01 -0.473099,0.0757 -0.655719,0.23067 -0.344044,0.24026 -0.734036,0.40097 -1.122382,0.55416 -0.295882,0.11701 -0.590549,0.23752 -0.879201,0.37139 -0.197735,0.0902 -0.409937,0.14214 -0.624548,0.17228 -0.460284,0.0802 -0.924495,0.13534 -1.384831,0.21529 -0.277227,0.0338 -0.551166,0.099 -0.809085,0.20718 -0.169828,0.0657 -0.355902,0.12528 -0.471524,0.27586 -0.12248,0.17004 -0.121358,0.43179 0.04297,0.5749 0.179524,0.17465 0.446041,0.16164 0.677274,0.19076 0.575256,0.0599 1.154416,0.0397 1.731741,0.0425 0.729347,3.2e-4 1.458764,-0.002 2.187843,-0.0233 0.319206,-0.008 0.638411,-0.0162 0.957617,-0.0242 0.56164,0.0714 1.120801,0.16028 1.680198,0.24714 0.238344,0.0314 0.503739,-0.009 0.684451,-0.17886 0.181576,-0.15212 0.246633,-0.41782 0.165458,-0.63899 -0.06678,-0.20855 -0.225037,-0.36958 -0.369718,-0.52733 -0.384018,-0.41164 -0.783494,-0.80851 -1.171848,-1.21603 -0.150735,-0.1539 -0.25051,-0.38528 -0.464692,-0.45994 -0.05619,-0.0165 -0.115955,-0.0192 -0.174008,-0.0135 z"
       id="path1499-6" />
    <path
       style="opacity:1;fill:#ffb380;fill-opacity:1;stroke:none;stroke-width:0.1;stroke-linejoin:round;stroke-miterlimit:4;stroke-dasharray:none;stroke-opacity:1;paint-order:normal"
       d="M 74.679688 260.62109 C 74.392894 260.63321 74.103892 260.71324 73.881631 260.90183 C 73.462904 261.19425 72.988256 261.38984 72.51561 261.57629 C 72.155501 261.7187 71.79687 261.86537 71.445559 262.0283 C 71.204902 262.13806 70.946636 262.20129 70.685439 262.23797 C 70.12524 262.33552 69.560262 262.40269 69 262.5 C 68.662594 262.54107 68.329191 262.62045 68.015285 262.75215 C 67.808592 262.83206 67.582127 262.90463 67.441406 263.08789 C 67.292339 263.29484 67.293705 263.61341 67.493708 263.78758 C 67.712202 264.00015 68.036572 263.98431 68.317999 264.01975 C 69.018128 264.09269 69.723007 264.06804 70.425654 264.07149 C 71.313322 264.07188 72.201075 264.06982 73.088416 264.0432 C 73.476913 264.03336 73.865409 264.02351 74.253906 264.01367 C 74.937462 264.10057 75.618002 264.20874 76.298828 264.31445 C 76.58891 264.35264 76.911915 264.30409 77.131854 264.09677 C 77.352844 263.91162 77.432024 263.58825 77.333229 263.31907 C 77.251953 263.06525 77.059343 262.86926 76.883255 262.67727 C 76.415878 262.17628 75.929686 261.69325 75.457031 261.19727 C 75.273576 261.00997 75.152143 260.72836 74.891468 260.63749 C 74.823078 260.61739 74.750342 260.61405 74.679688 260.62109 z "
       id="path1499" />
  </g>
</svg>
