<?xml version="1.0" encoding="UTF-8" standalone="no"?>
<!-- Created with Inkscape (http://www.inkscape.org/) -->

<svg
   xmlns:dc="http://purl.org/dc/elements/1.1/"
   xmlns:cc="http://creativecommons.org/ns#"
   xmlns:rdf="http://www.w3.org/1999/02/22-rdf-syntax-ns#"
   xmlns:svg="http://www.w3.org/2000/svg"
   xmlns="http://www.w3.org/2000/svg"
   xmlns:sodipodi="http://sodipodi.sourceforge.net/DTD/sodipodi-0.dtd"
   xmlns:inkscape="http://www.inkscape.org/namespaces/inkscape"
   width="10cm"
   height="10cm"
   viewBox="0 0 100 99.999997"
   version="1.1"
   id="svg8"
   inkscape:version="0.92.4 (5da689c313, 2019-01-14)"
   sodipodi:docname="kriegerInk.svg">
  <defs
     id="defs2" />
  <sodipodi:namedview
     id="base"
     pagecolor="#ffffff"
     bordercolor="#666666"
     borderopacity="1.0"
     inkscape:pageopacity="0"
     inkscape:pageshadow="2"
     inkscape:zoom="0.7"
     inkscape:cx="-173.32346"
     inkscape:cy="291.884"
     inkscape:document-units="mm"
     inkscape:current-layer="layer1"
     showgrid="false"
     units="cm"
     inkscape:pagecheckerboard="true"
     inkscape:window-width="1280"
     inkscape:window-height="656"
     inkscape:window-x="0"
     inkscape:window-y="36"
     inkscape:window-maximized="1" />
  <metadata
     id="metadata5">
    <rdf:RDF>
      <cc:Work
         rdf:about="">
        <dc:format>image/svg+xml</dc:format>
        <dc:type
           rdf:resource="http://purl.org/dc/dcmitype/StillImage" />
        <dc:title></dc:title>
        <dc:creator>
          <cc:Agent>
            <dc:title>Moritz Mockenhaupt</dc:title>
          </cc:Agent>
        </dc:creator>
        <dc:date>6. 12. 2020</dc:date>
      </cc:Work>
    </rdf:RDF>
  </metadata>
  <g
     inkscape:label="Ebene 1"
     inkscape:groupmode="layer"
     id="layer1"
     transform="translate(0,-197.00002)">
    <path
       style="opacity:1;fill:#ffb380;fill-opacity:1;stroke:none;stroke-width:5.65047979;stroke-linejoin:round;stroke-miterlimit:4;stroke-dasharray:none;stroke-opacity:1;paint-order:normal"
       d="m 30.089195,231.99602 c -0.293215,0.007 -0.582012,0.0637 -0.873281,0.093 -1.580899,0.19466 -3.160187,0.40503 -4.745565,0.56075 -0.843581,0.0766 -1.6893,0.14031 -2.536629,0.14907 -0.797645,0.007 -1.596728,-0.0178 -2.392823,0.0448 -0.346601,0.0419 -0.629612,0.26405 -0.943488,0.39682 -0.100394,0.0418 -0.217208,0.13113 -0.185567,0.2548 0.0092,0.1556 0.163415,0.25142 0.304659,0.2732 0.751734,0.22983 1.534264,0.33763 2.316113,0.39857 1.19785,0.10406 2.39636,0.20292 3.590853,0.3415 0.743011,0.085 1.486581,0.179 2.23521,0.19352 0.844735,0.0235 1.689833,10e-4 2.534723,8.5e-4 1.407644,-0.008 2.815288,-0.0167 4.222931,-0.0251 1.272754,0.32349 2.533239,0.69821 3.820561,0.96197 1.416115,0.30313 2.832882,0.60317 4.250134,0.90092 0.963752,0.52213 1.824127,1.20707 2.696499,1.86488 0.198776,0.15848 0.433468,0.31393 0.698984,0.29744 0.168102,-0.0146 0.36213,-0.047 0.464943,-0.19679 0.15363,-0.24392 0.161306,-0.54151 0.174435,-0.82055 0.01233,-0.60725 -0.01435,-1.21441 -0.02219,-1.82157 -0.0014,-0.16786 -0.03368,-0.34197 0.06848,-0.48882 0.18292,-0.38868 0.407852,-0.75525 0.622436,-1.12679 0.100735,-0.29455 0.09997,-0.60966 0.0916,-0.91709 -0.04998,-0.25434 -0.301015,-0.42013 -0.545827,-0.45026 -0.737095,-0.0979 -1.481985,-0.0982 -2.22369,-0.1296 -1.037242,-0.0344 -2.076745,-0.0513 -3.112895,0.0197 -0.40604,0.0281 -0.815923,0.0383 -1.219538,-0.0233 -1.93506,-0.22258 -3.869976,-0.4464 -5.804762,-0.67136 -1.141594,-0.0468 -2.284074,-0.0663 -3.426444,-0.0813 -0.01995,2.5e-4 -0.0399,5.1e-4 -0.05986,7.6e-4 z"
       id="path9"
       inkscape:connector-curvature="0" />
    <path
       style="opacity:0.98999999;fill:#ffb380;fill-opacity:1;stroke:none;stroke-width:5.65047979;stroke-linejoin:round;stroke-miterlimit:4;stroke-dasharray:none;stroke-opacity:1;paint-order:normal"
       d="m 67.965069,231.03477 c -1.862893,0.38259 -3.725785,0.76517 -5.588678,1.14776 -0.893012,0.0905 -1.787481,0.16882 -2.684018,0.21447 -1.490558,0.0851 -2.981166,0.1694 -4.471785,0.25346 -0.660353,0.0611 -1.320311,0.12622 -1.979875,0.19534 -0.148553,0.007 -0.368827,0.01 -0.410751,0.18895 -0.03265,0.14941 0.07638,0.27333 0.130434,0.40258 0.05383,0.12495 0.07827,0.2605 0.08498,0.39573 0.03691,0.30194 0.06234,0.61706 0.214099,0.88777 0.14656,0.23165 0.380535,0.38368 0.574073,0.57149 0.167922,0.16965 0.268766,0.39334 0.328677,0.6218 0.05753,0.18902 0.07075,0.3913 0.03237,0.58547 -0.04042,0.22002 -0.135415,0.42478 -0.234331,0.62379 -0.07008,0.11383 -0.02644,0.35202 0.147211,0.29877 0.265963,-0.0438 0.504346,-0.17901 0.760704,-0.256 0.467119,-0.14829 0.943034,-0.26614 1.413349,-0.40352 2.509065,-0.70704 5.017603,-1.41598 7.526995,-2.12184 0.268507,-0.08 0.545778,-0.12266 0.819069,-0.1824 0.526546,-0.10458 1.055453,-0.20082 1.589811,-0.25574 0.998247,-0.11434 1.997981,-0.21528 2.997398,-0.31876 2.280601,-0.2329 4.560756,-0.47009 6.840826,-0.70811 0.713141,-0.0885 1.419881,-0.2291 2.111132,-0.42584 0.746841,-0.20774 1.493591,-0.41583 2.240398,-0.6237 0.136917,-0.0457 0.287152,-0.11064 0.352054,-0.24941 0.03426,-0.10708 -0.0434,-0.21861 -0.143104,-0.25491 -0.126509,-0.049 -0.267195,-0.011 -0.399874,-0.0188 -0.503299,0.0122 -1.006576,-0.014 -1.508361,-0.0517 -1.405045,-0.098 -2.811286,-0.17909 -4.21854,-0.23778 -2.153411,-0.0942 -4.306838,-0.18808 -6.460256,-0.28217 -0.02134,10e-4 -0.04267,0.002 -0.06401,0.003 z"
       id="path820"
       inkscape:connector-curvature="0" />
    <path
       style="opacity:0.9;fill:#ffb380;fill-opacity:1;stroke:none;stroke-width:5.65047979;stroke-linejoin:round;stroke-miterlimit:4;stroke-dasharray:none;stroke-opacity:1;paint-order:normal"
       d="m 48.705982,230.01835 c -0.323471,0.0509 -0.626086,0.25219 -0.775241,0.54697 -0.160766,0.284 -0.227321,0.6068 -0.327989,0.91424 -0.07819,0.26205 -0.185114,0.5146 -0.297251,0.76367 -0.08115,0.16681 -0.172311,0.32868 -0.255766,0.49415 -0.0755,0.15247 -0.0983,0.32483 -0.08581,0.49326 0.01472,0.2203 0.05885,0.43741 0.08377,0.65667 0.04376,0.32634 0.08167,0.65583 0.05912,0.98553 -0.01493,0.45094 -0.05328,0.9009 -0.05735,1.35221 0.01504,0.3753 0.137173,0.73923 0.313933,1.06824 0.199884,0.39522 0.456207,0.75768 0.699181,1.12684 0.226929,0.32051 0.458313,0.64953 0.779963,0.8829 0.160219,0.13045 0.38128,0.14922 0.577939,0.11242 0.246588,-0.0383 0.461262,-0.17602 0.673842,-0.29798 0.402821,-0.24532 0.790676,-0.52256 1.230453,-0.69993 0.393639,-0.16611 0.80085,-0.30255 1.178727,-0.50397 0.193487,-0.11091 0.354387,-0.27484 0.463563,-0.46918 0.193433,-0.31998 0.265467,-0.69672 0.286958,-1.06565 0.02347,-0.43083 -0.01553,-0.86144 -0.03322,-1.29172 -0.02132,-0.39134 -0.04264,-0.78269 -0.06396,-1.17404 -0.03372,-0.25367 -0.135397,-0.50014 -0.302388,-0.69527 -0.302537,-0.24846 -0.667528,-0.4001 -0.994353,-0.6114 -0.229897,-0.15943 -0.425386,-0.39335 -0.475246,-0.67495 -0.06637,-0.32823 -0.06213,-0.66487 -0.08886,-0.99749 -0.0068,-0.15121 -0.02886,-0.31679 -0.140476,-0.42941 -0.158285,-0.18671 -0.401196,-0.27743 -0.638046,-0.31067 -0.23604,-0.0351 -0.47352,0.0167 -0.710086,-0.001 -0.235312,-0.0187 -0.45951,-0.0965 -0.690736,-0.13837 -0.134578,-0.0288 -0.273042,-0.0431 -0.410666,-0.036 z"
       id="path823"
       inkscape:connector-curvature="0" />
    <path
       style="opacity:1;fill:#ffb380;fill-opacity:1;stroke:none;stroke-width:5.65047979;stroke-linejoin:round;stroke-miterlimit:4;stroke-dasharray:none;stroke-opacity:1;paint-order:normal"
       d="m 63.611798,260.65334 c -0.196698,0.10465 -0.281826,0.3318 -0.323848,0.53829 -0.08565,0.42748 -0.0091,0.86352 0.02417,1.29245 0.08205,0.8849 0.243796,1.76641 0.541413,2.60555 0.188037,0.54363 0.426681,1.06749 0.660417,1.59248 0.17359,0.38774 0.330413,0.78376 0.44368,1.19368 0.35255,1.18773 0.695465,2.3783 1.043426,3.56737 0.08551,0.75826 -0.0381,1.51728 -0.07861,2.27418 0.0012,0.21201 -0.05907,0.42855 0.0041,0.63668 0.117905,0.34392 0.474507,0.58591 0.837744,0.56835 0.737605,0.0276 1.456004,-0.19204 2.191295,-0.20643 0.683562,0.007 1.356837,0.14159 2.037615,0.18749 1.005811,0.0888 2.018442,0.11619 3.026681,0.0549 0.18167,-0.008 0.365009,-0.0411 0.525232,-0.13132 0.129967,-0.0618 0.278536,-0.16456 0.271776,-0.32611 0.0018,-0.17611 -0.132468,-0.34269 -0.30565,-0.37702 -0.584843,-0.17991 -1.193478,-0.29411 -1.749291,-0.55853 -0.550097,-0.25227 -1.084889,-0.5363 -1.622144,-0.81449 -0.316111,-0.17096 -0.636425,-0.34105 -0.919422,-0.56418 -0.350288,-0.29065 -0.652074,-0.66245 -0.78248,-1.10479 -0.231159,-0.69052 -0.313995,-1.41755 -0.430582,-2.1332 -0.157452,-1.0306 -0.31247,-2.06173 -0.476118,-3.0913 -0.187442,-0.89362 -0.435009,-1.77306 -0.678479,-2.6526 -0.272471,-0.93342 -0.563532,-1.86128 -0.843943,-2.79233 -0.05454,-0.17578 -0.192986,-0.34198 -0.383282,-0.36943 -0.250018,0.009 -0.476946,0.12793 -0.704355,0.22008 -0.368812,0.15743 -0.739691,0.34619 -1.148348,0.36279 -0.377656,0.0296 -0.757415,-0.0239 -1.134672,0.019 l -0.02603,0.008 z"
       id="path826"
       inkscape:connector-curvature="0" />
    <path
       style="opacity:1;fill:#ffb380;fill-opacity:1;stroke:none;stroke-width:6.62653732;stroke-linejoin:round;stroke-miterlimit:4;stroke-dasharray:none;stroke-opacity:1;paint-order:normal"
       d="m 29.190249,265.1151 c -0.538371,0.58827 -1.075929,1.17737 -1.611286,1.76872 -0.356977,0.39255 -0.715198,0.78388 -1.078325,1.17004 -1.519742,1.59121 -3.039484,3.18242 -4.559226,4.77362 -0.179447,0.15998 -0.358894,0.31995 -0.538341,0.47993 -0.103187,0.12877 -0.200717,0.26293 -0.286444,0.40537 -0.05238,0.13458 -0.09846,0.27715 -0.08984,0.42408 0.01647,0.15855 0.09219,0.30837 0.202046,0.41538 0.09515,0.0972 0.20869,0.17218 0.331145,0.22491 0.120365,0.0482 0.250115,0.0794 0.380029,0.0617 0.156632,-0.005 0.302815,-0.0756 0.458327,-0.0888 0.160834,-4.6e-4 0.318997,0.041 0.477925,0.0633 0.181862,0.0309 0.363734,0.0726 0.549343,0.0683 0.144029,-10e-4 0.289098,-0.0193 0.428203,-0.0619 0.15064,-0.0381 0.301515,-0.12987 0.370411,-0.28332 0.07099,-0.14242 0.05762,-0.30857 0.06426,-0.4636 0.0029,-0.19373 -0.0075,-0.38772 0.006,-0.5813 0.02019,-0.17262 0.126966,-0.31393 0.245589,-0.42718 0.250947,-0.2497 0.508524,-0.49176 0.763082,-0.73728 0.205519,-0.17933 0.414953,-0.35465 0.639098,-0.50709 0.202599,-0.13836 0.407834,-0.27234 0.615331,-0.40218 1.007355,-0.6296 2.01523,-1.25825 3.022681,-1.88767 0.387085,-0.24251 0.776139,-0.48147 1.159664,-0.73039 0.342186,-0.21865 0.683759,-0.43857 1.018324,-0.67034 0.271125,-0.18252 0.53291,-0.38011 0.791357,-0.58228 0.188024,-0.14072 0.364539,-0.29804 0.534763,-0.46217 0.13598,-0.13584 0.268602,-0.27557 0.395706,-0.42075 0.208374,-0.25606 0.397772,-0.53032 0.55401,-0.8251 0.08856,-0.18381 0.17062,-0.37287 0.217801,-0.57337 0.03495,-0.14956 0.04921,-0.30486 0.03828,-0.45798 -0.01045,-0.14942 -0.03836,-0.29747 -0.0847,-0.4386 -0.04758,-0.15384 -0.11621,-0.29885 -0.179376,-0.44572 -0.173872,-0.38494 -0.355706,-0.76566 -0.535828,-1.14726 -0.07094,-0.14528 -0.216505,-0.26242 -0.377901,-0.2453 -0.158566,0.019 -0.301913,0.10153 -0.44879,0.16299 -0.321969,0.14444 -0.643934,0.28889 -0.965903,0.43333 -0.18729,0.10562 -0.374282,0.21352 -0.546252,0.34623 -0.289565,0.2145 -0.570108,0.44232 -0.850643,0.66987 -0.278486,0.22745 -0.556972,0.45489 -0.835457,0.68233 -0.09167,0.0965 -0.183343,0.19295 -0.27502,0.28943 z"
       id="path829"
       inkscape:connector-curvature="0" />
    <ellipse
       style="opacity:1;fill:#ffb380;fill-opacity:1;stroke:none;stroke-width:5.65047979;stroke-linejoin:round;stroke-miterlimit:4;stroke-dasharray:none;stroke-opacity:1;paint-order:normal"
       id="path832"
       cx="50.827694"
       cy="226.75682"
       rx="3.8443444"
       ry="4.0178738" />
    <path
       style="opacity:0.9;fill:#ffffff;fill-opacity:1;stroke:none;stroke-width:5.95532846;stroke-linejoin:round;stroke-miterlimit:4;stroke-dasharray:none;stroke-opacity:1;paint-order:normal"
       d="m 66.947392,257.96883 c -0.190067,-0.65915 -0.382715,-1.34747 -0.7532,-1.7428 -0.395976,-0.38243 -0.897338,-0.49588 -1.35691,-0.7114 -1.166269,-0.49354 -2.327495,-1.00319 -3.519482,-1.41904 -0.700946,-0.26005 -1.410453,-0.49492 -2.140455,-0.65983 -0.788308,-0.19314 -1.571116,-0.40653 -2.372409,-0.55367 -0.4793,-0.0755 -0.968498,-0.1259 -1.405327,-0.34485 -0.263057,-0.12795 -0.516779,-0.28648 -0.746644,-0.49596 -0.196767,-0.26095 -0.214313,-0.76192 -0.201325,-1.23279 0.022,-0.72743 -0.01702,-1.42434 -0.124791,-2.05737 -0.07626,-0.5088 -0.134356,-1.04253 -0.09793,-1.63085 0.05066,-1.48962 0.281849,-3.04864 0.469329,-4.58593 0.1536,-1.25415 0.323821,-2.51382 0.44283,-3.75774 0.05966,-0.84701 0.07011,-1.67214 0.05146,-2.47752 -0.06451,-0.57642 -0.307213,-0.94811 -0.491019,-1.37915 -0.293283,-0.63316 -0.586568,-1.26632 -0.879851,-1.89948 -0.328373,-0.35291 -0.749983,-0.48194 -1.158129,-0.62535 -0.124218,-0.0243 -0.297205,0.27469 -0.252348,0.46349 0.0489,0.51916 0.147111,0.99528 0.205629,1.50628 0.07583,0.54757 0.136553,1.1094 0.165578,1.69456 -0.02128,0.56607 -0.38222,1.21315 -0.733133,1.36397 -0.59562,0.30311 -1.169193,0.34665 -1.720327,0.33508 -0.538048,-0.0234 -1.055462,-0.14149 -1.534181,-0.37044 -0.315945,-0.17199 -0.541763,-0.54875 -0.722698,-0.97188 -0.271839,-0.58628 -0.467813,-1.27915 -0.61282,-2.01869 -0.09689,-0.55191 -0.161761,-1.13604 -0.295104,-1.65166 -0.155544,-0.34065 -0.457594,-0.39399 -0.748315,-0.37768 -0.117066,0.002 -0.274628,0.0658 -0.363052,0.28474 -0.147771,0.3215 -0.141276,0.6677 -0.196306,0.99673 -0.11773,0.85734 -0.347158,1.72694 -0.605887,2.57728 -0.241176,0.86255 -0.473456,1.73948 -0.590437,2.60394 -0.09301,0.83881 0.009,1.57347 0.07279,2.3158 0.06698,0.6452 0.09652,1.31878 0.123505,1.99336 0.02956,0.66862 0.05912,1.33723 0.08868,2.00583 -0.01813,0.41925 -0.209507,0.86029 -0.414831,1.20954 -0.796939,1.47894 -1.623135,2.92178 -2.490299,4.29379 -0.794382,1.27558 -1.582815,2.56257 -2.391248,3.81262 -1.05883,1.53457 -2.211949,2.8129 -3.348814,4.11234 -1.184811,1.32814 -2.399645,2.524 -3.606095,3.75372 -0.268534,0.29603 -0.461034,0.87412 -0.400481,1.27407 0.05735,0.2621 0.198792,0.41141 0.324314,0.56951 0.557134,0.6677 1.218839,1.14139 1.969435,1.32586 0.328425,0.002 0.685026,-0.31895 1.023893,-0.5647 2.318467,-1.77612 4.637794,-3.54246 6.953857,-5.348 0.899312,-0.72169 1.798623,-1.44338 2.697933,-2.16508 0.577038,-0.37819 1.131086,-0.38657 1.651932,-0.34134 1.077246,0.0747 2.125191,0.26685 3.179327,0.43268 2.249512,0.38428 4.494363,0.78616 6.728639,1.22678 1.958857,0.38166 3.916216,0.76878 5.872674,1.15917 0.224934,0.0846 0.384274,0.34563 0.459968,0.6906 0.112225,0.36576 0.348283,0.57824 0.634121,0.55839 0.57507,0.0392 1.190803,-0.13752 1.792113,-0.24504 0.437727,-0.0883 0.876063,-0.18087 1.314732,-0.27572 0.16657,-0.0683 0.324569,-0.42365 0.288846,-0.65785 -0.01681,-0.64206 -0.0853,-1.24998 -0.190956,-1.819 -0.0156,-0.0598 -0.03119,-0.11955 -0.04679,-0.17932 z"
       id="path91"
       inkscape:connector-curvature="0" />
    <path
       style="opacity:1;fill:#000000;fill-opacity:1;stroke:none;stroke-width:6.87015152;stroke-linejoin:round;stroke-miterlimit:4;stroke-dasharray:none;stroke-opacity:1;paint-order:normal"
       d="m 50.703514,222.04371 c -0.223049,-0.0322 -0.446098,-0.0645 -0.669138,-0.0967 -0.17119,0.0116 -0.344576,0.0356 -0.517785,0.0666 -0.317357,0.0841 -0.634723,0.16819 -0.952079,0.25229 -0.141333,0.0818 -0.258733,0.18623 -0.405818,0.26233 -0.145554,0.0828 -0.331954,0.10229 -0.460673,0.0521 -0.144206,-0.0577 -0.242235,-0.15605 -0.330106,-0.25563 -0.10385,-0.11647 -0.204813,-0.23458 -0.305079,-0.35308 -0.0907,-0.0983 -0.195337,-0.18967 -0.327632,-0.25806 -0.11487,-0.0651 -0.261923,-0.0978 -0.414807,-0.11403 -0.161451,-0.0203 -0.335837,-0.0138 -0.510665,0.01 -0.17585,0.0271 -0.351722,0.0739 -0.523524,0.13143 -0.175329,0.0566 -0.347939,0.12244 -0.517503,0.19346 -0.167254,0.072 -0.322219,0.16792 -0.445839,0.28154 -0.115203,0.10041 -0.211334,0.21283 -0.268315,0.3308 -0.06112,0.12448 -0.101759,0.252 -0.109332,0.37508 -0.01159,0.13028 0.02009,0.25278 0.06664,0.3677 0.04414,0.10125 0.09619,0.20752 0.21937,0.26271 0.122724,0.0589 0.299707,0.0142 0.45229,0.007 0.178768,-0.0203 0.318494,0.0722 0.302144,0.20404 0.0052,0.12537 -0.09847,0.26426 -0.0456,0.38143 0.05345,0.10971 0.160155,0.19304 0.235308,0.29204 0.09315,0.12655 0.16666,0.26335 0.211009,0.41046 0.04476,0.13943 0.0501,0.28995 0.07045,0.43607 0.04222,0.5306 0.0747,1.06333 0.112322,1.59494 0.02093,0.30556 0.04186,0.61112 0.06279,0.91668 0.0269,0.15775 0.04868,0.31744 0.104233,0.46663 0.04923,0.15458 0.123408,0.30028 0.209732,0.43987 0.07198,0.11117 0.159469,0.21461 0.248728,0.31666 0.258043,0.28924 0.517567,0.57769 0.786542,0.86053 0.121823,0.12856 0.246398,0.25591 0.391084,0.36976 0.101334,0.0713 0.217833,0.14302 0.378567,0.14557 0.135775,0.008 0.291437,-0.0403 0.403885,-0.12393 0.111167,-0.0852 0.174166,-0.19541 0.201213,-0.29953 0.0425,-0.14486 0.05042,-0.28754 0.03906,-0.42541 -0.01319,-0.1423 -0.06033,-0.27513 -0.107014,-0.40731 -0.152433,-0.39185 -0.317442,-0.77904 -0.468762,-1.17131 -0.05479,-0.14386 -0.117925,-0.28477 -0.160774,-0.43284 -0.06125,-0.19346 -0.107285,-0.39187 -0.142304,-0.5932 -0.01714,-0.14668 -0.02043,-0.29761 0.01049,-0.45223 0.02482,-0.12649 0.0535,-0.25552 0.124669,-0.38161 0.0605,-0.11153 0.173687,-0.21909 0.320548,-0.28099 0.139208,-0.062 0.297721,-0.0743 0.428487,-0.0515 0.159392,0.0282 0.283313,0.10485 0.361527,0.20441 0.08262,0.0894 0.1323,0.19602 0.181768,0.30115 0.122598,0.27135 0.233925,0.54706 0.348378,0.82155 0.06421,0.12699 0.136713,0.25103 0.234787,0.36161 0.09579,0.10038 0.179506,0.22808 0.368829,0.2477 0.149773,0.01 0.322727,-0.0927 0.354057,-0.20984 0.05824,-0.14378 0.08252,-0.28729 0.119321,-0.43069 0.180036,-0.74988 0.346173,-1.49897 0.513905,-2.24815 0.04908,-0.18124 0.100457,-0.36302 0.179569,-0.54413 0.04359,-0.11861 0.125471,-0.23984 0.254151,-0.33431 0.126113,-0.0905 0.283335,-0.14349 0.434234,-0.19417 0.158323,-0.0571 0.320721,-0.10119 0.478866,-0.15819 0.140823,-0.0548 0.272204,-0.15914 0.292167,-0.2714 0.03242,-0.11257 -0.03118,-0.20522 -0.08717,-0.29146 -0.109873,-0.15701 -0.245444,-0.30308 -0.425921,-0.41542 -0.118535,-0.0749 -0.238387,-0.1491 -0.369758,-0.21287 -0.210852,-0.10319 -0.425884,-0.20333 -0.660308,-0.28211 -0.08999,-0.027 -0.182259,-0.051 -0.275215,-0.0741 z"
       id="path834"
       inkscape:connector-curvature="0" />
  </g>
</svg>
