<?xml version="1.0" encoding="UTF-8" standalone="no"?>
<!-- Created with Inkscape (http://www.inkscape.org/) -->

<svg
   xmlns:dc="http://purl.org/dc/elements/1.1/"
   xmlns:cc="http://creativecommons.org/ns#"
   xmlns:rdf="http://www.w3.org/1999/02/22-rdf-syntax-ns#"
   xmlns:svg="http://www.w3.org/2000/svg"
   xmlns="http://www.w3.org/2000/svg"
   xmlns:sodipodi="http://sodipodi.sourceforge.net/DTD/sodipodi-0.dtd"
   xmlns:inkscape="http://www.inkscape.org/namespaces/inkscape"
   width="10cm"
   height="10cm"
   viewBox="0 0 100 100"
   version="1.1"
   id="svg8"
   inkscape:version="0.92.4 (5da689c313, 2019-01-14)"
   sodipodi:docname="Liege.svg">
  <defs
     id="defs2" />
  <sodipodi:namedview
     id="base"
     pagecolor="#ffffff"
     bordercolor="#666666"
     borderopacity="1.0"
     inkscape:pageopacity="0.0"
     inkscape:pageshadow="2"
     inkscape:zoom="4.0860165"
     inkscape:cx="249.83709"
     inkscape:cy="157.3279"
     inkscape:document-units="mm"
     inkscape:current-layer="layer1"
     showgrid="false"
     units="cm"
     inkscape:window-width="1280"
     inkscape:window-height="656"
     inkscape:window-x="0"
     inkscape:window-y="36"
     inkscape:window-maximized="1"
     inkscape:pagecheckerboard="true" />
  <metadata
     id="metadata5">
    <rdf:RDF>
      <cc:Work
         rdf:about="">
        <dc:format>image/svg+xml</dc:format>
        <dc:type
           rdf:resource="http://purl.org/dc/dcmitype/StillImage" />
        <dc:title />
      </cc:Work>
    </rdf:RDF>
  </metadata>
  <g
     inkscape:label="Ebene 1"
     inkscape:groupmode="layer"
     id="layer1"
     transform="translate(0,-197)">
    <path
       transform="matrix(-0.78910913,-0.61425302,0.82137886,-0.570383,0,0)"
       style="opacity:1;fill:#ffb380;fill-opacity:0.99215686;fill-rule:nonzero;stroke:#000002;stroke-width:2.61579132;stroke-linejoin:round;stroke-miterlimit:4;stroke-dasharray:none;stroke-dashoffset:0;stroke-opacity:0;paint-order:normal"
       d="M -252.4668 -164.89844 C -253.37392 -164.74599 -254.13056 -164.01491 -254.375 -163.13672 C -254.60376 -162.44673 -254.59171 -161.65921 -254.24725 -161.00885 C -253.93162 -160.40567 -253.4091 -159.944 -252.86279 -159.5531 C -252.55901 -159.34743 -252.17812 -159.1766 -251.8075 -159.28959 C -251.27788 -159.43989 -250.87405 -159.85287 -250.54957 -160.27897 C -249.87765 -161.2236 -249.79383 -162.53964 -250.32162 -163.56902 C -250.63008 -164.18608 -251.1906 -164.70352 -251.87844 -164.84652 C -252.07104 -164.89109 -252.26945 -164.90641 -252.4668 -164.89844 z "
       id="path184" />
    <path
       style="opacity:1;fill:#ffb380;fill-opacity:0.99215686;fill-rule:nonzero;stroke:#000002;stroke-width:1.69999993;stroke-linejoin:round;stroke-miterlimit:4;stroke-dasharray:none;stroke-dashoffset:0;stroke-opacity:0;paint-order:normal"
       d="M 15.152344 261.42578 C 14.864874 261.43715 14.577774 261.46864 14.296746 261.53094 C 14.026671 261.58521 13.768785 261.68274 13.51647 261.79131 C 13.130002 261.967 12.745037 262.14623 12.363281 262.33203 C 12.16639 262.43928 11.917718 262.5454 11.876953 262.79492 C 11.846886 263.03905 11.994346 263.25964 12.156688 263.42704 C 12.325753 263.61444 12.512914 263.78601 12.665318 263.98811 C 12.810942 264.17668 12.928081 264.39631 13.133194 264.52995 C 13.320214 264.65897 13.555908 264.70636 13.780044 264.67813 C 14.024292 264.64726 14.259917 264.56931 14.494141 264.49609 C 14.825114 264.38738 15.157205 264.2807 15.480469 264.15039 C 15.722274 264.05844 15.952292 263.90811 16.076172 263.67383 C 16.193158 263.45621 16.228197 263.20731 16.276064 262.96801 C 16.318171 262.72657 16.357717 262.48121 16.34379 262.23537 C 16.327667 261.98509 16.224761 261.72935 16.009766 261.58594 C 15.769155 261.41759 15.464466 261.41842 15.183031 261.42544 L 15.152344 261.42578 z "
       id="path28"
       inkscape:connector-curvature="0" />
    <path
       style="opacity:1;fill:#333333;fill-opacity:0.99215686;fill-rule:nonzero;stroke:#000002;stroke-width:1.92173505;stroke-linejoin:round;stroke-miterlimit:4;stroke-dasharray:none;stroke-dashoffset:0;stroke-opacity:0;paint-order:normal"
       d="M -17.287109 250.61719 C -17.67862 250.76346 -18.053914 250.94872 -18.41528 251.15811 C -19.020673 251.49622 -19.640479 251.8315 -20.321328 251.98886 C -21.010644 252.15373 -21.717074 252.23695 -22.404161 252.41175 C -22.925284 252.55479 -23.441584 252.71449 -23.953125 252.88867 C -24.222443 252.98041 -24.503025 253.02595 -24.78394 253.06468 C -25.845139 253.23043 -26.908777 253.38765 -27.980331 253.46901 C -28.767155 253.52398 -29.55646 253.55044 -30.345223 253.54281 C -31.23527 253.52914 -32.126371 253.43211 -32.990193 253.21282 C -34.010233 252.96057 -35.008718 252.63054 -36.018547 252.34154 C -36.720199 252.13512 -37.422151 251.92584 -38.137008 251.76974 C -39.038476 251.58135 -39.963948 251.51344 -40.883476 251.56114 C -42.038882 251.59816 -43.197578 251.72075 -44.352454 251.61028 C -44.995379 251.54229 -45.634754 251.44553 -46.275391 251.35938 C -46.690932 251.33474 -47.101002 251.55265 -47.333331 251.89445 C -47.57983 252.22738 -47.679662 252.63915 -47.770483 253.03608 C -47.834173 253.34697 -47.802612 253.67391 -47.683363 253.96782 C -47.591427 254.24895 -47.472447 254.51996 -47.359375 254.79297 C -47.232856 255.04104 -46.960668 255.21765 -46.677967 255.19473 C -46.261914 255.19193 -45.848304 255.09178 -45.431641 255.14062 C -44.995998 255.2756 -44.593541 255.49552 -44.167674 255.65648 C -43.646928 255.86589 -43.093336 255.96945 -42.543638 256.07022 C -40.920293 256.38175 -39.293711 256.67854 -37.678897 257.03234 C -36.756643 257.24356 -35.850283 257.51663 -34.940578 257.77516 C -32.610205 258.45075 -30.28819 259.15509 -27.953125 259.81445 C -27.439751 259.95477 -26.917023 260.05667 -26.390446 260.1326 C -25.161788 260.30907 -23.923372 260.40833 -22.684841 260.48402 C -21.411494 260.56434 -20.136205 260.60541 -18.861328 260.65234 C -18.319869 260.67234 -17.782283 260.74074 -17.244662 260.80416 C -16.717773 260.86353 -16.178927 260.89723 -15.656521 260.78429 C -15.165069 260.69304 -14.692442 260.52553 -14.208984 260.40234 C -13.792695 260.31013 -13.35799 260.27463 -12.937225 260.35911 C -12.449654 260.43922 -11.987897 260.62283 -11.515625 260.76172 C -11.219142 260.8169 -10.907134 260.62094 -10.817326 260.3352 C -10.668056 259.95167 -10.70042 259.53225 -10.678319 259.12915 C -10.660824 258.40819 -10.641793 257.67734 -10.445312 256.97852 C -10.331842 256.65016 -10.14703 256.35327 -9.9878356 256.04607 C -9.7620727 255.62902 -9.5363098 255.21197 -9.3105469 254.79492 C -9.1837736 254.50613 -9.1722309 254.18635 -9.1445312 253.87695 C -9.147976 253.50851 -9.3459686 253.16667 -9.6175766 252.92744 C -10.018096 252.54141 -10.551285 252.3509 -11.050781 252.13086 C -11.998986 251.75031 -12.963975 251.40753 -13.951767 251.14459 C -14.94687 250.8858 -15.967734 250.74895 -16.986328 250.62109 C -17.086688 250.61321 -17.186581 250.61197 -17.287109 250.61719 z "
       id="path133"
       transform="matrix(0.93095413,-0.36513614,0.23358579,0.9723362,0,0)" />
    <path
       transform="rotate(-10.959174)"
       style="opacity:1;fill:#ffffff;fill-opacity:0.99215686;fill-rule:nonzero;stroke:#000002;stroke-width:1.69999993;stroke-linejoin:round;stroke-miterlimit:4;stroke-dasharray:none;stroke-dashoffset:0;stroke-opacity:0;paint-order:normal"
       d="M 14.316406 251.73047 C 12.802054 251.91074 11.347761 252.39976 9.9230188 252.9244 C 9.1507013 253.20343 8.381194 253.49025 7.6054688 253.75977 C 6.7703757 253.93301 5.9108397 253.89873 5.064234 253.86003 C 4.3748515 253.82796 3.685473 253.79581 2.9960938 253.76367 C 2.524543 253.778 2.0863317 254.00704 1.7265625 254.29883 C 1.3647998 254.61002 1.1034401 255.02289 0.93430408 255.46643 C 0.41993552 256.66578 0.17275073 257.95798 -0.013052317 259.2434 C -0.20106429 260.85316 -0.26861555 262.47557 -0.25 264.0957 C -0.22678907 264.50503 -0.1064382 264.93698 0.20898438 265.21875 C 0.52176162 265.45955 0.93907178 265.45878 1.3134895 265.42027 C 2.8591548 265.24834 4.3963865 265.00836 5.9356298 264.78736 C 7.3903363 264.57484 8.844922 264.35948 10.297247 264.13223 C 11.375959 263.91299 12.341796 263.35151 13.267578 262.7793 C 14.283693 262.12871 15.255283 261.40716 16.164429 260.6138 C 16.556995 260.25709 16.931511 259.85154 17.130813 259.35265 C 17.330261 258.82059 17.324522 258.23962 17.249759 257.68389 C 17.181803 257.13968 17.150538 256.57733 17.30362 256.04393 C 17.464169 255.36159 17.654837 254.65285 17.517578 253.94922 C 17.37691 253.22888 16.925335 252.57842 16.299983 252.19472 C 15.791915 251.87384 15.186296 251.73234 14.589844 251.7207 C 14.498698 251.72396 14.407552 251.72721 14.316406 251.73047 z "
       id="path139" />
    <ellipse
       style="opacity:1;fill:#ffb380;fill-opacity:0.99215686;fill-rule:nonzero;stroke:#000002;stroke-width:1.5746963;stroke-linejoin:round;stroke-miterlimit:4;stroke-dasharray:none;stroke-dashoffset:0;stroke-opacity:0;paint-order:normal"
       id="path20"
       cx="140.33582"
       cy="254.19174"
       rx="4.1763201"
       ry="5.0103698"
       transform="matrix(0.99999993,3.6965468e-4,-0.27666766,0.96096566,0,0)" />
    <path
       transform="rotate(-5.5593217)"
       style="opacity:1;fill:#ffb380;fill-opacity:0.99215686;fill-rule:nonzero;stroke:#000002;stroke-width:1.75821567;stroke-linejoin:round;stroke-miterlimit:4;stroke-dasharray:none;stroke-dashoffset:0;stroke-opacity:0;paint-order:normal"
       d="M 41.546875 255.35352 C 41.286597 255.64393 41.092334 255.99293 40.989934 256.36957 C 40.892006 256.70728 40.885776 257.06183 40.852992 257.40963 C 40.812939 258.16789 40.789209 258.92708 40.784885 259.68641 C 40.755098 262.34233 40.72684 264.99829 40.686426 267.65408 C 40.668973 268.80421 40.647227 269.9544 40.59375 271.10352 C 40.533889 271.73361 40.429973 272.35824 40.353516 272.98633 C 40.32887 273.34379 40.407555 273.71601 40.62081 274.00884 C 40.874544 274.40632 41.267471 274.70548 41.708423 274.86767 C 42.294662 275.09804 42.930378 275.13247 43.545697 275.23623 C 44.083398 275.3098 44.607577 275.4633 45.148438 275.51562 C 45.76766 275.54166 46.398071 275.58857 47.007812 275.44922 C 47.284422 275.3975 47.540473 275.14857 47.502351 274.85233 C 47.467535 274.59615 47.207193 274.4581 46.985312 274.38282 C 46.321268 274.15176 45.665738 273.89676 45.002697 273.66264 C 44.513946 273.46972 43.987857 273.38138 43.46339 273.38087 C 43.205847 273.36594 42.941234 273.37526 42.690731 273.30808 C 42.34476 273.1944 42.095359 272.88963 41.949763 272.56684 C 41.754088 272.1398 41.76987 271.65345 41.831132 271.19798 C 41.912906 270.46909 41.965099 269.73682 41.973645 269.00326 C 42.008622 266.54053 42.022359 264.07729 42.092393 261.61521 C 42.141236 260.02653 42.195624 258.43804 42.251953 256.84961 C 42.244629 256.40522 42.166584 255.95036 41.943359 255.56055 C 41.853215 255.43734 41.710543 255.31923 41.546875 255.35352 z "
       id="path25" />
    <path
       style="opacity:1;fill:#000000;fill-opacity:0.99215686;fill-rule:nonzero;stroke:#000002;stroke-width:1.69999993;stroke-linejoin:round;stroke-miterlimit:4;stroke-dasharray:none;stroke-dashoffset:0;stroke-opacity:0;paint-order:normal"
       d="m 11.721623,262.44147 c -0.281697,0.0628 -0.562361,0.14586 -0.824776,0.26495 -0.231339,0.13364 -0.427216,0.36848 -0.427176,0.64716 0.01099,0.29757 0.118948,0.58016 0.172088,0.8713 0.09324,0.43278 0.159298,0.87137 0.195262,1.31267 0.08851,1.00404 0.151637,2.01071 0.275228,3.01134 0.04383,0.34277 0.120891,0.67999 0.202625,1.01529 0.07071,0.28329 0.246776,0.53583 0.483108,0.70621 0.215356,0.16275 0.449129,0.30024 0.680317,0.43924 0.253514,0.143 0.499033,0.30326 0.772363,0.40701 0.253102,0.10723 0.522671,0.18939 0.800621,0.1724 0.589665,0.0169 1.179746,0.0108 1.769422,0.001 0.286062,-0.009 0.599019,-0.0656 0.801309,-0.28652 0.199037,-0.19893 0.272311,-0.52283 0.129638,-0.77416 -0.1312,-0.2484 -0.321964,-0.45876 -0.469718,-0.69714 -0.15644,-0.22229 -0.265537,-0.47757 -0.2968,-0.74872 -0.06253,-0.33302 -0.110138,-0.66939 -0.134597,-1.0074 -0.03681,-0.42336 -0.01994,-0.84917 0.02438,-1.27126 0.02367,-0.30756 0.09142,-0.61366 0.07132,-0.9232 -0.03813,-0.27264 -0.26865,-0.46597 -0.519622,-0.54504 -0.287916,-0.11164 -0.58075,-0.21065 -0.87491,-0.30457 -0.223606,-0.0754 -0.438499,-0.19381 -0.588047,-0.38058 -0.192614,-0.23343 -0.281431,-0.52833 -0.407737,-0.79862 -0.118996,-0.23777 -0.1808,-0.51182 -0.361241,-0.71376 -0.152394,-0.16777 -0.36707,-0.26307 -0.583612,-0.31732 -0.265456,-0.0765 -0.546219,-0.11747 -0.822021,-0.091 l -0.04781,0.007 z"
       id="path30"
       inkscape:connector-curvature="0" />
    <path
       inkscape:connector-curvature="0"
       style="opacity:1;fill:#000000;fill-opacity:0.99215686;fill-rule:nonzero;stroke:#000002;stroke-width:1.14492786;stroke-linejoin:round;stroke-miterlimit:4;stroke-dasharray:none;stroke-dashoffset:0;stroke-opacity:0;paint-order:normal"
       d="m 15.487726,264.17458 c -0.189719,0.0423 -0.378743,0.0982 -0.555476,0.17844 -0.155804,0.09 -0.287724,0.24817 -0.287698,0.43586 0.0074,0.20041 0.08011,0.39073 0.115899,0.58681 0.0628,0.29147 0.107286,0.58685 0.131506,0.88406 0.05961,0.67621 0.102127,1.35419 0.185363,2.0281 0.02952,0.23085 0.08142,0.45796 0.136465,0.68379 0.04762,0.19079 0.166201,0.36087 0.325368,0.47562 0.145039,0.10961 0.302482,0.20221 0.458185,0.29582 0.170738,0.0963 0.336092,0.20424 0.520176,0.27412 0.170461,0.0722 0.352012,0.12755 0.539208,0.11611 0.397132,0.0114 0.794544,0.007 1.191683,6.7e-4 0.192659,-0.006 0.403432,-0.0442 0.539672,-0.19297 0.134048,-0.13397 0.183397,-0.35212 0.08731,-0.52138 -0.08836,-0.1673 -0.216839,-0.30897 -0.31635,-0.46952 -0.10536,-0.14971 -0.178835,-0.32164 -0.199891,-0.50425 -0.04211,-0.22429 -0.07418,-0.45083 -0.09065,-0.67847 -0.02479,-0.28513 -0.01343,-0.57191 0.01642,-0.85618 0.01594,-0.20714 0.06157,-0.41329 0.04803,-0.62176 -0.02568,-0.18362 -0.180932,-0.31383 -0.349959,-0.36708 -0.193908,-0.0752 -0.391127,-0.14187 -0.58924,-0.20513 -0.150596,-0.0508 -0.295324,-0.13052 -0.396042,-0.25631 -0.129723,-0.15722 -0.18954,-0.35583 -0.274605,-0.53787 -0.08014,-0.16013 -0.121767,-0.3447 -0.243291,-0.48071 -0.102636,-0.11299 -0.247217,-0.17717 -0.393056,-0.21371 -0.178781,-0.0515 -0.367871,-0.0791 -0.55362,-0.0613 l -0.0322,0.005 z"
       id="path30-6" />
    <path
       style="opacity:1;fill:#ffb380;fill-opacity:0.99215686;fill-rule:nonzero;stroke:#000002;stroke-width:1.99291253;stroke-linejoin:round;stroke-miterlimit:4;stroke-dasharray:none;stroke-dashoffset:0;stroke-opacity:0;paint-order:normal"
       d="M 28.408203 251.51562 C 28.03542 251.64337 27.654864 251.76599 27.32245 251.9832 C 27.09859 252.12439 26.885713 252.28831 26.708984 252.48633 C 26.505152 252.73849 26.338205 253.0213 26.226562 253.32617 C 26.140459 253.58975 26.129741 253.87037 26.15625 254.14453 C 26.210435 254.65843 26.376699 255.15135 26.556805 255.63289 C 26.805799 256.28406 27.093847 256.92092 27.306646 257.58546 C 27.404759 257.89382 27.480556 258.20942 27.517578 258.53125 C 27.609103 259.36179 27.659271 260.19623 27.724121 261.02914 C 27.905525 263.48568 28.090162 265.942 28.269122 268.39871 C 28.309226 268.93395 28.329268 269.47036 28.335811 270.00702 C 28.348917 270.77984 28.341767 271.55338 28.379036 272.32554 C 28.414673 272.85252 28.497421 273.3749 28.599847 273.89268 C 28.713538 274.48645 28.85656 275.07403 29.003148 275.66039 C 29.070948 275.94644 29.141668 276.23271 29.171048 276.52589 C 29.210572 276.78243 29.214181 277.04517 29.28125 277.29688 C 29.38399 277.62983 29.622443 277.90508 29.892578 278.11719 C 30.17988 278.33979 30.53704 278.46878 30.8998 278.48597 C 31.959057 278.5681 33.01964 278.63122 34.080479 278.68868 C 34.554955 278.71172 35.029431 278.73477 35.503906 278.75781 C 35.756078 278.72985 36.105569 278.87723 36.269531 278.60938 C 36.365999 278.40227 36.223445 278.1457 35.998403 278.1117 C 35.63364 277.96074 35.257613 277.83944 34.878976 277.72864 C 33.886589 277.44761 32.882481 277.20968 31.889287 276.9314 C 31.655511 276.89863 31.466416 276.72867 31.365234 276.52148 C 31.252286 276.28476 31.218896 276.02067 31.169922 275.76562 C 31.1084 275.3002 31.02146 274.8328 31.052533 274.36137 C 31.089802 273.60201 31.132957 272.84294 31.177734 272.08398 C 31.226629 271.63162 31.304974 271.18303 31.38376 270.73513 C 31.535492 269.93469 31.717567 269.14019 31.856086 268.33721 C 31.93548 267.85699 31.976435 267.37005 31.970703 266.88316 C 31.962051 266.11249 31.920457 265.34258 31.896314 264.57229 C 31.858949 263.55696 31.824657 262.54146 31.796682 261.52585 C 31.787351 260.82719 31.816119 260.12858 31.868882 259.43199 C 31.959036 258.08296 32.073163 256.73564 32.168281 255.38698 C 32.193096 255.0332 32.209711 254.67889 32.212891 254.32422 C 32.190247 254.06376 32.145243 253.80439 32.056047 253.55795 C 31.876871 253.06216 31.540135 252.63115 31.125763 252.30877 C 30.845467 252.08828 30.529904 251.91562 30.201007 251.77937 C 29.758499 251.60259 29.287447 251.49811 28.8125 251.46289 C 28.67109 251.44952 28.541691 251.46739 28.408203 251.51562 z "
       id="path136"
       transform="rotate(-7.5588919)" />
    <path
       style="opacity:1;fill:#2b1100;fill-opacity:1;stroke:none;stroke-width:0.066518;stroke-linejoin:round;stroke-miterlimit:4;stroke-dasharray:none;stroke-opacity:1;paint-order:normal"
       d="M 68.40625 237.44336 C 68.149733 237.51466 67.897161 237.6034 67.659297 237.72378 C 67.296302 237.89658 66.933307 238.06939 66.570312 238.24219 C 66.365127 238.34818 66.158428 238.47551 66.033982 238.67663 C 65.898771 238.8913 65.871309 239.17558 65.98518 239.40521 C 66.113578 239.67892 66.425408 239.77307 66.685895 239.87482 C 66.895274 239.94737 67.14104 239.98754 67.282386 240.17627 C 67.375971 240.29424 67.291663 240.4646 67.224609 240.57617 C 67.045249 240.80882 66.845209 241.02729 66.692785 241.28011 C 66.540933 241.52334 66.401874 241.7804 66.337723 242.06211 C 66.290746 242.27387 66.384898 242.48981 66.529297 242.64258 C 66.713666 242.81943 66.935856 242.95394 67.16549 243.06378 C 67.37484 243.16273 67.59895 243.23439 67.830078 243.25781 C 68.107735 243.28165 68.394402 243.2439 68.646484 243.12109 C 68.889973 243.00058 69.10183 242.82909 69.320312 242.66992 C 69.521934 242.52194 69.745165 242.38884 69.998047 242.35742 C 70.284117 242.32448 70.571544 242.36204 70.856477 242.38933 C 71.143153 242.42131 71.430249 242.45057 71.71875 242.45898 C 71.992229 242.45245 72.261301 242.39826 72.530931 242.35693 C 73.100912 242.26068 73.670792 242.16323 74.242321 242.07669 C 74.437998 242.05279 74.661004 242.01361 74.787109 241.8457 C 74.92856 241.63682 74.822999 241.36209 74.682489 241.18159 C 74.508568 240.95705 74.299762 240.76307 74.103516 240.55859 C 73.890994 240.35633 73.672019 240.1611 73.444694 239.97559 C 73.108189 239.70207 72.76653 239.43252 72.394099 239.20895 C 72.124211 239.04359 71.851017 238.88354 71.576172 238.72656 C 71.368013 238.6102 71.131132 238.51432 70.888084 238.55613 C 70.652261 238.59421 70.446112 238.72278 70.227047 238.80997 C 69.982387 238.91023 69.740149 239.05396 69.466797 239.04297 C 69.273055 239.03087 69.1236 238.8567 69.134049 238.66383 C 69.12229 238.4333 69.248064 238.22289 69.25573 237.99464 C 69.291903 237.72208 69.082829 237.46437 68.818571 237.41305 C 68.680239 237.37511 68.54082 237.40577 68.40625 237.44336 z "
       id="path2116"
       inkscape:connector-curvature="0" />
  </g>
</svg>
