<?xml version="1.0" encoding="UTF-8" standalone="no"?>
<!-- Created with Inkscape (http://www.inkscape.org/) -->

<svg
   xmlns:dc="http://purl.org/dc/elements/1.1/"
   xmlns:cc="http://creativecommons.org/ns#"
   xmlns:rdf="http://www.w3.org/1999/02/22-rdf-syntax-ns#"
   xmlns:svg="http://www.w3.org/2000/svg"
   xmlns="http://www.w3.org/2000/svg"
   xmlns:sodipodi="http://sodipodi.sourceforge.net/DTD/sodipodi-0.dtd"
   xmlns:inkscape="http://www.inkscape.org/namespaces/inkscape"
   width="14cm"
   height="14cm"
   viewBox="0 0 140 140"
   version="1.1"
   id="svg8"
   inkscape:version="0.92.4 (5da689c313, 2019-01-14)"
   sodipodi:docname="logoInk.svg">
  <defs
     id="defs2" />
  <sodipodi:namedview
     id="base"
     pagecolor="#ffffff"
     bordercolor="#666666"
     borderopacity="1.0"
     inkscape:pageopacity="0.0"
     inkscape:pageshadow="2"
     inkscape:zoom="0.7"
     inkscape:cx="617.17223"
     inkscape:cy="275.44032"
     inkscape:document-units="mm"
     inkscape:current-layer="layer1"
     showgrid="false"
     units="cm"
     inkscape:window-width="1280"
     inkscape:window-height="656"
     inkscape:window-x="0"
     inkscape:window-y="36"
     inkscape:window-maximized="1" />
  <metadata
     id="metadata5">
    <rdf:RDF>
      <cc:Work
         rdf:about="">
        <dc:format>image/svg+xml</dc:format>
        <dc:type
           rdf:resource="http://purl.org/dc/dcmitype/StillImage" />
        <dc:title></dc:title>
      </cc:Work>
    </rdf:RDF>
  </metadata>
  <g
     inkscape:label="Ebene 1"
     inkscape:groupmode="layer"
     id="layer1"
     transform="translate(0,-157)">
    <path
       inkscape:connector-curvature="0"
       style="opacity:0.98000004;fill:#afb56b;fill-opacity:1;stroke:none;stroke-width:5.30000019;stroke-linejoin:round;stroke-miterlimit:4;stroke-dasharray:none;stroke-opacity:0.00353358;paint-order:normal"
       d="m 89.870453,165.22489 c -3.534191,0.12357 -6.751418,1.78485 -9.85761,3.31579 -2.61129,1.34564 -5.30302,2.54652 -8.110289,3.42402 -6.056051,1.94495 -12.447982,2.69647 -18.794257,2.60249 -7.063838,0.0527 -14.220782,-0.37099 -21.178346,1.12296 -4.798323,1.08316 -9.195859,3.8675 -12.183029,7.78197 -5.403389,6.54348 -8.572299,14.7131 -9.8907592,23.04288 -1.09593,6.79504 -1.23139,13.72484 -0.70417,20.57965 0.48273,5.70424 1.7245502,11.45549 4.5595602,16.48255 2.7834,5.04511 6.625439,9.39762 10.550559,13.57643 4.175159,4.3509 8.62649,8.43056 13.202696,12.35404 6.170858,5.0717 13.166397,9.18387 20.722592,11.81163 6.541151,2.36872 13.597613,3.65742 20.551424,2.811 8.622789,-0.93063 16.87041,-4.08818 24.412876,-8.28041 4.32244,-2.46218 8.52008,-5.32173 11.77658,-9.12631 3.16968,-3.82465 5.18841,-8.41715 7.06909,-12.97 2.89031,-6.64982 5.88463,-13.25414 8.81404,-19.88636 2.3729,-5.71822 4.01331,-11.83942 3.95836,-18.06827 0.15304,-8.85173 -2.13644,-17.91287 -7.36004,-25.14824 -4.16256,-5.80069 -9.74642,-10.37344 -15.46832,-14.55836 -4.98517,-3.68174 -10.14541,-7.22106 -15.839826,-9.72102 -1.985831,-0.7478 -4.103479,-1.18749 -6.231131,-1.14644 z"
       id="path10" />
    <circle
       style="fill:#2f2e41;stroke-width:0.26458332"
       cx="71.550896"
       cy="202.12244"
       r="8.7312498"
       id="circle4" />
    <circle
       style="fill:#a0616a;stroke-width:0.26458332"
       cx="71.727974"
       cy="205.12662"
       r="6.4984388"
       id="circle6" />
    <path
       inkscape:connector-curvature="0"
       style="fill:#a0616a;stroke-width:0.26458332"
       d="m 81.605063,214.55786 c 0,0 -11.906256,-2.11667 -19.579175,0.52916 l 2.248961,17.85938 -0.529169,2.91042 15.875002,-0.52917 -1.058328,-2.91042 z"
       id="path8" />
    <path
       inkscape:connector-curvature="0"
       style="fill:#cccccc;stroke-width:0.26458332"
       d="m 73.331084,233.82981 a 80.047396,80.047396 0 0 1 -8.201705,-0.51966 2.2469131,2.2469131 0 0 1 -2.00066,-2.28741 l 0.193149,-8.3522 0.02249,-0.0326 c 2.300401,-3.33201 1.179841,-5.76564 0.317931,-7.07583 a 1.6924946,1.6924946 0 0 1 -0.278399,-0.93195 v 0 c -0.132192,-0.18398 -0.162042,0.10719 -0.0799,-0.10035 a 0.66408829,0.66408829 0 0 1 0.485791,-0.40684 l 1.313421,-0.26253 a 0.66119375,0.66119375 0 0 1 0.756218,0.43693 c 0.441331,1.31671 2.161472,5.55382 6.102927,5.55289 3.2927,-7.9e-4 4.52137,-4.65967 4.595008,-5.73634 a 0.66217006,0.66217006 0 0 1 0.659522,-0.61444 h 1.64056 a 0.69235637,0.69235637 0 0 1 0.546729,0.24721 0.65618254,0.65618254 0 0 1 0.0645,0.72793 c -1.8723,3.44217 0.863899,8.88886 0.891739,8.94338 l 0.0176,0.0344 -0.77198,8.01502 a 2.2596898,2.2596898 0 0 1 -1.73949,1.97818 c -1.193869,0.28085 -2.80701,0.3842 -4.535459,0.3842 z"
       id="path10-3" />
    <path
       inkscape:connector-curvature="0"
       style="fill:#2f2e41;stroke-width:0.26458332"
       d="m 58.222497,252.42764 c -1.777918,2.6e-4 -3.405788,-0.19585 -4.698867,-0.65862 -1.53711,-0.55009 -2.502432,-1.4397 -2.869071,-2.64454 a 3.4926482,3.4926482 0 0 1 0.42503,-3.08844 c 2.274019,-3.40522 10.165469,-4.36485 11.224379,-4.47905 l 0.560951,-4.6744 a 2.2571392,2.2571392 0 0 1 2.197798,-1.98076 l 13.290537,-0.20747 a 2.2281356,2.2281356 0 0 1 2.2478,1.84613 l 0.75525,4.15401 -8.714851,4.22533 1.317681,3.6897 -0.0859,0.0574 c -2.550874,1.70067 -9.885826,3.76049 -15.650715,3.76075 z"
       id="path12" />
    <path
       inkscape:connector-curvature="0"
       style="fill:#2f2e41;stroke-width:0.26458332"
       d="m 80.149854,240.09015 c 0,0 12.170831,-1.5875 11.377081,4.7625 -0.79375,6.35 -10.054172,10.84792 -24.077086,0 l 1.5875,-3.175 c 0,0 7.937505,2.11667 11.112505,0.52917 z"
       id="path14" />
    <path
       inkscape:connector-curvature="0"
       style="fill:#a0616a;stroke-width:0.26458332"
       d="m 69.30193,242.4714 c 0,0 0,-3.175 -2.645831,-2.91042 -2.645841,0.26459 -7.408341,0.52917 -7.408341,0.52917 0,0 -1.5875,1.05833 0.529172,1.5875 2.116669,0.52917 8.466669,3.175 8.466669,3.175 z"
       id="path16" />
    <path
       inkscape:connector-curvature="0"
       style="fill:#a0616a;stroke-width:0.26458332"
       d="m 73.799854,241.94223 c 0,0 0,-3.175 2.645828,-2.91041 2.645831,0.26458 7.408331,0.52916 7.408331,0.52916 0,0 1.5875,1.05834 -0.529159,1.5875 -2.116672,0.52917 -8.466672,3.175 -8.466672,3.175 z"
       id="path18" />
    <path
       inkscape:connector-curvature="0"
       style="fill:#a0616a;stroke-width:0.26458332"
       d="m 89.654053,241.34082 -3.947949,-13.68609 c 0,0 -0.79375,-4.7625 -1.5875,-9.26041 -0.79375,-4.49792 -3.704172,-3.96876 -3.704172,-3.96876 l -0.529169,0.26459 v 7.14375 l 0.529169,6.61458 5.282491,14.52676 a 2.7784187,2.7784187 0 1 0 3.95713,-1.63442 z"
       id="path20" />
    <path
       inkscape:connector-curvature="0"
       style="fill:#a0616a;stroke-width:0.26458332"
       d="m 62.95193,214.95473 c 0,0 -2.910422,-0.52917 -3.704172,3.96875 -0.79375,4.49792 -1.5875,9.26042 -1.5875,9.26042 L 53.712309,241.87 a 2.7769476,2.7769476 0 1 0 3.95713,1.63441 l 5.282491,-14.52676 0.529169,-6.61458 v -6.55213 a 0.9572625,0.9572625 0 0 0 -0.529169,-0.85621 z"
       id="path22" />
    <path
       inkscape:connector-curvature="0"
       style="fill:#2f2e41;stroke-width:0.26458332"
       d="m 65.295249,201.13446 a 19.325471,19.325471 0 0 0 8.360624,2.75481 l -0.88129,-1.05595 a 6.4763253,6.4763253 0 0 0 2.000549,0.39725 2.1909246,2.1909246 0 0 0 1.785811,-0.83586 2.0378976,2.0378976 0 0 0 0.136411,-1.88251 3.8598766,3.8598766 0 0 0 -1.214271,-1.51831 7.229176,7.229176 0 0 0 -6.728534,-1.20252 4.3205982,4.3205982 0 0 0 -2.009621,1.28911 2.4436387,2.4436387 0 0 0 -0.4928,2.26506"
       id="path24" />
    <path
       inkscape:connector-curvature="0"
       style="fill:#2f2e41;stroke-width:0.26458332"
       d="m 72.372724,194.36042 a 19.971962,19.971962 0 0 0 -7.266255,-4.69879 c -1.756489,-0.65072 -3.66834,-1.05277 -5.50468,-0.68322 -1.836341,0.36956 -3.57296,1.63991 -4.08527,3.44164 -0.41892,1.4733 0.01371,3.05959 0.66376,4.44647 0.650118,1.38688 1.518068,2.67295 2.043809,4.11159 a 9.3842205,9.3842205 0 0 1 -9.44272,12.58418 c 1.804291,0.24193 3.467409,1.08983 5.231011,1.54115 1.763609,0.45132 3.845139,0.42072 5.155739,-0.84275 1.38666,-1.33678 1.41442,-3.51027 1.34738,-5.43519 q -0.149489,-4.2922 -0.298979,-8.58441 c -0.0508,-1.45929 -0.0942,-2.96535 0.43203,-4.32739 0.52627,-1.36205 1.77699,-2.55474 3.237109,-2.54234 1.10663,0.009 2.086091,0.67978 2.973562,1.34091 0.887478,0.66112 1.826807,1.3665 2.929099,1.46484 1.102291,0.0983 2.360863,-0.71741 2.278374,-1.821"
       id="path26" />
  </g>
</svg>
