<?xml version="1.0" encoding="UTF-8" standalone="no"?>
<!-- Created with Inkscape (http://www.inkscape.org/) -->

<svg
   xmlns:dc="http://purl.org/dc/elements/1.1/"
   xmlns:cc="http://creativecommons.org/ns#"
   xmlns:rdf="http://www.w3.org/1999/02/22-rdf-syntax-ns#"
   xmlns:svg="http://www.w3.org/2000/svg"
   xmlns="http://www.w3.org/2000/svg"
   xmlns:sodipodi="http://sodipodi.sourceforge.net/DTD/sodipodi-0.dtd"
   xmlns:inkscape="http://www.inkscape.org/namespaces/inkscape"
   width="10cm"
   height="10cm"
   viewBox="0 0 100 99.999997"
   version="1.1"
   id="svg8"
   inkscape:version="0.92.4 (5da689c313, 2019-01-14)"
   sodipodi:docname="mediationInk.svg">
  <defs
     id="defs2">
    <linearGradient
       gradientTransform="matrix(0.1312128,0,0,0.1312128,-28.177498,167.95178)"
       id="4e52bdea-3ee3-4982-ab0f-41ec51f7690b"
       x1="593"
       y1="777.91998"
       x2="593"
       y2="344.92001"
       gradientUnits="userSpaceOnUse">
      <stop
         offset="0"
         stop-color="gray"
         stop-opacity="0.25"
         id="stop2" />
      <stop
         offset="0.54"
         stop-color="gray"
         stop-opacity="0.12"
         id="stop4" />
      <stop
         offset="1"
         stop-color="gray"
         stop-opacity="0.1"
         id="stop6" />
    </linearGradient>
  </defs>
  <sodipodi:namedview
     id="base"
     pagecolor="#ffffff"
     bordercolor="#666666"
     borderopacity="1.0"
     inkscape:pageopacity="0.0"
     inkscape:pageshadow="2"
     inkscape:zoom="0.98994949"
     inkscape:cx="105.41288"
     inkscape:cy="234.64982"
     inkscape:document-units="mm"
     inkscape:current-layer="layer1"
     showgrid="false"
     units="cm"
     showguides="true"
     inkscape:guide-bbox="true"
     inkscape:window-width="1280"
     inkscape:window-height="656"
     inkscape:window-x="0"
     inkscape:window-y="36"
     inkscape:window-maximized="1">
    <sodipodi:guide
       position="49.979401,108.24416"
       orientation="1,0"
       id="guide92"
       inkscape:locked="false" />
    <sodipodi:guide
       position="69.757346,49.9794"
       orientation="0,1"
       id="guide94"
       inkscape:locked="false" />
  </sodipodi:namedview>
  <metadata
     id="metadata5">
    <rdf:RDF>
      <cc:Work
         rdf:about="">
        <dc:format>image/svg+xml</dc:format>
        <dc:type
           rdf:resource="http://purl.org/dc/dcmitype/StillImage" />
        <dc:title />
      </cc:Work>
    </rdf:RDF>
  </metadata>
  <g
     inkscape:label="Ebene 1"
     inkscape:groupmode="layer"
     id="layer1"
     transform="translate(0,-197.00002)">
    <circle
       style="opacity:0.86;fill:#afb56b;fill-opacity:0.80565369;stroke:none;stroke-width:10.18704414;stroke-linejoin:round;stroke-miterlimit:4;stroke-dasharray:none;stroke-opacity:1;paint-order:normal"
       id="path100"
       cx="50"
       cy="247.00002"
       r="37.5" />
    <g
       transform="matrix(0.1312128,0,0,0.1312128,-2.6985979,177.0409)"
       style="opacity:0.5"
       id="g55">
      <rect
         style="fill:#47e6b1"
         x="206"
         y="402.17999"
         width="3"
         height="17"
         id="rect51" />
      <rect
         style="fill:#47e6b1"
         x="400.17999"
         y="471.44"
         width="3"
         height="17"
         transform="rotate(90,339.22,348.22)"
         id="rect53" />
    </g>
    <path
       inkscape:connector-curvature="0"
       style="opacity:0.5;fill:#4d8af0;stroke-width:0.1312128"
       d="m 69.217822,211.39109 a 0.48286311,0.48286311 0 0 1 -0.26242,-0.58258 0.15614324,0.15614324 0 0 0 0.0105,-0.0538 v 0 a 0.24143155,0.24143155 0 0 0 -0.43957,-0.15877 v 0 a 0.27292263,0.27292263 0 0 0 -0.0262,0.0472 0.48286311,0.48286311 0 0 1 -0.58258,0.26243 0.24405581,0.24405581 0 0 0 -0.0538,-0.0105 v 0 a 0.24143155,0.24143155 0 0 0 -0.16008,0.43431 v 0 a 0.2388073,0.2388073 0 0 0 0.0472,0.0262 0.48155098,0.48155098 0 0 1 0.26242,0.58258 0.2624256,0.2624256 0 0 0 -0.0105,0.0538 v 0 a 0.24143155,0.24143155 0 0 0 0.43432,0.16008 v 0 a 0.20731623,0.20731623 0 0 0 0.0262,-0.0472 0.48417524,0.48417524 0 0 1 0.5839,-0.26899 0.23224666,0.23224666 0 0 0 0.0525,0.0105 v 0 a 0.24143155,0.24143155 0 0 0 0.16008,-0.43432 v 0 a 0.20731623,0.20731623 0 0 0 -0.042,-0.021 z"
       id="path69" />
    <path
       inkscape:connector-curvature="0"
       style="opacity:0.5;fill:#4d8af0;stroke-width:0.1312128"
       d="m 21.325152,206.40501 a 0.48286311,0.48286311 0 0 1 -0.26242,-0.58259 0.15614324,0.15614324 0 0 0 0.0105,-0.0538 v 0 a 0.24143155,0.24143155 0 0 0 -0.43957,-0.15876 v 0 a 0.27292263,0.27292263 0 0 0 -0.0262,0.0472 0.48286311,0.48286311 0 0 1 -0.58258,0.26242 0.24405581,0.24405581 0 0 0 -0.0538,-0.0105 v 0 a 0.24143155,0.24143155 0 0 0 -0.16008,0.43431 v 0 a 0.2388073,0.2388073 0 0 0 0.0472,0.0262 0.48155098,0.48155098 0 0 1 0.26898,0.58258 0.2624256,0.2624256 0 0 0 -0.0105,0.0538 v 0 a 0.24143155,0.24143155 0 0 0 0.43432,0.16008 v 0 a 0.20731623,0.20731623 0 0 0 0.0262,-0.0472 0.48417524,0.48417524 0 0 1 0.5839,-0.26899 0.23224666,0.23224666 0 0 0 0.0525,0.0105 v 0 a 0.24143155,0.24143155 0 0 0 0.16008,-0.43432 v 0 a 0.20731623,0.20731623 0 0 0 -0.0485,-0.021 z"
       id="path71" />
    <path
       inkscape:connector-curvature="0"
       style="fill:#965d7b;stroke-width:0.1312128"
       d="m 56.585972,219.26386 c 0.68755,1.20453 1.57455,2.36183 2.75547,2.77778 0.37133,0.13121 0.78727,0.206 1.0497,0.54059 a 1.9340767,1.9340767 0 0 1 0.31885,0.82271 c 0.42906,2.10728 0.14171,4.4363 0.98409,6.36382 0.68231,1.56012 1.98788,2.57571 3.02577,3.83403 1.03789,1.25834 1.85141,3.13993 1.2229,4.73023 a 3.0874372,3.0874372 0 0 1 -2.07972,1.80811 c -0.86863,0.23618 -1.77531,0.13777 -2.65706,-0.0183 -1.16255,-0.20601 -2.34609,-0.52485 -3.31444,-1.31213 -1.67558,-1.36199 -2.38413,-3.80517 -3.26063,-5.97937 -0.41201,-1.0182 -0.95917,-2.08496 -1.86454,-2.44843 -1.03658,-0.41725 -2.20306,0.27949 -2.87618,1.30164 -0.67312,1.02214 -0.97098,2.30672 -1.2977,3.54274 -0.36739,1.3961 -0.83189,2.84469 -1.79892,3.75793 a 3.0270793,3.0270793 0 0 1 -3.23309,0.64557 c -1.07594,-0.44743 -1.9262,-1.58242 -2.17419,-2.89849 -0.38052,-2.02724 0.53272,-4.46124 -0.58915,-6.06465 -0.43563,-0.62064 -1.10087,-0.95917 -1.56799,-1.547 -0.5839,-0.7361 -0.79646,-1.7845 -0.84239,-2.7909 -0.0984,-2.14926 0.6377,-4.5439 2.29754,-5.43352 0.4435,-0.2375 0.93817,-0.36215 1.32787,-0.70855 1.31213,-1.16648 0.69281,-4.03086 2.05086,-5.1173 0.39364,-0.31622 0.887,-0.40413 1.36199,-0.47105 1.33049,-0.1837 2.65181,-0.2047 3.98887,-0.20076 0.86469,0 1.75562,-0.28867 2.60851,-0.22569 2.29622,0.17189 3.44958,3.13993 4.56358,5.09106 z"
       id="path77" />
    <polygon
       transform="matrix(0.1312128,0,0,0.1312128,-2.6985979,177.0409)"
       style="fill:#575988"
       points="535.82,696.62 530.71,647.09 440.14,636.55 281.32,646.14 264.1,652.85 267.93,698.22 "
       id="polygon79" />
    <polygon
       transform="matrix(0.1312128,0,0,0.1312128,-2.6985979,177.0409)"
       style="opacity:0.05"
       points="535.82,696.62 530.71,647.09 440.14,636.55 281.32,646.14 264.1,652.85 267.93,698.22 "
       id="polygon81" />
    <path
       inkscape:connector-curvature="0"
       style="fill:#f7c4a7;stroke-width:0.1312128"
       d="m 55.083582,266.86262 -11.70156,1.09563 c 0,0 8.0171,2.04167 12.69747,1.0497 z"
       id="path83" />
    <path
       inkscape:connector-curvature="0"
       style="opacity:0.1;stroke-width:0.1312128"
       d="m 55.083582,266.86262 -11.70156,1.09563 c 0,0 8.0171,2.04167 12.69747,1.0497 z"
       id="path85" />
    <path
       inkscape:connector-curvature="0"
       style="fill:#f7c4a7;stroke-width:0.1312128"
       d="m 46.170292,224.93619 c 0,0 2.29098,6.02529 -1.09562,8.71384 -3.3866,2.68856 -0.59702,10.20836 -0.59702,10.20836 l 13.04649,-0.59833 c 0,0 1.29376,-8.46454 0.59702,-10.2569 0,0 -3.08744,0.89618 -3.78418,-0.99591 -0.69674,-1.89209 -1.19535,-7.07106 -1.19535,-7.07106 z"
       id="path87" />
    <path
       inkscape:connector-curvature="0"
       style="fill:#575988;stroke-width:0.1312128"
       d="m 43.182582,261.3858 c 0,0 -11.00482,-0.24931 -14.24053,-1.04971 -3.2357,-0.8004 -6.02529,3.04151 -4.8798,5.23802 1.14549,2.1965 4.33002,3.68445 4.33002,3.68445 0,0 16.38323,0.79647 19.91811,-1.44334 0,0 1.34493,-3.83403 0,-4.58064 h -17.07866 l 12.59643,-0.2493 z"
       id="path89" />
    <path
       inkscape:connector-curvature="0"
       style="fill:#575988;stroke-width:0.1312128"
       d="m 60.660122,260.24031 c 0,0 3.68577,0.79646 8.76371,-1.19535 0,0 9.51161,-0.29785 6.32445,5.77336 -3.18715,6.07122 -20.81428,4.58195 -20.81428,4.58195 0,0 -1.0497,-2.24111 0,-2.83813 1.0497,-0.59702 10.15849,-4.43237 12.99663,-4.23293 l -7.87277,1.54307 z"
       id="path91" />
    <path
       inkscape:connector-curvature="0"
       style="opacity:0.1;stroke-width:0.1312128"
       d="m 53.593002,227.83468 c -0.19026,-1.41841 -0.30179,-2.57439 -0.30179,-2.57439 h -6.97133 a 13.581837,13.581837 0 0 1 0.66656,2.81845 5.4781344,5.4781344 0 0 0 6.60656,-0.24406 z"
       id="path93" />
    <circle
       style="fill:#f7c4a7;stroke-width:0.1312128"
       cx="49.979397"
       cy="223.26848"
       r="5.4768224"
       id="circle95" />
    <path
       inkscape:connector-curvature="0"
       style="fill:#f7c4a7;stroke-width:0.1312128"
       d="m 46.767312,232.80371 c 0,0 -6.57245,1.24521 -7.36891,2.88668 -0.79646,1.64147 -0.69674,7.2705 -0.69674,7.2705 0,0 0.29786,9.21114 -1.99181,10.35663 l -8.56557,5.97543 c 0,0 -6.07384,-5.32724 -7.56835,-2.19125 -1.49452,3.13599 7.17078,4.28278 7.17078,4.28278 l 9.65988,-2.88668 3.08744,-1.99181 c 0,0 1.44334,-0.69674 1.59292,-2.39069 l 1.29507,-10.25691 5.17897,-1.49452 h 8.36482 l 1.12056,-3.19896 c 0,0 2.0666,1.6559 1.76743,3.19896 -0.29916,1.54307 0.49861,11.54673 0.49861,11.54673 0,0 0.64688,2.2398 1.99181,2.88668 l 7.7678,2.78828 c 0,0 8.21523,0.79646 8.7637,-2.78828 0.54847,-3.58473 -8.06696,0.51042 -8.06696,0.51042 l -6.17881,-4.78533 c 0,0 -0.4973,-1.99181 -0.69674,-3.3866 -0.19945,-1.39479 -0.4973,-7.36891 -0.4973,-7.36891 0,0 1.89209,-6.2746 -3.58604,-7.36891 l -7.07106,-2.19126 z"
       id="path97" />
    <path
       inkscape:connector-curvature="0"
       style="opacity:0.1;stroke-width:0.1312128"
       d="m 42.361192,234.07385 1.02083,6.74696 c 0,0 -1.0497,3.1373 0,6.22474 1.04971,3.08743 -1.29507,14.59217 -1.29507,14.59217 0,0 12.29989,3.93639 19.81314,-0.59833 0,0 -5.52669,-11.65169 -3.18716,-15.53559 2.33952,-3.8839 0.0394,-5.40335 0.0394,-5.40335 l 0.35952,-7.14453 -1.69265,-0.49861 -0.9959,7.07106 c 0,0 -6.87161,4.78008 -11.95086,0.59833 l -1.09563,-7.66939 z"
       id="path99" />
    <path
       inkscape:connector-curvature="0"
       style="opacity:0.07000002;fill:#ffffff;stroke-width:0.1312128"
       d="m 49.465052,242.08702 a 4.0347936,4.0347936 0 0 0 -5.22227,-1.46827 c 1.66771,1.25308 3.50732,1.58767 5.22227,1.46827 z"
       id="path101" />
    <path
       inkscape:connector-curvature="0"
       style="opacity:0.07000002;fill:#ffffff;stroke-width:0.1312128"
       d="m 52.287442,241.34567 a 4.028233,4.028233 0 0 1 5.21702,-1.46828 c -1.66378,1.24784 -3.50207,1.58112 -5.21702,1.46828 z"
       id="path103" />
    <path
       inkscape:connector-curvature="0"
       style="opacity:0.1;stroke-width:0.1312128"
       d="m 42.361192,234.07385 1.02083,6.39794 c 0,0 -1.0497,3.1373 0,6.22473 1.04971,3.08744 -1.29507,14.58956 -1.29507,14.58956 0,0 12.29989,3.93638 19.81314,-0.59703 0,0 -5.52669,-11.65169 -3.18716,-15.53559 2.33952,-3.8839 0.0394,-5.40335 0.0394,-5.40335 l 0.35952,-7.14584 -1.69265,-0.4973 -0.9959,7.07106 c 0,0 -6.87161,4.78008 -11.95086,0.59701 l -1.09563,-7.66807 z"
       id="path105" />
    <path
       inkscape:connector-curvature="0"
       style="fill:#fc6681;stroke-width:0.1312128"
       d="m 42.311332,234.02399 1.07069,6.54752 c 0,0 -1.0497,3.1373 0,6.22473 1.04971,3.08744 -1.29507,14.58956 -1.29507,14.58956 0,0 12.29989,3.93638 19.81314,-0.59702 0,0 -5.52669,-11.65301 -3.18716,-15.53691 2.33952,-3.8839 0.0394,-5.40203 0.0394,-5.40203 l 0.35952,-7.14585 -1.69265,-0.4973 -0.9959,7.07106 c 0,0 -6.87161,4.78008 -11.95086,0.59702 l -1.09563,-7.66808 z"
       id="path107" />
    <path
       inkscape:connector-curvature="0"
       style="fill:#f7c4a7;stroke-width:0.1312128"
       d="m 47.365642,263.82504 2.58883,-0.35033 c 0,0 2.98772,-3.83405 5.12911,-0.89619 0,0 0.89618,1.89209 1.99181,2.2398 a 14.711579,14.711579 0 0 0 2.29098,0.49861 l -4.43237,1.24521 c 0,0 -1.94195,1.14549 -3.98362,0.84632 a 7.7244977,7.7244977 0 0 0 -3.58474,0.29917 z"
       id="path109" />
    <path
       inkscape:connector-curvature="0"
       style="opacity:0.1;stroke-width:0.1312128"
       d="m 44.502582,247.56778 c 0,0 4.68036,0.69674 5.47682,-0.54716"
       id="path111" />
    <path
       inkscape:connector-curvature="0"
       style="opacity:0.1;stroke-width:0.1312128"
       d="m 53.366002,246.77131 c 0,0 0.89619,0.89619 4.48092,0.24931"
       id="path113" />
    <path
       inkscape:connector-curvature="0"
       style="opacity:0.1;stroke-width:0.1312128"
       d="m 44.251962,232.8785 c 0,0 3.43647,0.49861 4.08335,0.19945"
       id="path115" />
    <path
       inkscape:connector-curvature="0"
       style="opacity:0.1;stroke-width:0.1312128"
       d="m 51.821632,232.8785 c 0,0 3.43646,0.49861 4.08334,0.19945"
       id="path117" />
    <path
       inkscape:connector-curvature="0"
       style="opacity:0.1;stroke-width:0.1312128"
       d="m 47.738292,263.4524 c 0,0 0.94735,4.46123 0,4.61869 -0.94736,0.15745 -2.28967,-0.7348 -2.28967,-0.83452 0,-0.0997 0.59702,-2.93785 0.59702,-2.93785 z"
       id="path119" />
    <path
       inkscape:connector-curvature="0"
       style="fill:#575988;stroke-width:0.1312128"
       d="m 47.639882,263.4524 c 0,0 0.94604,4.46123 0,4.61869 -0.94605,0.15745 -2.29098,-0.7348 -2.29098,-0.83452 0,-0.0997 0.59702,-2.93785 0.59702,-2.93785 z"
       id="path121" />
    <path
       inkscape:connector-curvature="0"
       style="opacity:0.1;stroke-width:0.1312128"
       d="m 43.017252,232.22506 c -0.41857,0.96966 -0.56684,2.11384 -0.12334,3.0717 0.33853,0.73085 1.00115,1.32262 1.12843,2.11777 0.16008,0.99853 -0.57996,2.01149 -0.3031,2.98378 0.10497,0.37133 0.35034,0.68624 0.59964,0.98147 0.75841,0.89618 1.76613,1.76481 2.93654,1.69527 0.18633,-1.80811 -1.37773,-3.56243 -0.866,-5.30624 0.1837,-0.62458 0.61408,-1.14418 0.87388,-1.73989 0.43169,-0.98803 0.37002,-2.11646 0.21387,-3.18322 -0.22699,-1.54831 -0.80171,-3.44565 -2.3369,-4.16994 -0.70461,-0.33328 -1.70576,-0.35821 -1.95638,0.54715 -0.13777,0.48287 0.1837,0.93686 0.227,1.40923 0.0538,0.59964 -0.16139,1.05495 -0.39364,1.59292 z"
       id="path123" />
    <path
       inkscape:connector-curvature="0"
       style="fill:#965d7b;stroke-width:0.1312128"
       d="m 43.017252,232.07679 c -0.41857,0.96966 -0.56684,2.11253 -0.12334,3.0717 0.33853,0.72954 1.00115,1.32262 1.12843,2.11646 0.16008,0.99852 -0.57996,2.01149 -0.3031,2.98378 0.10497,0.37133 0.35034,0.68755 0.59964,0.98278 0.75841,0.89487 1.76613,1.7635 2.93654,1.69396 0.18633,-1.80812 -1.37773,-3.56243 -0.866,-5.30625 0.1837,-0.62457 0.61408,-1.14418 0.87388,-1.73988 0.43169,-0.98803 0.37002,-2.11646 0.21387,-3.18323 -0.22699,-1.5483 -0.80171,-3.44564 -2.3369,-4.16993 -0.70461,-0.33329 -1.70576,-0.3569 -1.95638,0.54715 -0.13777,0.48286 0.1837,0.93686 0.227,1.40923 0.0538,0.59964 -0.16139,1.05495 -0.39364,1.59423 z"
       id="path125" />
    <path
       inkscape:connector-curvature="0"
       style="opacity:0.1;stroke-width:0.1312128"
       d="m 43.406952,220.57993 c 0,0 7.26919,-0.99591 7.46864,0.49729 0.19944,1.49321 6.62362,3.93639 6.62362,3.93639 l -1.59424,-3.93639 -2.93785,-4.8798 c 0,0 -5.37973,-0.39364 -5.62641,0 -0.24668,0.39364 -3.08875,1.69264 -3.08875,1.69264 z"
       id="path127" />
    <path
       inkscape:connector-curvature="0"
       style="fill:#965d7b;stroke-width:0.1312128"
       d="m 43.406952,220.48021 c 0,0 7.26919,-0.99591 7.46864,0.49729 0.19944,1.4932 6.62362,3.93639 6.62362,3.93639 l -1.59424,-3.93639 -2.93785,-4.8798 c 0,0 -5.37973,-0.39364 -5.62641,0 -0.24668,0.39363 -3.08875,1.69264 -3.08875,1.69264 z"
       id="path129" />
    <path
       inkscape:connector-curvature="0"
       style="opacity:0.1;stroke-width:0.1312128"
       d="m 56.061122,231.12025 a 3.5427456,3.5427456 0 0 1 0.72954,1.4604 c 0.12071,0.51435 0.13121,1.0497 0.24012,1.56405 0.24405,1.09563 0.96966,2.01675 1.72545,2.84601 a 3.105807,3.105807 0 0 0 0.88306,0.74267 c 0.3464,0.17057 0.78728,0.206 1.10743,0 -0.30441,-0.25062 -0.46974,-0.63245 -0.57864,-1.01034 a 5.1763453,5.1763453 0 0 1 -0.20207,-1.62835 c 0.0328,-0.91849 0.30179,-1.88816 -0.08,-2.72529 -0.22044,-0.48418 -0.63113,-0.85157 -1.0497,-1.18092 a 5.6539597,5.6539597 0 0 0 -0.93686,-0.61538 c -0.61933,-0.30836 -1.32788,-0.44351 -2.0115,-0.51174 -0.88962,-0.0905 -0.11153,0.72298 0.17321,1.05889 z"
       id="path131" />
    <path
       inkscape:connector-curvature="0"
       style="fill:#965d7b;stroke-width:0.1312128"
       d="m 56.061122,230.97198 a 3.5230637,3.5230637 0 0 1 0.72954,1.45909 c 0.12071,0.51435 0.13121,1.0497 0.24012,1.56405 0.24405,1.09563 0.96966,2.01674 1.72545,2.84601 a 3.105807,3.105807 0 0 0 0.88306,0.74266 c 0.3464,0.17058 0.78728,0.20601 1.10743,0 -0.30441,-0.25061 -0.46974,-0.63113 -0.57864,-1.01034 a 5.1763453,5.1763453 0 0 1 -0.20207,-1.62835 c 0.0328,-0.91849 0.30179,-1.88815 -0.08,-2.72528 -0.22044,-0.48287 -0.63113,-0.85026 -1.0497,-1.18092 a 5.5791681,5.5791681 0 0 0 -0.93686,-0.6167 c -0.61933,-0.30835 -1.32788,-0.4435 -2.0115,-0.51173 -0.88962,-0.0892 -0.11153,0.72429 0.17321,1.06151 z"
       id="path133" />
  </g>
</svg>
