<?xml version="1.0" encoding="UTF-8"?>
<!-- Created with Inkscape (http://www.inkscape.org/) -->
<svg width="10cm" height="10cm" version="1.1" viewBox="0 0 100 100" xmlns="http://www.w3.org/2000/svg" xmlns:cc="http://creativecommons.org/ns#" xmlns:dc="http://purl.org/dc/elements/1.1/" xmlns:rdf="http://www.w3.org/1999/02/22-rdf-syntax-ns#">
 <metadata>
  <rdf:RDF>
   <cc:Work rdf:about="">
    <dc:format>image/svg+xml</dc:format>
    <dc:type rdf:resource="http://purl.org/dc/dcmitype/StillImage"/>
    <dc:title/>
   </cc:Work>
  </rdf:RDF>
 </metadata>
 <g transform="translate(0 -197)">
  <circle cx="50" cy="247" r="37.5" fill="#afb56b" fill-opacity=".80565" opacity=".86" style="paint-order:normal"/>
  <g transform="matrix(.13121 0 0 .13121 -2.6986 177.04)" fill="#47e6b1" opacity=".5">
   <rect x="206" y="402.18" width="3" height="17"/>
   <rect transform="rotate(90,339.22,348.22)" x="400.18" y="471.44" width="3" height="17"/>
  </g>
  <g stroke-width=".13121">
   <path d="m69.218 211.39a0.48286 0.48286 0 0 1-0.26242-0.58258 0.15614 0.15614 0 0 0 0.0105-0.0538 0.24143 0.24143 0 0 0-0.43957-0.15877 0.27292 0.27292 0 0 0-0.0262 0.0472 0.48286 0.48286 0 0 1-0.58258 0.26243 0.24406 0.24406 0 0 0-0.0538-0.0105 0.24143 0.24143 0 0 0-0.16008 0.43431 0.23881 0.23881 0 0 0 0.0472 0.0262 0.48155 0.48155 0 0 1 0.26242 0.58258 0.26243 0.26243 0 0 0-0.0105 0.0538 0.24143 0.24143 0 0 0 0.43432 0.16008 0.20732 0.20732 0 0 0 0.0262-0.0472 0.48418 0.48418 0 0 1 0.5839-0.26899 0.23225 0.23225 0 0 0 0.0525 0.0105 0.24143 0.24143 0 0 0 0.16008-0.43432 0.20732 0.20732 0 0 0-0.042-0.021z" fill="#4d8af0" opacity=".5"/>
   <path d="m21.325 206.41a0.48286 0.48286 0 0 1-0.26242-0.58259 0.15614 0.15614 0 0 0 0.0105-0.0538 0.24143 0.24143 0 0 0-0.43957-0.15876 0.27292 0.27292 0 0 0-0.0262 0.0472 0.48286 0.48286 0 0 1-0.58258 0.26242 0.24406 0.24406 0 0 0-0.0538-0.0105 0.24143 0.24143 0 0 0-0.16008 0.43431 0.23881 0.23881 0 0 0 0.0472 0.0262 0.48155 0.48155 0 0 1 0.26898 0.58258 0.26243 0.26243 0 0 0-0.0105 0.0538 0.24143 0.24143 0 0 0 0.43432 0.16008 0.20732 0.20732 0 0 0 0.0262-0.0472 0.48418 0.48418 0 0 1 0.5839-0.26899 0.23225 0.23225 0 0 0 0.0525 0.0105 0.24143 0.24143 0 0 0 0.16008-0.43432 0.20732 0.20732 0 0 0-0.0485-0.021z" fill="#4d8af0" opacity=".5"/>
   <path d="m56.586 219.26c0.68755 1.2045 1.5746 2.3618 2.7555 2.7778 0.37133 0.13121 0.78727 0.206 1.0497 0.54059a1.9341 1.9341 0 0 1 0.31885 0.82271c0.42906 2.1073 0.14171 4.4363 0.98409 6.3638 0.68231 1.5601 1.9879 2.5757 3.0258 3.834 1.0379 1.2583 1.8514 3.1399 1.2229 4.7302a3.0874 3.0874 0 0 1-2.0797 1.8081c-0.86863 0.23618-1.7753 0.13777-2.6571-0.0183-1.1626-0.20601-2.3461-0.52485-3.3144-1.3121-1.6756-1.362-2.3841-3.8052-3.2606-5.9794-0.41201-1.0182-0.95917-2.085-1.8645-2.4484-1.0366-0.41725-2.2031 0.27949-2.8762 1.3016-0.67312 1.0221-0.97098 2.3067-1.2977 3.5427-0.36739 1.3961-0.83189 2.8447-1.7989 3.7579a3.0271 3.0271 0 0 1-3.2331 0.64557c-1.0759-0.44743-1.9262-1.5824-2.1742-2.8985-0.38052-2.0272 0.53272-4.4612-0.58915-6.0646-0.43563-0.62064-1.1009-0.95917-1.568-1.547-0.5839-0.7361-0.79646-1.7845-0.84239-2.7909-0.0984-2.1493 0.6377-4.5439 2.2975-5.4335 0.4435-0.2375 0.93817-0.36215 1.3279-0.70855 1.3121-1.1665 0.69281-4.0309 2.0509-5.1173 0.39364-0.31622 0.887-0.40413 1.362-0.47105 1.3305-0.1837 2.6518-0.2047 3.9889-0.20076 0.86469 0 1.7556-0.28867 2.6085-0.22569 2.2962 0.17189 3.4496 3.1399 4.5636 5.0911z" fill="#965d7b"/>
  </g>
  <polygon transform="matrix(.13121 0 0 .13121 -2.6986 177.04)" points="535.82 696.62 530.71 647.09 440.14 636.55 281.32 646.14 264.1 652.85 267.93 698.22" fill="#575988"/>
  <polygon transform="matrix(.13121 0 0 .13121 -2.6986 177.04)" points="535.82 696.62 530.71 647.09 440.14 636.55 281.32 646.14 264.1 652.85 267.93 698.22" opacity=".05"/>
  <g stroke-width=".13121">
   <path d="m55.084 266.86-11.702 1.0956s8.0171 2.0417 12.697 1.0497z" fill="#f7c4a7"/>
   <path d="m55.084 266.86-11.702 1.0956s8.0171 2.0417 12.697 1.0497z" opacity=".1"/>
   <path d="m46.17 224.94s2.291 6.0253-1.0956 8.7138c-3.3866 2.6886-0.59702 10.208-0.59702 10.208l13.046-0.59833s1.2938-8.4645 0.59702-10.257c0 0-3.0874 0.89618-3.7842-0.99591s-1.1954-7.0711-1.1954-7.0711z" fill="#f7c4a7"/>
   <path d="m43.183 261.39s-11.005-0.24931-14.241-1.0497c-3.2357-0.8004-6.0253 3.0415-4.8798 5.238 1.1455 2.1965 4.33 3.6844 4.33 3.6844s16.383 0.79647 19.918-1.4433c0 0 1.3449-3.834 0-4.5806h-17.079l12.596-0.2493z" fill="#575988"/>
   <path d="m60.66 260.24s3.6858 0.79646 8.7637-1.1954c0 0 9.5116-0.29785 6.3244 5.7734-3.1872 6.0712-20.814 4.582-20.814 4.582s-1.0497-2.2411 0-2.8381 10.158-4.4324 12.997-4.2329l-7.8728 1.5431z" fill="#575988"/>
   <path d="m53.593 227.83c-0.19026-1.4184-0.30179-2.5744-0.30179-2.5744h-6.9713a13.582 13.582 0 0 1 0.66656 2.8184 5.4781 5.4781 0 0 0 6.6066-0.24406z" opacity=".1"/>
   <circle cx="49.979" cy="223.27" r="5.4768" fill="#f7c4a7"/>
   <path d="m46.767 232.8s-6.5724 1.2452-7.3689 2.8867-0.69674 7.2705-0.69674 7.2705 0.29786 9.2111-1.9918 10.357l-8.5656 5.9754s-6.0738-5.3272-7.5684-2.1912c-1.4945 3.136 7.1708 4.2828 7.1708 4.2828l9.6599-2.8867 3.0874-1.9918s1.4433-0.69674 1.5929-2.3907l1.2951-10.257 5.179-1.4945h8.3648l1.1206-3.199s2.0666 1.6559 1.7674 3.199c-0.29916 1.5431 0.49861 11.547 0.49861 11.547s0.64688 2.2398 1.9918 2.8867l7.7678 2.7883s8.2152 0.79646 8.7637-2.7883c0.54847-3.5847-8.067 0.51042-8.067 0.51042l-6.1788-4.7853s-0.4973-1.9918-0.69674-3.3866c-0.19945-1.3948-0.4973-7.3689-0.4973-7.3689s1.8921-6.2746-3.586-7.3689l-7.0711-2.1913z" fill="#f7c4a7"/>
   <path d="m42.361 234.07 1.0208 6.747s-1.0497 3.1373 0 6.2247c1.0497 3.0874-1.2951 14.592-1.2951 14.592s12.3 3.9364 19.813-0.59833c0 0-5.5267-11.652-3.1872-15.536 2.3395-3.8839 0.0394-5.4034 0.0394-5.4034l0.35952-7.1445-1.6926-0.49861-0.9959 7.0711s-6.8716 4.7801-11.951 0.59833l-1.0956-7.6694z" opacity=".1"/>
   <path d="m49.465 242.09a4.0348 4.0348 0 0 0-5.2223-1.4683c1.6677 1.2531 3.5073 1.5877 5.2223 1.4683z" fill="#fff" opacity=".07"/>
   <path d="m52.287 241.35a4.0282 4.0282 0 0 1 5.217-1.4683c-1.6638 1.2478-3.5021 1.5811-5.217 1.4683z" fill="#fff" opacity=".07"/>
   <path d="m42.361 234.07 1.0208 6.3979s-1.0497 3.1373 0 6.2247c1.0497 3.0874-1.2951 14.59-1.2951 14.59s12.3 3.9364 19.813-0.59703c0 0-5.5267-11.652-3.1872-15.536 2.3395-3.8839 0.0394-5.4034 0.0394-5.4034l0.35952-7.1458-1.6926-0.4973-0.9959 7.0711s-6.8716 4.7801-11.951 0.59701l-1.0956-7.6681z" opacity=".1"/>
   <path d="m42.311 234.02 1.0707 6.5475s-1.0497 3.1373 0 6.2247c1.0497 3.0874-1.2951 14.59-1.2951 14.59s12.3 3.9364 19.813-0.59702c0 0-5.5267-11.653-3.1872-15.537 2.3395-3.8839 0.0394-5.402 0.0394-5.402l0.35952-7.1458-1.6926-0.4973-0.9959 7.0711s-6.8716 4.7801-11.951 0.59702l-1.0956-7.6681z" fill="#fc6681"/>
   <path d="m47.366 263.83 2.5888-0.35033s2.9877-3.834 5.1291-0.89619c0 0 0.89618 1.8921 1.9918 2.2398a14.712 14.712 0 0 0 2.291 0.49861l-4.4324 1.2452s-1.942 1.1455-3.9836 0.84632a7.7245 7.7245 0 0 0-3.5847 0.29917z" fill="#f7c4a7"/>
   <path d="m44.503 247.57s4.6804 0.69674 5.4768-0.54716" opacity=".1"/>
   <path d="m53.366 246.77s0.89619 0.89619 4.4809 0.24931" opacity=".1"/>
   <path d="m44.252 232.88s3.4365 0.49861 4.0834 0.19945" opacity=".1"/>
   <path d="m51.822 232.88s3.4365 0.49861 4.0833 0.19945" opacity=".1"/>
   <path d="m47.738 263.45s0.94735 4.4612 0 4.6187c-0.94736 0.15745-2.2897-0.7348-2.2897-0.83452 0-0.0997 0.59702-2.9378 0.59702-2.9378z" opacity=".1"/>
   <path d="m47.64 263.45s0.94604 4.4612 0 4.6187c-0.94605 0.15745-2.291-0.7348-2.291-0.83452 0-0.0997 0.59702-2.9378 0.59702-2.9378z" fill="#575988"/>
   <path d="m43.017 232.23c-0.41857 0.96966-0.56684 2.1138-0.12334 3.0717 0.33853 0.73085 1.0012 1.3226 1.1284 2.1178 0.16008 0.99853-0.57996 2.0115-0.3031 2.9838 0.10497 0.37133 0.35034 0.68624 0.59964 0.98147 0.75841 0.89618 1.7661 1.7648 2.9365 1.6953 0.18633-1.8081-1.3777-3.5624-0.866-5.3062 0.1837-0.62458 0.61408-1.1442 0.87388-1.7399 0.43169-0.98803 0.37002-2.1165 0.21387-3.1832-0.22699-1.5483-0.80171-3.4456-2.3369-4.1699-0.70461-0.33328-1.7058-0.35821-1.9564 0.54715-0.13777 0.48287 0.1837 0.93686 0.227 1.4092 0.0538 0.59964-0.16139 1.055-0.39364 1.5929z" opacity=".1"/>
   <path d="m43.017 232.08c-0.41857 0.96966-0.56684 2.1125-0.12334 3.0717 0.33853 0.72954 1.0012 1.3226 1.1284 2.1165 0.16008 0.99852-0.57996 2.0115-0.3031 2.9838 0.10497 0.37133 0.35034 0.68755 0.59964 0.98278 0.75841 0.89487 1.7661 1.7635 2.9365 1.694 0.18633-1.8081-1.3777-3.5624-0.866-5.3062 0.1837-0.62457 0.61408-1.1442 0.87388-1.7399 0.43169-0.98803 0.37002-2.1165 0.21387-3.1832-0.22699-1.5483-0.80171-3.4456-2.3369-4.1699-0.70461-0.33329-1.7058-0.3569-1.9564 0.54715-0.13777 0.48286 0.1837 0.93686 0.227 1.4092 0.0538 0.59964-0.16139 1.055-0.39364 1.5942z" fill="#965d7b"/>
   <path d="m43.407 220.58s7.2692-0.99591 7.4686 0.49729c0.19944 1.4932 6.6236 3.9364 6.6236 3.9364l-1.5942-3.9364-2.9378-4.8798s-5.3797-0.39364-5.6264 0-3.0888 1.6926-3.0888 1.6926z" opacity=".1"/>
   <path d="m43.407 220.48s7.2692-0.99591 7.4686 0.49729c0.19944 1.4932 6.6236 3.9364 6.6236 3.9364l-1.5942-3.9364-2.9378-4.8798s-5.3797-0.39364-5.6264 0c-0.24668 0.39363-3.0888 1.6926-3.0888 1.6926z" fill="#965d7b"/>
   <path d="m56.061 231.12a3.5427 3.5427 0 0 1 0.72954 1.4604c0.12071 0.51435 0.13121 1.0497 0.24012 1.564 0.24405 1.0956 0.96966 2.0168 1.7254 2.846a3.1058 3.1058 0 0 0 0.88306 0.74267c0.3464 0.17057 0.78728 0.206 1.1074 0-0.30441-0.25062-0.46974-0.63245-0.57864-1.0103a5.1763 5.1763 0 0 1-0.20207-1.6284c0.0328-0.91849 0.30179-1.8882-0.08-2.7253-0.22044-0.48418-0.63113-0.85157-1.0497-1.1809a5.654 5.654 0 0 0-0.93686-0.61538c-0.61933-0.30836-1.3279-0.44351-2.0115-0.51174-0.88962-0.0905-0.11153 0.72298 0.17321 1.0589z" opacity=".1"/>
   <path d="m56.061 230.97a3.5231 3.5231 0 0 1 0.72954 1.4591c0.12071 0.51435 0.13121 1.0497 0.24012 1.564 0.24405 1.0956 0.96966 2.0167 1.7254 2.846a3.1058 3.1058 0 0 0 0.88306 0.74266c0.3464 0.17058 0.78728 0.20601 1.1074 0-0.30441-0.25061-0.46974-0.63113-0.57864-1.0103a5.1763 5.1763 0 0 1-0.20207-1.6284c0.0328-0.91849 0.30179-1.8882-0.08-2.7253-0.22044-0.48287-0.63113-0.85026-1.0497-1.1809a5.5792 5.5792 0 0 0-0.93686-0.6167c-0.61933-0.30835-1.3279-0.4435-2.0115-0.51173-0.88962-0.0892-0.11153 0.72429 0.17321 1.0615z" fill="#965d7b"/>
  </g>
 </g>
</svg>
