<?xml version="1.0" encoding="UTF-8" standalone="no"?>
<!-- Created with Inkscape (http://www.inkscape.org/) -->

<svg
   xmlns:dc="http://purl.org/dc/elements/1.1/"
   xmlns:cc="http://creativecommons.org/ns#"
   xmlns:rdf="http://www.w3.org/1999/02/22-rdf-syntax-ns#"
   xmlns:svg="http://www.w3.org/2000/svg"
   xmlns="http://www.w3.org/2000/svg"
   xmlns:sodipodi="http://sodipodi.sourceforge.net/DTD/sodipodi-0.dtd"
   xmlns:inkscape="http://www.inkscape.org/namespaces/inkscape"
   width="50mm"
   height="50mm"
   viewBox="0 0 50 50"
   version="1.1"
   id="svg8"
   inkscape:version="0.92.4 (5da689c313, 2019-01-14)"
   sodipodi:docname="question.svg">
  <defs
     id="defs2" />
  <sodipodi:namedview
     id="base"
     pagecolor="#ffffff"
     bordercolor="#666666"
     borderopacity="1.0"
     inkscape:pageopacity="0.0"
     inkscape:pageshadow="2"
     inkscape:zoom="0.9899495"
     inkscape:cx="-136.67187"
     inkscape:cy="127.34179"
     inkscape:document-units="mm"
     inkscape:current-layer="layer1"
     showgrid="false"
     inkscape:window-width="1280"
     inkscape:window-height="656"
     inkscape:window-x="0"
     inkscape:window-y="36"
     inkscape:window-maximized="1" />
  <metadata
     id="metadata5">
    <rdf:RDF>
      <cc:Work
         rdf:about="">
        <dc:format>image/svg+xml</dc:format>
        <dc:type
           rdf:resource="http://purl.org/dc/dcmitype/StillImage" />
        <dc:title></dc:title>
      </cc:Work>
    </rdf:RDF>
  </metadata>
  <g
     inkscape:label="Ebene 1"
     inkscape:groupmode="layer"
     id="layer1"
     transform="translate(0,-247)">
    <path
       style="opacity:0.68999999;fill:#b3876f;fill-opacity:0.99293285;fill-rule:nonzero;stroke:#000002;stroke-width:1.69999993;stroke-linejoin:round;stroke-miterlimit:4;stroke-dasharray:none;stroke-dashoffset:0;stroke-opacity:0;paint-order:normal"
       d="M 26.46875 252.95312 C 24.396157 253.34824 22.621541 254.55092 20.790328 255.52622 C 18.31535 256.86256 15.617974 257.85837 12.80461 258.1327 C 10.562082 258.46622 8.2620599 258.6623 6.140625 259.51953 C 4.0302803 260.6777 2.5167498 262.71176 1.6463671 264.92392 C 0.42453902 267.98144 0.2117175 271.34818 0.51563845 274.59953 C 0.7833119 277.53632 1.5357443 280.48304 3.0888549 283.01383 C 5.0785907 285.80966 8.3234005 287.58813 11.702129 288.02671 C 17.924393 289.04778 24.567151 286.99455 29.125 282.63672 C 31.193306 280.74138 32.64262 278.30426 34.519158 276.23799 C 35.686863 274.91779 37.119408 273.86849 38.608341 272.9401 C 39.479837 272.36796 40.396929 271.86076 41.227661 271.22927 C 42.316957 270.37731 43.174212 269.11719 43.236112 267.70226 C 43.340802 266.05218 42.66022 264.46599 41.798075 263.09603 C 40.47888 261.01919 38.695981 259.2812 36.803781 257.72791 C 34.626162 255.98713 32.211865 254.5289 29.621444 253.49189 C 28.61268 253.13471 27.542962 252.91129 26.46875 252.95312 z "
       id="path80" />
    <path
       id="path69"
       d="M 19.925781 260.1875 C 16.672088 260.33226 13.622086 262.28898 11.968412 265.06861 C 10.382679 267.59302 9.3587722 270.53173 9.3613281 273.5332 C 9.3575656 275.63674 10.170087 277.80887 11.810872 279.17711 C 13.234454 280.38491 15.157418 280.82179 16.988839 280.78707 C 19.306189 280.75335 21.579272 280.08022 23.65725 279.08184 C 25.800669 278.03754 27.774102 276.47202 28.912357 274.34089 C 30.397131 271.58208 30.39559 268.08612 28.901187 265.33122 C 27.840217 263.31345 26.039659 261.70075 23.915284 260.87183 C 22.65258 260.37011 21.284401 260.12587 19.925781 260.1875 z M 20.800781 263.46289 C 22.533786 263.54283 24.267141 264.58781 24.925781 266.23047 C 25.464965 267.68201 24.780868 269.3898 23.537109 270.25 C 22.671428 270.87185 21.742634 271.40951 20.939453 272.11523 C 20.749565 272.52915 20.578402 273.08277 20.062612 273.17447 C 19.077008 273.45158 18.062025 273.59756 17.052734 273.75781 C 16.708784 273.68717 16.662415 273.23082 16.816406 272.97266 C 17.225683 271.59507 18.339656 270.57172 19.513672 269.81641 C 20.32546 269.24043 21.317479 268.82391 21.847656 267.93555 C 22.113695 267.37777 21.70396 266.67545 21.120532 266.5441 C 20.128277 266.15529 19.002712 266.59372 18.273754 267.30503 C 17.843717 267.69424 17.517152 268.22137 17.001699 268.50111 C 16.571966 268.58461 16.315679 268.1414 16.079624 267.86242 C 15.814032 267.55191 15.383394 267.24865 15.478516 266.78125 C 15.578162 266.34686 15.950161 266.05697 16.199061 265.70767 C 17.154313 264.57414 18.476498 263.67662 19.975973 263.50707 C 20.249065 263.46772 20.52519 263.45849 20.800781 263.46289 z M 19.224609 274.57812 C 20.030315 274.64139 20.796537 275.4179 20.626719 276.25508 C 20.141252 277.79818 18.190571 278.65795 16.71875 277.99414 C 16.001946 277.64449 15.827034 276.62835 16.287343 276.0057 C 16.783461 275.27602 17.610342 274.80114 18.466797 274.63086 C 18.716684 274.58569 18.97095 274.57091 19.224609 274.57812 z "
       inkscape:connector-curvature="0"
       style="stroke-width:0.03901689" />
    <path
       style="opacity:0.72759998;fill:#b3876f;fill-opacity:0.99215686;fill-rule:nonzero;stroke:#000002;stroke-width:1.69999993;stroke-linejoin:round;stroke-miterlimit:4;stroke-dasharray:none;stroke-dashoffset:0;stroke-opacity:0;paint-order:normal"
       d="M 28.40625 261.23242 C 26.428806 261.44253 24.71813 262.87101 23.9222 264.65873 C 22.528338 267.4115 22.133636 270.51151 21.172999 273.41565 C 20.494051 275.39682 19.349866 277.16539 18.285895 278.95372 C 17.625544 280.10182 17.14845 281.36735 17.008856 282.69037 C 16.786363 284.20686 16.733311 285.74767 16.811033 287.27722 C 16.9531 288.89298 17.637393 290.48916 18.852341 291.58728 C 20.898198 293.5858 24.027938 294.40003 26.783627 293.61851 C 29.212452 293.05012 31.65192 292.48125 33.992367 291.60654 C 35.772768 290.91218 37.446078 289.91572 38.827329 288.58737 C 40.067315 287.44508 41.232081 286.22452 42.443103 285.05219 C 43.810176 283.68528 45.025324 282.16784 46.04952 280.5278 C 46.94328 279.172 47.837877 277.80874 48.565693 276.35522 C 49.497867 274.25206 49.647023 271.89776 49.485371 269.62959 C 49.395316 267.77719 49.136732 265.86255 48.197266 264.23047 C 47.164528 262.549 45.270738 261.49358 43.321199 261.33487 C 41.330467 261.13263 39.370489 261.6663 37.392409 261.78666 C 35.583638 261.93828 33.759233 261.84667 31.96933 261.5511 C 30.787926 261.39144 29.602644 261.1929 28.40625 261.23242 z "
       id="path10" />
  </g>
</svg>
