<?xml version="1.0" encoding="UTF-8" standalone="no"?>
<!-- Created with Inkscape (http://www.inkscape.org/) -->

<svg
   xmlns:dc="http://purl.org/dc/elements/1.1/"
   xmlns:cc="http://creativecommons.org/ns#"
   xmlns:rdf="http://www.w3.org/1999/02/22-rdf-syntax-ns#"
   xmlns:svg="http://www.w3.org/2000/svg"
   xmlns="http://www.w3.org/2000/svg"
   xmlns:sodipodi="http://sodipodi.sourceforge.net/DTD/sodipodi-0.dtd"
   xmlns:inkscape="http://www.inkscape.org/namespaces/inkscape"
   width="10cm"
   height="10cm"
   viewBox="0 0 100 99.999997"
   version="1.1"
   id="svg8"
   sodipodi:docname="sonnengrußInk.svg"
   inkscape:version="0.92.4 (5da689c313, 2019-01-14)">
  <defs
     id="defs2" />
  <sodipodi:namedview
     id="base"
     pagecolor="#ffffff"
     bordercolor="#666666"
     borderopacity="1.0"
     inkscape:pageopacity="0.0"
     inkscape:pageshadow="2"
     inkscape:zoom="1.979899"
     inkscape:cx="206.79972"
     inkscape:cy="247.65555"
     inkscape:document-units="mm"
     inkscape:current-layer="layer1"
     showgrid="false"
     units="in"
     inkscape:pagecheckerboard="true"
     inkscape:window-width="1280"
     inkscape:window-height="656"
     inkscape:window-x="0"
     inkscape:window-y="36"
     inkscape:window-maximized="1" />
  <metadata
     id="metadata5">
    <rdf:RDF>
      <cc:Work
         rdf:about="">
        <dc:format>image/svg+xml</dc:format>
        <dc:type
           rdf:resource="http://purl.org/dc/dcmitype/StillImage" />
        <dc:title />
      </cc:Work>
    </rdf:RDF>
  </metadata>
  <g
     inkscape:label="Ebene 1"
     inkscape:groupmode="layer"
     id="layer1"
     transform="translate(0,-197.00002)">
    <path
       inkscape:connector-curvature="0"
       style="fill:#ffb380;stroke-width:0.13938235;fill-opacity:1"
       d="m 40.19212,289.65727 c 0,0 -1.410772,3.1037 0.564304,3.38585 1.975081,0.28215 11.098075,1.03457 10.533765,-0.56431 -0.564311,-1.59887 -7.430064,-3.1037 -7.430064,-3.1037 z"
       id="path14" />
    <path
       inkscape:connector-curvature="0"
       style="fill:#ffb9b9;stroke-width:0.13938235"
       d="m 45.003623,256.01154 c 0,0 0.188103,2.35128 1.598873,2.72749 0.529039,0.14108 0.925816,-0.12785 1.215135,-0.51912 a 2.3097705,2.3097705 0 0 0 0.07384,-2.59135 l -0.348455,-0.55754 z"
       id="path22" />
    <path
       style="opacity:0.99;fill:#cccff0;fill-opacity:0.98939931;stroke:none;stroke-width:10;stroke-linejoin:round;stroke-miterlimit:4;stroke-dasharray:none;stroke-opacity:1;paint-order:normal"
       d="M 41.859375 229.10938 C 41.658814 229.1346 41.459783 229.1933 41.287109 229.29688 C 41.082181 229.44155 40.882486 229.60315 40.740234 229.8125 C 40.608519 230.01997 40.474799 230.2395 40.445312 230.48828 C 40.412396 230.80679 40.504295 231.11853 40.556641 231.42969 C 40.607284 231.72794 40.657665 232.02648 40.683594 232.32812 C 40.730219 232.79081 40.775359 233.25372 40.835938 233.71484 C 40.916607 234.17911 41.04205 234.63376 41.168362 235.08723 C 41.410154 235.96271 41.675617 236.83144 41.931407 237.70289 C 42.284558 238.9002 42.639825 240.09691 42.991291 241.2947 C 43.123615 241.77822 43.262979 242.26112 43.347656 242.75586 C 43.384946 243.0666 43.410475 243.37882 43.425781 243.69141 C 43.425728 243.99753 43.42161 244.30403 43.398438 244.60938 C 43.361834 244.90716 43.317116 245.20432 43.256304 245.49817 C 43.15877 245.91442 43.029988 246.32476 42.846873 246.7118 C 42.64262 247.18208 42.379184 247.62358 42.109375 248.05859 C 41.675603 248.74599 41.217374 249.41744 40.7682 250.09477 C 40.528409 250.45446 40.288619 250.81414 40.048828 251.17383 C 39.923357 251.40233 39.78062 251.6298 39.734375 251.89062 C 39.708056 252.14905 39.719006 252.41006 39.759564 252.66643 C 39.79944 252.87942 39.855541 253.09713 39.987098 253.27373 C 40.14559 253.47981 40.367768 253.62895 40.587272 253.7636 C 40.849514 253.91377 41.132883 254.02618 41.425571 254.10083 C 41.706129 254.17445 41.992584 254.22298 42.277344 254.27734 C 43.167604 254.42521 44.059347 254.56401 44.951077 254.70265 C 45.840852 254.83452 46.729141 254.97713 47.621094 255.09375 C 47.891338 255.1271 48.164381 255.16309 48.436702 255.13297 C 48.695947 255.10863 48.951223 255.03808 49.185488 254.92431 C 49.40425 254.81894 49.588188 254.65215 49.725211 254.45271 C 49.884388 254.23929 50.00855 254.00147 50.105469 253.75391 C 50.198267 253.4984 50.254686 253.23173 50.295478 252.96346 C 50.394056 252.35079 50.466826 251.73431 50.551662 251.11965 C 50.584953 250.83093 50.631872 250.54444 50.692539 250.26021 C 50.74224 249.97653 50.799627 249.69384 50.90879 249.42607 C 51.153418 248.77097 51.422727 248.1254 51.680187 247.47528 C 52.117681 246.37851 52.561894 245.2844 52.994141 244.18555 C 53.104943 243.87956 53.203892 243.56938 53.301065 243.25886 C 53.384908 242.97981 53.464867 242.69834 53.505861 242.4093 C 53.561485 242.08409 53.614717 241.75765 53.627733 241.42742 C 53.648244 241.13596 53.659781 240.84388 53.651104 240.55171 C 53.647965 240.18299 53.63178 239.81366 53.579925 239.44828 C 53.518621 239.01108 53.45212 238.57364 53.343315 238.14533 C 53.269965 237.85207 53.189613 237.56061 53.098275 237.2724 C 52.992694 236.92446 52.854289 236.58768 52.718947 236.25059 C 52.5628 235.88667 52.38228 235.53388 52.211121 235.17691 C 51.925411 234.58901 51.611739 234.01531 51.30364 233.43898 C 50.987172 232.85506 50.667325 232.27293 50.340523 231.69475 C 50.190931 231.43042 50.013135 231.18301 49.8125 230.95508 C 49.638913 230.77015 49.450023 230.5947 49.224609 230.47461 C 48.751914 230.25832 48.265887 230.0727 47.782805 229.88117 C 47.550142 229.79575 47.32838 229.66484 47.076172 229.64648 C 46.795612 229.62207 46.55178 229.86915 46.546875 230.14453 C 46.521919 230.43343 46.610495 230.71551 46.651551 230.99899 C 46.700771 231.26185 46.747755 231.52836 46.730469 231.79688 C 46.703444 232.15476 46.594923 232.49859 46.503906 232.84375 C 46.419693 233.11254 46.35507 233.39123 46.21819 233.63965 C 46.079474 233.91703 45.785039 234.06209 45.499008 234.14063 C 45.219027 234.22489 44.930177 234.27404 44.642578 234.32422 C 44.185185 234.38922 43.721155 234.42047 43.259766 234.38477 C 42.986079 234.35324 42.703982 234.24033 42.55011 233.99963 C 42.385308 233.75358 42.299858 233.4655 42.204571 233.18775 C 42.115975 232.89883 42.050998 232.60309 42.004681 232.3045 C 41.962392 232.07756 41.947161 231.82719 42.060635 231.61751 C 42.188921 231.41261 42.426867 231.31688 42.606459 231.16431 C 42.765002 231.04838 42.91091 230.91173 43.009766 230.74023 C 43.110697 230.55442 43.164792 230.34134 43.155661 230.12943 C 43.145958 229.93245 43.072956 229.73956 42.961631 229.57818 C 42.859674 229.42466 42.717716 229.30154 42.550781 229.22461 C 42.35011 229.14066 42.13154 229.08618 41.91265 229.1063 L 41.864363 229.10909 L 41.859375 229.10938 z "
       id="path170" />
    <path
       style="opacity:0.974;fill:#ffb380;fill-opacity:1;stroke:none;stroke-width:12.49411488;stroke-linejoin:round;stroke-miterlimit:4;stroke-dasharray:none;stroke-opacity:1;paint-order:normal"
       d="M 39.976562 280.19922 C 39.70122 280.24672 39.433484 280.37508 39.25 280.58984 C 39.148765 281.45044 39.379592 282.29913 39.486095 283.14744 C 39.795153 285.18818 40.071393 287.23364 40.352989 289.27828 C 40.386334 289.53111 40.442579 289.81825 40.667969 289.97266 C 41.025884 290.24171 41.495433 290.22974 41.921403 290.23932 C 42.630485 290.26317 43.339787 290.23954 44.048828 290.22656 C 44.446729 290.13801 44.681262 289.7152 44.677322 289.32861 C 44.735652 287.93977 44.614186 286.55262 44.573499 285.16506 C 44.52579 283.89339 44.48354 282.62154 44.443359 281.34961 C 44.405062 280.81592 43.887505 280.35709 43.348185 280.42444 C 42.760157 280.44842 42.158738 280.5774 41.579669 280.41169 C 41.052247 280.30029 40.519826 280.17066 39.976562 280.19922 z "
       id="path831" />
    <path
       style="opacity:1;fill:#2f2e41;fill-opacity:1;stroke:none;stroke-width:10;stroke-linejoin:round;stroke-miterlimit:4;stroke-dasharray:none;stroke-opacity:1;paint-order:normal"
       d="M 40.078125 252.86133 C 39.818811 252.9616 39.599924 253.13736 39.376953 253.29883 C 39.094204 253.82697 39.109002 254.44521 39.09375 255.02734 C 39.121663 256.72915 39.497925 258.3971 39.805067 260.0638 C 39.88567 260.49045 39.966272 260.9171 40.046875 261.34375 C 40.146552 264.00513 40.018795 266.6679 39.872652 269.32505 C 39.749507 271.39074 39.570495 273.45254 39.374866 275.51249 C 39.204741 277.27327 39.062059 279.03651 38.933594 280.80078 C 39.136651 281.17905 39.57649 281.35459 39.986328 281.38086 C 41.015606 281.48974 42.060786 281.40402 43.082031 281.59375 C 43.455996 281.65942 43.811148 281.80338 44.185547 281.86523 C 44.502783 281.90843 44.827202 281.75726 45.010651 281.49793 C 45.166151 281.30567 45.218992 281.0541 45.214721 280.81154 C 45.277406 279.09934 45.316129 277.38635 45.369141 275.67383 C 45.95239 273.69591 46.550257 271.71961 46.999596 269.70587 C 47.415301 267.8184 47.76912 265.91803 48.128589 264.01925 C 48.259202 263.3034 48.394395 262.58781 48.504964 261.86872 C 48.696461 260.14407 48.917142 258.41618 48.904297 256.67773 C 48.875068 256.13212 48.677946 255.55877 48.234375 255.21289 C 47.664168 254.75 46.921544 254.57907 46.204674 254.5189 C 45.263683 254.45042 44.294785 254.51799 43.386499 254.21625 C 42.65721 253.97985 42.024499 253.53478 41.35661 253.17204 C 40.995538 252.98509 40.602913 252.83327 40.191406 252.82617 C 40.153646 252.83789 40.115885 252.84961 40.078125 252.86133 z "
       id="path981" />
    <path
       style="opacity:0.956;fill:#ffb380;fill-opacity:1;stroke:none;stroke-width:10;stroke-linejoin:round;stroke-miterlimit:4;stroke-dasharray:none;stroke-opacity:1;paint-order:normal"
       d="M 47.005859 206.17188 C 46.686891 206.25759 46.521109 206.56773 46.338954 206.81496 C 46.049038 207.22385 45.64547 207.54095 45.208984 207.78125 C 44.972697 207.9797 44.978988 208.31605 44.970703 208.59766 C 44.935307 209.57885 44.928391 210.56174 44.853516 211.54102 C 44.761378 212.7699 44.374222 213.96095 44.352729 215.19714 C 44.32547 216.35009 44.537523 217.48906 44.699634 218.62586 C 44.783367 219.10547 44.698172 219.59063 44.647629 220.0689 C 44.530528 220.89715 44.366704 221.71833 44.199412 222.53772 C 43.79065 224.3929 43.261592 226.21831 42.792528 228.05853 C 42.378671 229.63187 41.995016 231.22125 41.844353 232.84468 C 41.798143 233.60679 42.432059 234.31681 43.17745 234.4202 C 43.697692 234.47023 44.222007 234.43281 44.743755 234.42616 C 45.024922 234.4128 45.310354 234.42479 45.587891 234.375 C 46.034471 234.24005 46.319821 233.81233 46.43922 233.38148 C 46.788861 232.30755 47.08197 231.21629 47.401379 230.13317 C 47.639982 229.30753 47.878585 228.48189 48.117188 227.65625 C 48.30176 226.23798 48.295789 224.80511 48.32659 223.37779 C 48.349267 221.62832 48.39381 219.87847 48.359375 218.12891 C 48.298779 217.00822 48.15731 215.89346 48.103656 214.77221 C 48.052592 213.93555 48.055253 213.09702 48.017444 212.25978 C 47.967969 211.08015 47.88596 209.90132 47.737825 208.72965 C 47.655295 208.00662 47.572764 207.28358 47.490234 206.56055 C 47.427889 206.35493 47.244084 206.13043 47.005859 206.17188 z "
       id="path985" />
    <ellipse
       style="opacity:0.97399998;fill:#ffb380;fill-opacity:1;stroke:none;stroke-width:10;stroke-linejoin:round;stroke-miterlimit:4;stroke-dasharray:none;stroke-opacity:1;paint-order:normal"
       id="path18"
       cx="39.498512"
       cy="224.92468"
       rx="4.5829611"
       ry="5.0318079" />
    <ellipse
       style="opacity:0.977;fill:#c5b79f;fill-opacity:1;stroke:none;stroke-width:9.23156738;stroke-linejoin:round;stroke-miterlimit:4;stroke-dasharray:none;stroke-opacity:1;paint-order:normal"
       id="path834"
       cx="45.684662"
       cy="204.48215"
       rx="1.8458428"
       ry="3.6298263" />
    <path
       inkscape:connector-curvature="0"
       style="fill:#000000;stroke-width:0.09493709"
       d="m 38.763769,221.65408 c -0.376037,-0.87529 -1.379632,-1.3622 -2.335192,-1.33699 -0.955568,0.0252 -1.844566,0.48512 -2.601187,1.06372 -1.019782,0.7802 -1.869105,1.81919 -2.273754,3.03797 -0.322469,0.96996 -0.354419,2.0084 -0.512874,3.01684 a 12.084542,12.084542 0 0 1 -1.979746,4.97132 c -1.137574,1.65093 -2.763444,3.21372 -2.759227,5.2205 0.0049,3.6718 5.321774,5.48867 5.609849,9.1461 0.07773,0.98624 -0.239449,1.95849 -0.325251,2.9439 -0.08581,0.9854 0.14151,2.1196 0.982829,2.6404 0.403417,0.25035 0.897004,0.32155 1.373407,0.32502 2.046125,0.0258 4.055311,-1.10388 5.150881,-2.82958 1.09551,-1.72574 1.269001,-3.99068 0.506705,-5.88942 -0.190589,-0.47554 -0.440114,-0.94745 -0.441281,-1.45855 -0.005,-1.02166 0.936693,-1.75293 1.561634,-2.56291 1.390559,-1.80368 1.196611,-4.63624 -0.433226,-6.23202 -0.697153,-0.6785 -1.671823,-1.27109 -1.756461,-2.24144 -0.06806,-0.78307 0.493532,-1.45874 0.852005,-2.16319 0.657111,-1.287 0.523387,-2.72599 -0.03323,-4.01719 -0.255252,-0.59217 -0.77016,-0.97595 -0.859054,-1.61523 -0.103277,-0.6939 0.627002,-1.19 0.273177,-2.01923 z"
       id="path42" />
  </g>
</svg>
