<?xml version="1.0" encoding="UTF-8" standalone="no"?>
<!-- Created with Inkscape (http://www.inkscape.org/) -->

<svg
   xmlns:dc="http://purl.org/dc/elements/1.1/"
   xmlns:cc="http://creativecommons.org/ns#"
   xmlns:rdf="http://www.w3.org/1999/02/22-rdf-syntax-ns#"
   xmlns:svg="http://www.w3.org/2000/svg"
   xmlns="http://www.w3.org/2000/svg"
   xmlns:sodipodi="http://sodipodi.sourceforge.net/DTD/sodipodi-0.dtd"
   xmlns:inkscape="http://www.inkscape.org/namespaces/inkscape"
   width="20cm"
   height="11cm"
   viewBox="0 0 200 110"
   version="1.1"
   id="svg8"
   inkscape:version="0.92.4 (5da689c313, 2019-01-14)"
   sodipodi:docname="sphereInk.svg">
  <defs
     id="defs2" />
  <sodipodi:namedview
     id="base"
     pagecolor="#ffffff"
     bordercolor="#666666"
     borderopacity="1.0"
     inkscape:pageopacity="0.0"
     inkscape:pageshadow="2"
     inkscape:zoom="0.7"
     inkscape:cx="42.649865"
     inkscape:cy="263.83756"
     inkscape:document-units="mm"
     inkscape:current-layer="layer1"
     showgrid="false"
     units="cm"
     inkscape:window-width="1280"
     inkscape:window-height="656"
     inkscape:window-x="0"
     inkscape:window-y="36"
     inkscape:window-maximized="1" />
  <metadata
     id="metadata5">
    <rdf:RDF>
      <cc:Work
         rdf:about="">
        <dc:format>image/svg+xml</dc:format>
        <dc:type
           rdf:resource="http://purl.org/dc/dcmitype/StillImage" />
        <dc:title></dc:title>
      </cc:Work>
    </rdf:RDF>
  </metadata>
  <g
     inkscape:label="Ebene 1"
     inkscape:groupmode="layer"
     id="layer1"
     transform="translate(0,-187.00002)">
    <ellipse
       style="opacity:1;vector-effect:none;fill:#b3876f;fill-opacity:0.75971728;fill-rule:evenodd;stroke:none;stroke-width:11.80135822;stroke-linecap:butt;stroke-linejoin:round;stroke-miterlimit:4;stroke-dasharray:none;stroke-dashoffset:0;stroke-opacity:1;paint-order:normal"
       id="path2815"
       cx="43.622253"
       cy="211.58145"
       rx="41.929943"
       ry="20.072845" />
    <path
       inkscape:connector-curvature="0"
       style="opacity:1;fill:#b3876f;fill-opacity:0.75971728;fill-rule:nonzero;stroke:none;stroke-width:6.68852091;stroke-linejoin:round;stroke-miterlimit:4;stroke-dasharray:none;stroke-opacity:0.00353358;paint-order:normal"
       d="m 104.89598,198.71399 c -12.843807,0.0541 -25.85865,2.21702 -37.534347,7.73762 -8.485292,4.09647 -15.988537,10.57922 -20.494186,18.92857 -5.191871,9.95552 -3.671646,22.91725 3.555865,31.48372 5.762006,7.39198 13.96199,12.5743 22.68971,15.77699 14.06993,5.25497 29.688918,5.95724 44.284788,2.58714 8.27752,-1.9919 15.97961,-5.8023 23.2785,-10.10497 8.49515,-4.67027 17.7208,-8.07799 25.58326,-13.84778 3.59916,-2.57023 6.81153,-6.05958 7.99713,-10.41599 1.23724,-4.35251 0.24134,-9.07948 -1.95688,-12.95464 -3.07806,-5.68308 -7.9499,-10.13823 -13.0891,-13.94045 -9.87919,-7.21164 -21.57088,-11.75676 -33.61186,-13.7196 -6.83525,-1.14599 -13.77744,-1.56777 -20.70288,-1.53061 z"
       id="path2819" />
    <path
       style="opacity:1;fill:#b3876f;fill-opacity:0.75971728;fill-rule:nonzero;stroke:none;stroke-width:6.25472021;stroke-linejoin:round;stroke-miterlimit:4;stroke-dasharray:none;stroke-opacity:0.00353358;paint-order:normal"
       d="m 156.71361,258.33391 c -13.83374,0.47264 -27.3674,4.21921 -41.23965,4.12719 -5.72959,-0.053 -11.11261,-2.24036 -16.550115,-3.77683 -1.396358,-0.16503 -2.398397,1.35873 -2.295205,2.63059 0.06886,3.99949 0.667186,7.96907 1.347654,11.90334 0.910397,4.66946 2.575696,9.39377 5.932806,12.88389 4.18269,4.45052 10.12174,6.91722 16.10983,7.67657 6.9611,0.94359 14.02025,0.12709 20.8862,-1.13505 10.10892,-1.98048 19.93479,-5.48733 30.25833,-6.29182 3.99003,-0.34527 7.99852,-0.33652 11.99914,-0.27997 4.00916,-0.0874 8.15917,-0.3782 11.83113,-2.12902 3.68214,-2.26738 4.5937,-7.91627 1.79492,-11.21922 -2.79395,-3.95212 -7.07224,-6.46916 -11.29197,-8.64505 -8.8845,-4.42375 -18.95139,-5.81933 -28.78307,-5.74462 z"
       id="path2821"
       inkscape:connector-curvature="0" />
    <text
       xml:space="preserve"
       style="font-style:normal;font-weight:normal;font-size:14.84604263px;line-height:1.25;font-family:sans-serif;letter-spacing:0px;word-spacing:0px;fill:#000000;fill-opacity:1;stroke:none;stroke-width:0.37115106"
       x="79.380966"
       y="236.09731"
       id="text817"><tspan
         sodipodi:role="line"
         id="tspan815"
         x="79.380966"
         y="236.09731"
         style="stroke-width:0.37115106">START</tspan></text>
  </g>
</svg>
