<?xml version="1.0" encoding="UTF-8"?>
<!-- Created with Inkscape (http://www.inkscape.org/) -->
<svg width="20cm" height="11cm" version="1.1" viewBox="0 0 200 110" xmlns="http://www.w3.org/2000/svg" xmlns:cc="http://creativecommons.org/ns#" xmlns:dc="http://purl.org/dc/elements/1.1/" xmlns:rdf="http://www.w3.org/1999/02/22-rdf-syntax-ns#">
 <metadata>
  <rdf:RDF>
   <cc:Work rdf:about="">
    <dc:format>image/svg+xml</dc:format>
    <dc:type rdf:resource="http://purl.org/dc/dcmitype/StillImage"/>
    <dc:title/>
   </cc:Work>
  </rdf:RDF>
 </metadata>
 <g transform="translate(0 -187)">
  <g fill="#b3876f" fill-opacity=".75972">
   <ellipse cx="43.622" cy="211.58" rx="41.93" ry="20.073" fill-rule="evenodd" style="paint-order:normal"/>
   <path d="m104.9 198.71c-12.844 0.0541-25.859 2.217-37.534 7.7376-8.4853 4.0965-15.989 10.579-20.494 18.929-5.1919 9.9555-3.6716 22.917 3.5559 31.484 5.762 7.392 13.962 12.574 22.69 15.777 14.07 5.255 29.689 5.9572 44.285 2.5871 8.2775-1.9919 15.98-5.8023 23.278-10.105 8.4952-4.6703 17.721-8.078 25.583-13.848 3.5992-2.5702 6.8115-6.0596 7.9971-10.416 1.2372-4.3525 0.24134-9.0795-1.9569-12.955-3.0781-5.6831-7.9499-10.138-13.089-13.94-9.8792-7.2116-21.571-11.757-33.612-13.72-6.8352-1.146-13.777-1.5678-20.703-1.5306z" style="paint-order:normal"/>
   <path d="m156.71 258.33c-13.834 0.47264-27.367 4.2192-41.24 4.1272-5.7296-0.053-11.113-2.2404-16.55-3.7768-1.3964-0.16503-2.3984 1.3587-2.2952 2.6306 0.06886 3.9995 0.66719 7.9691 1.3477 11.903 0.9104 4.6695 2.5757 9.3938 5.9328 12.884 4.1827 4.4505 10.122 6.9172 16.11 7.6766 6.9611 0.94359 14.02 0.12709 20.886-1.135 10.109-1.9805 19.935-5.4873 30.258-6.2918 3.99-0.34527 7.9985-0.33652 11.999-0.27997 4.0092-0.0874 8.1592-0.3782 11.831-2.129 3.6821-2.2674 4.5937-7.9163 1.7949-11.219-2.794-3.9521-7.0722-6.4692-11.292-8.645-8.8845-4.4238-18.951-5.8193-28.783-5.7446z" style="paint-order:normal"/>
  </g>
  <text x="79.380966" y="236.09731" fill="#000000" font-family="sans-serif" font-size="14.846px" letter-spacing="0px" stroke-width=".37115" word-spacing="0px" style="line-height:1.25" xml:space="preserve"><tspan x="79.380966" y="236.09731" stroke-width=".37115">START</tspan></text>
 </g>
</svg>
