<?xml version="1.0" encoding="UTF-8" standalone="no"?>
<!-- Created with Inkscape (http://www.inkscape.org/) -->

<svg
   xmlns:dc="http://purl.org/dc/elements/1.1/"
   xmlns:cc="http://creativecommons.org/ns#"
   xmlns:rdf="http://www.w3.org/1999/02/22-rdf-syntax-ns#"
   xmlns:svg="http://www.w3.org/2000/svg"
   xmlns="http://www.w3.org/2000/svg"
   xmlns:sodipodi="http://sodipodi.sourceforge.net/DTD/sodipodi-0.dtd"
   xmlns:inkscape="http://www.inkscape.org/namespaces/inkscape"
   width="12cm"
   height="12cm"
   viewBox="0 0 120 120"
   version="1.1"
   id="svg8"
   inkscape:version="0.92.4 (5da689c313, 2019-01-14)"
   sodipodi:docname="train.svg">
  <defs
     id="defs2">
    <linearGradient
       gradientTransform="matrix(0.12351938,0,0,0.12351938,-15.745017,168.17471)"
       id="4e52bdea-3ee3-4982-ab0f-41ec51f7690b"
       x1="593"
       y1="777.91998"
       x2="593"
       y2="344.92001"
       gradientUnits="userSpaceOnUse">
      <stop
         offset="0"
         stop-color="gray"
         stop-opacity="0.25"
         id="stop2" />
      <stop
         offset="0.54"
         stop-color="gray"
         stop-opacity="0.12"
         id="stop4" />
      <stop
         offset="1"
         stop-color="gray"
         stop-opacity="0.1"
         id="stop6" />
    </linearGradient>
  </defs>
  <sodipodi:namedview
     id="base"
     pagecolor="#ffffff"
     bordercolor="#666666"
     borderopacity="1.0"
     inkscape:pageopacity="0.0"
     inkscape:pageshadow="2"
     inkscape:zoom="0.98994949"
     inkscape:cx="121.54327"
     inkscape:cy="264.4896"
     inkscape:document-units="mm"
     inkscape:current-layer="layer1"
     showgrid="false"
     units="cm"
     showguides="true"
     inkscape:guide-bbox="true"
     inkscape:window-width="1280"
     inkscape:window-height="656"
     inkscape:window-x="0"
     inkscape:window-y="36"
     inkscape:window-maximized="1">
    <sodipodi:guide
       position="8.0180859,59.73474"
       orientation="0,1"
       id="guide95"
       inkscape:locked="false" />
    <sodipodi:guide
       position="60.002009,67.485556"
       orientation="1,0"
       id="guide97"
       inkscape:locked="false" />
  </sodipodi:namedview>
  <metadata
     id="metadata5">
    <rdf:RDF>
      <cc:Work
         rdf:about="">
        <dc:format>image/svg+xml</dc:format>
        <dc:type
           rdf:resource="http://purl.org/dc/dcmitype/StillImage" />
        <dc:title></dc:title>
      </cc:Work>
    </rdf:RDF>
  </metadata>
  <g
     inkscape:label="Ebene 1"
     inkscape:groupmode="layer"
     id="layer1"
     transform="translate(0,-177.00002)">
    <path
       style="opacity:0.98000004;fill:#000000;fill-opacity:0.99285715;stroke:none;stroke-width:13.73221397;stroke-linejoin:round;stroke-miterlimit:4;stroke-dasharray:none;stroke-opacity:1;paint-order:normal"
       id="path125"
       sodipodi:type="arc"
       sodipodi:cx="60"
       sodipodi:cy="237.00003"
       sodipodi:rx="42"
       sodipodi:ry="42"
       sodipodi:start="0"
       sodipodi:end="3.6140634"
       d="M 102,237.00003 A 42,42 0 0 1 75.035352,276.21659 42,42 0 0 1 28.764848,265.07787 42,42 0 0 1 22.601243,217.88635 L 60,237.00003 Z" />
    <path
       style="opacity:0.98000004;fill:#f8bcbc;fill-opacity:0.95686275;stroke:none;stroke-width:9.13327026;stroke-linejoin:round;stroke-miterlimit:4;stroke-dasharray:none;stroke-opacity:1;paint-order:normal"
       id="path100"
       r="40"
       cy="237.00002"
       cx="60" />
    <path
       inkscape:connector-curvature="0"
       style="fill:#ffffff;stroke-width:0.12351938"
       d="m 78.087713,252.42481 -6.010452,-4.61592 c 0,0 -0.484194,-1.92196 -0.678123,-3.26832 -0.193928,-1.34636 -0.485425,-7.11471 -0.485425,-7.11471 a 8.3659673,8.3659673 0 0 0 0.272978,-1.52671 c 0.05928,-0.0124 0.123516,-0.0272 0.179094,-0.0433 a 2.9953449,2.9953449 0 0 0 2.024486,-1.74532 c 0.6176,-1.53659 -0.180339,-3.35232 -1.190725,-4.57022 -1.010386,-1.2179 -2.282637,-2.19618 -2.947171,-3.70558 -0.820172,-1.85897 -0.539781,-4.10826 -0.958507,-6.14386 a 1.8589667,1.8589667 0 0 0 -0.3088,-0.79422 c -0.260627,-0.32239 -0.66701,-0.39156 -1.02892,-0.52002 -1.146259,-0.40761 -2.00596,-1.52053 -2.676661,-2.68285 -1.085737,-1.88366 -2.209764,-4.74932 -4.446697,-4.91236 -0.831292,-0.0605 -1.698391,0.21987 -2.539566,0.21739 -1.303128,0 -2.593905,0.0161 -3.885921,0.19517 -0.461961,0.063 -0.93998,0.14945 -1.325361,0.45331 -1.322885,1.04744 -0.723827,3.81304 -1.998547,4.94078 -0.379197,0.3335 -0.86463,0.45455 -1.293238,0.6843 -1.615635,0.86463 -2.333286,3.17074 -2.238172,5.24463 0.04574,0.97333 0.247031,1.98495 0.821403,2.69519 0.455786,0.56819 1.103024,0.89428 1.527933,1.49458 0.68306,0.96593 0.590422,2.24929 0.51631,3.55366 -0.914049,0.3829 -1.64775,0.82263 -1.878731,1.29572 -0.783112,1.58969 -0.681822,7.02455 -0.681822,7.02455 0,0 0.290266,8.89339 -1.940492,10.00507 l -8.340031,5.76835 c 0,0 -5.916576,-5.14335 -7.371635,-2.11466 -0.994329,2.07143 2.637141,3.24362 5.033419,3.77723 -1.510646,1.07215 -2.346875,3.05339 -1.639106,4.39482 1.111669,2.11589 4.219423,3.55736 4.219423,3.55736 0,0 11.851685,0.57189 17.32977,-0.65589 h 0.09017 c 2.325865,0.4212 5.663362,0.86464 8.340024,0.59783 0.05185,0.12353 0.0877,0.20258 0.0877,0.20258 0,0 17.169195,1.4427 20.270766,-4.422 1.590933,-3.00893 -0.06918,-4.39729 -2.065245,-5.03712 2.234464,-0.17787 4.778967,-0.80287 5.071709,-2.70384 0.533605,-3.46842 -7.855837,0.47431 -7.855837,0.47431 z m -1.729268,1.83921 c -3.142338,1.14379 -5.691778,1.20801 -7.050492,1.12279 -0.667002,-1.45506 -3.448654,-7.75579 -3.521535,-11.97397 0.01857,-0.94122 0.185284,-1.76386 0.562013,-2.38145 0.807814,-1.33031 1.047446,-2.37405 1.020276,-3.16581 0,-0.058 0,-0.11611 0,-0.17292 a 3.2325021,3.2325021 0 0 0 -0.06918,-0.72012 1.8947872,1.8947872 0 0 1 0.113641,1.03015 c -0.290274,1.48964 0.485425,11.15257 0.485425,11.15257 0,0 0.62995,2.16406 1.939261,2.78782 z m -30.766212,-0.68554 3.016346,-1.9232 c 0,0 1.406887,-0.67317 1.552635,-2.30733 l 0.994336,-7.81014 a 7.9595888,7.9595888 0 0 0 0.265565,0.98816 c 0.175394,0.5126 0.247038,1.2636 0.261865,2.15788 -0.03831,4.359 -1.521766,11.59106 -1.521766,11.59106 h 0.01726 c 0,0.0211 -0.0077,0.0383 -0.0099,0.0519 l -0.104989,0.006 c -2.439514,-0.0741 -8.125116,-0.28657 -11.306967,-0.72754 z m -5.259448,4.55169 v 0.0148 h -0.741122 z"
       id="path75" />
    <path
       inkscape:connector-curvature="0"
       style="fill:#ffffff;stroke-width:0.12351938"
       d="m 64.048506,216.47821 c 0.647238,1.1339 1.482229,2.22334 2.593905,2.6149 0.349559,0.12352 0.741115,0.19392 0.988154,0.5089 a 1.8206757,1.8206757 0 0 1 0.300148,0.77447 c 0.403914,1.98372 0.133405,4.17618 0.926399,5.99069 0.642301,1.46864 1.871317,2.42468 2.848357,3.60922 0.977033,1.18456 1.742857,2.95583 1.151197,4.45288 a 2.906411,2.906411 0 0 1 -1.95778,1.7021 c -0.817695,0.22233 -1.671213,0.12969 -2.501267,-0.0173 -1.09438,-0.19392 -2.208525,-0.49407 -3.120097,-1.23519 -1.577345,-1.28214 -2.244347,-3.58206 -3.069464,-5.62878 -0.387849,-0.95851 -0.902921,-1.96272 -1.7552,-2.30487 -0.97581,-0.3928 -2.073897,0.26309 -2.707546,1.22531 -0.633658,0.96222 -0.914049,2.17147 -1.221611,3.33502 -0.345852,1.31425 -0.783112,2.6779 -1.693453,3.5376 a 2.8495921,2.8495921 0 0 1 -3.043517,0.60771 c -1.012854,-0.4212 -1.813262,-1.48964 -2.046719,-2.72854 -0.358203,-1.90837 0.50149,-4.19966 -0.5546,-5.70906 -0.410082,-0.58425 -1.036326,-0.90293 -1.476054,-1.4563 -0.549663,-0.69294 -0.749767,-1.67986 -0.792995,-2.62726 -0.09264,-2.02324 0.600304,-4.27747 2.162822,-5.11494 0.417495,-0.22356 0.883164,-0.34091 1.250018,-0.667 1.235199,-1.09809 0.652183,-3.79451 1.93061,-4.81726 0.370553,-0.29768 0.834991,-0.38043 1.282133,-0.44343 1.25248,-0.17293 2.496323,-0.19269 3.754985,-0.18899 0.813997,0 1.652695,-0.27174 2.455571,-0.21245 2.161583,0.16181 3.24732,2.95582 4.296004,4.79256 z"
       id="path77" />
    <polygon
       transform="matrix(0.12351938,0,0,0.12351938,8.2399731,176.7309)"
       style="fill:#ffffff"
       points="530.71,647.09 440.14,636.55 281.32,646.14 264.1,652.85 267.93,698.22 535.82,696.62 "
       id="polygon79" />
    <polygon
       transform="matrix(0.12351938,0,0,0.12351938,8.2399731,176.7309)"
       style="opacity:0.05;fill:#ffffff"
       points="530.71,647.09 440.14,636.55 281.32,646.14 264.1,652.85 267.93,698.22 535.82,696.62 "
       id="polygon81" />
    <path
       inkscape:connector-curvature="0"
       style="fill:#ffffff;stroke-width:0.12351938"
       d="m 62.634205,261.28609 -11.015455,1.03139 c 0,0 7.54703,1.92196 11.952967,0.98816 z"
       id="path83" />
    <path
       inkscape:connector-curvature="0"
       style="opacity:0.1;stroke-width:0.12351938;fill:#ffffff"
       d="m 62.634205,261.28609 -11.015455,1.03139 c 0,0 7.54703,1.92196 11.952967,0.98816 z"
       id="path85" />
    <path
       inkscape:connector-curvature="0"
       style="fill:#ffffff;stroke-width:0.12351938"
       d="m 54.243533,221.81795 c 0,0 2.156653,5.672 -1.031389,8.20292 -3.188034,2.53091 -0.562005,9.6098 -0.562005,9.6098 l 12.281531,-0.56325 c 0,0 1.217895,-7.96823 0.562005,-9.6555 0,0 -2.906404,0.84364 -3.562294,-0.93752 -0.65589,-1.78115 -1.125265,-6.65645 -1.125265,-6.65645 z"
       id="path87" />
    <path
       inkscape:connector-curvature="0"
       style="fill:#ffffff;stroke-width:0.12351938"
       d="m 51.430997,256.13039 c 0,0 -10.359565,-0.23469 -13.405558,-0.98815 -3.045985,-0.75348 -5.672014,2.86317 -4.593683,4.93089 1.078323,2.06771 4.076135,3.46842 4.076135,3.46842 0,0 15.422631,0.74977 18.750246,-1.35871 0,0 1.266068,-3.60923 0,-4.31206 H 40.180854 l 11.85786,-0.23469 z"
       id="path89" />
    <path
       inkscape:connector-curvature="0"
       style="fill:#ffffff;stroke-width:0.12351938"
       d="m 67.883778,255.05207 c 0,0 3.469656,0.74976 8.249862,-1.12527 0,0 8.953916,-0.28038 5.953635,5.43486 -3.000288,5.71524 -19.593881,4.3133 -19.593881,4.3133 0,0 -0.988153,-2.10971 0,-2.67173 0.988153,-0.56201 9.562865,-4.17248 12.234589,-3.98473 l -7.411155,1.45258 z"
       id="path91" />
    <path
       inkscape:connector-curvature="0"
       style="opacity:0.1;stroke-width:0.12351938;fill:#ffffff"
       d="m 61.231025,224.54649 c -0.179109,-1.33524 -0.284098,-2.42345 -0.284098,-2.42345 h -6.562583 a 12.785491,12.785491 0 0 1 0.627481,2.65319 5.156934,5.156934 0 0 0 6.2192,-0.22974 z"
       id="path93" />
    <circle
       style="fill:#ffffff;stroke-width:0.12351938"
       cx="57.829308"
       cy="220.24802"
       r="5.1556993"
       id="circle95" />
    <path
       inkscape:connector-curvature="0"
       style="fill:#ffffff;stroke-width:0.12351938"
       d="m 54.805546,229.22417 c 0,0 -6.187085,1.1722 -6.936844,2.71743 -0.749766,1.54522 -0.65589,6.8442 -0.65589,6.8442 0,0 0.280384,8.67106 -1.875031,9.74939 l -8.063339,5.62507 c 0,0 -5.71771,-5.01489 -7.124597,-2.06278 -1.406887,2.95212 6.750337,4.03168 6.750337,4.03168 l 9.093489,-2.71743 2.906412,-1.87502 c 0,0 1.358715,-0.65589 1.499525,-2.25053 l 1.219142,-9.65551 4.875305,-1.40688 h 7.874363 l 1.054852,-3.0114 c 0,0 1.945437,1.55881 1.663807,3.0114 -0.281622,1.45258 0.469375,10.8697 0.469375,10.8697 0,0 0.608948,2.10848 1.875024,2.71743 l 7.31235,2.62479 c 0,0 7.733552,0.74976 8.249862,-2.62479 0.516309,-3.37455 -7.593972,0.48049 -7.593972,0.48049 l -5.816531,-4.50475 c 0,0 -0.468137,-1.87502 -0.65589,-3.18803 -0.187746,-1.31302 -0.468137,-6.93686 -0.468137,-6.93686 0,0 1.781147,-5.9067 -3.375788,-6.93684 l -6.656459,-2.06278 z"
       id="path97" />
    <path
       inkscape:connector-curvature="0"
       style="opacity:0.1;stroke-width:0.12351938;fill:#ffffff"
       d="m 50.657767,230.41984 0.960983,6.35136 c 0,0 -0.988161,2.95335 0,5.85976 0.988153,2.90641 -1.219142,13.73659 -1.219142,13.73659 0,0 11.578707,3.70558 18.651425,-0.56325 0,0 -5.202631,-10.96852 -3.000281,-14.6247 2.202349,-3.65617 0.03707,-5.08652 0.03707,-5.08652 l 0.338439,-6.72563 -1.593394,-0.46938 -0.937512,6.65647 c 0,0 -6.468715,4.49981 -11.250151,0.56324 l -1.03138,-7.21971 z"
       id="path99" />
    <path
       inkscape:connector-curvature="0"
       style="opacity:0.07000002;fill:#ffffff;stroke-width:0.12351938"
       d="m 57.345104,237.96316 a 3.7982209,3.7982209 0 0 0 -4.916072,-1.38218 c 1.569931,1.17962 3.301675,1.49458 4.916072,1.38218 z"
       id="path101" />
    <path
       inkscape:connector-curvature="0"
       style="opacity:0.07000002;fill:#ffffff;stroke-width:0.12351938"
       d="m 60.002009,237.26528 a 3.7920449,3.7920449 0 0 1 4.911127,-1.38218 c -1.566224,1.17466 -3.29673,1.48841 -4.911127,1.38218 z"
       id="path103" />
    <path
       inkscape:connector-curvature="0"
       style="opacity:0.1;stroke-width:0.12351938;fill:#ffffff"
       d="m 50.657767,230.41984 0.960983,6.0228 c 0,0 -0.988161,2.95335 0,5.85976 0.988153,2.90641 -1.219142,13.73412 -1.219142,13.73412 0,0 11.578707,3.70558 18.651425,-0.56201 0,0 -5.202631,-10.96853 -3.000281,-14.62469 2.202349,-3.65618 0.03707,-5.08654 0.03707,-5.08654 l 0.338439,-6.72686 -1.593394,-0.46814 -0.937512,6.65646 c 0,0 -6.468715,4.49981 -11.250151,0.56201 l -1.03138,-7.21847 z"
       id="path105" />
    <path
       inkscape:connector-curvature="0"
       style="fill:#ffffff;stroke-width:0.12351938"
       d="m 50.610833,230.3729 1.007917,6.16362 c 0,0 -0.988161,2.95334 0,5.85976 0.988153,2.9064 -1.219142,13.73411 -1.219142,13.73411 0,0 11.578707,3.70558 18.651425,-0.56201 0,0 -5.202631,-10.96975 -3.000281,-14.62593 2.202349,-3.65617 0.03707,-5.08529 0.03707,-5.08529 l 0.338439,-6.72687 -1.593394,-0.46814 -0.937512,6.65646 c 0,0 -6.468715,4.49981 -11.250151,0.56202 l -1.03138,-7.21848 z"
       id="path107" />
    <path
       inkscape:connector-curvature="0"
       style="fill:#ffffff;stroke-width:0.12351938"
       d="m 55.368798,258.42662 2.437029,-0.3298 c 0,0 2.812544,-3.60924 4.828378,-0.84363 0,0 0.843636,1.78114 1.875024,2.10847 a 13.848993,13.848993 0 0 0 2.156654,0.46937 l -4.172489,1.1722 c 0,0 -1.828089,1.07833 -3.750047,0.7967 a 7.271586,7.271586 0 0 0 -3.374549,0.28163 z"
       id="path109" />
    <path
       inkscape:connector-curvature="0"
       style="opacity:0.1;stroke-width:0.12351938;fill:#ffffff"
       d="m 52.437676,229.29457 c 0,0 3.234976,0.46938 3.843932,0.18775"
       id="path115" />
    <path
       inkscape:connector-curvature="0"
       style="opacity:0.1;stroke-width:0.12351938;fill:#ffffff"
       d="m 59.563519,229.29457 c 0,0 3.234968,0.46938 3.843916,0.18775"
       id="path117" />
    <path
       inkscape:connector-curvature="0"
       style="opacity:0.1;stroke-width:0.12351938;fill:#ffffff"
       d="m 55.719587,258.07583 c 0,0 0.891808,4.19966 0,4.34787 -0.891808,0.14823 -2.155415,-0.6917 -2.155415,-0.78558 0,-0.0939 0.562021,-2.7656 0.562021,-2.7656 z"
       id="path119" />
    <path
       inkscape:connector-curvature="0"
       style="fill:#ffffff;stroke-width:0.12351938"
       d="m 55.626948,258.07583 c 0,0 0.890578,4.19966 0,4.34787 -0.890569,0.14823 -2.156645,-0.6917 -2.156645,-0.78558 0,-0.0939 0.562013,-2.7656 0.562013,-2.7656 z"
       id="path121" />
    <path
       inkscape:connector-curvature="0"
       style="fill:#ffffff;stroke-width:0.12351938"
       d="m 51.642213,217.62323 c 0,0 6.842975,-0.93751 7.030728,0.46813 0.187746,1.40565 6.235258,3.70559 6.235258,3.70559 l -1.500764,-3.70559 -2.765593,-4.59368 c 0,0 -5.064297,-0.37056 -5.296515,0 -0.232219,0.37055 -2.907651,1.5934 -2.907651,1.5934 z"
       id="path129" />
    <path
       inkscape:connector-curvature="0"
       style="opacity:0.1;stroke-width:0.12351938;fill:#ffffff"
       d="m 63.554421,227.63942 a 3.3350233,3.3350233 0 0 1 0.686775,1.37476 c 0.113633,0.4842 0.123515,0.98816 0.226036,1.47236 0.22975,1.03138 0.91281,1.89849 1.624279,2.67913 a 2.9237038,2.9237038 0 0 0 0.831284,0.69912 c 0.326096,0.16058 0.741115,0.19392 1.042501,0 -0.286559,-0.23592 -0.442189,-0.59536 -0.544717,-0.9511 a 4.8728398,4.8728398 0 0 1 -0.190222,-1.53288 c 0.03088,-0.86464 0.284098,-1.77744 -0.07537,-2.5655 -0.207509,-0.45578 -0.594128,-0.80163 -0.988153,-1.11167 a 5.3224502,5.3224502 0 0 0 -0.881926,-0.5793 c -0.583016,-0.29028 -1.250018,-0.4175 -1.893557,-0.48173 -0.83746,-0.0852 -0.104989,0.68059 0.163044,0.99681 z"
       id="path131" />
    <text
       xml:space="preserve"
       style="font-style:normal;font-weight:normal;font-size:10.58333302px;line-height:1.25;font-family:Nunito;letter-spacing:0px;word-spacing:0px;fill:#000000;fill-opacity:1;stroke:none;stroke-width:0.26458332;-inkscape-font-specification:Nunito;font-stretch:normal;font-variant:normal;"
       x="52.912472"
       y="241.3994"
       id="text123"><tspan
         sodipodi:role="line"
         id="tspan121"
         x="52.912472"
         y="241.3994"
         style="stroke-width:0.26458332;-inkscape-font-specification:Nunito;font-family:Nunito;font-weight:normal;font-style:normal;font-stretch:normal;font-variant:normal;">30</tspan></text>
  </g>
</svg>
