<?xml version="1.0" encoding="UTF-8"?>
<!-- Created with Inkscape (http://www.inkscape.org/) -->
<svg width="10cm" height="10cm" version="1.1" viewBox="0 0 100 100" xmlns="http://www.w3.org/2000/svg" xmlns:cc="http://creativecommons.org/ns#" xmlns:dc="http://purl.org/dc/elements/1.1/" xmlns:rdf="http://www.w3.org/1999/02/22-rdf-syntax-ns#">
 <metadata>
  <rdf:RDF>
   <cc:Work rdf:about="">
    <dc:format>image/svg+xml</dc:format>
    <dc:type rdf:resource="http://purl.org/dc/dcmitype/StillImage"/>
    <dc:title/>
   </cc:Work>
  </rdf:RDF>
 </metadata>
 <g transform="translate(0 -197)">
  <path transform="matrix(1.1149 0 -.531 1.2773 112.52 -60.483)" d="m67.314 218.21c-3.1757 0.09756-6.4357 0.25691-9.419 1.4553-2.4704 1.0488-4.2694 3.357-4.9812 5.9121-1.3668 3.7877-2.2811 7.7212-3.6553 11.507-1.6172 4.9162-3.0817 9.8863-4.8966 14.735-1.5347 3.3128-4.0723 6.114-5.1717 9.6356-0.73976 2.5964 0.20578 5.5594 2.2755 7.2832 2.1244 1.9434 4.8352 3.0448 7.4691 4.1085 3.1104 1.1889 6.2923 2.1927 9.5181 3.017 3.8015 0.90106 7.7608 1.1458 11.64 0.66389 5.763-0.4924 11.54-0.83548 17.292-1.4442 2.4645-0.34798 4.9895-0.96593 7.0223-2.4698 1.6207-1.3609 2.0904-3.77 1.3906-5.7227-0.92511-3.2406-2.7611-6.11-3.9772-9.236-0.84845-2.0234-1.5739-4.2004-1.3772-6.424 0.28296-2.0036 1.622-3.7077 3.2492-4.8377 1.6767-1.3943 3.4274-2.8803 4.2893-4.9411 1.2882-3.0571 1.4634-6.6239 0.25391-9.7335-0.97598-2.2378-2.7659-4.007-4.7288-5.405-5.3349-4.1254-11.788-6.6854-18.423-7.7572-2.5704-0.36638-5.1781-0.43265-7.7702-0.34555z" fill="#b3876f" opacity=".4628" stroke-opacity="0" style="paint-order:normal"/>
  <path transform="matrix(1.3973 0 0 1 29.062 -2.94)" d="m11.484 209.76c-4.3496 0.30163-8.441 2.3676-11.632 5.2784-2.6102 2.3943-4.3636 5.5887-5.4531 8.9299-1.3631 3.7446-3.0382 7.4356-5.5087 10.59-2.0434 2.5659-4.6447 4.7096-6.2346 7.6193-0.67472 1.2752-0.91137 2.7227-1.1035 4.1365-0.27493 2.4067-0.16897 4.8366-0.050428 7.2498 0.3908 6.1375 1.6846 12.273 4.2804 17.869 1.0909 1.7542 3.5966 2.3754 5.4012 1.3917 2.2633-0.91092 4.1998-2.4314 6.3125-3.6224 4.0403-2.5374 8.153-5.009 11.812-8.0897 3.4146-3.2348 5.8422-7.3249 8.0646-11.427 2.2987-4.1736 4.5466-8.4606 7.8233-11.97 1.4974-1.6566 3.3609-2.9612 4.7321-4.7324 0.71921-1.5241 0.40394-3.3014-0.20002-4.8077-1.7366-4.5294-3.7059-9.0398-6.6365-12.939-1.9487-2.4914-4.6982-4.3995-7.7987-5.1162-1.243-0.29526-2.5308-0.43986-3.8078-0.35963z" fill="#b3876f" fill-opacity=".99216" opacity=".4628" stroke-opacity="0" style="paint-order:normal"/>
  <text x="21.64883" y="245.68427" fill="#000000" font-family="sans-serif" font-size="5.6444px" letter-spacing="0px" stroke-width=".26458" word-spacing="0px" style="line-height:1.25" xml:space="preserve"><tspan x="21.64883" y="245.68427">kurzinfo</tspan><tspan x="21.64883" y="252.73982">wird</tspan><tspan x="21.64883" y="259.79538">geladen…</tspan><tspan x="21.64883" y="266.85092"/></text>
  <text x="22.450642" y="230.71718" fill="#000000" font-family="sans-serif" font-size="10.583px" letter-spacing="0px" stroke-width=".26458" word-spacing="0px" style="line-height:1.25" xml:space="preserve"><tspan x="22.450642" y="230.71718" stroke-width=".26458">laden</tspan></text>
 </g>
</svg>
