<?xml version="1.0" encoding="UTF-8" standalone="no"?>
<!-- Created with Inkscape (http://www.inkscape.org/) -->

<svg
   xmlns:dc="http://purl.org/dc/elements/1.1/"
   xmlns:cc="http://creativecommons.org/ns#"
   xmlns:rdf="http://www.w3.org/1999/02/22-rdf-syntax-ns#"
   xmlns:svg="http://www.w3.org/2000/svg"
   xmlns="http://www.w3.org/2000/svg"
   xmlns:sodipodi="http://sodipodi.sourceforge.net/DTD/sodipodi-0.dtd"
   xmlns:inkscape="http://www.inkscape.org/namespaces/inkscape"
   width="10cm"
   height="10cm"
   viewBox="0 0 100 99.999997"
   version="1.1"
   id="svg8"
   inkscape:version="0.92.4 (5da689c313, 2019-01-14)"
   sodipodi:docname="bg.svg">
  <defs
     id="defs2" />
  <sodipodi:namedview
     id="base"
     pagecolor="#ffffff"
     bordercolor="#666666"
     borderopacity="1.0"
     inkscape:pageopacity="0.0"
     inkscape:pageshadow="2"
     inkscape:zoom="0.98994949"
     inkscape:cx="190.30468"
     inkscape:cy="238.85323"
     inkscape:document-units="mm"
     inkscape:current-layer="layer1"
     showgrid="false"
     units="cm"
     inkscape:pagecheckerboard="true"
     inkscape:window-width="1280"
     inkscape:window-height="656"
     inkscape:window-x="0"
     inkscape:window-y="36"
     inkscape:window-maximized="1" />
  <metadata
     id="metadata5">
    <rdf:RDF>
      <cc:Work
         rdf:about="">
        <dc:format>image/svg+xml</dc:format>
        <dc:type
           rdf:resource="http://purl.org/dc/dcmitype/StillImage" />
        <dc:title />
      </cc:Work>
    </rdf:RDF>
  </metadata>
  <g
     inkscape:label="Ebene 1"
     inkscape:groupmode="layer"
     id="layer1"
     transform="translate(0,-197.00002)">
    <path
       style="opacity:0.46280003;fill:#b3876f;fill-opacity:1;fill-rule:nonzero;stroke:#000002;stroke-width:1.69999993;stroke-linejoin:round;stroke-miterlimit:4;stroke-dasharray:none;stroke-dashoffset:0;stroke-opacity:0;paint-order:normal"
       d="M 67.314453 218.20703 C 64.138722 218.30459 60.878724 218.46394 57.895414 219.66231 C 55.425005 220.71113 53.62605 223.01927 52.914183 225.5744 C 51.547354 229.36208 50.633035 233.29556 49.258902 237.08091 C 47.641739 241.99711 46.177175 246.96718 44.362281 251.81568 C 42.82761 255.12848 40.289989 257.92966 39.190589 261.45123 C 38.450824 264.04766 39.396367 267.01061 41.466108 268.73441 C 43.590538 270.67786 46.301287 271.77921 48.935182 272.8429 C 52.045539 274.03181 55.227489 275.03564 58.453249 275.85988 C 62.254765 276.76094 66.21402 277.00571 70.093213 276.52377 C 75.856231 276.03137 81.632925 275.68829 87.385368 275.07958 C 89.849868 274.7316 92.374894 274.11365 94.407645 272.60982 C 96.028355 271.24893 96.498052 268.83987 95.798222 266.88711 C 94.873116 263.64651 93.037147 260.77707 91.821041 257.65113 C 90.972592 255.62772 90.247093 253.45077 90.443886 251.22714 C 90.726841 249.22359 92.065919 247.51948 93.693084 246.38946 C 95.3698 244.99518 97.120521 243.50917 97.982422 241.44835 C 99.270631 238.39121 99.445859 234.82444 98.236328 231.71484 C 97.260347 229.47708 95.470418 227.70787 93.50753 226.30979 C 88.172647 222.18435 81.719405 219.62438 75.084684 218.55258 C 72.5143 218.1862 69.906559 218.11993 67.314453 218.20703 z "
       id="path10"
       transform="matrix(1.1149335,0,-0.53100037,1.2773147,112.51598,-60.483238)" />
    <path
       style="opacity:0.46280003;fill:#b3876f;fill-opacity:0.99215686;fill-rule:nonzero;stroke:#000002;stroke-width:1.69999993;stroke-linejoin:round;stroke-miterlimit:4;stroke-dasharray:none;stroke-dashoffset:0;stroke-opacity:0;paint-order:normal"
       d="M 11.484375 209.75781 C 7.1348154 210.05944 3.043418 212.12545 -0.14810898 215.03625 C -2.758351 217.43053 -4.5117301 220.62499 -5.6011848 223.96619 C -6.9643253 227.71083 -8.6393982 231.40183 -11.109891 234.55594 C -13.153329 237.1218 -15.754572 239.26557 -17.344471 242.17527 C -18.019195 243.45043 -18.255839 244.89801 -18.447991 246.31175 C -18.722917 248.71849 -18.616965 251.1483 -18.498419 253.56157 C -18.107617 259.6991 -16.813858 265.83423 -14.218024 271.43085 C -13.127154 273.18504 -10.621403 273.8063 -8.8168198 272.82257 C -6.5534812 271.91165 -4.6170686 270.39112 -2.5042713 269.20012 C 1.5360056 266.6627 5.6487673 264.19116 9.3074551 261.11046 C 12.722103 257.8757 15.149651 253.78556 17.372056 249.68324 C 19.670778 245.50961 21.918647 241.22263 25.195312 237.71289 C 26.692667 236.05634 28.556245 234.7517 29.927432 232.98049 C 30.64664 231.4564 30.331377 229.67907 29.727417 228.17278 C 27.990769 223.6434 26.021514 219.13293 23.090907 215.23369 C 21.142236 212.74224 18.392683 210.83415 15.292172 210.11744 C 14.049189 209.82218 12.761371 209.67758 11.484375 209.75781 z "
       id="path14"
       transform="matrix(1.3973391,0,0,1,29.062233,-2.9399648)" />
    <text
       xml:space="preserve"
       style="font-style:normal;font-weight:normal;font-size:5.64444447px;line-height:1.25;font-family:sans-serif;letter-spacing:0px;word-spacing:0px;fill:#000000;fill-opacity:1;stroke:none;stroke-width:0.26458332"
       x="21.64883"
       y="245.68427"
       id="text28"><tspan
         sodipodi:role="line"
         id="tspan26"
         x="21.64883"
         y="245.68427"
         style="font-size:5.64444447px;stroke-width:0.26458332">kurzinfo</tspan><tspan
         sodipodi:role="line"
         x="21.64883"
         y="252.73982"
         style="font-size:5.64444447px;stroke-width:0.26458332"
         id="tspan32">wird</tspan><tspan
         sodipodi:role="line"
         x="21.64883"
         y="259.79538"
         style="font-size:5.64444447px;stroke-width:0.26458332"
         id="tspan34">geladen…</tspan><tspan
         sodipodi:role="line"
         x="21.64883"
         y="266.85092"
         style="font-size:5.64444447px;stroke-width:0.26458332"
         id="tspan30" /></text>
    <text
       xml:space="preserve"
       style="font-style:normal;font-weight:normal;font-size:10.58333302px;line-height:1.25;font-family:sans-serif;letter-spacing:0px;word-spacing:0px;fill:#000000;fill-opacity:1;stroke:none;stroke-width:0.26458332"
       x="22.450642"
       y="230.71718"
       id="text38"><tspan
         sodipodi:role="line"
         id="tspan36"
         x="22.450642"
         y="230.71718"
         style="stroke-width:0.26458332">laden</tspan></text>
  </g>
</svg>
