<?xml version="1.0" encoding="UTF-8" standalone="no"?>
<!-- Created with Inkscape (http://www.inkscape.org/) -->

<svg
   xmlns:osb="http://www.openswatchbook.org/uri/2009/osb"
   xmlns:dc="http://purl.org/dc/elements/1.1/"
   xmlns:cc="http://creativecommons.org/ns#"
   xmlns:rdf="http://www.w3.org/1999/02/22-rdf-syntax-ns#"
   xmlns:svg="http://www.w3.org/2000/svg"
   xmlns="http://www.w3.org/2000/svg"
   xmlns:sodipodi="http://sodipodi.sourceforge.net/DTD/sodipodi-0.dtd"
   xmlns:inkscape="http://www.inkscape.org/namespaces/inkscape"
   width="200mm"
   height="290mm"
   viewBox="0 0 200 290"
   version="1.1"
   id="svg8"
   inkscape:version="0.92.4 (5da689c313, 2019-01-14)"
   sodipodi:docname="draw.svg.2020_11_29_09_15_59.0.svg">
  <defs
     id="defs2">
    <linearGradient
       id="linearGradient2356"
       osb:paint="solid">
      <stop
         style="stop-color:#00c5a4;stop-opacity:1;"
         offset="0"
         id="stop2354" />
    </linearGradient>
  </defs>
  <sodipodi:namedview
     id="base"
     pagecolor="#ffffff"
     bordercolor="#666666"
     borderopacity="1.0"
     inkscape:pageopacity="0.0"
     inkscape:pageshadow="2"
     inkscape:zoom="0.7"
     inkscape:cx="224.76662"
     inkscape:cy="486.02631"
     inkscape:document-units="mm"
     inkscape:current-layer="layer1"
     showgrid="false"
     showguides="true"
     inkscape:guide-bbox="true"
     inkscape:snap-bbox="true"
     inkscape:object-paths="true"
     inkscape:snap-intersection-paths="true"
     inkscape:snap-smooth-nodes="false"
     inkscape:snap-midpoints="true"
     inkscape:object-nodes="false"
     inkscape:snap-bbox-edge-midpoints="true"
     inkscape:snap-bbox-midpoints="true"
     inkscape:window-width="1280"
     inkscape:window-height="656"
     inkscape:window-x="0"
     inkscape:window-y="36"
     inkscape:window-maximized="1">
    <sodipodi:guide
       position="99.785714,275.16667"
       orientation="1,0"
       id="guide825"
       inkscape:locked="false" />
    <sodipodi:guide
       position="99.785713,186.72024"
       orientation="0,1"
       id="guide827"
       inkscape:locked="false" />
  </sodipodi:namedview>
  <metadata
     id="metadata5">
    <rdf:RDF>
      <cc:Work
         rdf:about="">
        <dc:format>image/svg+xml</dc:format>
        <dc:type
           rdf:resource="http://purl.org/dc/dcmitype/StillImage" />
        <dc:title />
      </cc:Work>
    </rdf:RDF>
  </metadata>
  <g
     inkscape:label="Ebene 1"
     inkscape:groupmode="layer"
     id="layer1"
     transform="translate(0,-7)">
    <path
       style="opacity:0.98000004;fill:#feece5;fill-opacity:0.98939933;fill-rule:nonzero;stroke:none;stroke-width:4.98087978;stroke-linejoin:round;stroke-miterlimit:4;stroke-dasharray:none;stroke-opacity:0.00353358;paint-order:normal"
       d="M 10.104297,22.418413 C 9.7899551,118.41324 9.4756118,214.40807 9.1612684,310.4029 66.0322,306.92572 122.90314,303.44853 179.77406,299.97137 c 3.54537,-92.71269 7.09073,-185.42536 10.6361,-278.138041 -60.10197,0.195028 -120.203914,0.390056 -180.305863,0.585084 z"
       id="rect2799"
       inkscape:connector-curvature="0" />
    <path
       style="opacity:0.98000004;fill:#afb56b;fill-opacity:1;stroke:none;stroke-width:5.30000019;stroke-linejoin:round;stroke-miterlimit:4;stroke-dasharray:none;stroke-opacity:0.00353358;paint-order:normal"
       d="M 118.41602 53.289062 C 114.88183 53.412632 111.6646 55.073912 108.55841 56.604851 C 105.94712 57.950489 103.25539 59.15137 100.44812 60.028866 C 94.39207 61.973816 88.000139 62.725343 81.653864 62.631363 C 74.590027 62.684096 67.433082 62.260372 60.475518 63.754319 C 55.677195 64.837481 51.279663 67.621817 48.292486 71.536293 C 42.889096 78.079769 39.720194 86.249393 38.401727 94.579169 C 37.305795 101.37421 37.170335 108.30401 37.697561 115.15882 C 38.180287 120.86306 39.422114 126.61431 42.257123 131.64137 C 45.040516 136.68648 48.882556 141.03899 52.807681 145.2178 C 56.982838 149.5687 61.434169 153.64836 66.010374 157.57184 C 72.181233 162.64354 79.176772 166.75571 86.732968 169.38347 C 93.274118 171.75219 100.33058 173.04089 107.28439 172.19447 C 115.90718 171.26384 124.1548 168.10629 131.69727 163.91406 C 136.01971 161.45188 140.21734 158.59233 143.47384 154.78775 C 146.64352 150.9631 148.66225 146.3706 150.54293 141.81775 C 153.43324 135.16793 156.42756 128.56361 159.35697 121.93139 C 161.72987 116.21317 163.37028 110.09197 163.31533 103.86312 C 163.46837 95.011387 161.17889 85.950252 155.95529 78.714877 C 151.79273 72.914186 146.20887 68.341437 140.48697 64.156521 C 135.50181 60.474782 130.34157 56.935456 124.64715 54.4355 C 122.66132 53.687697 120.54367 53.248006 118.41602 53.289062 z "
       id="path10" />
    <ellipse
       style="opacity:1;vector-effect:none;fill:#b3876f;fill-opacity:0.75971729;fill-rule:evenodd;stroke:none;stroke-width:10;stroke-linecap:butt;stroke-linejoin:round;stroke-miterlimit:4;stroke-dasharray:none;stroke-dashoffset:0;stroke-opacity:1;paint-order:normal"
       id="path2815"
       cx="52.510735"
       cy="201.74908"
       rx="35.529762"
       ry="17.008928" />
    <path
       style="opacity:1;fill:#b3876f;fill-opacity:0.75971729;fill-rule:nonzero;stroke:none;stroke-width:5.66758585;stroke-linejoin:round;stroke-miterlimit:4;stroke-dasharray:none;stroke-opacity:0.00353358;paint-order:normal"
       d="M 104.43164 190.8457 C 93.548313 190.8916 82.520054 192.72431 72.626535 197.40224 C 65.436438 200.87342 59.078487 206.36665 55.26058 213.44156 C 50.861195 221.87746 52.149372 232.86072 58.273679 240.11961 C 63.156172 246.38327 70.10451 250.77456 77.500032 253.4884 C 89.422331 257.94124 102.65723 258.53632 115.02519 255.68064 C 122.03923 253.99278 128.56567 250.764 134.75047 247.11809 C 141.94892 243.16069 149.76637 240.27312 156.4287 235.38404 C 159.47848 233.20612 162.20052 230.24938 163.20515 226.55794 C 164.25354 222.86979 163.40965 218.86435 161.54697 215.58069 C 158.93874 210.76508 154.81054 206.98996 150.45579 203.76811 C 142.08456 197.65725 132.17748 193.8059 121.97443 192.14267 C 116.18252 191.1716 110.29997 190.81421 104.43164 190.8457 z "
       id="path2819" />
    <path
       style="opacity:1;fill:#b3876f;fill-opacity:0.75971729;fill-rule:nonzero;stroke:none;stroke-width:5.29999971;stroke-linejoin:round;stroke-miterlimit:4;stroke-dasharray:none;stroke-opacity:0.00353358;paint-order:normal"
       d="M 148.33984 241.36523 C 136.61768 241.76573 125.14979 244.94042 113.395 244.86245 C 108.53997 244.81752 103.97861 242.96406 99.371094 241.66211 C 98.187875 241.52228 97.338787 242.81345 97.42623 243.89118 C 97.484579 247.28018 97.991576 250.64385 98.568176 253.97759 C 99.339612 257.9343 100.75071 261.9375 103.59539 264.89488 C 107.13964 268.66607 112.17216 270.75626 117.24622 271.3997 C 123.14479 272.19926 129.12642 271.50744 134.94436 270.43791 C 143.51026 268.75973 151.83631 265.78816 160.58406 265.10646 C 163.96506 264.8139 167.36169 264.82132 170.75165 264.86923 C 174.14886 264.79527 177.66541 264.54876 180.77688 263.06518 C 183.89698 261.1439 184.6694 256.35725 182.29783 253.55847 C 179.93035 250.2096 176.30509 248.07675 172.72946 246.23299 C 165.20109 242.48448 156.67081 241.30192 148.33984 241.36523 z "
       id="path2821"
       inkscape:connector-curvature="0" />
    <circle
       style="fill:#2f2e41;stroke-width:0.26458332"
       cx="100.09646"
       cy="90.186607"
       r="8.7312498"
       id="circle4" />
    <circle
       style="fill:#a0616a;stroke-width:0.26458332"
       cx="100.27354"
       cy="93.190781"
       r="6.4984388"
       id="circle6" />
    <path
       inkscape:connector-curvature="0"
       style="fill:#a0616a;stroke-width:0.26458332"
       d="m 110.15063,102.62203 c 0,0 -11.906255,-2.11667 -19.579175,0.52916 l 2.24896,17.85938 -0.52917,2.91042 15.875005,-0.52917 -1.05833,-2.91042 z"
       id="path8" />
    <path
       inkscape:connector-curvature="0"
       style="fill:#cccccc;stroke-width:0.26458332"
       d="m 101.87665,121.89398 a 80.047396,80.047396 0 0 1 -8.201705,-0.51966 2.2469131,2.2469131 0 0 1 -2.00066,-2.28741 l 0.19315,-8.3522 0.0225,-0.0326 c 2.3004,-3.33201 1.17984,-5.76564 0.31793,-7.07583 a 1.6924946,1.6924946 0 0 1 -0.2784,-0.93195 v 0 c -0.13219,-0.18398 -0.16204,0.10719 -0.0799,-0.10035 a 0.66408829,0.66408829 0 0 1 0.48579,-0.40684 l 1.31342,-0.26253 a 0.66119375,0.66119375 0 0 1 0.75622,0.43693 c 0.44133,1.31671 2.16147,5.55382 6.102925,5.55289 3.2927,-7.9e-4 4.52137,-4.65967 4.59501,-5.73634 a 0.66217006,0.66217006 0 0 1 0.65952,-0.61444 h 1.64056 a 0.69235637,0.69235637 0 0 1 0.54673,0.24721 0.65618254,0.65618254 0 0 1 0.0645,0.72793 c -1.8723,3.44217 0.8639,8.88886 0.89174,8.94338 l 0.0176,0.0344 -0.77198,8.01502 a 2.2596898,2.2596898 0 0 1 -1.73949,1.97818 c -1.19387,0.28085 -2.80701,0.3842 -4.53546,0.3842 z"
       id="path10-3" />
    <path
       inkscape:connector-curvature="0"
       style="fill:#2f2e41;stroke-width:0.26458332"
       d="m 86.768065,140.49181 c -1.77792,2.6e-4 -3.40579,-0.19585 -4.69887,-0.65862 -1.53711,-0.55009 -2.50243,-1.4397 -2.86907,-2.64454 a 3.4926482,3.4926482 0 0 1 0.42503,-3.08844 c 2.27402,-3.40522 10.16547,-4.36485 11.22438,-4.47905 l 0.56095,-4.6744 a 2.2571392,2.2571392 0 0 1 2.1978,-1.98076 l 13.290535,-0.20747 a 2.2281356,2.2281356 0 0 1 2.2478,1.84613 l 0.75525,4.15401 -8.71485,4.22533 1.31768,3.6897 -0.0859,0.0574 c -2.550875,1.70067 -9.885825,3.76049 -15.650715,3.76075 z"
       id="path12" />
    <path
       inkscape:connector-curvature="0"
       style="fill:#2f2e41;stroke-width:0.26458332"
       d="m 108.69542,128.15432 c 0,0 12.17083,-1.5875 11.37708,4.7625 -0.79375,6.35 -10.05417,10.84792 -24.077085,0 l 1.5875,-3.175 c 0,0 7.937505,2.11667 11.112505,0.52917 z"
       id="path14" />
    <path
       inkscape:connector-curvature="0"
       style="fill:#a0616a;stroke-width:0.26458332"
       d="m 97.847495,130.53557 c 0,0 0,-3.175 -2.64583,-2.91042 -2.64584,0.26459 -7.40834,0.52917 -7.40834,0.52917 0,0 -1.5875,1.05833 0.52917,1.5875 2.11667,0.52917 8.46667,3.175 8.46667,3.175 z"
       id="path16" />
    <path
       inkscape:connector-curvature="0"
       style="fill:#a0616a;stroke-width:0.26458332"
       d="m 102.34542,130.0064 c 0,0 0,-3.175 2.64583,-2.91041 2.64583,0.26458 7.40833,0.52916 7.40833,0.52916 0,0 1.5875,1.05834 -0.52916,1.5875 -2.11667,0.52917 -8.46667,3.175 -8.46667,3.175 z"
       id="path18" />
    <path
       inkscape:connector-curvature="0"
       style="fill:#a0616a;stroke-width:0.26458332"
       d="m 118.19962,129.40499 -3.94795,-13.68609 c 0,0 -0.79375,-4.7625 -1.5875,-9.26041 -0.79375,-4.49792 -3.70417,-3.96876 -3.70417,-3.96876 l -0.52917,0.26459 v 7.14375 l 0.52917,6.61458 5.28249,14.52676 a 2.7784187,2.7784187 0 1 0 3.95713,-1.63442 z"
       id="path20" />
    <path
       inkscape:connector-curvature="0"
       style="fill:#a0616a;stroke-width:0.26458332"
       d="m 91.497495,103.0189 c 0,0 -2.91042,-0.52917 -3.70417,3.96875 -0.79375,4.49792 -1.5875,9.26042 -1.5875,9.26042 l -3.94795,13.6861 a 2.7769476,2.7769476 0 1 0 3.95713,1.63441 l 5.28249,-14.52676 0.52917,-6.61458 v -6.55213 a 0.9572625,0.9572625 0 0 0 -0.52917,-0.85621 z"
       id="path22" />
    <path
       inkscape:connector-curvature="0"
       style="fill:#2f2e41;stroke-width:0.26458332"
       d="m 93.840815,89.198627 a 19.325471,19.325471 0 0 0 8.360625,2.754815 l -0.88129,-1.055952 a 6.4763253,6.4763253 0 0 0 2.00055,0.39725 2.1909246,2.1909246 0 0 0 1.78581,-0.835863 2.0378976,2.0378976 0 0 0 0.13641,-1.882511 3.8598766,3.8598766 0 0 0 -1.21427,-1.518311 7.229176,7.229176 0 0 0 -6.728535,-1.202513 4.3205982,4.3205982 0 0 0 -2.00962,1.289103 2.4436387,2.4436387 0 0 0 -0.4928,2.265061"
       id="path24" />
    <path
       inkscape:connector-curvature="0"
       style="fill:#2f2e41;stroke-width:0.26458332"
       d="m 100.91829,82.424592 a 19.971962,19.971962 0 0 0 -7.266255,-4.698788 c -1.75649,-0.650722 -3.66834,-1.052778 -5.50468,-0.683223 -1.83634,0.369554 -3.57296,1.639906 -4.08527,3.441642 -0.41892,1.473295 0.0137,3.059586 0.66376,4.446468 0.65012,1.386882 1.51807,2.672945 2.04381,4.111588 a 9.3842205,9.3842205 0 0 1 -9.44272,12.584181 c 1.80429,0.24193 3.46741,1.08983 5.23101,1.54115 1.76361,0.45132 3.84514,0.42072 5.15574,-0.84275 1.38666,-1.33678 1.41442,-3.51027 1.34738,-5.435193 q -0.14949,-4.2922 -0.29898,-8.584406 c -0.0508,-1.459291 -0.0942,-2.965352 0.43203,-4.327395 0.52627,-1.362044 1.77699,-2.554735 3.23711,-2.542339 1.10663,0.0094 2.08609,0.67978 2.97356,1.340908 0.88748,0.661128 1.82681,1.366502 2.9291,1.464842 1.10229,0.09834 2.360865,-0.717405 2.278375,-1.820995"
       id="path26" />
  </g>
</svg>
