<?xml version="1.0" encoding="UTF-8"?>
<!-- Created with Inkscape (http://www.inkscape.org/) -->
<svg width="20cm" height="13cm" version="1.1" viewBox="0 0 200 130" xmlns="http://www.w3.org/2000/svg" xmlns:cc="http://creativecommons.org/ns#" xmlns:dc="http://purl.org/dc/elements/1.1/" xmlns:rdf="http://www.w3.org/1999/02/22-rdf-syntax-ns#">
 <metadata>
  <rdf:RDF>
   <cc:Work rdf:about="">
    <dc:format>image/svg+xml</dc:format>
    <dc:type rdf:resource="http://purl.org/dc/dcmitype/StillImage"/>
    <dc:title/>
   </cc:Work>
  </rdf:RDF>
 </metadata>
 <g transform="translate(0 -167)" fill="#b3876f" fill-opacity=".75972">
  <ellipse cx="52.719" cy="203.23" rx="35.53" ry="17.009" fill-rule="evenodd" style="paint-order:normal"/>
  <path d="m104.64 192.32c-10.883 0.0459-21.912 1.8786-31.805 6.5565-7.1901 3.4712-13.548 8.9644-17.366 16.039-4.3994 8.4359-3.1112 19.419 3.0131 26.678 4.8825 6.2637 11.831 10.655 19.226 13.369 11.922 4.4528 25.157 5.0479 37.525 2.1922 7.014-1.6879 13.54-4.9166 19.725-8.5626 7.1984-3.9574 15.016-6.845 21.678-11.734 3.0498-2.1779 5.7718-5.1347 6.7764-8.8261 1.0484-3.6882 0.2045-7.6936-1.6582-10.977-2.6082-4.8156-6.7364-8.5907-11.091-11.813-8.3712-6.1109-18.278-9.9622-28.481-11.625-5.7919-0.97107-11.674-1.3285-17.543-1.297z" style="paint-order:normal"/>
  <path d="m148.55 242.84c-11.722 0.4005-23.19 3.5752-34.945 3.4972-4.855-0.0449-9.4164-1.8984-14.024-3.2003-1.1832-0.13983-2.0323 1.1513-1.9449 2.2291 0.05835 3.389 0.56535 6.7527 1.1419 10.086 0.77144 3.9567 2.1825 7.9599 5.0272 10.917 3.5442 3.7712 8.5768 5.8614 13.651 6.5048 5.8986 0.79956 11.88 0.10774 17.698-0.96179 8.5659-1.6782 16.892-4.6498 25.64-5.3314 3.381-0.29256 6.7776-0.28514 10.168-0.23723 3.3972-0.074 6.9138-0.32047 10.025-1.804 3.1201-1.9213 3.8925-6.7079 1.521-9.5067-2.3675-3.3489-5.9927-5.4817-9.5684-7.3255-7.5284-3.7485-16.059-4.9311-24.39-4.8678z" style="paint-order:normal"/>
 </g>
</svg>
