<?xml version="1.0" encoding="UTF-8" standalone="no"?>
<!-- Created with Inkscape (http://www.inkscape.org/) -->

<svg
   xmlns:dc="http://purl.org/dc/elements/1.1/"
   xmlns:cc="http://creativecommons.org/ns#"
   xmlns:rdf="http://www.w3.org/1999/02/22-rdf-syntax-ns#"
   xmlns:svg="http://www.w3.org/2000/svg"
   xmlns="http://www.w3.org/2000/svg"
   xmlns:sodipodi="http://sodipodi.sourceforge.net/DTD/sodipodi-0.dtd"
   xmlns:inkscape="http://www.inkscape.org/namespaces/inkscape"
   width="20cm"
   height="13cm"
   viewBox="0 0 200 130"
   version="1.1"
   id="svg8"
   inkscape:version="0.92.4 (5da689c313, 2019-01-14)"
   sodipodi:docname="sphereInk.svg">
  <defs
     id="defs2" />
  <sodipodi:namedview
     id="base"
     pagecolor="#ffffff"
     bordercolor="#666666"
     borderopacity="1.0"
     inkscape:pageopacity="0.0"
     inkscape:pageshadow="2"
     inkscape:zoom="0.35"
     inkscape:cx="400"
     inkscape:cy="445.71429"
     inkscape:document-units="mm"
     inkscape:current-layer="layer1"
     showgrid="false"
     units="cm"
     inkscape:window-width="1280"
     inkscape:window-height="656"
     inkscape:window-x="0"
     inkscape:window-y="36"
     inkscape:window-maximized="1" />
  <metadata
     id="metadata5">
    <rdf:RDF>
      <cc:Work
         rdf:about="">
        <dc:format>image/svg+xml</dc:format>
        <dc:type
           rdf:resource="http://purl.org/dc/dcmitype/StillImage" />
        <dc:title></dc:title>
      </cc:Work>
    </rdf:RDF>
  </metadata>
  <g
     inkscape:label="Ebene 1"
     inkscape:groupmode="layer"
     id="layer1"
     transform="translate(0,-167.00002)">
    <ellipse
       style="opacity:1;vector-effect:none;fill:#b3876f;fill-opacity:0.75971728;fill-rule:evenodd;stroke:none;stroke-width:10;stroke-linecap:butt;stroke-linejoin:round;stroke-miterlimit:4;stroke-dasharray:none;stroke-dashoffset:0;stroke-opacity:1;paint-order:normal"
       id="path2815"
       cx="52.719097"
       cy="203.22588"
       rx="35.529762"
       ry="17.008928" />
    <path
       inkscape:connector-curvature="0"
       style="opacity:1;fill:#b3876f;fill-opacity:0.75971728;fill-rule:nonzero;stroke:none;stroke-width:5.66758585;stroke-linejoin:round;stroke-miterlimit:4;stroke-dasharray:none;stroke-opacity:0.00353358;paint-order:normal"
       d="m 104.64001,192.3225 c -10.883333,0.0459 -21.911592,1.87861 -31.805112,6.55654 -7.190097,3.47118 -13.548048,8.96441 -17.365956,16.03932 -4.399383,8.4359 -3.111206,19.41916 3.013099,26.67805 4.882494,6.26366 11.830833,10.65495 19.226355,13.36879 11.922297,4.45284 25.157204,5.04792 37.525164,2.19224 7.01404,-1.68786 13.54048,-4.91664 19.72528,-8.56255 7.19845,-3.9574 15.0159,-6.84497 21.67823,-11.73405 3.04978,-2.17792 5.77182,-5.13466 6.77645,-8.8261 1.04839,-3.68815 0.2045,-7.69359 -1.65818,-10.97725 -2.60823,-4.81561 -6.73643,-8.59073 -11.09118,-11.81258 -8.37123,-6.11086 -18.27831,-9.96221 -28.48136,-11.62544 -5.79191,-0.97107 -11.67446,-1.32846 -17.54279,-1.29697 z"
       id="path2819" />
    <path
       style="opacity:1;fill:#b3876f;fill-opacity:0.75971728;fill-rule:nonzero;stroke:none;stroke-width:5.30000019;stroke-linejoin:round;stroke-miterlimit:4;stroke-dasharray:none;stroke-opacity:0.00353358;paint-order:normal"
       d="m 148.54821,242.84203 c -11.72216,0.4005 -23.19005,3.57519 -34.94484,3.49722 -4.85503,-0.0449 -9.41639,-1.89839 -14.023912,-3.20034 -1.183219,-0.13983 -2.032307,1.15134 -1.944865,2.22907 0.05835,3.389 0.565346,6.75267 1.141947,10.08641 0.771435,3.95671 2.18254,7.95991 5.02722,10.91729 3.54425,3.77119 8.57677,5.86138 13.65083,6.50482 5.89857,0.79956 11.8802,0.10774 17.69814,-0.96179 8.5659,-1.67818 16.89195,-4.64975 25.6397,-5.33145 3.381,-0.29256 6.77763,-0.28514 10.16759,-0.23723 3.39721,-0.074 6.91376,-0.32047 10.02523,-1.80405 3.1201,-1.92128 3.89252,-6.70793 1.52095,-9.50671 -2.36748,-3.34887 -5.99274,-5.48172 -9.56837,-7.32548 -7.52837,-3.74851 -16.05865,-4.93107 -24.38962,-4.86776 z"
       id="path2821"
       inkscape:connector-curvature="0" />
  </g>
</svg>
