<?xml version="1.0" encoding="UTF-8"?>
<svg width="745.34" height="812" data-name="Layer 1" version="1.1" viewBox="0 0 745.34 812" xmlns="http://www.w3.org/2000/svg" xmlns:cc="http://creativecommons.org/ns#" xmlns:dc="http://purl.org/dc/elements/1.1/" xmlns:rdf="http://www.w3.org/1999/02/22-rdf-syntax-ns#">
 <metadata>
  <rdf:RDF>
   <cc:Work rdf:about="">
    <dc:format>image/svg+xml</dc:format>
    <dc:type rdf:resource="http://purl.org/dc/dcmitype/StillImage"/>
    <dc:title>yoga</dc:title>
   </cc:Work>
  </rdf:RDF>
 </metadata>
 <title>yoga</title>
 <path transform="translate(-227.33 -44)" d="m972.67 775.19c0 24.645-166.85 80.805-372.67 80.805s-372.67-56.16-372.67-80.805 166.85-8.4423 372.67-8.4423 372.67-16.203 372.67 8.4423z" fill="#3f3d56"/>
 <path transform="translate(-227.33 -44)" d="m972.67 775.19c0 24.645-166.85 80.805-372.67 80.805s-372.67-56.16-372.67-80.805 166.85-8.4423 372.67-8.4423 372.67-16.203 372.67 8.4423z" opacity=".1"/>
 <g fill="#6c63ff">
  <circle cx="106.13" cy="387.47" r="15.679"/>
  <circle cx="174.88" cy="516.52" r="15.679"/>
  <circle cx="121.81" cy="483.95" r="15.679"/>
 </g>
 <g fill="#cfcce0">
  <path transform="translate(-227.33 -44)" d="m354.14 750.5c-0.27677-0.45227-6.8029-11.349-9.0654-33.977-2.0752-20.76-0.74082-55.751 17.406-104.56 34.379-92.469-7.9229-167.08-8.3552-167.82l2.087-1.2108c0.10953 0.18845 11.025 19.211 17.474 49.501a215.96 215.96 0 0 1-8.9441 120.37c-34.321 92.311-8.8051 136.01-8.5436 136.44z"/>
  <path transform="translate(-227.33 -44)" d="m340.7 439.91a16.885 16.885 0 1 1 16.885-16.885 16.904 16.904 0 0 1-16.885 16.885zm0-31.357a14.473 14.473 0 1 0 14.473 14.473 14.489 14.489 0 0 0-14.473-14.473z"/>
  <circle cx="162.82" cy="436.92" r="15.679"/>
  <path transform="translate(-227.33 -44)" d="m356.38 536.4a16.885 16.885 0 1 1 16.885-16.885 16.904 16.904 0 0 1-16.885 16.885zm0-31.357a14.473 14.473 0 1 0 14.473 14.473 14.489 14.489 0 0 0-14.473-14.473z"/>
  <path transform="translate(-227.33 -44)" d="m397.38 568.96a16.885 16.885 0 1 1 16.885-16.885 16.904 16.904 0 0 1-16.885 16.885zm0-31.357a14.473 14.473 0 1 0 14.473 14.473 14.489 14.489 0 0 0-14.473-14.473z"/>
  <circle cx="116.99" cy="558.73" r="15.679"/>
  <path transform="translate(-227.33 -44)" d="m363.61 751.07s-15.679-38.594 31.357-67.539z"/>
  <path transform="translate(-227.33 -44)" d="m344.33 750.37s-7.1355-41.041-62.363-40.689z"/>
 </g>
 <path transform="translate(-227.33 -44)" d="m910.36 765.55h-266.87s-5.4095-79.339 26.597-80.24 28.4 35.162 68.52-14.425 88.805-46.882 95.116-17.581-12.171 52.742 21.638 45.53 82.494 11.72 54.996 66.717z" fill="#6c63ff"/>
 <g fill="#f2f2f2">
  <path transform="translate(-227.33 -44)" d="m772.42 765.56-0.9007-0.0361c2.1005-52.236 13.041-85.798 21.848-104.75 9.563-20.583 18.778-28.916 18.87-28.998l0.59914 0.67377c-0.09068 0.081-9.1985 8.3308-18.685 28.775-8.7589 18.876-19.639 52.301-21.732 104.34z"/>
  <path transform="translate(-227.33 -44)" d="m869.01 765.67-0.86548-0.25181c10.422-35.772 34.964-58.357 35.211-58.581l0.60575 0.66738c-0.24477 0.22235-24.603 22.648-34.951 58.165z"/>
  <path transform="translate(-227.33 -44)" d="m685.53 765.61-0.89322-0.12414c3.5359-25.501-2.8511-45.287-8.832-57.394-6.4759-13.109-13.865-20.269-13.939-20.34l0.6238-0.65065c0.07505 0.07175 7.5782 7.3416 14.123 20.591 6.0368 12.221 12.484 32.189 8.917 57.917z"/>
 </g>
 <path transform="translate(-227.33 -44)" d="m946.58 766.75h-331.87l-0.07655-1.1242c-0.1908-2.7966-4.4243-68.764 16.95-92.301 4.7783-5.2617 10.534-8.0236 17.107-8.2085 13.933-0.39633 22.688 4.8224 29.75 9.0112 13.311 7.8964 22.104 13.113 54.075-26.402 34.635-42.808 72.005-52.018 93.488-46.897 13.88 3.3096 23.447 12.663 26.247 25.662 2.6512 12.309 1.8067 23.875 1.1283 33.168-0.72611 9.9434-1.2997 17.797 2.7843 21.357 3.4091 2.9698 10.214 3.2401 21.413 0.84977 22.78-4.8595 54.565-0.70137 70.52 19.912 8.5837 11.09 15.345 31.249-1.1831 64.306zm-329.61-2.4121h328.11c12.317-24.988 12.701-46.098 1.1024-61.084-14.636-18.91-45.341-23.887-68.109-19.029-12.168 2.5964-19.418 2.1677-23.501-1.3904-4.9932-4.3507-4.3808-12.735-3.6058-23.351 0.6678-9.1396 1.4981-20.514-1.08-32.485-2.5964-12.055-11.508-20.738-24.448-23.823-20.797-4.962-57.123 4.1316-91.053 46.067-33.282 41.135-43.308 35.19-57.181 26.96-7.1491-4.24-15.266-9.0489-28.452-8.675-5.8924 0.16607-11.07 2.6624-15.39 7.4194-19.21 21.154-16.865 80.473-16.394 89.391z" fill="#cfcce0"/>
 <ellipse cx="372.67" cy="731.19" rx="372.67" ry="44.624" fill="#3f3d56"/>
 <path transform="translate(-227.33 -44)" d="m608.19 191.44s-18.631-6.6539-30.608 19.962-30.608 55.893-30.608 55.893l10.646 2.6616s2.6616-18.631 9.3155-21.293l-2.6616 23.954s79.847 27.946 115.78-2.6616l-1.3308-9.3155s5.3231 1.3308 5.3231 9.3155l3.9923-3.9924s-3.9923-7.9847-15.969-18.631c-7.8612-6.9878-10.563-20.282-11.491-28.594a34.602 34.602 0 0 0-7.9662-18.843c-7.9594-9.2244-22.462-19.029-44.42-8.4563z" fill="#2f2e41"/>
 <g fill="#ffb9b9">
  <path transform="translate(-227.33 -44)" d="m588.54 295.79-19.297-24.121-14.473-49.448 55.478-59.096s12.06-45.83 1.206-43.418-13.267 36.181-13.267 36.181l-69.951 54.272s7.2363 75.981 27.739 102.51l15.679 49.448z"/>
  <path transform="translate(-227.33 -44)" d="m641.61 295.79 19.297-24.121 14.473-49.448-55.478-59.096s-12.06-45.83-1.206-43.418 13.267 36.181 13.267 36.181l69.951 54.272s-7.2363 75.981-27.739 102.51l-15.679 49.448z"/>
  <circle cx="387.74" cy="199.93" r="31.357"/>
  <path transform="translate(-227.33 -44)" d="m600.6 260.82s1.206 25.327-6.0302 33.769-14.473 51.86 20.503 53.066 31.357-36.181 31.357-36.181l-7.2363-20.503s-10.854-15.679-7.2363-30.151z"/>
  <path transform="translate(-227.33 -44)" d="m568.04 541.82 25.93 7.8393s21.106-12.664 21.106-0.603-7.2363 27.739-4.8242 38.594 7.2363 37.387 0 37.387-21.709-47.036-21.709-47.036l-24.121-13.267z"/>
  <path transform="translate(-227.33 -44)" d="m600.6 710.67-9.6484 37.387s-8.4423 10.854 0 15.679c3.9615 2.2637 6.8608 6.9175 8.8224 11.22a20.628 20.628 0 0 0 20.255 12.254c4.1165-0.34166 7.5841-1.9688 8.4276-6.1984a9.7052 9.7052 0 0 0-1.8675-7.6003c-8.8965-12.022-10.913-19.926-10.913-19.926l3.6181-42.212z"/>
 </g>
 <path transform="translate(-227.33 -44)" d="m577.25 249.5s10.646-14.639 19.962-17.3 10.646-15.969 10.646-15.969 23.954 26.616 38.593 27.946 1.3308-31.939 1.3308-31.939l-26.616-6.6539-25.285 2.6616-19.962 13.308z" fill="#2f2e41"/>
 <path transform="translate(-227.33 -44)" d="m557.19 450.16-4.8242 9.6484s-116.99 37.388-107.34 72.363 63.921 25.327 63.921 25.327l60.302 10.854 6.0302-26.533-42.212-10.854 72.363-26.533 2.4121 123.02-9.6484 88.042 24.121 2.4121s26.533-80.805 22.915-114.57c0 0 44.624-137.49 19.297-157.99s-107.34 4.8242-107.34 4.8242z" fill="#2f2e41"/>
 <g fill="#cfcce0">
  <path transform="translate(-227.33 -44)" d="m616.49 311.49-18.819-22.743-12.747 5.8422-13.267 42.212s-10.854 20.503 2.4121 42.212c0 0 2.4121 14.473-1.206 18.091s-4.8242 26.533-4.8242 26.533l-15.679 30.151s89.248 15.679 115.78-6.0302c0 0-13.923-51.331-5.4806-67.01s9.6484-39.714 0-50.569-19.846-39.208-19.846-39.208l-5.8408-3.7355z"/>
  <polygon points="459.52 87.42 447.95 87.42 447.95 75.853 446.9 75.853 446.9 87.42 435.33 87.42 435.33 88.471 446.9 88.471 446.9 100.04 447.95 100.04 447.95 88.471 459.52 88.471"/>
  <polygon points="349.58 63.235 338.02 63.235 338.02 51.668 336.96 51.668 336.96 63.235 325.4 63.235 325.4 64.286 336.96 64.286 336.96 75.853 338.02 75.853 338.02 64.286 349.58 64.286"/>
  <polygon points="402.35 11.567 390.78 11.567 390.78 0 389.73 0 389.73 11.567 378.16 11.567 378.16 12.618 389.73 12.618 389.73 24.185 390.78 24.185 390.78 12.618 402.35 12.618"/>
 </g>
</svg>
