<?xml version="1.0" encoding="UTF-8"?>
<!-- Created with Inkscape (http://www.inkscape.org/) -->
<svg width="10cm" height="10cm" version="1.1" viewBox="0 0 100 100" xmlns="http://www.w3.org/2000/svg" xmlns:cc="http://creativecommons.org/ns#" xmlns:dc="http://purl.org/dc/elements/1.1/" xmlns:rdf="http://www.w3.org/1999/02/22-rdf-syntax-ns#">
 <metadata>
  <rdf:RDF>
   <cc:Work rdf:about="">
    <dc:format>image/svg+xml</dc:format>
    <dc:type rdf:resource="http://purl.org/dc/dcmitype/StillImage"/>
    <dc:title/>
   </cc:Work>
  </rdf:RDF>
 </metadata>
 <g transform="translate(0 -197)">
  <g fill="#ffb380">
   <path d="m77.695 269.94c-0.27729 0.07795-0.53973 0.21378-0.81158 0.31296-0.2314 0.06704-0.40552 0.26621-0.47884 0.49083-0.07345 0.24617-0.072212 0.51169-0.051912 0.76551 0.001286 0.20955 0.17736 0.36911 0.38335 0.36625 0.2613 0.00646 0.51694-0.06778 0.77883-0.0613 0.54932-0.02082 1.0973 0.06187 1.6464 0.0288 0.29136-0.02511 0.59132-0.06375 0.858-0.19077 0.2456-0.12713 0.1751-0.50208-0.062558-0.599-0.2496-0.10839-0.49416-0.22562-0.72852-0.36523-0.34433-0.19851-0.68175-0.409-1.0263-0.60687-0.15212-0.08848-0.32896-0.15157-0.50687-0.14118z" style="paint-order:normal"/>
   <path transform="matrix(.6496 -.76028 .59699 .80225 0 0)" d="m-102.47 225.21c-0.26374 0.08815-0.46637 0.32276-0.5293 0.5918-0.08092 0.30615-0.07025 0.62581-0.08984 0.93945-0.02143 1.0285-0.04134 2.0574-0.01564 3.0861 0.0214 0.66365 0.05161 1.3271 0.07944 1.9905 0.06016 1.321 0.12564 2.6417 0.19011 3.9625 0.00158 0.60083-0.05737 1.1995-0.08401 1.7994-0.04752 0.8911-0.09504 1.7822-0.14256 2.6733 0.16037 0.33503 0.40013 0.63882 0.71826 0.83612 0.30993 0.21217 0.67415 0.35936 1.0532 0.367 0.27192 0.01114 0.5759-0.16912 0.59646-0.46064 0.01926-0.29181-0.02486-0.58412-0.03563-0.87587-0.03254-0.42419-0.04329-0.84981-0.04361-1.2751 0.00795-0.35274 0.03588-0.70512 0.07114-1.0561 0.0582-0.53343 0.20444-1.0514 0.33569-1.5701 0.18133-0.69179 0.36422-1.3832 0.54665-2.0747 0.19206-1.0893 0.35975-2.1831 0.49308-3.2812 0.063392-0.56103 0.08201-1.1258 0.084988-1.69 5.5e-4 -0.28942 0.018553-0.5818-0.027291-0.86869-0.060314-0.27306-0.16706-0.53487-0.28692-0.78614-0.2186-0.37991-0.52273-0.69921-0.81269-1.0244-0.34112-0.3299-0.69572-0.64591-1.0703-0.9375-0.28855-0.14417-0.59103-0.25932-0.90234-0.34375-0.04295-0.00473-0.08586-0.00403-0.12891-0.00195z" style="paint-order:normal"/>
   <path d="m39.865 249.52c-0.25782 0.06985-0.43344 0.3212-0.45898 0.58008-0.13566 0.59036-0.27059 1.1849-0.30859 1.791 0.004207 0.64793 0.15662 1.2808 0.2866 1.9119 0.20128 1.0086 0.41675 2.0177 0.5049 3.0442 0.14294 1.5588 0.25291 3.1202 0.3601 4.6818 0.13428 1.9359 0.25667 3.8726 0.37574 5.8094 0.010995 0.33519 0.014324 0.70113-0.19048 0.98582-0.29162 0.47597-0.75603 0.82281-1.2548 1.0591-0.70937 0.3275-1.4672 0.52714-2.2053 0.77727-0.26786 0.09962-0.55315 0.15926-0.81037 0.28328-0.24035 0.13983-0.30582 0.53973-0.038397 0.68774 0.24695 0.16415 0.55705 0.11351 0.83695 0.1424 1.394 0.0723 2.7891 0.13321 4.1849 0.15338 0.27546-4e-3 0.57512-0.0083 0.8113-0.16852 0.25605-0.18815 0.35883-0.51457 0.38507-0.81921 0.18328-1.492 0.37373-2.9838 0.4963-4.4823 0.10211-1.3691 0.090769-2.7431 0.099264-4.115-0.00897-1.4662-0.02208-2.9324-0.046069-4.3984-0.013624-0.73613-0.031213-1.4725-0.067745-2.2079-0.015956-0.2935-0.036501-0.58652-0.088745-0.87617-0.066017-0.38699-0.14129-0.77229-0.21346-1.1582-0.02711-0.28239 0.15184-0.52395 0.30273-0.74414 0.14884-0.21889 0.20092-0.48264 0.25781-0.73633 0.025973-0.30284-0.1274-0.60458-0.37109-0.78125-0.33574-0.27179-0.71645-0.47935-1.082-0.70703-0.4668-0.22331-0.93359-0.44662-1.4004-0.66992-0.11897-0.03144-0.2419-0.05139-0.36524-0.04297z" style="paint-order:normal"/>
   <path d="m40.857 215.33c-0.29885 0.04725-0.44726 0.34328-0.66596 0.51753-0.25022 0.22829-0.5208 0.43301-0.77544 0.6563-0.28923 0.35854-0.36219 0.84176-0.32021 1.2893 0.078715 0.69054 0.36724 1.3341 0.68285 1.9458 0.34129 0.66075 0.69318 1.316 1.0436 1.972 0.30013 0.83564 0.46969 1.7225 0.45294 2.612-0.018221 1.3478-0.091762 2.6944-0.098998 4.0424-5.94e-4 1.4972 0.034664 2.9945 0.014026 4.4915-0.053543 0.9828-0.25194 1.9492-0.42526 2.9159-0.29991 1.5621-0.59982 3.1242-0.89973 4.6862-0.020225 0.33954-0.017602 0.68034 0.007813 1.0195 0.12072 0.37468 0.42187 0.67309 0.7767 0.8328 0.49012 0.23709 1.0338 0.31633 1.5612 0.42892 0.85982 0.15115 1.7462 0.13813 2.6039-0.02006 0.43599-0.08663 0.87103-0.24442 1.2086-0.54244 0.23387-0.22596 0.39776-0.53116 0.42773-0.85742-3.44e-4 -0.38498-0.2481-0.72211-0.53764-0.95421-0.45194-0.37616-0.98466-0.64678-1.4135-1.0516-0.23546-0.23553-0.42287-0.5384-0.44723-0.87728-0.044923-0.451 0.045389-0.90047 0.083831-1.3488 0.072377-0.65834 0.14135-1.3209 0.09746-1.9839-0.17568-4.0264-0.35136-8.0528-0.52703-12.079-0.1084-1.0635-0.25413-2.1231-0.43717-3.1764-0.18865-0.99398-0.4222-1.9788-0.68197-2.9565-0.16534-0.49361-0.44286-0.9666-0.86634-1.2807-0.24384-0.18848-0.55375-0.30215-0.86413-0.28182z" style="paint-order:normal"/>
   <path transform="rotate(-28.117)" d="m-83.967 251.67c-0.29135 0.04233-0.5748 0.12326-0.86365 0.17832-0.60209 0.13197-1.2042 0.26393-1.8063 0.3959-0.55564 0.06865-1.1153 0.09098-1.6738 0.12304-0.45267 0.04628-0.8936 0.16354-1.3391 0.25151-0.67156 0.14102-1.3427 0.28456-2.0152 0.42074-0.38651 0.06979-0.77437 0.13093-1.1638 0.1818-0.39584 0.04818-0.79273 0.08821-1.1908 0.11268-0.62538 0.04899-1.253 0.05679-1.88 0.06158-0.85946-0.00124-1.718-0.05021-2.5741-0.12386-0.51663-0.04163-1.0332-0.0834-1.5499-0.12515-0.25265-0.01714-0.57855 0.1302-0.57549 0.41945 0.00314 0.24826 0.21946 0.4202 0.42295 0.52306 0.23179 0.11934 0.46646 0.23301 0.6998 0.34943 0.97044 0.47756 1.947 0.94343 2.939 1.3747 0.44487 0.18573 0.89786 0.35122 1.3529 0.5099 0.51129 0.16589 1.0357 0.28906 1.5655 0.37889 0.36594 0.06536 0.73264 0.12815 1.1026 0.16593 0.30556 0.03861 0.61603 0.05167 0.9224 0.01494 0.22145-0.03419 0.43278-0.11467 0.62725-0.22476 0.33792-0.16861 0.67658-0.35117 1.0512-0.42296 0.50464-0.10958 1.0241-0.1083 1.5355-0.16703 0.40181-0.04452 0.80654-0.07745 1.2108-0.05036 0.65504 0.02216 1.3083 0.07702 1.9619 0.12292 0.32623 0.00365 0.65166-0.0323 0.9707-0.09961 0.69889-0.13286 1.3896-0.30476 2.0762-0.49023 0.2934-0.08186 0.57098-0.21281 0.82858-0.3745 0.19224-0.10807 0.38354-0.2435 0.48196-0.44777 0.11493-0.25414 0.022845-0.53739-0.087891-0.77539-0.16041-0.38934-0.32136-0.78552-0.37109-1.207-0.042918-0.25804-0.096516-0.54638-0.32031-0.71289-0.19641-0.15162-0.44957-0.19331-0.68997-0.21779-0.51051-0.06648-1.0239-0.10573-1.5366-0.15135-0.037109 0.00195-0.074219 0.00391-0.11133 0.00586z" style="paint-order:normal"/>
  </g>
  <g>
   <path d="m39.367 249.83c-0.25782 0.0699-0.43344 0.3212-0.45898 0.58008-0.13566 0.59036-0.27059 1.1849-0.30859 1.791 0.0042 0.64793 0.15662 1.2808 0.2866 1.9119 0.20128 1.0086 0.41675 2.0177 0.5049 3.0442 0.14294 1.5588 0.25291 3.1202 0.3601 4.6818 0.13428 1.9359 0.25667 3.8726 0.37574 5.8094 0.011 0.33519 0.01432 0.70113-0.19048 0.98582-0.29162 0.47597-0.75603 0.82281-1.2548 1.0591-0.70937 0.3275-1.4672 0.52714-2.2053 0.77727-0.26786 0.0996-0.55315 0.15926-0.81037 0.28328-0.24035 0.13983-0.30582 0.53973-0.0384 0.68774 0.24695 0.16415 0.55705 0.11351 0.83695 0.1424 1.394 0.0723 2.7891 0.13321 4.1849 0.15338 0.27546-4e-3 0.57512-8e-3 0.8113-0.16852 0.25605-0.18815 0.35883-0.51457 0.38507-0.81921 0.18328-1.492 0.37373-2.9838 0.4963-4.4823 0.10211-1.3691 0.09077-2.7431 0.09926-4.115-9e-3 -1.4662-0.02208-2.9324-0.04607-4.3984-0.01362-0.73613-0.03121-1.4725-0.06774-2.2079-0.01596-0.2935-0.0365-0.58652-0.08875-0.87617-0.06602-0.38699-0.14129-0.77229-0.21346-1.1582-0.02711-0.28239 0.15184-0.52395 0.30273-0.74414 0.14884-0.21889 0.20092-0.48264 0.25781-0.73633 0.02597-0.30284-0.1274-0.60458-0.37109-0.78125-0.33574-0.27179-0.71645-0.47935-1.082-0.70703-0.4668-0.22331-0.93359-0.44662-1.4004-0.66992-0.11897-0.0314-0.2419-0.0514-0.36524-0.043z" fill="#d9bdb2" opacity=".314" style="paint-order:normal"/>
   <ellipse cx="34.136" cy="244.82" rx="3.5672" ry="3.8979" fill="#ffb380" style="paint-order:normal"/>
   <path transform="matrix(.35438 -.9351 .92718 .37461 0 0)" d="m-216.18 114.46c-0.50308 0.11129-0.99325 0.28714-1.4414 0.54297-0.32347 0.1688-0.64966 0.33218-0.97852 0.49024-0.40313 0.13274-0.81339 0.24169-1.2226 0.35351-0.36275 0.17909-0.67707 0.44124-0.95899 0.72852-0.22653 0.23524-0.47055 0.45739-0.6582 0.72656-0.0968 0.19606-0.0738 0.44676 0.06238 0.61866 0.14731 0.1829 0.38349 0.26149 0.59733 0.33897 0.41467 0.1462 0.82962 0.29158 1.2446 0.4369 0.24243 0.13797 0.42117 0.37755 0.49218 0.64649 0.16472 0.57487 0.32943 1.1497 0.49415 1.7246 0.17272 0.33338 0.35554 0.6618 0.56054 0.97656 0.23768 0.23067 0.49694 0.43719 0.75 0.65039 0.22711 0.14688 0.50068 0.24052 0.77344 0.20508 0.28086-0.09374 0.54512-0.22782 0.81055-0.35742 0.24608-0.13578 0.2633-0.50063 0.08203-0.69727-0.1862-0.22354-0.44142-0.37227-0.67358-0.54221-0.36393-0.25506-0.73298-0.50419-1.0725-0.79177-0.19593-0.1759-0.39196-0.45695-0.27465-0.72752 0.13398-0.25289 0.44688-0.28997 0.69458-0.36428 0.29641-0.08657 0.60137-0.1841 0.83984-0.38867 0.21641-0.18871 0.29284-0.47697 0.31806-0.75232 0.04649-0.41087 0.04446-0.82575 0.08503-1.237 0.01381-0.23129 0.10535-0.45257 0.25121-0.63177 0.17257-0.19854 0.40742-0.32823 0.60886-0.4944 0.25628-0.19536 0.51851-0.38272 0.77786-0.57396 0.15153-0.13893 0.19988-0.3806 0.1103-0.56613-0.11233-0.2068-0.37682-0.24542-0.58952-0.26043-0.50849-0.04159-1.0189-0.05327-1.5286-0.07187-0.05143 0.00586-0.10286 0.01171-0.15429 0.01757z" style="paint-order:normal"/>
   <path d="m38.42 243.49c-0.40343 0.12156-0.80172 0.31305-1.078 0.64051-0.33428 0.37541-0.5181 0.87318-0.53916 1.3732-0.004882 0.4436 0.2303 0.85856 0.54963 1.1536 0.741 0.71957 1.5326 1.3842 2.3137 2.0593 0.4464 0.37173 0.99828 0.57395 1.5136 0.82757 0.56777 0.26262 1.1666 0.48352 1.7938 0.53978 0.29263 0.02565 0.59365 0.04905 0.88196-0.02164 0.29708-0.08018 0.53796-0.30721 0.66389-0.58444 0.1808-0.3664 0.2393-0.78034 0.2569-1.1846 0.023745-0.74497-0.13862-1.4909-0.43642-2.1723-0.15738-0.35034-0.35069-0.68783-0.61323-0.97062-0.35975-0.38693-0.81406-0.67903-1.2969-0.88875-0.30672-0.13286-0.63463-0.20094-0.95738-0.28195-0.79247-0.17604-1.5883-0.33756-2.3853-0.4912-0.22004-0.03278-0.45278-0.08678-0.66706 0.00166z" fill="#ffb380" style="paint-order:normal"/>
  </g>
  <a transform="translate(.58538 -.75288)" fill-opacity="0">
   <path transform="matrix(.81866 -.57428 .4883 .87268 0 0)" d="m-83.852 222.28c-0.26098 0.099-0.55607 0.21197-0.69161 0.47501-0.10435 0.21466-0.0473 0.47097 0.08223 0.66171 0.30886 0.43879 0.64755 0.8554 0.97476 1.2804 0.28576 0.36746 0.57152 0.73491 0.85727 1.1024 0.17134 0.28808 0.35668 0.56938 0.49295 0.87658 0.10962 0.23463 0.11289 0.50154 0.11838 0.7559 0.0077 0.35293-0.04687 0.70394-0.125 1.0472-0.08208 0.30173-0.1934 0.59486-0.32601 0.87791-0.12205 0.28942-0.35091 0.53595-0.63981 0.66317-0.25176 0.12708-0.51829 0.22152-0.78109 0.32269-0.21898 0.0839-0.46057 0.14902-0.6945 0.0913-0.23411-0.0663-0.40447-0.25282-0.55547-0.43308-0.335-0.40496-0.65694-0.82058-0.98656-1.2299-0.25682-0.32196-0.51365-0.64392-0.77047-0.96588-0.16149-0.19625-0.43365-0.33299-0.6875-0.24805-0.19687 0.0722-0.31501 0.27976-0.32812 0.48242-0.01058 0.26473 0.12274 0.50702 0.23597 0.73755 0.27238 0.53141 0.55747 1.0562 0.83504 1.585 0.14312 0.26403 0.2758 0.53392 0.42581 0.79408 0.15252 0.26265 0.33362 0.50893 0.53891 0.73267 0.20937 0.20707 0.4706 0.35173 0.73347 0.47969 0.56418 0.27381 1.1507 0.4974 1.7286 0.73987 0.80449 0.32944 1.6009 0.6782 2.3914 1.0398 1.2643 0.56909 2.5229 1.1505 3.7846 1.7254-0.80485 0.43371-1.6057 0.87514-2.4229 1.2856-1.775 0.89188-3.5501 1.7836-5.3252 2.6754-0.38063 0.18378-0.78184 0.31861-1.1755 0.47097-0.28266 0.10669-0.56532 0.21337-0.84798 0.32005-0.23197 0.1149-0.47573 0.21402-0.67969 0.37695-0.17631 0.23084-0.10252 0.54172-0.0088 0.79039 0.21516 0.64669 0.43032 1.2934 0.64548 1.9401 0.0923 0.24015 0.18364 0.49048 0.36523 0.67969 0.16152 0.16395 0.40697 0.22863 0.63086 0.1875 0.27516-0.0595 0.51611-0.21346 0.75894-0.34862 0.30087-0.16884 0.59893-0.34322 0.90389-0.50445 0.26258-0.13364 0.5415-0.23289 0.8274-0.30318 0.65537-0.17081 1.3194-0.30504 1.9817-0.44522 3.3889-0.69339 6.7778-1.3868 10.167-2.0802 0.27038-0.0307 0.54372-0.10216 0.81641-0.0527 0.2184 0.048 0.4064 0.20059 0.51175 0.39595 0.10996 0.22653 0.18422 0.46955 0.25973 0.70952 0.08736 0.31666 0.17694 0.63275 0.24846 0.95347 0.1299 0.5573 0.23985 1.119 0.35051 1.6804 0.21321 1.1069 0.41191 2.2165 0.61762 3.3248 0.14916 0.81911 0.29831 1.6382 0.44747 2.4573 0.13151 1.0391 0.26302 2.0781 0.39453 3.1172 1.0026 0.0781 2.0052 0.15625 3.0078 0.23437 0.24092-9e-3 0.5171-0.095 0.62109-0.33398 0.09508-0.21645 0.06327-0.45738 0.05111-0.68583-0.03994-0.4057-0.11254-0.81059-0.094-1.2197 5e-3 -0.48104 0.05241-0.96023 0.0885-1.4396 0.24544-2.5906 0.49405-5.1809 0.74427-7.771 0.04214-0.46223 0.06246-0.92614 0.09134-1.3893 0.01544-0.35604 0.04014-0.71179 0.03966-1.0683 0.01183-0.46599-0.02587-0.93139-0.06932-1.395-0.03469-0.2786-0.08602-0.55509-0.1694-0.82353-0.095-0.34711-0.20891-0.68915-0.35031-1.0202-0.17166-0.40347-0.36366-0.79872-0.58373-1.1781-0.15112-0.25382-0.31183-0.50214-0.48833-0.73907-0.25453-0.34595-0.54716-0.66191-0.85054-0.9652-0.20777-0.20573-0.41959-0.40838-0.64751-0.59178-0.57332-0.47039-1.1774-0.90123-1.7713-1.3448-1.7637-1.3038-3.5275-2.6077-5.2912-3.9116-0.53888-0.4381-1.0566-0.90118-1.5781-1.3596-0.33808-0.30025-0.6736-0.6033-1.0029-0.91317-0.40048-0.37462-0.79381-0.75683-1.1924-1.1335-0.16415-0.1542-0.39236-0.24542-0.61859-0.22201-0.25372 0.0387-0.49664 0.13115-0.7421 0.20442-0.26166 0.08-0.5308 0.13552-0.80286 0.16428-0.29484 0.0312-0.59256 0.0357-0.88723-2.1e-4 -0.26421-0.0284-0.50537-0.1517-0.73633-0.27539-0.28495-0.16276-0.56214-0.33833-0.83728-0.51705-0.26941-0.18019-0.54858-0.34997-0.78531-0.57353-0.23189-0.20549-0.42519-0.44884-0.63362-0.67685-0.14654-0.16799-0.35204-0.33919-0.59145-0.27944z" fill-opacity="0" opacity=".561" style="paint-order:normal"/>
  </a>
  <a fill="#fff">
   <path transform="matrix(.81866 -.57428 .4883 .87268 0 0)" d="m-83.889 221.7c-0.3083 0.06476-0.59952 0.21755-0.82031 0.44336-0.16556 0.23417-0.205 0.56565-0.052735 0.81641 0.27232 0.5277 0.58782 1.0331 0.9511 1.5031 0.43613 0.58153 0.95011 1.1015 1.3691 1.6962 0.22411 0.33062 0.41019 0.71095 0.40634 1.1191 0.019784 0.7775-0.16026 1.562-0.53472 2.2447-0.17082 0.30347-0.49185 0.47147-0.80122 0.6017-0.28064 0.1153-0.56587 0.22254-0.85938 0.30007-0.31044 0.06969-0.62307-0.09743-0.81641-0.33398-0.62962-0.7731-1.2584-1.5469-1.8828-2.3242-0.19027-0.18979-0.5155-0.30177-0.7538-0.13412-0.21613 0.16923-0.26196 0.48998-0.15569 0.73352 0.14783 0.38338 0.35714 0.7392 0.54107 1.1058 0.29809 0.57648 0.60233 1.1497 0.90748 1.7225 0.27309 0.39517 0.57063 0.80496 1.0119 1.024 0.93155 0.48809 1.9187 0.85585 2.8775 1.285 1.762 0.77174 3.5108 1.573 5.2629 2.3668-1.4675 0.76761-2.9329 1.5394-4.4151 2.2784-1.126 0.56737-2.2519 1.1347-3.3779 1.7021-0.87998 0.33996-1.7649 0.66776-2.6348 1.0332-0.25317 0.12341-0.38668 0.44561-0.28804 0.71051 0.1861 0.50957 0.40303 1.0069 0.62141 1.5033 0.15308 0.3471 0.30182 0.69614 0.45764 1.042 0.12347 0.22331 0.33333 0.43497 0.60308 0.44448 0.35043 0.02948 0.65695-0.17692 0.95513-0.33001 0.60474-0.31771 1.2011-0.68149 1.8763-0.82865 1.4403-0.35535 2.8982-0.63229 4.3498-0.93607 2.5576-0.52478 5.1151-1.0496 7.6727-1.5744 0.29603-0.03875 0.60032-0.1006 0.89648-0.0293 0.30789 0.14376 0.50292 0.45432 0.58398 0.77539 0.34371 1.1358 0.56437 2.3035 0.79298 3.4665 0.28154 1.5201 0.56184 3.0405 0.82816 4.5634 0.090745 0.48723 0.17083 0.97619 0.2372 1.4674 0.10816 0.76759 0.20399 1.5368 0.30377 2.3055 0.26318 0.10809 0.55312 0.04876 0.82617 0.10351 0.72852 0.05599 1.457 0.11198 2.1855 0.16797 0.27384-0.01301 0.57696-0.16845 0.63672-0.45703 0.082139-0.33685 0.002697-0.68246-0.010642-1.0225-0.069451-0.90575 0.033065-1.812 0.10656-2.7141 0.23309-2.729 0.49555-5.4554 0.72608-8.1846 0.054178-0.85164 0.099442-1.7082 0.025447-2.56-0.050614-0.59072-0.16653-1.1769-0.36775-1.7353-0.25358-0.72408-0.60331-1.4129-1.0206-2.056-0.5295-0.79676-1.2196-1.4739-1.9638-2.0696-0.84552-0.67507-1.7267-1.3038-2.5929-1.9518-1.4063-1.042-2.8125-2.084-4.2188-3.126-0.95463-0.82861-1.892-1.6766-2.8248-2.5297-0.34689-0.30665-0.67445-0.63463-1.0267-0.93518-0.23981-0.15817-0.55201-0.19292-0.82227-0.09765-0.60799 0.16826-1.2299 0.34963-1.8677 0.3102-0.51564-0.01118-1.0022-0.24685-1.3921-0.57387-0.42591-0.33068-0.82487-0.6943-1.2109-1.0703-0.29288-0.37932-0.59044-0.75495-0.89258-1.127-0.12194-0.07552-0.25816-0.15868-0.4082-0.13477z" fill="#fff" opacity="1" style="paint-order:normal"/>
  </a>
 </g>
</svg>
