<?xml version="1.0" encoding="UTF-8"?>
<!-- Created with Inkscape (http://www.inkscape.org/) -->
<svg width="10cm" height="10cm" version="1.1" viewBox="0 0 100 100" xmlns="http://www.w3.org/2000/svg" xmlns:cc="http://creativecommons.org/ns#" xmlns:dc="http://purl.org/dc/elements/1.1/" xmlns:rdf="http://www.w3.org/1999/02/22-rdf-syntax-ns#">
 <defs>
  <filter id="filter1985" x="-.077379" y="-.045773" width="1.1548" height="1.0915" color-interpolation-filters="sRGB">
   <feGaussianBlur stdDeviation="0.063978446"/>
  </filter>
 </defs>
 <metadata>
  <rdf:RDF>
   <cc:Work rdf:about="">
    <dc:format>image/svg+xml</dc:format>
    <dc:type rdf:resource="http://purl.org/dc/dcmitype/StillImage"/>
    <dc:title/>
   </cc:Work>
  </rdf:RDF>
 </metadata>
 <g transform="translate(0,-197)">
  <g>
   <path d="m38.738 250.34c-0.46101 0.03773-0.92346 0.06935-1.3863 0.05468-0.27216-0.0091-0.54327 0.025-0.8085 0.08444-0.25894 0.05179-0.51388 0.12654-0.75746 0.22859-0.61214 0.26497-1.1443 0.69947-1.5472 1.2291-0.33157 0.42869-0.54634 0.93292-0.71539 1.4442-0.13495 0.54429-0.20579 1.1113-0.14395 1.671 0.061711 0.50323 0.17339 1.0062 0.39785 1.4638 0.19257 0.40886 0.4436 0.79168 0.75409 1.1208 0.2764 0.30252 0.60794 0.55192 0.96466 0.75221 0.35776 0.19442 0.74801 0.32845 1.1495 0.39512 0.34724 0.05486 0.70255 0.0546 1.0506 0.0075 0.27905-0.03868 0.5541-0.10965 0.81732-0.20995 0.65741-0.25991 1.2398-0.70505 1.6681-1.2669 0.22701-0.30726 0.4168-0.64107 0.56463-0.99333 0.20401-0.48753 0.27709-1.015 0.38034-1.53 0.10056-0.56713 0.30352-1.1112 0.38653-1.682 0.039793-0.27765 0.012337-0.56283-0.043984-0.83645-0.079515-0.39165-0.25542-0.76311-0.50432-1.0755-0.16609-0.19625-0.35858-0.37023-0.58008-0.50195-0.28218-0.16569-0.597-0.26953-0.91797-0.32813-0.24138-0.03743-0.48498-0.05184-0.72852-0.02734z" fill="#ffb380" style="paint-order:normal"/>
   <path d="m34.279 250.45c-0.327 0.41933-0.66582 0.82921-1.018 1.2276-0.1769 0.20309-0.35809 0.40686-0.48035 0.64911-0.17307 0.30153-0.28494 0.6328-0.448 0.93949-0.15309 0.30528-0.32923 0.60157-0.55772 0.85705-0.40149 0.47532-0.85672 0.90576-1.2176 1.4147-0.34219 0.46846-0.67069 0.95177-1.0857 1.3605-0.18603 0.19643-0.41085 0.37559-0.50313 0.63941-0.10748 0.3045-0.14711 0.62764-0.18524 0.94667-0.02909 0.34934-0.049391 0.69923-0.064755 1.0494 0.017039 0.23699 0.10707 0.47876 0.29484 0.63294 0.23924 0.17935 0.54801 0.20156 0.83407 0.24206 0.29534 0.02571 0.60426 0.07809 0.89062-0.02734 0.43422-0.15832 0.83092-0.39961 1.25-0.5918 0.24054-0.13708 0.53824-0.15825 0.79819-0.06533 0.26896 0.07719 0.51447 0.22707 0.79165 0.27627 0.32824 0.03557 0.65381-0.03866 0.97915-0.07151 0.60766-0.07815 1.2163-0.15529 1.8159-0.28328 0.32015-0.06715 0.64693-0.11588 0.9517-0.23982 0.23756-0.10949 0.51486-0.15908 0.7159-0.33137 0.16068-0.16974 0.039715-0.49309-0.19121-0.52324-0.27579-0.04192-0.55518-0.04237-0.83347-0.05394-0.23408-0.00956-0.47711-0.07483-0.647-0.24489-0.16086-0.15482-0.26156-0.36988-0.27339-0.59313-0.021225-0.27597 0.060155-0.54526 0.10547-0.81491 0.057519-0.29824 0.11552-0.59645 0.16206-0.89664 0.027575-0.30228-0.040742-0.61579-0.21094-0.86915-0.1603-0.20749-0.4217-0.31126-0.67774-0.32812-0.2797-0.03248-0.56167-0.05728-0.83398-0.13281-0.27866-0.10616-0.47024-0.36653-0.5575-0.64399-0.097342-0.24919-0.15053-0.51169-0.20813-0.77203-0.03479-0.24464 0.040435-0.48874 0.13127-0.71314 0.13876-0.35205 0.29532-0.69729 0.4123-1.0576 0.08567-0.25936 0.23988-0.54456 0.11073-0.81718-0.042715-0.08395-0.14353-0.20594-0.25-0.16406z" fill="#520" style="paint-order:normal"/>
   <path d="m55.451 219.3c-0.28445 0.02427-0.5654 0.07746-0.84607 0.12808-0.63237 0.12023-1.264 0.24433-1.8961 0.36606-0.29586 0.06726-0.584 0.16267-0.87305 0.2539-0.27376 0.09722-0.5459 0.19876-0.81641 0.30469-0.24949 0.11871-0.48838 0.25783-0.73047 0.39062-0.28904 0.189-0.56997 0.39233-0.82404 0.62686-0.27894 0.24664-0.55166 0.50036-0.81363 0.76502-0.22464 0.22455-0.45532 0.44365-0.6631 0.6843-0.24355 0.27568-0.49914 0.54172-0.7207 0.83593-0.1707 0.23391-0.32834 0.47926-0.44098 0.74689-0.1086 0.24816-0.19419 0.50828-0.23938 0.77565-0.041212 0.26686-0.051201 0.53994-0.011043 0.80754 0.04385 0.2704 0.12164 0.53604 0.2448 0.78129 0.11598 0.23891 0.25882 0.46382 0.41006 0.68176 0.17158 0.24993 0.34832 0.49661 0.53739 0.73364 0.18669 0.23551 0.37313 0.47164 0.57187 0.69714 0.18567 0.21793 0.38577 0.423 0.59804 0.61509 0.32552 0.3054 0.65975 0.60142 0.99927 0.89112 0.21174 0.17672 0.42357 0.356 0.66508 0.49145 0.22234 0.12846 0.46204 0.22616 0.7076 0.3005 0.25005 0.06971 0.5232 0.14393 0.77672 0.04655 0.23498-0.06901 0.41447-0.25679 0.65328-0.31472 0.22311-0.07539 0.46564 0.0167 0.62054 0.18414 0.18155 0.18211 0.3259 0.39699 0.49009 0.59423 2.0697 2.6013 4.1386 5.2033 6.2088 7.8042 0.54169 0.67383 1.1023 1.3322 1.6581 1.9943 0.96982 1.1514 1.9392 2.3032 2.9133 3.451 0.99556 1.176 1.9919 2.3513 2.988 3.5269 0.52329 0.65937 1.03 1.3317 1.5418 1.9999 0.183 0.238 0.36517 0.47661 0.53777 0.72232 0.32522 0.44682 0.64162 0.89992 0.95946 1.352 0.3475 0.53055 0.69189 1.0631 1.0332 1.5976 0.21565 0.3713 0.43144 0.74253 0.63857 1.1187 0.23154 0.40448 0.42848 0.82727 0.63984 1.2424 0.13767 0.27484 0.27533 0.54967 0.413 0.82451 0.13111 0.22968 0.31046 0.42577 0.4707 0.63476 0.16006 0.20761 0.26365 0.47971 0.20057 0.74256-0.062956 0.25959-0.28046 0.4377-0.39393 0.67151-0.12897 0.25724 0.003473 0.54274 0.126 0.77416 0.14087 0.25222 0.33973 0.46547 0.53394 0.67716 0.529 0.55907 1.0713 1.1054 1.6073 1.6577 0.26976 0.27665 0.53794 0.55536 0.8246 0.81471 0.21286 0.20583 0.44874 0.38503 0.6894 0.55674 0.24128 0.15089 0.49477 0.31617 0.78771 0.33135 0.24005 0.01362 0.47279-0.06087 0.69624-0.13973 0.23703-0.08654 0.46782-0.19146 0.68491-0.32041 0.21651-0.12674 0.4189-0.27836 0.60063-0.45136 0.20249-0.18709 0.37681-0.40295 0.53129-0.63079 0.14777-0.2217 0.21863-0.49157 0.18908-0.75716-0.02895-0.27485-0.1114-0.5412-0.20611-0.79983-0.18215-0.48237-0.37905-0.95901-0.57369-1.4364-0.29295-0.70982-0.59151-1.4173-0.8878-2.1257-0.47926-1.0118-0.95709-2.0243-1.4372-3.0356-0.53986-1.1104-1.0871-2.2172-1.6393-3.3216-0.2791-0.55849-0.55607-1.1181-0.83648-1.6759-0.32262-0.61852-0.64524-1.237-0.96787-1.8556-0.21416-0.38438-0.43963-0.76228-0.67058-1.1368-0.15888-0.25598-0.32381-0.50843-0.49682-0.75511-0.28285-0.40569-0.5793-0.80168-0.87461-1.1983-0.92415-1.2297-1.8483-2.4594-2.7724-3.6891-0.16783-0.24007-0.33254-0.48226-0.49414-0.72656-0.27423-0.45463-0.55732-0.90436-0.80721-1.3731-0.16908-0.31887-0.32973-0.64221-0.49552-0.96283-0.24782-0.50247-0.49619-1.0047-0.73616-1.511-0.432-0.89784-0.86051-1.7973-1.2868-2.6979-0.85825-1.8086-1.7165-3.6173-2.5747-5.4259-0.2474-0.42122-0.49479-0.84244-0.74219-1.2637-0.45126-0.68376-0.90248-1.3676-1.3599-2.0472-0.71435-1.0663-1.4307-2.1312-2.1459-3.1969-0.17158-0.2433-0.34738-0.48353-0.52734-0.7207-0.18544-0.21746-0.36482-0.44146-0.57683-0.63423-0.19837-0.19392-0.42607-0.35311-0.64961-0.51599-0.243-0.16778-0.51014-0.30728-0.79899-0.37541-0.25268-0.06695-0.514-0.09546-0.77485-0.10326-0.048994-0.00517-0.097988 0.00124-0.14698 0.00194z" fill="#fff" style="paint-order:normal"/>
   <path transform="matrix(.91108 -.41224 -.15206 .98837 0 0)" d="m96.43 268.66c-0.26338 0.10103-0.5142 0.23334-0.75195 0.38477-0.27004 0.19412-0.54914 0.37953-0.78906 0.61132-0.25644 0.27213-0.49124 0.56454-0.69611 0.87749-0.6249 0.91983-1.2328 1.851-1.8488 2.7768-0.16661 0.24675-0.35339 0.47957-0.55859 0.69531-0.29488 0.268-0.60784 0.51511-0.9246 0.7565-2.1972 1.6418-4.4171 3.2526-6.627 4.8771-0.29942 0.21946-0.6075 0.43494-0.8504 0.71902-0.21134 0.229-0.35885 0.50896-0.46872 0.79871-0.10991 0.29871-0.1966 0.60564-0.29643 0.90789-0.25723 0.82108-0.49088 1.6495-0.75274 2.4691-0.089354 0.26805-0.20161 0.52994-0.35015 0.77076-0.13265 0.23229-0.29828 0.44294-0.47803 0.64033-0.3097 0.32876-0.65044 0.62582-0.98047 0.93359-0.59163 0.52807-1.1914 1.0469-1.7871 1.5703-0.56394 0.47272-1.2079 0.83383-1.8332 1.2168-0.27323 0.17256-0.56186 0.32179-0.82089 0.51588-0.21968 0.16301-0.43212 0.34027-0.60557 0.55308-0.38396 0.4684-0.76109 0.94248-1.1379 1.4166-0.18623 0.23057-0.40192 0.43399-0.60686 0.64734-0.20466 0.21937-0.42562 0.42217-0.65565 0.61455-0.24626 0.21164-0.48744 0.43168-0.76334 0.60497-0.26177 0.16757-0.51277 0.37313-0.81845 0.45236-0.30837 0.08763-0.62738 0.13377-0.94785 0.13888-0.28971 0.0305-0.62114-0.00781-0.85912 0.19309-0.22796 0.17827-0.36612 0.49081-0.67207 0.55101-0.29896 0.06709-0.60231-0.03414-0.9041-0.02562-0.28914 0.01019-0.58042 0.00201-0.86133-0.07422-0.29719-0.07332-0.58342-0.1833-0.875-0.27539-0.3184-0.11007-0.63323-0.23098-0.95751-0.32312-0.39923-0.11798-0.79373-0.25186-1.1822-0.40125-0.28994-0.11712-0.60407-0.15483-0.91493-0.14086-0.29808 0.00803-0.59598-0.02203-0.88775-0.08263-0.46417-0.08735-0.92264-0.20185-1.3849-0.298-0.13504-0.0222-0.29809-0.07757-0.41482 0.02516-0.08267 0.2835 0.1618 0.51979 0.33483 0.7115 0.25058 0.26409 0.4927 0.54304 0.7988 0.74533 0.40079 0.2774 0.85305 0.46562 1.2891 0.67887 0.33892 0.14964 0.68009 0.29554 1.0329 0.40992 0.69345 0.24235 1.4056 0.42649 2.0993 0.66835 0.72431 0.244 1.4452 0.49813 2.1725 0.73321 0.43103 0.14116 0.86079 0.28748 1.2981 0.40829 0.29599 0.07034 0.60091 0.09637 0.90473 0.08984 0.41572 0.00114 0.83392 0.00242 1.2457-0.0625 0.30323-0.05578 0.60108-0.13584 0.89633-0.22401 0.356-0.11438 0.70774-0.24223 1.0621-0.36169 0.94881-0.34286 1.8941-0.69552 2.8395-1.0476 0.51815-0.19887 1.0385-0.39233 1.5553-0.59451 0.43931-0.18773 0.8817-0.36988 1.3047-0.59298 0.39722-0.20334 0.78554-0.42398 1.1622-0.66329 0.26333-0.17012 0.52584-0.34197 0.78355-0.52051 0.49593-0.34551 0.9393-0.75842 1.3846-1.1653 0.28294-0.26871 0.56473-0.53908 0.82539-0.8298 0.84858-0.9144 1.6678-1.8553 2.4954-2.7886 0.2659-0.30166 0.53017-0.60628 0.82762-0.87774 0.19749-0.1923 0.46558-0.30367 0.74235-0.29448 0.27033-6.7e-4 0.53572 0.06352 0.79697 0.12654 0.57786 0.146 1.1359 0.35773 1.7 0.54804 1.4306 0.49309 2.8613 0.98619 4.2919 1.4793 0.36719 0.11068 0.73438 0.22135 1.1016 0.33203 0.41459 0.08322 0.83378 0.13959 1.252 0.20117 0.40262 0.00663 0.80662 0.00648 1.207-0.04101 0.31676-0.04826 0.62773-0.13343 0.92565-0.25099 0.29197-0.11588 0.57051-0.26505 0.83189-0.43898 0.63285-0.42727 1.2411-0.88934 1.8489-1.3512 0.68104-0.51554 1.36-1.0338 2.04-1.5507 0.26905-0.2339 0.54253-0.46301 0.80078-0.70899 0.23435-0.26063 0.39384-0.59213 0.42865-0.94256 0.04757-0.31745 0.05874-0.63962 0.03906-0.95988-0.01269-0.31695-0.06404-0.6308-0.10746-0.94457-0.1107-0.65137-0.22024-1.3029-0.34353-1.9521-0.25713-1.3892-0.52066-2.7771-0.78039-4.1658-0.08779-0.36205-0.18088-0.72273-0.2793-1.082-0.15759-0.39428-0.32875-0.78316-0.52029-1.1622-0.16035-0.312-0.33451-0.61698-0.51126-0.91995-0.16405-0.27276-0.3462-0.53411-0.52925-0.79427-0.18045-0.25006-0.37078-0.49248-0.56615-0.73101-0.51204-0.60837-1.0697-1.1759-1.6191-1.75-0.65431-0.67055-1.3098-1.34-1.9648-2.0098-0.19596-0.174-0.38378-0.38914-0.65045-0.44895-0.060842-0.00548-0.12362-0.02539-0.18354-0.00222z" fill="#ffb380" style="paint-order:normal"/>
   <path d="m38.213 247.31c-0.56283 0.22294-1.0822 0.53817-1.6229 0.8076-0.57999 0.3092-1.1834 0.59428-1.6837 1.0283-0.44814 0.34607-0.67019 0.93508-0.63086 1.4922 0.010435 0.25067 0.10719 0.48912 0.23798 0.70025 0.12512 0.20552 0.36014 0.36056 0.60713 0.33335 0.26885-0.01017 0.4862-0.18591 0.69359-0.3373 0.38784-0.27665 0.77305-0.55904 1.1859-0.79787 0.30344-0.14736 0.68861-0.15535 0.97024 0.04589 0.17991 0.13167 0.48622 0.24955 0.65205 0.03543 0.15249-0.2203 0.034047-0.49124 0.049581-0.73561 0.023111-0.37623 0.26074-0.68935 0.37313-1.0399 0.12874-0.34753 0.15531-0.76391-0.052813-1.0871-0.1627-0.26562-0.45899-0.46633-0.7793-0.44531z" fill="#ffb380" style="paint-order:normal"/>
   <path d="m40.914 234.45c-0.2323 0.02851-0.41684 0.20189-0.58614 0.35136-0.2581 0.22834-0.43612 0.52802-0.63792 0.80363-0.27456 0.4048-0.59739 0.78226-0.99242 1.0742-0.20426 0.1792-0.46754 0.28786-0.64094 0.50125-0.17301 0.20025-0.18393 0.51295-0.018762 0.721 0.16625 0.22796 0.446 0.3192 0.68405 0.4498 0.31495 0.16311 0.62153 0.35413 0.86474 0.61562 0.3195 0.31745 0.5932 0.68127 0.81177 1.0749 0.22397 0.42367 0.38665 0.87524 0.56663 1.3184l0.80642 2.0371c0.1231 0.39983 0.22873 0.81366 0.21113 1.2354-0.003629 0.31025-0.051129 0.6352-0.22944 0.89712-0.14759 0.23388-0.35244 0.42319-0.53248 0.63116-0.3095 0.32681-0.62598 0.64838-0.97656 0.93164-0.25196 0.17647-0.53214 0.32365-0.83789 0.37695-0.33156 0.07188-0.67205 0.02136-1.005-0.0122-0.24892-0.03174-0.49896-0.07688-0.75088-0.05811-0.28282 0.0352-0.51929 0.26768-0.5625 0.54883-0.05309 0.26964 0.047277 0.5805 0.2922 0.72409 0.2347 0.15699 0.5342 0.14494 0.79888 0.0857 0.411-0.0869 0.8231-0.16865 1.236-0.246 0.46564-0.09659 0.92889-0.20441 1.3921-0.31205 0.39679-0.09219 0.8045-0.11971 1.2071-0.1767 0.45616-0.05955 0.9141-0.11934 1.3606-0.23251 0.28613-0.07612 0.56611-0.17774 0.83574-0.29984 0.54687-0.2526 1.0656-0.56266 1.5665-0.89621 0.38725-0.25572 0.74857-0.5491 1.0877-0.86549 0.47531-0.44367 0.92615-0.91278 1.3753-1.3827 0.31194-0.33088 0.62015-0.66522 0.92594-1.0018 0.16407-0.21139 0.23348-0.48996 0.19141-0.7539-0.087198-0.28116-0.29805-0.49621-0.4707-0.72657-0.66836-0.80699-1.3512-1.6021-2.0566-2.377-0.50545-0.56469-1.0281-1.1137-1.5477-1.6653-0.64176-0.66536-1.2848-1.3297-1.9422-1.9797-0.29454-0.28589-0.5909-0.57145-0.91251-0.82691-0.21742-0.16449-0.45476-0.30542-0.71341-0.39428-0.24049-0.0934-0.49364-0.15566-0.75142-0.17292l-0.048329 0.00193-5e-4 2e-5z" fill="#fff" style="paint-order:normal"/>
  </g>
  <path transform="matrix(1.0112 0 0 .81659 -.46112 47.137)" d="m30.592 256.13c0.38948 1.1495 1.0028 2.2228 1.7954 3.1419 0.06193 0.0718 0.12493 0.14269 0.18899 0.21261" fill="none" filter="url(#filter1985)" stroke="#5c2500" stroke-width=".14013"/>
  <path d="m73.179 259.55c-0.23564 0.01-0.4731 0.0757-0.65572 0.23067-0.34404 0.24026-0.73404 0.40097-1.1224 0.55416-0.29588 0.11701-0.59055 0.23752-0.8792 0.37139-0.19774 0.0902-0.40994 0.14214-0.62455 0.17228-0.46028 0.0802-0.9245 0.13534-1.3848 0.21529-0.27723 0.0338-0.55117 0.099-0.80908 0.20718-0.16983 0.0657-0.3559 0.12528-0.47152 0.27586-0.12248 0.17004-0.12136 0.43179 0.04297 0.5749 0.17952 0.17465 0.44604 0.16164 0.67727 0.19076 0.57526 0.0599 1.1544 0.0397 1.7317 0.0425 0.72935 3.2e-4 1.4588-2e-3 2.1878-0.0233 0.31921-8e-3 0.63841-0.0162 0.95762-0.0242 0.56164 0.0714 1.1208 0.16028 1.6802 0.24714 0.23834 0.0314 0.50374-9e-3 0.68445-0.17886 0.18158-0.15212 0.24663-0.41782 0.16546-0.63899-0.06678-0.20855-0.22504-0.36958-0.36972-0.52733-0.38402-0.41164-0.78349-0.80851-1.1718-1.216-0.15074-0.1539-0.25051-0.38528-0.46469-0.45994-0.05619-0.0165-0.11596-0.0192-0.17401-0.0135z" fill="#ffb380" style="paint-order:normal"/>
  <path d="m74.68 260.62c-0.28679 0.01212-0.5758 0.09215-0.79806 0.28074-0.41873 0.29242-0.89338 0.48801-1.366 0.67446-0.36011 0.14241-0.71874 0.28908-1.0701 0.45201-0.24066 0.10976-0.49892 0.17299-0.76012 0.20967-0.5602 0.09755-1.1252 0.16472-1.6854 0.26203-0.33741 0.04107-0.67081 0.12045-0.98472 0.25215-0.20669 0.07991-0.43316 0.15248-0.57388 0.33574-0.14907 0.20695-0.1477 0.52552 0.052302 0.69969 0.21849 0.21257 0.54286 0.19673 0.82429 0.23217 0.70013 0.07294 1.405 0.04829 2.1077 0.05174 0.88767 3.9e-4 1.7754-0.00167 2.6628-0.02829 0.3885-0.00984 0.77699-0.01969 1.1655-0.02953 0.68356 0.0869 1.3641 0.19507 2.0449 0.30078 0.29008 0.03819 0.61309-0.01036 0.83303-0.21768 0.22099-0.18515 0.30017-0.50852 0.20138-0.7777-0.081276-0.25382-0.27389-0.44981-0.44997-0.6418-0.46738-0.50099-0.95357-0.98402-1.4262-1.48-0.18346-0.1873-0.30489-0.46891-0.56556-0.55978-0.06839-0.0201-0.14113-0.02344-0.21178-0.0164z" fill="#ffb380" style="paint-order:normal"/>
 </g>
</svg>
