<?xml version="1.0" encoding="UTF-8"?>
<!-- Created with Inkscape (http://www.inkscape.org/) -->
<svg width="10cm" height="10cm" version="1.1" viewBox="0 0 100 100" xmlns="http://www.w3.org/2000/svg" xmlns:cc="http://creativecommons.org/ns#" xmlns:dc="http://purl.org/dc/elements/1.1/" xmlns:rdf="http://www.w3.org/1999/02/22-rdf-syntax-ns#" xmlns:xlink="http://www.w3.org/1999/xlink">
 <metadata>
  <rdf:RDF>
   <cc:Work rdf:about="">
    <dc:format>image/svg+xml</dc:format>
    <dc:type rdf:resource="http://purl.org/dc/dcmitype/StillImage"/>
    <dc:title/>
   </cc:Work>
  </rdf:RDF>
 </metadata>
 <g transform="translate(0 -197)">
  <path d="m18.278 263.45c-0.18045 0.13413-0.29985 0.33554-0.4313 0.5153-0.28236 0.42024-0.55355 0.85889-0.94319 1.1906-0.34633 0.3105-0.73508 0.57293-1.1413 0.79825-0.52723 0.28091-1.0961 0.47444-1.6761 0.61272-0.54902 0.14462-1.1347 0.25939-1.5881 0.62461-0.21208 0.18979-0.2925 0.53655-0.12738 0.78064 0.1349 0.20838 0.39425 0.27662 0.6233 0.32073 0.42762 0.059 0.86069 0.0172 1.2894-8e-3 1.5458-0.11986 3.0924-0.23071 4.6383-0.34926 0.51006-0.0529 1.0231-0.0979 1.5251-0.20493 0.38182-0.1 0.76308-0.31643 0.954-0.6743 0.21448-0.41719 0.16063-0.90452 0.10043-1.3525-0.07078-0.45091-0.18313-0.89424-0.29574-1.3361-0.11795-0.41398-0.41185-0.79102-0.82214-0.94519-0.48509-0.21703-1.0395-0.27242-1.5602-0.1714-0.18946 0.0423-0.37795 0.097-0.54501 0.19868z" fill="#fca" style="paint-order:normal"/>
  <g fill="#ffb380">
   <path d="m15.854 263.36c-0.21906 0.16285-0.36403 0.40736-0.5236 0.62558-0.34279 0.51019-0.67202 1.0427-1.145 1.4454-0.42045 0.37695-0.8924 0.69554-1.3855 0.96908-0.64005 0.34106-1.3307 0.57595-2.0349 0.74384-0.66652 0.17558-1.3776 0.31491-1.928 0.7583-0.25747 0.23039-0.3551 0.65137-0.15464 0.9477 0.16375 0.25298 0.47862 0.33581 0.7567 0.38936 0.51913 0.0716 1.0449 0.0209 1.5653-0.01 1.8767-0.14551 3.7542-0.2801 5.631-0.42401 0.61922-0.0642 1.242-0.11883 1.8515-0.24879 0.46353-0.12134 0.9264-0.38413 1.1582-0.81861 0.26038-0.50647 0.19501-1.0981 0.12192-1.642-0.08593-0.54741-0.22232-1.0856-0.35904-1.622-0.14319-0.50259-0.49997-0.96032-0.99808-1.1475-0.5889-0.26348-1.262-0.33071-1.8941-0.20808-0.23002 0.0513-0.45883 0.11771-0.66164 0.24122z" style="paint-order:normal"/>
   <path d="m72.145 236.79c-0.54089 0.21195-0.91818 0.68374-1.2316 1.153-0.36137 0.52392-0.68221 1.1126-1.2295 1.4682-0.23772 0.16778-0.52605 0.27864-0.70691 0.51559-0.17503 0.24022-0.10622 0.55781-0.04942 0.82632 0.17783 0.77271-7.89e-4 1.5615-0.12655 2.3272-0.23446 1.434-0.48818 2.8648-0.73028 4.2976-0.05771 0.55972 0.2501 1.0928 0.65424 1.4572 0.63726 0.58456 1.3919 1.0895 2.2548 1.2518 1.1201 0.20717 2.3153-0.15418 3.1613-0.91015 0.77838-0.6601 1.323-1.5429 1.7812-2.4434 0.18051-0.43235 0.09219-0.92395-0.09552-1.3381-0.39983-1.0318-0.77994-2.0798-1.3474-3.0345-0.40431-0.72748-0.70067-1.5075-1.0084-2.2789-0.25304-0.63159-0.41552-1.2936-0.63138-1.9376-0.09796-0.30228-0.23585-0.59662-0.45243-0.83277-0.09863-0.15192 0.04687-0.55336-0.24219-0.52148z" style="paint-order:normal"/>
   <path transform="rotate(34.15)" d="m210.13 174.57c-0.86401 0.08819-1.7235 0.2164-2.5828 0.34097-0.91815 0.13556-1.8315 0.31132-2.7277 0.55356-0.42186 0.17962-0.86449 0.48874-0.94531 0.97266-0.02685 0.37137 0.30764 0.66148 0.6417 0.74737 0.48289 0.14883 0.98891 0.2044 1.4865 0.28374 1.8574 0.26625 3.7497 0.29706 5.6135 0.07523 1.8288-0.19321 3.6511-0.45161 5.4868-0.57509 0.4539-0.02936 0.87408-0.22038 1.2568-0.45494 0.87577-0.53219 1.739-1.0851 2.6026-1.6369-0.05857-0.29107-0.42635-0.32093-0.65942-0.24089-1.0132 0.22083-2.0484 0.37055-3.0222 0.74089-0.73755 0.21016-1.5018-0.01585-2.2004-0.26062-1.1379-0.36353-2.3412-0.41835-3.5231-0.51584-0.47511-0.02855-0.95097-0.03604-1.4268-0.03018z" style="paint-order:normal"/>
  </g>
  <path d="m72.748 241.49c-0.11338-8e-3 -0.2245 0.0145-0.33203 0.0488-0.29635-0.0633-0.57697 0.0862-0.86528 0.12635-0.4773 0.0918-0.95848 0.16138-1.4374 0.244-0.25461 0.0475-0.50973 0.10001-0.75599 0.18143-0.25668 0.0844-0.49991 0.21008-0.71946 0.36746-0.21108 0.14374-0.39777 0.32057-0.56367 0.51416-0.17286 0.19677-0.32643 0.40956-0.4629 0.633-0.14904 0.24392-0.27342 0.50266-0.36548 0.77343-0.09121 0.27322-0.17222 0.55028-0.23809 0.83076-0.07022 0.27601-0.11345 0.55796-0.15859 0.83894-0.04655 0.29686-0.09045 0.59424-0.12456 0.89281-0.02342 0.28601-0.04253 0.57252-0.05165 0.85937-0.01283 0.31919-0.01508 0.63868-0.01929 0.95807-0.0058 0.83691-0.0055 1.6739-0.0072 2.5108v1.6132c-0.01367 0.58464-0.02734 1.1693-0.04102 1.7539-0.02018 0.33724-0.04036 0.67448-0.06055 1.0117-0.01966 0.23857-0.06008 0.49117-0.21673 0.68199-0.16706 0.18963-0.36351 0.35022-0.5556 0.5135-0.21388 0.1857-0.44254 0.36138-0.60918 0.59329-0.08957 0.1382-0.09774 0.31798-0.07633 0.47783 0.05026 0.27217 0.15547 0.53035 0.23854 0.79363 0.18805 0.55806 0.38225 1.1141 0.56981 1.6723 0.11245 0.33741 0.22046 0.67626 0.32722 1.0155 0.27366 0.99159 0.52712 1.9886 0.78798 2.9836 0.11755 0.45078 0.2351 0.90157 0.35264 1.3524 0.06913 0.26711 0.17038 0.52416 0.28477 0.77483 0.11393 0.22871 0.23884 0.45351 0.39491 0.65655 0.14608 0.21893 0.39498 0.36806 0.65953 0.37937 0.2972 0.0159 0.59247-0.0526 0.87604-0.13562 0.24342-0.0831 0.47662-0.1987 0.67927-0.35836 0.21697-0.15898 0.40446-0.35369 0.58455-0.55246 0.44516-0.48663 0.88094-0.9817 1.3155-1.4778 0.27942-0.31815 0.55884-0.6363 0.83827-0.95445 0.18815-0.23373 0.3763-0.46745 0.56445-0.70118 0.2194-0.29817 0.4388-0.59635 0.6582-0.89453l0.48633-0.73047c0.15451-0.26073 0.30438-0.52413 0.44866-0.79066 0.18374-0.3399 0.3645-0.68139 0.54353-1.0238 0.1701-0.351 0.33335-0.70526 0.49153-1.0618 0.14698-0.32789 0.29452-0.65552 0.43451-0.98648 0.23386-0.53652 0.45495-1.0784 0.68146-1.6181 0.35563-0.8511 0.70965-1.7029 1.0644-2.5543 0.12374-0.32381 0.22695-0.65482 0.33399-0.98438 0.045-0.255 0.0617-0.51474 0.0508-0.77344-0.0604-0.26529-0.11387-0.53282-0.20117-0.79101-0.12305-0.33659-0.2461-0.67318-0.36914-1.0098-0.12566-0.29882-0.25131-0.59765-0.37696-0.89648-0.16937-0.36437-0.33822-0.72899-0.51416-1.0903-0.14951-0.30965-0.29518-0.6212-0.45287-0.92683-0.29106-0.5709-0.58624-1.1397-0.8839-1.7072-0.16585-0.30801-0.32726-0.61852-0.49973-0.92289-0.17284-0.2925-0.34133-0.58767-0.52325-0.87468-0.14137-0.23549-0.3229-0.44317-0.49657-0.65491-0.18546-0.2223-0.38682-0.43083-0.57589-0.65006-0.19088-0.21388-0.36838-0.44076-0.58099-0.63412-0.12587-0.12529-0.2695-0.23275-0.43553-0.29882-0.032-5e-3 -0.0638-5.8e-4 -0.0957 2e-3zm-0.39453 1.0508c0.21157 0.13381 0.45499 0.21098 0.65949 0.35602 0.20869 0.16017 0.39382 0.34839 0.58043 0.53318 0.20316 0.19672 0.39948 0.40038 0.58049 0.61785 0.18625 0.2166 0.3703 0.43598 0.53527 0.66942 0.15386 0.21074 0.28335 0.43932 0.37283 0.68486 0.0978 0.24818 0.13269 0.51581 0.13657 0.78121-4e-3 0.2474-0.033 0.4942-0.0849 0.73607-0.056 0.25846-0.14539 0.50833-0.23092 0.75817-0.0845 0.23901-0.18735 0.47321-0.32836 0.68464-0.13872 0.22107-0.30601 0.42383-0.49466 0.60398-0.20429 0.19685-0.43404 0.36998-0.6922 0.48973-0.25416 0.12078-0.52643 0.19998-0.80024 0.26263-0.27144 0.0624-0.54902 0.0963-0.8275 0.10153-0.30239 6e-3 -0.60455-0.0128-0.90665-0.0237-0.29768-0.0164-0.5955-0.0316-0.89295-0.0518-0.27571-0.0225-0.55699-0.0292-0.82345-0.11007-0.23571-0.0861-0.41725-0.2965-0.46849-0.54209-0.05322-0.22192-0.06563-0.45095-0.08877-0.67733-0.02857-0.29658-0.04827-0.59389-0.064-0.8914-0.01543-0.28055-0.02155-0.56137-0.02327-0.84231 8.05e-4 -0.29617 0.0061-0.59226 0.01704-0.88823 0.0087-0.27934 0.04381-0.55673 0.07568-0.8341 0.04166-0.29024 0.08014-0.58184 0.15248-0.86645 0.04368-0.20028 0.1316-0.39732 0.28215-0.54012 0.18596-0.16341 0.42469-0.25046 0.65428-0.33383 0.2747-0.10042 0.55362-0.18866 0.83127-0.28044 0.30888-0.0974 0.61687-0.19766 0.92606-0.29403 0.1849-0.0546 0.36806-0.12323 0.5638-0.12194 0.10632-7e-3 0.21303-5e-3 0.31952-9e-3z" fill="#502f3a" style="paint-order:normal"/>
  <path d="m70.683 243.66c-0.27261 0.0882-0.47899 0.31003-0.61361 0.55584-0.20801 0.34985-0.41874 0.70125-0.68353 1.0119-0.18598 0.24559-0.31621 0.52902-0.40066 0.82446-0.0964 0.31953-0.21579 0.63696-0.24955 0.97084-0.0538 0.86595 0.025 1.7321 0.0814 2.5958 0.0441 0.66625 0.0978 1.3318 0.15532 1.997 0.0633 0.50837 0.14508 1.0143 0.24883 1.516 0.35108 1.6812 0.73918 3.3544 1.1264 5.0276 0.16916 0.72179 0.34 1.4434 0.52193 2.162 0.11626 0.39527 0.24492 0.79424 0.468 1.1438 0.16479 0.2517 0.37435 0.4729 0.61064 0.65836 0.39327 0.29133 0.82572 0.52318 1.2449 0.77399 1.7281 1.0074 3.4599 2.0087 5.1895 3.0136 0.49975 0.29776 0.98637 0.61685 1.4809 0.92313 1.1217 0.70105 2.2374 1.4118 3.3568 2.1165 0.38177 0.23464 0.78627 0.4324 1.2047 0.59252 0.26198 0.0921 0.53299 0.16127 0.81084 0.1801 0.57027 0.054 1.1441 0.0395 1.7162 0.0377 1.7642-0.0266 3.5284-0.0556 5.2927-0.0806 0.41922 2.6e-4 0.83842 4e-3 1.2576 0.0102 0.22869 8e-3 0.40097-0.26415 0.31324-0.4703-0.14061-0.22704-0.44797-0.23841-0.68626-0.27042-0.59446-0.073-1.1893-0.14306-1.7839-0.21489-0.81495-0.16824-1.6223-0.37063-2.4337-0.55484-0.7174-0.16626-1.4348-0.3325-2.1522-0.49876-0.63738-0.20125-1.288-0.38878-1.8687-0.72842-0.42734-0.23687-0.85017-0.48191-1.2658-0.73877-0.74052-0.46234-1.4477-0.97634-2.1275-1.5237-0.52413-0.41582-1.0359-0.84715-1.5444-1.2819-1.088-0.94254-2.152-1.9121-3.2211-2.8759-0.38653-0.34996-0.77349-0.70255-1.1155-1.0969-0.21102-0.25358-0.39237-0.53164-0.52933-0.83212-0.22833-0.46927-0.3567-0.98085-0.42493-1.4966-0.10386-0.65283-0.16136-1.312-0.21271-1.9707-0.0555-0.74501-0.086-1.4919-0.10048-2.2388-0.0122-1.3135 0.0296-2.627 0.0153-3.9404-0.0134-0.38063-0.0757-0.75954-0.18788-1.1236-0.17855-0.62849-0.34032-1.2618-0.53192-1.8866-0.11381-0.32607-0.22404-0.65395-0.36785-0.96836-0.0867-0.2477-0.29208-0.43608-0.52554-0.54584-0.26444-0.11761-0.52203-0.25075-0.78278-0.37666-0.25751-0.12288-0.5066-0.26603-0.7746-0.36516-0.16335-0.0559-0.34205-0.0728-0.5108-0.0313z" fill="#ffb380" style="paint-order:normal"/>
  <ellipse cx="67.039" cy="237.06" rx="6.03" ry="5.6291" fill="#ffb380" style="paint-order:normal"/>
  <path d="m61.66 233.31c-0.45529 0.15084-0.91128 0.44328-1.0715 0.91873-0.54026 1.1291-1.0024 2.2987-1.3429 3.5038-0.23648 0.87461-0.37422 1.7737-0.4528 2.6751-0.012361 0.26875 0.1128 0.53091 0.33203 0.6875 0.46822 0.39203 1.1113 0.58957 1.4405 1.1344 0.14567 0.23376 0.21577 0.59489-0.004958 0.80504-0.2728 0.22799-0.65424 0.2064-0.98377 0.28203-0.34045 0.05958-0.74132 0.13694-0.94201 0.44844-0.20253 0.4018-0.04576 0.89336 0.21394 1.231 0.34 0.42486 0.80904 0.71729 1.2208 1.0658 0.51092 0.40153 1.0231 0.80362 1.5566 1.1743 0.39408 0.23028 0.8782 0.08944 1.2602-0.09576 0.25615-0.12291 0.47444-0.35674 0.50021-0.64967 0.061251-0.60202-0.081872-1.2047-0.036841-1.8077 0.078216-0.30332 0.48502-0.40611 0.73438-0.25 0.50707 0.22276 0.96156 0.5672 1.5059 0.70117 0.46727 0.0315 0.9002-0.18467 1.3008-0.39843 0.38534-0.28954 0.44524-0.80282 0.54161-1.2406 0.20126-0.91095 0.41227-1.8376 0.37047-2.7759-0.11675-0.72372-0.51649-1.3531-0.79866-2.0185-0.3568-0.75545-0.6388-1.5483-1.0552-2.2742-0.38984-0.56342-0.9899-0.92313-1.5373-1.3142-0.65966-0.44386-1.3323-0.87816-1.9096-1.4292-0.2316-0.20343-0.51479-0.41611-0.84181-0.37326z" fill="#2b1100" style="paint-order:normal"/>
  <path d="m59.799 257.64c-0.93149 0.30364-1.7286 0.89477-2.513 1.4636-1.1097 0.81702-2.1554 1.7172-3.2604 2.5403-0.89047 0.55674-1.9833 0.69838-3.0122 0.57803-1.184-0.11223-2.3579-0.32799-3.5468-0.38565-0.80292-0.03806-1.6051 0.03311-2.4073 0.05786-3.2259 0.13379-6.4502 0.30082-9.6746 0.46565-2.0937 0.11354-4.1884 0.21544-6.2794 0.3704-1.3262 0.13147-2.6447 0.32788-3.9648 0.50856-1.2788 0.18428-2.5657 0.34059-3.8214 0.65282-0.34431 0.08799-0.6738 0.25538-0.91083 0.52549-0.51568 0.54377-0.77223 1.2751-0.92437 1.9958-0.091587 0.41033-0.15843 0.82565-0.23548 1.2388 0.18076 0.7604 0.89277 1.3414 1.6663 1.4033 1.0234 0.09003 2.0387-0.12759 3.0594-0.16083 0.91512-0.03136 1.8312-0.00716 2.7467-0.01208 6.4943 0.01805 12.989 0.03746 19.483 0.06115 6.2409 0.02316 12.482 0.04878 18.723 0.07952 0.77151-0.0577 1.5689-0.18343 2.2377-0.59682 0.44391-0.27714 0.81643-0.7272 0.87946-1.2606 0.026632-0.60785-0.17207-1.1935-0.34612-1.7672-0.43274-1.3104-1.0896-2.5519-1.3374-3.9192-0.12247-0.70308-0.19234-1.4141-0.32037-2.1163-0.1754-0.46473-0.62669-0.75131-1.0703-0.92451-0.88798-0.36507-1.8377-0.54636-2.7825-0.69233-0.73767-0.10384-1.4834-0.1292-2.2273-0.14684-0.053385 0.01368-0.10677 0.02735-0.16016 0.04102z" fill="#5f1646" style="paint-order:normal"/>
 </g>
</svg>
