<?xml version="1.0" encoding="UTF-8"?>
<!-- Created with Inkscape (http://www.inkscape.org/) -->
<svg width="10cm" height="10cm" version="1.1" viewBox="0 0 100 100" xmlns="http://www.w3.org/2000/svg" xmlns:cc="http://creativecommons.org/ns#" xmlns:dc="http://purl.org/dc/elements/1.1/" xmlns:rdf="http://www.w3.org/1999/02/22-rdf-syntax-ns#">
 <metadata>
  <rdf:RDF>
   <cc:Work rdf:about="">
    <dc:format>image/svg+xml</dc:format>
    <dc:type rdf:resource="http://purl.org/dc/dcmitype/StillImage"/>
    <dc:title/>
    <dc:creator>
     <cc:Agent>
      <dc:title>Moritz Mockenhaupt</dc:title>
     </cc:Agent>
    </dc:creator>
    <dc:date>6. 12. 2020</dc:date>
   </cc:Work>
  </rdf:RDF>
 </metadata>
 <g transform="translate(0 -197)">
  <g fill="#ffb380">
   <path d="m30.089 232c-0.29322 7e-3 -0.58201 0.0637-0.87328 0.093-1.5809 0.19466-3.1602 0.40503-4.7456 0.56075-0.84358 0.0766-1.6893 0.14031-2.5366 0.14907-0.79764 7e-3 -1.5967-0.0178-2.3928 0.0448-0.3466 0.0419-0.62961 0.26405-0.94349 0.39682-0.10039 0.0418-0.21721 0.13113-0.18557 0.2548 0.0092 0.1556 0.16342 0.25142 0.30466 0.2732 0.75173 0.22983 1.5343 0.33763 2.3161 0.39857 1.1978 0.10406 2.3964 0.20292 3.5909 0.3415 0.74301 0.085 1.4866 0.179 2.2352 0.19352 0.84474 0.0235 1.6898 1e-3 2.5347 8.5e-4 1.4076-8e-3 2.8153-0.0167 4.2229-0.0251 1.2728 0.32349 2.5332 0.69821 3.8206 0.96197 1.4161 0.30313 2.8329 0.60317 4.2501 0.90092 0.96375 0.52213 1.8241 1.2071 2.6965 1.8649 0.19878 0.15848 0.43347 0.31393 0.69898 0.29744 0.1681-0.0146 0.36213-0.047 0.46494-0.19679 0.15363-0.24392 0.16131-0.54151 0.17444-0.82055 0.01233-0.60725-0.01435-1.2144-0.02219-1.8216-0.0014-0.16786-0.03368-0.34197 0.06848-0.48882 0.18292-0.38868 0.40785-0.75525 0.62244-1.1268 0.10074-0.29455 0.09997-0.60966 0.0916-0.91709-0.04998-0.25434-0.30102-0.42013-0.54583-0.45026-0.7371-0.0979-1.482-0.0982-2.2237-0.1296-1.0372-0.0344-2.0767-0.0513-3.1129 0.0197-0.40604 0.0281-0.81592 0.0383-1.2195-0.0233-1.9351-0.22258-3.87-0.4464-5.8048-0.67136-1.1416-0.0468-2.2841-0.0663-3.4264-0.0813-0.01995 2.5e-4 -0.0399 5.1e-4 -0.05986 7.6e-4z" style="paint-order:normal"/>
   <path d="m67.965 231.03c-1.8629 0.38259-3.7258 0.76517-5.5887 1.1478-0.89301 0.0905-1.7875 0.16882-2.684 0.21447-1.4906 0.0851-2.9812 0.1694-4.4718 0.25346-0.66035 0.0611-1.3203 0.12622-1.9799 0.19534-0.14855 7e-3 -0.36883 0.01-0.41075 0.18895-0.03265 0.14941 0.07638 0.27333 0.13043 0.40258 0.05383 0.12495 0.07827 0.2605 0.08498 0.39573 0.03691 0.30194 0.06234 0.61706 0.2141 0.88777 0.14656 0.23165 0.38054 0.38368 0.57407 0.57149 0.16792 0.16965 0.26877 0.39334 0.32868 0.6218 0.05753 0.18902 0.07075 0.3913 0.03237 0.58547-0.04042 0.22002-0.13542 0.42478-0.23433 0.62379-0.07008 0.11383-0.02644 0.35202 0.14721 0.29877 0.26596-0.0438 0.50435-0.17901 0.7607-0.256 0.46712-0.14829 0.94303-0.26614 1.4133-0.40352 2.5091-0.70704 5.0176-1.416 7.527-2.1218 0.26851-0.08 0.54578-0.12266 0.81907-0.1824 0.52655-0.10458 1.0555-0.20082 1.5898-0.25574 0.99825-0.11434 1.998-0.21528 2.9974-0.31876 2.2806-0.2329 4.5608-0.47009 6.8408-0.70811 0.71314-0.0885 1.4199-0.2291 2.1111-0.42584 0.74684-0.20774 1.4936-0.41583 2.2404-0.6237 0.13692-0.0457 0.28715-0.11064 0.35205-0.24941 0.03426-0.10708-0.0434-0.21861-0.1431-0.25491-0.12651-0.049-0.2672-0.011-0.39987-0.0188-0.5033 0.0122-1.0066-0.014-1.5084-0.0517-1.405-0.098-2.8113-0.17909-4.2185-0.23778-2.1534-0.0942-4.3068-0.18808-6.4603-0.28217-0.02134 1e-3 -0.04267 2e-3 -0.06401 3e-3z" opacity=".99" style="paint-order:normal"/>
   <path d="m48.706 230.02c-0.32347 0.0509-0.62609 0.25219-0.77524 0.54697-0.16077 0.284-0.22732 0.6068-0.32799 0.91424-0.07819 0.26205-0.18511 0.5146-0.29725 0.76367-0.08115 0.16681-0.17231 0.32868-0.25577 0.49415-0.0755 0.15247-0.0983 0.32483-0.08581 0.49326 0.01472 0.2203 0.05885 0.43741 0.08377 0.65667 0.04376 0.32634 0.08167 0.65583 0.05912 0.98553-0.01493 0.45094-0.05328 0.9009-0.05735 1.3522 0.01504 0.3753 0.13717 0.73923 0.31393 1.0682 0.19988 0.39522 0.45621 0.75768 0.69918 1.1268 0.22693 0.32051 0.45831 0.64953 0.77996 0.8829 0.16022 0.13045 0.38128 0.14922 0.57794 0.11242 0.24659-0.0383 0.46126-0.17602 0.67384-0.29798 0.40282-0.24532 0.79068-0.52256 1.2305-0.69993 0.39364-0.16611 0.80085-0.30255 1.1787-0.50397 0.19349-0.11091 0.35439-0.27484 0.46356-0.46918 0.19343-0.31998 0.26547-0.69672 0.28696-1.0656 0.02347-0.43083-0.01553-0.86144-0.03322-1.2917-0.02132-0.39134-0.04264-0.78269-0.06396-1.174-0.03372-0.25367-0.1354-0.50014-0.30239-0.69527-0.30254-0.24846-0.66753-0.4001-0.99435-0.6114-0.2299-0.15943-0.42539-0.39335-0.47525-0.67495-0.06637-0.32823-0.06213-0.66487-0.08886-0.99749-0.0068-0.15121-0.02886-0.31679-0.14048-0.42941-0.15828-0.18671-0.4012-0.27743-0.63805-0.31067-0.23604-0.0351-0.47352 0.0167-0.71009-1e-3 -0.23531-0.0187-0.45951-0.0965-0.69074-0.13837-0.13458-0.0288-0.27304-0.0431-0.41067-0.036z" opacity=".9" style="paint-order:normal"/>
   <path d="m63.612 260.65c-0.1967 0.10465-0.28183 0.3318-0.32385 0.53829-0.08565 0.42748-0.0091 0.86352 0.02417 1.2924 0.08205 0.8849 0.2438 1.7664 0.54141 2.6056 0.18804 0.54363 0.42668 1.0675 0.66042 1.5925 0.17359 0.38774 0.33041 0.78376 0.44368 1.1937 0.35255 1.1877 0.69546 2.3783 1.0434 3.5674 0.08551 0.75826-0.0381 1.5173-0.07861 2.2742 0.0012 0.21201-0.05907 0.42855 0.0041 0.63668 0.1179 0.34392 0.47451 0.58591 0.83774 0.56835 0.7376 0.0276 1.456-0.19204 2.1913-0.20643 0.68356 7e-3 1.3568 0.14159 2.0376 0.18749 1.0058 0.0888 2.0184 0.11619 3.0267 0.0549 0.18167-8e-3 0.36501-0.0411 0.52523-0.13132 0.12997-0.0618 0.27854-0.16456 0.27178-0.32611 0.0018-0.17611-0.13247-0.34269-0.30565-0.37702-0.58484-0.17991-1.1935-0.29411-1.7493-0.55853-0.5501-0.25227-1.0849-0.5363-1.6221-0.81449-0.31611-0.17096-0.63642-0.34105-0.91942-0.56418-0.35029-0.29065-0.65207-0.66245-0.78248-1.1048-0.23116-0.69052-0.314-1.4176-0.43058-2.1332-0.15745-1.0306-0.31247-2.0617-0.47612-3.0913-0.18744-0.89362-0.43501-1.7731-0.67848-2.6526-0.27247-0.93342-0.56353-1.8613-0.84394-2.7923-0.05454-0.17578-0.19299-0.34198-0.38328-0.36943-0.25002 9e-3 -0.47695 0.12793-0.70436 0.22008-0.36881 0.15743-0.73969 0.34619-1.1483 0.36279-0.37766 0.0296-0.75742-0.0239-1.1347 0.019l-0.02603 8e-3z" style="paint-order:normal"/>
   <path d="m29.19 265.12c-0.53837 0.58827-1.0759 1.1774-1.6113 1.7687-0.35698 0.39255-0.7152 0.78388-1.0783 1.17-1.5197 1.5912-3.0395 3.1824-4.5592 4.7736-0.17945 0.15998-0.35889 0.31995-0.53834 0.47993-0.10319 0.12877-0.20072 0.26293-0.28644 0.40537-0.05238 0.13458-0.09846 0.27715-0.08984 0.42408 0.01647 0.15855 0.09219 0.30837 0.20205 0.41538 0.09515 0.0972 0.20869 0.17218 0.33114 0.22491 0.12036 0.0482 0.25012 0.0794 0.38003 0.0617 0.15663-5e-3 0.30282-0.0756 0.45833-0.0888 0.16083-4.6e-4 0.319 0.041 0.47792 0.0633 0.18186 0.0309 0.36373 0.0726 0.54934 0.0683 0.14403-1e-3 0.2891-0.0193 0.4282-0.0619 0.15064-0.0381 0.30152-0.12987 0.37041-0.28332 0.07099-0.14242 0.05762-0.30857 0.06426-0.4636 0.0029-0.19373-0.0075-0.38772 6e-3 -0.5813 0.02019-0.17262 0.12697-0.31393 0.24559-0.42718 0.25095-0.2497 0.50852-0.49176 0.76308-0.73728 0.20552-0.17933 0.41495-0.35465 0.6391-0.50709 0.2026-0.13836 0.40783-0.27234 0.61533-0.40218 1.0074-0.6296 2.0152-1.2582 3.0227-1.8877 0.38708-0.24251 0.77614-0.48147 1.1597-0.73039 0.34219-0.21865 0.68376-0.43857 1.0183-0.67034 0.27112-0.18252 0.53291-0.38011 0.79136-0.58228 0.18802-0.14072 0.36454-0.29804 0.53476-0.46217 0.13598-0.13584 0.2686-0.27557 0.39571-0.42075 0.20837-0.25606 0.39777-0.53032 0.55401-0.8251 0.08856-0.18381 0.17062-0.37287 0.2178-0.57337 0.03495-0.14956 0.04921-0.30486 0.03828-0.45798-0.01045-0.14942-0.03836-0.29747-0.0847-0.4386-0.04758-0.15384-0.11621-0.29885-0.17938-0.44572-0.17387-0.38494-0.35571-0.76566-0.53583-1.1473-0.07094-0.14528-0.2165-0.26242-0.3779-0.2453-0.15857 0.019-0.30191 0.10153-0.44879 0.16299-0.32197 0.14444-0.64393 0.28889-0.9659 0.43333-0.18729 0.10562-0.37428 0.21352-0.54625 0.34623-0.28956 0.2145-0.57011 0.44232-0.85064 0.66987-0.27849 0.22745-0.55697 0.45489-0.83546 0.68233-0.09167 0.0965-0.18334 0.19295-0.27502 0.28943z" style="paint-order:normal"/>
   <ellipse cx="50.828" cy="226.76" rx="3.8443" ry="4.0179" style="paint-order:normal"/>
  </g>
  <path d="m66.947 257.97c-0.19007-0.65915-0.38272-1.3475-0.7532-1.7428-0.39598-0.38243-0.89734-0.49588-1.3569-0.7114-1.1663-0.49354-2.3275-1.0032-3.5195-1.419-0.70095-0.26005-1.4105-0.49492-2.1405-0.65983-0.78831-0.19314-1.5711-0.40653-2.3724-0.55367-0.4793-0.0755-0.9685-0.1259-1.4053-0.34485-0.26306-0.12795-0.51678-0.28648-0.74664-0.49596-0.19677-0.26095-0.21431-0.76192-0.20132-1.2328 0.022-0.72743-0.01702-1.4243-0.12479-2.0574-0.07626-0.5088-0.13436-1.0425-0.09793-1.6308 0.05066-1.4896 0.28185-3.0486 0.46933-4.5859 0.1536-1.2542 0.32382-2.5138 0.44283-3.7577 0.05966-0.84701 0.07011-1.6721 0.05146-2.4775-0.06451-0.57642-0.30721-0.94811-0.49102-1.3792-0.29328-0.63316-0.58657-1.2663-0.87985-1.8995-0.32837-0.35291-0.74998-0.48194-1.1581-0.62535-0.12422-0.0243-0.2972 0.27469-0.25235 0.46349 0.0489 0.51916 0.14711 0.99528 0.20563 1.5063 0.07583 0.54757 0.13655 1.1094 0.16558 1.6946-0.02128 0.56607-0.38222 1.2132-0.73313 1.364-0.59562 0.30311-1.1692 0.34665-1.7203 0.33508-0.53805-0.0234-1.0555-0.14149-1.5342-0.37044-0.31594-0.17199-0.54176-0.54875-0.7227-0.97188-0.27184-0.58628-0.46781-1.2792-0.61282-2.0187-0.09689-0.55191-0.16176-1.136-0.2951-1.6517-0.15554-0.34065-0.45759-0.39399-0.74832-0.37768-0.11707 2e-3 -0.27463 0.0658-0.36305 0.28474-0.14777 0.3215-0.14128 0.6677-0.19631 0.99673-0.11773 0.85734-0.34716 1.7269-0.60589 2.5773-0.24118 0.86255-0.47346 1.7395-0.59044 2.6039-0.09301 0.83881 9e-3 1.5735 0.07279 2.3158 0.06698 0.6452 0.09652 1.3188 0.1235 1.9934 0.02956 0.66862 0.05912 1.3372 0.08868 2.0058-0.01813 0.41925-0.20951 0.86029-0.41483 1.2095-0.79694 1.4789-1.6231 2.9218-2.4903 4.2938-0.79438 1.2756-1.5828 2.5626-2.3912 3.8126-1.0588 1.5346-2.2119 2.8129-3.3488 4.1123-1.1848 1.3281-2.3996 2.524-3.6061 3.7537-0.26853 0.29603-0.46103 0.87412-0.40048 1.2741 0.05735 0.2621 0.19879 0.41141 0.32431 0.56951 0.55713 0.6677 1.2188 1.1414 1.9694 1.3259 0.32842 2e-3 0.68503-0.31895 1.0239-0.5647 2.3185-1.7761 4.6378-3.5425 6.9539-5.348 0.89931-0.72169 1.7986-1.4434 2.6979-2.1651 0.57704-0.37819 1.1311-0.38657 1.6519-0.34134 1.0772 0.0747 2.1252 0.26685 3.1793 0.43268 2.2495 0.38428 4.4944 0.78616 6.7286 1.2268 1.9589 0.38166 3.9162 0.76878 5.8727 1.1592 0.22493 0.0846 0.38427 0.34563 0.45997 0.6906 0.11222 0.36576 0.34828 0.57824 0.63412 0.55839 0.57507 0.0392 1.1908-0.13752 1.7921-0.24504 0.43773-0.0883 0.87606-0.18087 1.3147-0.27572 0.16657-0.0683 0.32457-0.42365 0.28885-0.65785-0.01681-0.64206-0.0853-1.25-0.19096-1.819-0.0156-0.0598-0.03119-0.11955-0.04679-0.17932z" fill="#fff" opacity=".9" style="paint-order:normal"/>
  <path d="m50.704 222.04c-0.22305-0.0322-0.4461-0.0645-0.66914-0.0967-0.17119 0.0116-0.34458 0.0356-0.51778 0.0666-0.31736 0.0841-0.63472 0.16819-0.95208 0.25229-0.14133 0.0818-0.25873 0.18623-0.40582 0.26233-0.14555 0.0828-0.33195 0.10229-0.46067 0.0521-0.14421-0.0577-0.24224-0.15605-0.33011-0.25563-0.10385-0.11647-0.20481-0.23458-0.30508-0.35308-0.0907-0.0983-0.19534-0.18967-0.32763-0.25806-0.11487-0.0651-0.26192-0.0978-0.41481-0.11403-0.16145-0.0203-0.33584-0.0138-0.51066 0.01-0.17585 0.0271-0.35172 0.0739-0.52352 0.13143-0.17533 0.0566-0.34794 0.12244-0.5175 0.19346-0.16725 0.072-0.32222 0.16792-0.44584 0.28154-0.1152 0.10041-0.21133 0.21283-0.26832 0.3308-0.06112 0.12448-0.10176 0.252-0.10933 0.37508-0.01159 0.13028 0.02009 0.25278 0.06664 0.3677 0.04414 0.10125 0.09619 0.20752 0.21937 0.26271 0.12272 0.0589 0.29971 0.0142 0.45229 7e-3 0.17877-0.0203 0.31849 0.0722 0.30214 0.20404 0.0052 0.12537-0.09847 0.26426-0.0456 0.38143 0.05345 0.10971 0.16016 0.19304 0.23531 0.29204 0.09315 0.12655 0.16666 0.26335 0.21101 0.41046 0.04476 0.13943 0.0501 0.28995 0.07045 0.43607 0.04222 0.5306 0.0747 1.0633 0.11232 1.5949 0.02093 0.30556 0.04186 0.61112 0.06279 0.91668 0.0269 0.15775 0.04868 0.31744 0.10423 0.46663 0.04923 0.15458 0.12341 0.30028 0.20973 0.43987 0.07198 0.11117 0.15947 0.21461 0.24873 0.31666 0.25804 0.28924 0.51757 0.57769 0.78654 0.86053 0.12182 0.12856 0.2464 0.25591 0.39108 0.36976 0.10133 0.0713 0.21783 0.14302 0.37857 0.14557 0.13578 8e-3 0.29144-0.0403 0.40388-0.12393 0.11117-0.0852 0.17417-0.19541 0.20121-0.29953 0.0425-0.14486 0.05042-0.28754 0.03906-0.42541-0.01319-0.1423-0.06033-0.27513-0.10701-0.40731-0.15243-0.39185-0.31744-0.77904-0.46876-1.1713-0.05479-0.14386-0.11792-0.28477-0.16077-0.43284-0.06125-0.19346-0.10728-0.39187-0.1423-0.5932-0.01714-0.14668-0.02043-0.29761 0.01049-0.45223 0.02482-0.12649 0.0535-0.25552 0.12467-0.38161 0.0605-0.11153 0.17369-0.21909 0.32055-0.28099 0.13921-0.062 0.29772-0.0743 0.42849-0.0515 0.15939 0.0282 0.28331 0.10485 0.36153 0.20441 0.08262 0.0894 0.1323 0.19602 0.18177 0.30115 0.1226 0.27135 0.23392 0.54706 0.34838 0.82155 0.06421 0.12699 0.13671 0.25103 0.23479 0.36161 0.09579 0.10038 0.17951 0.22808 0.36883 0.2477 0.14977 0.01 0.32273-0.0927 0.35406-0.20984 0.05824-0.14378 0.08252-0.28729 0.11932-0.43069 0.18004-0.74988 0.34617-1.499 0.5139-2.2482 0.04908-0.18124 0.10046-0.36302 0.17957-0.54413 0.04359-0.11861 0.12547-0.23984 0.25415-0.33431 0.12611-0.0905 0.28334-0.14349 0.43423-0.19417 0.15832-0.0571 0.32072-0.10119 0.47887-0.15819 0.14082-0.0548 0.2722-0.15914 0.29217-0.2714 0.03242-0.11257-0.03118-0.20522-0.08717-0.29146-0.10987-0.15701-0.24544-0.30308-0.42592-0.41542-0.11854-0.0749-0.23839-0.1491-0.36976-0.21287-0.21085-0.10319-0.42588-0.20333-0.66031-0.28211-0.08999-0.027-0.18226-0.051-0.27522-0.0741z" style="paint-order:normal"/>
 </g>
</svg>
