<?xml version="1.0" encoding="UTF-8"?>
<!-- Created with Inkscape (http://www.inkscape.org/) -->
<svg width="10cm" height="10cm" version="1.1" viewBox="0 0 100 100" xmlns="http://www.w3.org/2000/svg" xmlns:cc="http://creativecommons.org/ns#" xmlns:dc="http://purl.org/dc/elements/1.1/" xmlns:rdf="http://www.w3.org/1999/02/22-rdf-syntax-ns#">
 <metadata>
  <rdf:RDF>
   <cc:Work rdf:about="">
    <dc:format>image/svg+xml</dc:format>
    <dc:type rdf:resource="http://purl.org/dc/dcmitype/StillImage"/>
    <dc:title/>
   </cc:Work>
  </rdf:RDF>
 </metadata>
 <g transform="translate(0 -197)">
  <path d="m40.192 289.66s-1.4108 3.1037 0.5643 3.3858c1.9751 0.28215 11.098 1.0346 10.534-0.56431-0.56431-1.5989-7.4301-3.1037-7.4301-3.1037z" fill="#ffb380" stroke-width=".13938"/>
  <path d="m45.004 256.01s0.1881 2.3513 1.5989 2.7275c0.52904 0.14108 0.92582-0.12785 1.2151-0.51912a2.3098 2.3098 0 0 0 0.07384-2.5914l-0.34846-0.55754z" fill="#ffb9b9" stroke-width=".13938"/>
  <g>
   <path d="m41.859 229.11c-0.20056 0.02522-0.39959 0.08392-0.57227 0.1875-0.20493 0.14467-0.40462 0.30627-0.54688 0.51562-0.13172 0.20747-0.26544 0.427-0.29492 0.67578-0.032916 0.31851 0.058983 0.63025 0.11133 0.94141 0.050643 0.29825 0.10102 0.59679 0.12695 0.89843 0.046625 0.46269 0.091765 0.9256 0.15234 1.3867 0.080669 0.46427 0.20611 0.91892 0.33242 1.3724 0.24179 0.87548 0.50726 1.7442 0.76304 2.6157 0.35315 1.1973 0.70842 2.394 1.0599 3.5918 0.13232 0.48352 0.27169 0.96642 0.35636 1.4612 0.03729 0.31074 0.062819 0.62296 0.078125 0.93555-5.3e-5 0.30612-0.004171 0.61262-0.027343 0.91797-0.036604 0.29778-0.081322 0.59494-0.14213 0.88879-0.097534 0.41625-0.22632 0.82659-0.40943 1.2136-0.20425 0.47028-0.46769 0.91178-0.7375 1.3468-0.43377 0.6874-0.892 1.3588-1.3412 2.0362-0.23979 0.35969-0.47958 0.71937-0.71937 1.0791-0.12547 0.2285-0.26821 0.45597-0.31445 0.71679-0.026319 0.25843-0.015369 0.51944 0.025189 0.77581 0.039876 0.21299 0.095977 0.4307 0.22753 0.6073 0.15849 0.20608 0.38067 0.35522 0.60017 0.48987 0.26224 0.15017 0.54561 0.26258 0.8383 0.33723 0.28056 0.07362 0.56701 0.12215 0.85177 0.17651 0.89026 0.14787 1.782 0.28667 2.6737 0.42531 0.88978 0.13187 1.7781 0.27448 2.67 0.3911 0.27024 0.03335 0.54329 0.06934 0.81561 0.03922 0.25924-0.02434 0.51452-0.09489 0.74879-0.20866 0.21876-0.10537 0.4027-0.27216 0.53972-0.4716 0.15918-0.21342 0.28334-0.45124 0.38026-0.6988 0.092798-0.25551 0.14922-0.52218 0.19001-0.79045 0.098578-0.61267 0.17135-1.2292 0.25618-1.8438 0.033291-0.28872 0.08021-0.57521 0.14088-0.85944 0.049701-0.28368 0.10709-0.56637 0.21625-0.83414 0.24463-0.6551 0.51394-1.3007 0.7714-1.9508 0.43749-1.0968 0.88171-2.1909 1.314-3.2897 0.1108-0.30599 0.20975-0.61617 0.30692-0.92669 0.083843-0.27905 0.1638-0.56052 0.2048-0.84956 0.055624-0.32521 0.10886-0.65165 0.12187-0.98188 0.020511-0.29146 0.032048-0.58354 0.023371-0.87571-0.003139-0.36872-0.019324-0.73805-0.071179-1.1034-0.061304-0.4372-0.1278-0.87464-0.23661-1.303-0.07335-0.29326-0.1537-0.58472-0.24504-0.87293-0.10558-0.34794-0.24399-0.68472-0.37933-1.0218-0.15615-0.36392-0.33667-0.71671-0.50783-1.0737-0.28571-0.5879-0.59938-1.1616-0.90748-1.7379-0.31647-0.58392-0.63632-1.166-0.96312-1.7442-0.14959-0.26433-0.32739-0.51174-0.52802-0.73967-0.17359-0.18493-0.36248-0.36038-0.58789-0.48047-0.4727-0.21629-0.95872-0.40191-1.4418-0.59344-0.23266-0.08542-0.45442-0.21633-0.70663-0.23469-0.28056-0.02441-0.52439 0.22267-0.5293 0.49805-0.024956 0.2889 0.06362 0.57098 0.10468 0.85446 0.04922 0.26286 0.096204 0.52937 0.078918 0.79789-0.027025 0.35788-0.13555 0.70171-0.22656 1.0469-0.084213 0.26879-0.14884 0.54748-0.28572 0.7959-0.13872 0.27738-0.43315 0.42244-0.71918 0.50098-0.27998 0.08426-0.56883 0.13341-0.85643 0.18359-0.45739 0.065-0.92142 0.09625-1.3828 0.06055-0.27369-0.03153-0.55578-0.14444-0.70966-0.38514-0.1648-0.24605-0.25025-0.53413-0.34554-0.81188-0.088596-0.28892-0.15357-0.58466-0.19989-0.88325-0.042289-0.22694-0.05752-0.47731 0.055954-0.68699 0.12829-0.2049 0.36623-0.30063 0.54582-0.4532 0.15854-0.11593 0.30445-0.25258 0.40331-0.42408 0.10093-0.18581 0.15503-0.39889 0.1459-0.6108-0.009703-0.19698-0.082705-0.38987-0.19403-0.55125-0.10196-0.15352-0.24392-0.27664-0.41085-0.35357-0.20067-0.08395-0.41924-0.13843-0.63813-0.11831l-0.048287 0.00279-0.004988 2.9e-4z" fill="#fff" opacity=".984" style="paint-order:normal"/>
   <path d="m39.977 280.2c-0.27534 0.0475-0.54308 0.17586-0.72656 0.39062-0.10124 0.8606 0.12959 1.7093 0.2361 2.5576 0.30906 2.0407 0.5853 4.0862 0.86689 6.1308 0.033345 0.25283 0.08959 0.53997 0.31498 0.69438 0.35792 0.26905 0.82746 0.25708 1.2534 0.26666 0.70908 0.02385 1.4184 2.2e-4 2.1274-0.01276 0.3979-0.08855 0.63243-0.51136 0.62849-0.89795 0.05833-1.3888-0.063136-2.776-0.10382-4.1636-0.047709-1.2717-0.089959-2.5435-0.13014-3.8154-0.038297-0.53369-0.55585-0.99252-1.0952-0.92517-0.58803 0.02398-1.1894 0.15296-1.7685-0.01275-0.52742-0.1114-1.0598-0.24103-1.6031-0.21247z" fill="#ffb380" opacity=".974" style="paint-order:normal"/>
   <path d="m40.078 252.86c-0.25931 0.10027-0.4782 0.27603-0.70117 0.4375-0.28275 0.52814-0.26795 1.1464-0.2832 1.7285 0.027913 1.7018 0.40418 3.3698 0.71132 5.0365 0.080603 0.42665 0.1612 0.8533 0.24181 1.28 0.099677 2.6614-0.02808 5.3242-0.17422 7.9813-0.12314 2.0657-0.30216 4.1275-0.49779 6.1874-0.17012 1.7608-0.31281 3.524-0.44127 5.2883 0.20306 0.37827 0.6429 0.55381 1.0527 0.58008 1.0293 0.10888 2.0745 0.02316 3.0957 0.21289 0.37396 0.06567 0.72912 0.20963 1.1035 0.27148 0.31724 0.0432 0.64166-0.10797 0.8251-0.3673 0.1555-0.19226 0.20834-0.44383 0.20407-0.68639 0.062685-1.7122 0.10141-3.4252 0.15442-5.1377 0.58325-1.9779 1.1811-3.9542 1.6305-5.968 0.4157-1.8875 0.76952-3.7878 1.129-5.6866 0.13061-0.71585 0.26581-1.4314 0.37638-2.1505 0.1915-1.7246 0.41218-3.4525 0.39933-5.191-0.029229-0.54561-0.22635-1.119-0.66992-1.4648-0.57021-0.46289-1.3128-0.63382-2.0297-0.69399-0.94099-0.06848-1.9099-9.1e-4 -2.8182-0.30265-0.72929-0.2364-1.362-0.68147-2.0299-1.0442-0.36107-0.18695-0.7537-0.33877-1.1652-0.34587-0.03776 0.01172-0.075521 0.02344-0.11328 0.03516z" fill="#f2f2f2" opacity=".979" style="paint-order:normal"/>
   <path d="m47.006 206.17c-0.31897 0.08571-0.48475 0.39585-0.6669 0.64308-0.28992 0.40889-0.69348 0.72599-1.13 0.96629-0.23629 0.19845-0.23 0.5348-0.23828 0.81641-0.035396 0.98119-0.042312 1.9641-0.11719 2.9434-0.092138 1.2289-0.47929 2.4199-0.50079 3.6561-0.027259 1.153 0.18479 2.2919 0.3469 3.4287 0.083733 0.47961-0.001462 0.96477-0.052005 1.443-0.1171 0.82825-0.28092 1.6494-0.44822 2.4688-0.40876 1.8552-0.93782 3.6806-1.4069 5.5208-0.41386 1.5733-0.79751 3.1627-0.94818 4.7862-0.04621 0.76211 0.58771 1.4721 1.3331 1.5755 0.52024 0.05003 1.0446 0.01261 1.5663 0.00596 0.28117-0.01336 0.5666-0.00137 0.84414-0.05116 0.44658-0.13495 0.73193-0.56267 0.85133-0.99352 0.34964-1.0739 0.64275-2.1652 0.96216-3.2483l0.71581-2.4769c0.18457-1.4183 0.1786-2.8511 0.2094-4.2785 0.022677-1.7495 0.06722-3.4993 0.032785-5.2489-0.060596-1.1207-0.20206-2.2354-0.25572-3.3567-0.051064-0.83666-0.048403-1.6752-0.086212-2.5124-0.049475-1.1796-0.13148-2.3585-0.27962-3.5301-0.08253-0.72303-0.16506-1.4461-0.24759-2.1691-0.062345-0.20562-0.24615-0.43012-0.48438-0.38867z" fill="#ffb380" opacity=".956" style="paint-order:normal"/>
   <ellipse cx="39.499" cy="224.92" rx="4.583" ry="5.0318" fill="#ffb380" opacity=".974" style="paint-order:normal"/>
   <ellipse cx="45.685" cy="204.48" rx="1.8458" ry="3.6298" fill="#c5b79f" opacity=".977" style="paint-order:normal"/>
  </g>
  <path d="m38.764 221.65c-0.37604-0.87529-1.3796-1.3622-2.3352-1.337-0.95557 0.0252-1.8446 0.48512-2.6012 1.0637-1.0198 0.7802-1.8691 1.8192-2.2738 3.038-0.32247 0.96996-0.35442 2.0084-0.51287 3.0168a12.085 12.085 0 0 1-1.9797 4.9713c-1.1376 1.6509-2.7634 3.2137-2.7592 5.2205 0.0049 3.6718 5.3218 5.4887 5.6098 9.1461 0.07773 0.98624-0.23945 1.9585-0.32525 2.9439-0.08581 0.9854 0.14151 2.1196 0.98283 2.6404 0.40342 0.25035 0.897 0.32155 1.3734 0.32502 2.0461 0.0258 4.0553-1.1039 5.1509-2.8296 1.0955-1.7257 1.269-3.9907 0.5067-5.8894-0.19059-0.47554-0.44011-0.94745-0.44128-1.4586-5e-3 -1.0217 0.93669-1.7529 1.5616-2.5629 1.3906-1.8037 1.1966-4.6362-0.43323-6.232-0.69715-0.6785-1.6718-1.2711-1.7565-2.2414-0.06806-0.78307 0.49353-1.4587 0.852-2.1632 0.65711-1.287 0.52339-2.726-0.03323-4.0172-0.25525-0.59217-0.77016-0.97595-0.85905-1.6152-0.10328-0.6939 0.627-1.19 0.27318-2.0192z" stroke-width=".094937"/>
 </g>
</svg>
